<?xml version="1.0" encoding="UTF-8" standalone="no"?>
<!-- Created with Inkscape (http://www.inkscape.org/) -->

<svg
   xmlns:dc="http://purl.org/dc/elements/1.1/"
   xmlns:cc="http://creativecommons.org/ns#"
   xmlns:rdf="http://www.w3.org/1999/02/22-rdf-syntax-ns#"
   xmlns:svg="http://www.w3.org/2000/svg"
   xmlns="http://www.w3.org/2000/svg"
   xmlns:sodipodi="http://sodipodi.sourceforge.net/DTD/sodipodi-0.dtd"
   xmlns:inkscape="http://www.inkscape.org/namespaces/inkscape"
   id="svg3455"
   version="1.1"
   inkscape:version="0.91 r13725"
   width="500"
   height="500"
   viewBox="0 0 500 500"
   sodipodi:docname="bg_shroom.svg">
  <metadata
     id="metadata3461">
    <rdf:RDF>
      <cc:Work
         rdf:about="">
        <dc:format>image/svg+xml</dc:format>
        <dc:type
           rdf:resource="http://purl.org/dc/dcmitype/StillImage" />
        <dc:title></dc:title>
      </cc:Work>
    </rdf:RDF>
  </metadata>
  <defs
     id="defs3459" />
  <sodipodi:namedview
     pagecolor="#ffffff"
     bordercolor="#666666"
     borderopacity="1"
     objecttolerance="10"
     gridtolerance="10"
     guidetolerance="10"
     inkscape:pageopacity="0"
     inkscape:pageshadow="2"
     inkscape:window-width="1366"
     inkscape:window-height="705"
     id="namedview3457"
     showgrid="false"
     inkscape:zoom="0.5625"
     inkscape:cx="543.92445"
     inkscape:cy="378.78775"
     inkscape:window-x="1432"
     inkscape:window-y="-8"
     inkscape:window-maximized="1"
     inkscape:current-layer="svg3455" />
  <g
     id="g3465"
     transform="matrix(0.48828034,0,0,0.9765625,9.2773265e-4,0)">
    <path
       style="fill:#78b51c"
       d="M 0,256 0,0 l 512,0 512,0 0,256 0,256 -512,0 -512,0 0,-256 z"
       id="path3481"
       inkscape:connector-curvature="0" />
    <path
       style="fill:#76b21b"
       d="M 0,408.01905 0,304.0381 2.25,303.58201 c 1.2375,-0.25085 7.4036027,-0.72294 13.702451,-1.04909 17.018257,-0.88121 38.948462,-4.36474 113.646189,-18.05224 7.20426,-1.3201 20.14176,-2.95243 28.75,-3.6274 L 174,279.62606 l 0,-29.37877 c 0,-18.11232 -0.39228,-30.11175 -1.02292,-31.29011 -2.12677,-3.97392 -4.73301,-4.44043 -27.69388,-4.95718 -27.25818,-0.61346 -25.72902,0.22513 -25.76082,-14.12713 l -0.0224,-10.10046 4.29379,-3.81094 c 4.91595,-4.36313 21.56628,-11.74635 33.50261,-14.856 19.14952,-4.98883 40.02311,-4.81613 58.50716,0.48406 11.08394,3.17825 27.80881,11.29688 31.69644,15.38618 2.91876,3.07016 3,3.42368 3,13.05424 0,14.16552 1.50537,13.35708 -26.01298,13.97005 l -22.44664,0.5 -2.77019,2.77172 -2.77019,2.77173 0,29.72827 0,29.72828 12,0.70543 c 25.42399,1.49457 51.4594,5.24139 79,11.36906 18.22572,4.05516 40.862,8.42551 43.63998,8.42551 1.8159,0 1.86497,-2.26598 1.61639,-74.64217 L 332.5,150.71565 l -2.8191,-2.10782 c -2.61703,-1.95675 -4.42445,-2.14367 -25.21679,-2.60783 -27.46542,-0.61313 -25.90992,0.23395 -25.94173,-14.12713 l -0.0224,-10.10046 4.29379,-3.81094 c 4.91595,-4.36313 21.56628,-11.74635 33.50261,-14.856 19.14952,-4.988826 40.02311,-4.816128 58.50716,0.48406 11.0834,3.17809 27.80861,11.29675 31.69644,15.38591 2.91873,3.06987 3,3.42348 3,13.05286 0,14.16699 1.50483,13.35874 -26.01298,13.9717 l -22.44664,0.5 -2.77019,2.77241 -2.77019,2.7724 -0.26876,75.15884 c -0.15356,42.94375 0.11244,75.54003 0.62058,76.04817 1.55613,1.55613 28.97507,3.83647 48.64818,4.04591 l 19,0.20227 0.26149,-39.11802 c 0.2369,-35.43984 0.10524,-39.24797 -1.40019,-40.5 -1.20518,-1.00233 -5.72369,-1.47018 -16.44802,-1.70305 -11.66838,-0.25336 -15.05014,-0.63891 -16.03731,-1.82838 -0.71333,-0.8595 -1.25097,-4.25178 -1.25097,-7.89301 0,-7.91291 1.28929,-9.57213 10.875,-13.99534 12.68484,-5.85326 17.65972,-6.91117 32.5,-6.91117 14.98955,0 20.49854,1.19962 32,6.96823 9.21043,4.61953 10.5,6.33061 10.5,13.93203 0,9.42335 -0.21531,9.54871 -16.39994,9.54871 -10.74042,0 -14.12943,0.33227 -15.87755,1.5567 L 440,229.11341 l 0,39.04737 0,39.04738 8.25,-0.69577 c 13.16747,-1.1105 41.19092,-4.35649 48.30285,-5.59498 l 6.5245,-1.13619 -0.28868,-8.11425 c -0.37376,-10.50597 -0.59829,-10.63241 -18.91623,-10.65223 -16.122,-0.0174 -16.24744,-0.0912 -16.24744,-9.5572 0,-7.91291 1.28929,-9.57213 10.875,-13.99534 12.68484,-5.85326 17.65972,-6.91117 32.5,-6.91117 14.98955,0 20.49854,1.19962 32,6.96823 9.21043,4.61953 10.5,6.33061 10.5,13.93203 C 553.5,280.87464 553.28469,281 537.10006,281 519.75581,281 519,281.39906 519,290.5567 c 0,3.54382 0.14079,6.4433 0.31287,6.4433 1.51745,0 50.22527,-10.17009 73.68713,-15.38572 31.2761,-6.95275 74.22047,-14.45183 99.33845,-17.34677 11.76885,-1.35641 23.21728,-1.74186 51.16155,-1.72255 31.74565,0.0219 38.06809,0.29689 53.5,2.32668 14.60718,1.92131 48.50545,7.77111 56.75,9.7933 l 2.25,0.55188 0,-33.55171 c 0,-33.53776 -9.2e-4,-33.55235 -2.22251,-35.10841 C 852.03553,205.33659 848.66996,205 838.21175,205 830.87297,205 823.9981,204.53417 822.93426,203.96482 821.29345,203.08668 821,201.82358 821,195.63913 c 0,-8.70356 0.94549,-9.92616 11.31113,-14.62616 21.58979,-9.78928 47.00623,-9.12023 67.01751,1.76414 2.65575,1.44449 5.46825,3.86322 6.25,5.37496 1.89552,3.66554 1.81993,11.83387 -0.13534,14.62542 -1.48004,2.11305 -2.23244,2.22251 -15.2775,2.22251 -10.79992,0 -14.19391,0.33139 -15.94329,1.5567 L 872,208.11341 l 0,35.44329 c 0,19.49382 0.14581,35.4433 0.32402,35.4433 0.17821,0 7.49071,1.77263 16.25,3.93918 42.15488,10.42671 84.17122,17.01923 119.41388,18.73648 8.7279,0.42528 13.9332,1.10263 14.75,1.91935 0.9999,0.99993 1.2621,22.77878 1.2621,104.83356 L 1024,512 512,512 0,512 0,408.01905 Z"
       id="path3479"
       inkscape:connector-curvature="0" />
    <path
       style="fill:#74ae1b"
       d="m 0,408.20118 0,-103.79882 16.75,-1.22458 c 9.2125,-0.67353 20.834564,-1.85417 25.826809,-2.62367 C 56.058402,298.4761 119.49646,287.19617 127,285.54282 c 7.33799,-1.61687 31.17376,-4.39971 41,-4.78678 l 6.5,-0.25604 0.26512,-29.90246 c 0.23024,-25.96993 0.0556,-30.22217 -1.32779,-32.33352 C 170.43246,213.678 166.73411,213 144.72325,213 c -15.98135,0 -20.75703,-0.30399 -22.28212,-1.41834 -1.6338,-1.19379 -1.995,-2.90623 -2.28139,-10.81601 -0.32888,-9.0835 -0.24576,-9.50997 2.48655,-12.75714 3.23304,-3.84225 16.505,-10.4691 28.85371,-14.40703 20.10271,-6.41061 41.36983,-7.1709 60.88805,-2.17672 12.41486,3.17662 31.12227,12.01614 34.87909,16.48087 C 249.79746,190.91275 250,191.81477 250,200.07673 250,213.4154 250.77248,213 225.96788,213 c -21.03548,0 -24.5679,0.58895 -28.23277,4.70718 -1.61736,1.81743 -1.74275,4.52495 -1.5,32.38802 L 196.5,280.5 l 7,0.22442 c 22.68088,0.72713 54.47412,5.08001 82.56664,11.30436 C 303.82716,295.96392 329.93037,301 332.56657,301 333.79828,301 334,290.54711 334,226.72251 334,159.67076 333.84137,152.21853 332.36931,150.11687 329.24325,145.6538 325.58303,145 303.72325,145 c -15.98135,0 -20.75703,-0.30399 -22.28212,-1.41834 -1.6338,-1.19379 -1.995,-2.90623 -2.28139,-10.81601 -0.32888,-9.0835 -0.24576,-9.50997 2.48655,-12.75714 3.23304,-3.84225 16.505,-10.4691 28.85371,-14.40703 20.10271,-6.410611 41.36983,-7.170905 60.88805,-2.17672 12.41486,3.17662 31.12227,12.01614 34.87909,16.48087 C 408.79746,122.91275 409,123.81477 409,132.07673 409,145.4154 409.77248,145 384.96788,145 c -21.02514,0 -24.56882,0.58982 -28.22417,4.69767 -1.64736,1.8513 -1.74039,6.71298 -1.5,78.38802 L 355.5,304.5 l 9.5,1.23541 c 5.225,0.67947 20.8625,1.53124 34.75,1.89282 l 25.25,0.65742 0,-38.70857 c 0,-23.33689 -0.38873,-39.43491 -0.97889,-40.53764 C 422.40058,226.01145 417.35888,225 403.88596,225 389.13324,225 389,224.91885 389,215.93382 c 0,-4.59839 0.38386,-5.55717 3.3293,-8.31574 3.49643,-3.2746 13.67228,-7.63511 23.98015,-10.27587 9.31385,-2.3861 28.90307,-1.41068 38.24906,1.90457 9.11412,3.23299 13.29271,5.37453 16.69149,8.55447 2.36877,2.21625 2.75,3.35227 2.75,8.19471 0,8.68398 -0.23116,8.8115 -16.64659,9.18348 -12.25863,0.27778 -14.42883,0.57618 -16.26146,2.23592 -2.09327,1.8958 -2.1122,2.31441 -1.85341,41 L 439.5,307.5 l 6,-0.28297 c 7.97522,-0.37613 42.18207,-4.10656 51,-5.5618 l 7,-1.15523 0.30341,-6.46915 c 0.16687,-3.55803 0.0384,-7.52518 -0.2856,-8.81589 C 502.52434,281.25663 497.59645,280 483.0673,280 468.10998,280 468,279.93383 468,270.93382 c 0,-4.59839 0.38386,-5.55717 3.3293,-8.31574 3.49643,-3.2746 13.67228,-7.63511 23.98015,-10.27587 9.31385,-2.3861 28.90307,-1.41068 38.24906,1.90457 9.11412,3.23299 13.29271,5.37453 16.69149,8.55447 2.36877,2.21625 2.75,3.35227 2.75,8.19471 0,8.68398 -0.23116,8.8115 -16.64659,9.18348 C 518.83304,280.57645 518,281.04924 518,290.59597 c 0,3.4573 0.35679,6.5065 0.79287,6.77602 0.89483,0.55303 40.16818,-7.4092 77.70713,-15.75425 30.09201,-6.68957 78.65671,-14.85307 102,-17.14572 13.53043,-1.32889 24.04118,-1.57619 51.5,-1.21171 37.88204,0.50284 47.75969,1.48409 83.96541,8.34121 10.19402,1.93068 19.43459,3.59766 20.53459,3.7044 1.9589,0.19009 2.00541,-0.48663 2.26332,-32.92868 0.24967,-31.40461 0.16359,-33.24608 -1.65937,-35.5 -1.84744,-2.2842 -2.51535,-2.38988 -17.06577,-2.70009 -15.09223,-0.32178 -15.14626,-0.33123 -16.09063,-2.8151 -1.60834,-4.23026 -1.12664,-10.86466 0.98363,-13.54743 1.06215,-1.35031 5.02978,-3.88334 8.81694,-5.62895 20.80937,-9.59166 45.44779,-9.67794 64.17448,-0.22474 C 905.03846,186.5626 906,187.83535 906,195.3 c 0,3.56667 -0.52063,6.82063 -1.2,7.5 -0.81625,0.81625 -5.57003,1.2 -14.86514,1.2 -12.33128,0 -13.92356,0.20327 -16.31254,2.08245 l -2.6474,2.08244 0.26254,35.56575 0.26254,35.56575 8.5,2.34491 c 34.75717,9.5885 84.31081,17.78752 123.492,20.43267 8.8044,0.59439 17.0205,1.27948 18.258,1.52242 l 2.25,0.44171 0,103.98095 L 1024,512 512,512 0,512 0,408.20118 Z"
       id="path3477"
       inkscape:connector-curvature="0" />
    <path
       style="fill:#72ac1a"
       d="m 0,408 0,-104 10.75,-0.0204 c 14.3982,-0.0273 32.145089,-2.48898 79.25,-10.9926 48.27591,-8.71501 53.95428,-9.59745 70.99284,-11.03262 7.42106,-0.62507 13.83356,-1.34708 14.25,-1.60445 0.41644,-0.25738 0.75716,-13.51374 0.75716,-29.4586 0,-32.08405 -0.21186,-33.32193 -6.26693,-36.61669 -2.74005,-1.49095 -6.51163,-1.80788 -24.73307,-2.07831 -18.44697,-0.27378 -21.6775,-0.55052 -22.75,-1.94884 -0.79144,-1.03187 -1.25,-5.00666 -1.25,-10.83502 l 0,-9.20528 3.66857,-3.22104 c 6.64288,-5.83253 27.23494,-13.88949 42.21242,-16.51627 12.03042,-2.10991 28.26882,-1.88478 40.25635,0.55812 14.81926,3.01997 31.35867,9.95657 38.32574,16.07374 l 3.53692,3.10545 0,8.96215 c 0,13.64396 1.35372,12.82642 -21.28518,12.85453 -22.23025,0.0276 -26.1435,0.6744 -29.97944,4.95519 l -2.76461,3.08522 0.26461,30.21786 L 195.5,280.5 l 8.5,0.69616 c 27.22818,2.23003 35.26998,3.09156 49.14175,5.26463 8.44704,1.32326 24.58325,4.43282 35.85825,6.91014 23.58999,5.18314 43.91285,8.80096 45.14858,8.03724 0.46828,-0.28941 0.84479,-33.68715 0.83668,-74.21719 -0.0113,-56.54737 -0.30264,-74.25985 -1.25224,-76.13624 -0.68063,-1.34489 -2.81149,-3.36989 -4.73526,-4.5 -3.18279,-1.86971 -5.4338,-2.08278 -24.99776,-2.36613 -18.453,-0.26725 -21.67715,-0.54235 -22.75,-1.94113 -0.79144,-1.03187 -1.25,-5.00666 -1.25,-10.83502 l 0,-9.20528 3.66857,-3.22104 c 6.64288,-5.83253 27.23494,-13.88949 42.21242,-16.51627 12.03042,-2.10991 28.26882,-1.88478 40.25635,0.55812 14.81926,3.01997 31.35867,9.95657 38.32574,16.07374 l 3.53692,3.10545 0,9.69641 c 0,6.20832 -0.43168,10.12809 -1.2,10.89641 -0.84757,0.84757 -6.79488,1.20701 -20.25,1.22386 -22.04075,0.0276 -25.9848,0.68126 -29.8,4.93883 l -2.75,3.06886 0,75.92521 c 0,53.06521 0.32364,76.12523 1.0749,76.58953 2.53711,1.56802 24.1547,3.49101 46.11737,4.10237 l 23.69228,0.65951 0.59815,-2.40408 c 0.32898,-1.32225 0.46746,-19.43173 0.30773,-40.24328 L 425.5,228.82162 423.13922,226.91081 C 421.07665,225.24138 419.07876,225 407.32347,225 399.92325,225 392.9981,224.53417 391.93426,223.96482 390.33661,223.10978 390,221.83491 390,216.63913 c 0,-5.24723 0.37316,-6.63171 2.25,-8.34784 7.73174,-7.06971 31.42958,-13.31748 45.17263,-11.90946 8.61537,0.88267 16.90152,3.14816 24.57737,6.71964 9.82275,4.5704 11,6.01923 11,13.53766 0,5.19578 -0.33661,6.47065 -1.93426,7.32569 C 470.0019,224.53417 463.05956,225 455.63832,225 c -19.39508,0 -17.72598,-4.21109 -17.39992,43.89961 L 438.5,307.5 l 4.38121,0.31391 c 4.66771,0.33444 38.58025,-3.08815 52.18845,-5.26706 4.49032,-0.71898 8.5799,-1.92365 9.08797,-2.67704 0.50807,-0.7534 0.78173,-4.68115 0.60815,-8.72834 C 504.30706,280.44629 503.56833,280 486.32347,280 478.92325,280 471.9981,279.53417 470.93426,278.96482 469.33661,278.10978 469,276.83491 469,271.63913 c 0,-5.24723 0.37316,-6.63171 2.25,-8.34784 7.73174,-7.06971 31.42958,-13.31748 45.17263,-11.90946 8.61537,0.88267 16.90152,3.14816 24.57737,6.71964 9.82275,4.5704 11,6.01923 11,13.53766 0,5.19578 -0.33661,6.47065 -1.93426,7.32569 C 549.0019,279.53417 542.05956,280 534.63832,280 c -13.3858,0 -13.50965,0.021 -15.56574,2.63486 -1.60373,2.03881 -2.07258,4.07475 -2.07258,9 0,6.00609 0.13195,6.36514 2.33914,6.36514 3.38335,0 37.59169,-6.91886 71.39092,-14.43927 25.06946,-5.57802 65.27999,-12.94494 89.76994,-16.44663 17.90137,-2.55963 36.36535,-3.30444 70.5,-2.84387 39.11939,0.52782 47.9595,1.39213 84.43346,8.25517 10.76822,2.02618 20.25087,3.42598 21.07256,3.11066 1.28304,-0.49235 1.4919,-5.13115 1.47924,-32.85468 -0.011,-23.96668 -0.33962,-32.9253 -1.27607,-34.78138 -1.87625,-3.71879 -6.77736,-4.88072 -20.8522,-4.94356 C 821.51754,202.99243 822,203.29009 822,194.50711 c 0,-4.68676 0.35956,-5.63188 2.98217,-7.83866 4.0603,-3.41651 17.79831,-8.58936 27.51783,-10.36143 9.15492,-1.66914 20.18012,-1.21193 29.72844,1.23282 8.24854,2.11195 20.45303,7.99647 21.7984,10.51031 0.58709,1.09699 0.93372,4.79697 0.7703,8.22219 L 904.5,202.5 889.66286,203 c -14.75292,0.49716 -14.85085,0.51593 -17.25,3.30576 L 870,209.11153 l 0,34.88522 c 0,24.07705 0.33737,35.09372 1.08891,35.5582 2.26345,1.39889 31.97894,8.60397 52.91109,12.82929 23.71076,4.7862 60.8697,9.47711 88.75,11.20371 l 11.25,0.6967 0,103.85768 L 1024,512 512,512 0,512 0,408 Z"
       id="path3475"
       inkscape:connector-curvature="0" />
    <path
       style="fill:#70a91a"
       d="m 0,408.71172 0,-103.28828 17.25,-1.19479 c 9.4875,-0.65714 25.35,-2.56624 35.25,-4.24244 24.238956,-4.10399 60.73343,-10.61147 73,-13.01693 C 137.59236,284.59798 159.37363,282 167.16208,282 176.78099,282 176,284.78114 176,250.52787 176,209.97733 177.65082,212 144.55517,212 l -20.50906,0 -1.6264,-2.4822 c -1.26239,-1.92665 -1.54732,-4.36526 -1.27306,-10.89572 0.43078,-10.25716 1.18934,-11.28148 12.33312,-16.65393 35.36024,-17.04729 70.39308,-16.97976 103.66792,0.19981 10.70182,5.52528 11.28086,6.33921 11.70566,16.45412 0.27426,6.53046 -0.0107,8.96907 -1.27306,10.89572 l -1.6264,2.4822 -20.57581,0 c -16.94927,0 -21.18138,0.28736 -24.01156,1.63036 -6.43884,3.05543 -6.36652,2.64099 -6.36652,36.48516 0,34.96002 -0.9485,31.88396 9.83179,31.88532 16.99365,0.002 49.2738,4.29623 76.16821,10.13235 C 304.34592,297.19928 329.44684,302 332.5894,302 l 2.4106,0 0,-75.31144 0,-75.31144 -2.14162,-2.29876 C 328.64421,144.55498 325.44185,144 303.55517,144 l -20.50906,0 -1.6264,-2.4822 c -1.26239,-1.92665 -1.54732,-4.36526 -1.27306,-10.89572 0.43078,-10.25716 1.18934,-11.28148 12.33312,-16.65393 35.36024,-17.047286 70.39308,-16.979763 103.66792,0.19981 10.70182,5.52528 11.28086,6.33921 11.70566,16.45412 0.27426,6.53046 -0.0107,8.96907 -1.27306,10.89572 l -1.6264,2.4822 -20.57581,0 c -17.04678,0 -21.17201,0.28291 -24.05184,1.64948 -6.73803,3.1974 -6.36508,-1.88773 -6.08249,82.93453 L 354.5,305.5 365,306.84213 c 5.87979,0.75157 21.5005,1.4116 35.5,1.5 l 25,0.15787 0.26131,-39.56506 0.26131,-39.56506 -2.5888,-2.43494 c -2.45366,-2.30783 -3.32861,-2.45084 -16.76131,-2.73948 C 390.49967,223.84793 390,223.60326 390,216.03138 c 0,-6.13994 1.60756,-8.09349 9.74755,-11.84545 21.11874,-9.73426 44.47049,-9.64796 64.09915,0.23687 3.89146,1.95971 7.54292,4.4367 8.11435,5.50441 1.42167,2.65643 1.31229,11.39945 -0.16105,12.87279 -0.80165,0.80165 -5.23351,1.2 -13.35078,1.2 -12.841,0 -17.86648,1.04262 -19.47033,4.03944 -1.30098,2.43091 -1.32424,79.62909 -0.0242,80.43254 2.33602,1.44374 62.35618,-5.65514 64.77314,-7.66104 0.82812,-0.68728 1.2722,-3.74473 1.2722,-8.75907 0,-6.98483 -0.24038,-7.92934 -2.57749,-10.12756 -2.4397,-2.29472 -3.33507,-2.44059 -16.75,-2.72885 C 469.49967,278.84793 469,278.60326 469,271.03138 c 0,-6.13994 1.60756,-8.09349 9.74755,-11.84545 21.11874,-9.73426 44.47049,-9.64796 64.09915,0.23687 3.89146,1.95971 7.54292,4.4367 8.11435,5.50441 1.42167,2.65643 1.31229,11.39945 -0.16105,12.87279 -0.80165,0.80165 -5.23351,1.2 -13.35078,1.2 -12.841,0 -17.86648,1.04262 -19.47033,4.03944 -1.2102,2.26128 -1.30043,14.64381 -0.11206,15.37826 0.97955,0.60539 31.38186,-5.26998 59.13317,-11.42772 10.175,-2.25773 24.42435,-5.41772 31.66522,-7.0222 16.15998,-3.58083 61.70183,-11.23486 81.33478,-13.6696 11.76898,-1.4595 21.8455,-1.79176 53.5,-1.7641 43.60405,0.0381 51.13766,0.73156 92.434,8.50842 11.2387,2.11646 20.8012,3.62116 21.25,3.34378 1.18416,-0.73185 1.02822,-67.12122 -0.16289,-69.34684 C 855.40058,204.01145 850.35888,203 836.88596,203 c -11.64694,0 -12.90999,-0.17638 -13.85078,-1.93426 -1.29559,-2.42083 -1.33707,-8.14151 -0.083,-11.44008 1.23316,-3.24344 12.87153,-8.91874 24.12608,-11.76478 11.17982,-2.82714 29.18613,-2.3066 38.9217,1.12518 9.25902,3.26379 15.61383,6.62452 17.43039,9.21802 1.8678,2.66666 2.1174,11.84813 0.36961,13.59592 -0.80882,0.80882 -5.38881,1.2 -14.04966,1.2 -13.32839,0 -17.79211,1.06051 -19.12916,4.5448 C 870.27953,208.43513 870,225.0892 870,244.55385 l 0,35.39028 5.25,1.51044 c 37.70417,10.84757 95.22757,20.27963 135.5,22.21781 l 13.25,0.63768 0,103.84497 L 1024,512 512,512 0,512 0,408.71172 Z"
       id="path3473"
       inkscape:connector-curvature="0" />
    <path
       style="fill:#6fa819"
       d="m 0,408.65284 0,-103.34716 14.25,-0.60949 c 17.66036,-0.75535 25.33012,-1.85758 74.75,-10.74239 53.53291,-9.62425 53.89352,-9.68055 70.70904,-11.03958 8.13503,-0.65747 15.35346,-1.63723 16.04096,-2.17725 0.94763,-0.74435 1.25,-7.85412 1.25,-29.39153 0,-31.59573 -0.35985,-33.76537 -6.18982,-37.31981 -3.03084,-1.84784 -5.01357,-2.01847 -23.49508,-2.02189 -11.1017,-0.002 -21.3392,-0.4426 -22.75,-0.97899 C 122.05155,210.0691 122,209.85179 122,200.21184 c 0,-9.43008 0.1141,-9.94697 2.754,-12.47616 5.32957,-5.10605 26.54974,-13.55084 40.99639,-16.31494 9.843,-1.88328 29.95043,-1.81498 40.23873,0.13668 13.9728,2.6506 33.31187,10.64718 39.26088,16.23413 2.63552,2.47512 2.75,2.98867 2.75,12.33652 0,6.70498 -0.39073,10.00678 -1.25,10.56291 -0.6875,0.44496 -11.29811,1.03402 -23.57914,1.30902 l -22.32913,0.5 -3.42087,3.73531 -3.42086,3.73532 0,29.89224 c 0,22.71949 0.29994,30.12963 1.25,30.88156 0.6875,0.54413 6.65,1.29122 13.25,1.66021 24.00272,1.34194 50.65999,5.17459 77.9403,11.20587 27.63756,6.11025 46.87121,9.37585 48.28942,8.19884 1.98223,-1.64511 1.84227,-145.50462 -0.14619,-150.26369 -2.74026,-6.55836 -4.40989,-6.98801 -29.32264,-7.54566 -18.38482,-0.41153 -22.50476,-0.76542 -23.28377,-2 -0.52057,-0.825 -0.95339,-5.57831 -0.96181,-10.56291 -0.0145,-8.59398 0.12718,-9.19943 2.73869,-11.70141 5.32957,-5.10605 26.54974,-13.55084 40.99639,-16.31494 9.843,-1.88328 29.95043,-1.81498 40.23873,0.13668 13.9728,2.6506 33.31187,10.64718 39.26088,16.23413 2.63552,2.47512 2.75,2.98867 2.75,12.33652 0,6.70498 -0.39073,10.00678 -1.25,10.56291 -0.6875,0.44496 -11.29811,1.03402 -23.57914,1.30902 l -22.32913,0.5 -3.42087,3.73531 -3.42086,3.73532 0,75.89224 c 0,64.45504 0.21469,76.07042 1.42462,77.07457 2.36852,1.96569 28.80212,4.2783 50.57538,4.42471 l 20.5,0.13785 0.26124,-40.12534 c 0.24928,-38.28915 0.17338,-40.23401 -1.65865,-42.5 -1.83326,-2.26752 -2.61208,-2.39722 -17.26124,-2.87466 L 391.5,223.5 l -0.30071,-6.36523 c -0.36544,-7.73548 0.36085,-8.7172 9.58676,-12.95827 22.13979,-10.17745 48.85779,-9.07584 66.71395,2.75068 l 4,2.64929 0,6.96177 0,6.96176 -14.72601,0.5 c -21.24101,0.72121 -19.20639,-3.72741 -19.56442,42.77676 -0.15973,20.74778 -0.0387,38.73574 0.26906,39.97324 0.47448,1.90821 1.22874,2.25 4.96519,2.25 9.74019,0 59.13887,-6.00602 61.52428,-7.48029 C 504.54368,301.16399 505,297.19821 505,292.55177 505,279.70715 504.87739,279.62042 485.84135,279 L 470.5,278.5 l -0.30071,-6.36523 c -0.36544,-7.73548 0.36085,-8.7172 9.58676,-12.95827 22.13979,-10.17745 48.85779,-9.07584 66.71395,2.75068 l 4,2.64929 0,6.96177 0,6.96176 -14.72601,0.5 c -17.98551,0.61067 -18.97057,1.17739 -19.51817,11.22905 -0.54542,10.01177 -1.29729,9.81668 20.94697,5.43538 10.61347,-2.09046 34.37221,-7.11067 52.79721,-11.15602 31.4351,-6.90182 77.14859,-15.07041 97.5,-17.42239 18.86712,-2.18043 47.60194,-3.33644 69,-2.77587 24.76906,0.64888 46.48133,3.06813 75,8.35674 10.45,1.93789 20.6875,3.76486 22.75,4.05994 l 3.75,0.53651 0,-35.05909 0,-35.05909 -2.63486,-2.07258 C 852.99988,203.21206 851.37114,203 839.44693,203 c -7.30585,0 -13.99516,-0.27314 -14.86514,-0.60699 -1.21152,-0.4649 -1.58179,-2.0865 -1.58179,-6.92742 0,-7.52493 1.01087,-8.62005 12.28446,-13.30833 20.51535,-8.53158 42.45413,-7.86701 61.7656,1.87099 C 903.17555,187.1171 905,189.85892 905,195.97562 905,202.46013 903.73067,203 888.48434,203 c -12.69291,0 -13.51546,0.12265 -16.17858,2.41246 l -2.80576,2.41246 -0.28599,35.43523 c -0.22643,28.05669 -0.0164,35.65897 1.00873,36.50974 3.27063,2.71439 50.51225,13.39487 78.27726,17.69709 24.90923,3.85971 70.7631,8.13677 73.9837,6.9009 1.3491,-0.51769 1.5163,10.89941 1.5163,103.52513 L 1024,512 512,512 0,512 0,408.65284 Z"
       id="path3471"
       inkscape:connector-curvature="0" />
    <path
       style="fill:#6da519"
       d="M 0.00636323,408.75 0.01272646,305.5 11.119033,305.2861 c 6.108469,-0.11764 16.568105,-0.91725 23.243637,-1.7769 11.241315,-1.44762 67.06179,-11.05098 90.13733,-15.50723 13.1548,-2.5404 23.74686,-3.89762 38.32163,-4.91035 6.57041,-0.45655 12.44843,-1.14049 13.06228,-1.51987 C 176.66577,281.08853 177,271.77633 177,250.47578 l 0,-30.40619 -3.08227,-3.5105 c -1.72905,-1.96929 -4.69251,-3.95776 -6.75,-4.52922 -2.01725,-0.5603 -12.46523,-1.02123 -23.21773,-1.02429 -13.86564,-0.004 -19.89891,-0.35449 -20.75,-1.20558 -0.75245,-0.75245 -1.2,-4.49899 -1.2,-10.04545 0,-8.1358 0.2035,-9.04896 2.53653,-11.38199 5.5495,-5.5495 27.96491,-14.23219 43.96347,-17.02942 12.58135,-2.19975 30.70507,-1.35586 43.83721,2.04119 10.97124,2.83807 29.24685,11.10882 33.13227,14.99424 2.32592,2.32592 2.53052,3.24571 2.53052,11.37598 0,5.54646 -0.44755,9.293 -1.2,10.04545 -0.84989,0.84989 -6.79444,1.2 -20.375,1.2 -10.54625,0 -20.61628,0.28826 -22.37784,0.64057 -1.76157,0.35231 -4.74282,2.09295 -6.625,3.86808 l -3.42216,3.2275 0,31.15668 0,31.15667 2.5651,0.97525 c 1.4108,0.53639 6.2483,0.98007 10.75,0.98596 18.48803,0.0242 48.28688,4.27778 83.58457,11.93119 26.30308,5.70315 41.7469,8.4077 43.70965,7.65452 1.17035,-0.4491 1.39068,-12.33448 1.39068,-75.01798 0,-54.80316 -0.3096,-75.16384 -1.17171,-77.05595 -0.64443,-1.41438 -2.78193,-3.57306 -4.75,-4.79705 -3.35924,-2.0892 -4.89363,-2.24525 -25.06455,-2.54907 -13.03173,-0.19629 -21.98352,-0.73633 -22.75,-1.37245 C 281.4182,141.10218 281,137.8023 281,131.8321 c 0,-8.21881 0.20018,-9.12319 2.53653,-11.45954 5.5495,-5.5495 27.96491,-14.23219 43.96347,-17.02942 12.58135,-2.19975 30.70507,-1.35586 43.83721,2.04119 10.97124,2.83807 29.24685,11.10882 33.13227,14.99424 2.32592,2.32592 2.53052,3.24571 2.53052,11.37598 0,5.54646 -0.44755,9.293 -1.2,10.04545 -0.84989,0.84989 -6.79444,1.2 -20.375,1.2 -10.54625,0 -20.61628,0.28826 -22.37784,0.64057 -1.76157,0.35231 -4.74282,2.09295 -6.625,3.86808 l -3.42216,3.2275 0,77.07291 c 0,59.86592 0.27431,77.24244 1.22867,77.83226 2.74336,1.69549 22.67778,3.43533 46.122,4.02544 20.67627,0.52044 24.99916,0.39099 25.73468,-0.77062 0.48621,-0.76788 0.89092,-18.82654 0.89934,-40.13036 L 427,230.03155 l -2.88493,-3.2288 -2.88493,-3.2288 -14.86507,-0.53697 L 391.5,222.5 l -0.31579,-4.41979 c -0.56666,-7.93077 0.0923,-8.87089 9.21341,-13.1452 12.36894,-5.79628 19.69703,-7.21146 34.60238,-6.68232 13.89009,0.49311 22.01749,2.61341 31.31586,8.1698 l 5.18414,3.09786 0,6.48982 0,6.48983 -14,0.55411 c -14.27066,0.56482 -17.60447,1.40406 -19.47708,4.90307 -1.63781,3.06027 -1.37839,79.50292 0.27446,80.87466 2.51465,2.08698 63.59899,-4.87107 66.27752,-7.54959 0.97714,-0.97714 1.4251,-3.75523 1.4251,-8.8379 0,-6.75794 -0.25486,-7.69803 -2.88493,-10.6416 l -2.88493,-3.2288 -14.86507,-0.53697 L 470.5,277.5 l -0.31579,-4.41979 c -0.56666,-7.93077 0.0923,-8.87089 9.21341,-13.1452 12.36894,-5.79628 19.69703,-7.21146 34.60238,-6.68232 13.89009,0.49311 22.01749,2.61341 31.31586,8.1698 l 5.18414,3.09786 0,6.48982 0,6.48983 -14,0.55411 c -14.27066,0.56482 -17.60447,1.40406 -19.47708,4.90307 -1.55333,2.90242 -1.317,15.71599 0.30132,16.337 1.5907,0.61041 38.86987,-6.78668 76.41471,-15.16254 31.75513,-7.08423 79.92995,-15.32415 102.68853,-17.56405 20.846,-2.05167 71.72509,-2.1144 90.57252,-0.11166 16.78309,1.78337 35.00372,4.59191 54.5,8.40064 10.38996,2.02975 15.38417,2.61813 16.25,1.91445 1.53837,-1.25028 1.81368,-65.15824 0.29787,-69.14512 C 856.42157,203.34841 853.52411,202.53531 838,202 l -14.5,-0.5 -0.31579,-4.41979 c -0.49194,-6.88506 0.31761,-8.49121 5.77775,-11.46299 10.72373,-5.83658 18.56341,-7.84669 32.60629,-8.3603 14.69832,-0.53757 23.33949,1.14373 34.29076,6.67191 7.69534,3.88459 8.30382,4.78366 7.94341,11.7368 L 903.5,201.5 l -14,0.5 c -14.34713,0.5124 -17.53214,1.32302 -19.47708,4.95718 -0.64217,1.1999 -1.02292,15.1365 -1.02292,37.44189 0,32.82547 0.13323,35.59981 1.75,36.4401 2.31198,1.20163 36.31405,9.36885 52.75,12.67044 27.57,5.53815 68.54423,10.5353 88.744,10.82308 l 11.7441,0.16731 0.01,103.75 0,103.75 -512,0 -512,0 0.00636323,-103.25 z"
       id="path3469"
       inkscape:connector-curvature="0" />
    <path
       style="fill:#6ca319"
       d="M 0.00356984,408.75 0.00713968,305.5 14.25357,305.41433 C 30.585346,305.31613 35.9796,304.5639 90,294.85148 c 50.34923,-9.05236 53.56939,-9.54728 71,-10.91229 11.09365,-0.86876 14.79365,-1.50973 15.75,-2.72848 0.93444,-1.19082 1.25,-8.89077 1.25,-30.50071 0,-41.06849 1.60382,-38.98037 -30.5,-39.71 -12.1,-0.275 -22.5625,-0.86406 -23.25,-1.30902 -0.85218,-0.55154 -1.25,-3.76436 -1.25,-10.09501 0,-10.87113 -0.25658,-10.50618 11.5,-16.35722 10.1085,-5.03082 21.1488,-8.73237 32.29019,-10.82612 11.81467,-2.22028 34.45522,-1.47399 45.34668,1.49474 9.90214,2.69906 23.82215,8.54781 29.71152,12.48383 L 246.5,189.5 l 0.28634,9.76093 c 0.28466,9.70335 0.271,9.76677 -2.3151,10.75 -1.43079,0.54399 -11.36949,0.98907 -22.086,0.98907 -21.64857,0 -23.90063,0.51721 -27.42572,6.29855 -1.82178,2.98781 -1.95229,5.21196 -1.95578,33.32901 -0.003,22.91142 0.29566,30.36451 1.24626,31.11687 0.6875,0.54413 6.65,1.29122 13.25,1.66021 25.35005,1.41727 51.38025,5.18509 80,11.57985 28.8011,6.43528 46.38962,9.35201 48.05584,7.96917 1.23514,-1.02508 1.44394,-11.92732 1.44261,-75.3261 -0.002,-82.80012 0.32337,-78.94546 -6.98285,-82.79275 C 326.97761,143.23507 324.00727,143 306.8307,143 295.99543,143 285.9759,142.56114 284.5651,142.02475 282.06353,141.07366 282,140.81743 282,131.67974 c 0,-10.96647 -0.26699,-10.58476 11.5,-16.44099 10.1085,-5.03082 21.1488,-8.73237 32.29019,-10.82612 11.81467,-2.22028 34.45522,-1.47399 45.34668,1.49474 9.90214,2.69906 23.82215,8.54781 29.71152,12.48383 L 405.5,121.5 l 0.28634,9.76093 c 0.28466,9.70335 0.271,9.76677 -2.3151,10.75 -1.43079,0.54399 -11.45964,0.99075 -22.28634,0.99281 -17.75973,0.003 -19.998,0.19464 -22.88635,1.95578 -6.59533,4.0214 -6.29855,0.0696 -6.29855,83.86838 0,63.83481 0.22281,76.11213 1.39901,77.08828 2.47304,2.05245 28.29109,4.29728 51.10099,4.44314 l 22,0.14068 0.26094,-41.06541 0.26094,-41.0654 -2.58743,-2.4346 C 421.99633,223.6405 421.00023,223.47115 407.17351,223 L 392.5,222.5 l -0.29592,-6.18093 -0.29593,-6.18094 4.58647,-2.68784 c 2.52255,-1.47832 8.73072,-4.0604 13.79592,-5.73795 8.27024,-2.73904 10.48426,-3.05208 21.70946,-3.0695 10.92958,-0.017 13.50507,0.31716 20.5,2.65939 4.4,1.47333 10.38343,4.05411 13.2965,5.73506 l 5.29651,3.05628 -0.29651,6.20322 L 470.5,222.5 455.77399,223 c -13.64061,0.46315 -14.89363,0.66782 -17,2.7768 l -2.27399,2.2768 -0.29,38.7232 c -0.1595,21.29776 -0.0384,39.7357 0.26905,40.9732 0.49368,1.9869 1.19115,2.25 5.96477,2.25 10.55081,0 59.9916,-5.915 62.52428,-7.48029 0.58908,-0.36407 1.0319,-4.61435 1.0319,-9.90441 0,-8.66385 -0.16761,-9.42438 -2.57649,-11.69099 -2.4246,-2.28139 -3.44155,-2.45379 -17.25,-2.92431 L 471.5,277.5 l -0.29592,-6.18093 -0.29593,-6.18094 4.58647,-2.68784 c 2.52255,-1.47832 8.73072,-4.0604 13.79592,-5.73795 8.27024,-2.73904 10.48426,-3.05208 21.70946,-3.0695 10.92958,-0.017 13.50507,0.31716 20.5,2.65939 4.4,1.47333 10.38343,4.05411 13.2965,5.73506 l 5.29651,3.05628 -0.29651,6.20322 L 549.5,277.5 534.77399,278 c -17.82654,0.60527 -18.87063,1.18798 -19.57493,10.92471 -0.62938,8.70111 0.17622,11.07529 3.75801,11.07529 3.05884,0 43.26267,-8.04015 65.54293,-13.10759 36.59239,-8.32259 73.61389,-15.07731 100.5,-18.33661 49.36714,-5.98459 94.1772,-4.40616 145.5,5.12523 10.45,1.94072 21.1375,3.76367 23.75,4.051 l 4.75,0.52243 0,-35.04544 c 0,-19.275 -0.27953,-35.77389 -0.62118,-36.66422 C 857.0524,203.08822 852.5635,202 839.63145,202 c -6.85733,0 -13.17968,-0.27314 -14.04966,-0.60699 C 824.39049,200.93587 824,199.35136 824,194.97457 c 0,-5.48849 0.18061,-5.92018 3.25,-7.76804 C 836.33646,181.73624 853.62195,177 864.5,177 c 11.49762,0 32.67548,6.22146 36.83921,10.82233 2.14391,2.369 3.15341,9.38868 1.73211,12.04441 -1.08145,2.02071 -1.87553,2.13326 -15.05074,2.13326 -13.25971,0 -14.04004,0.11263 -16.71482,2.41246 l -2.80576,2.41246 -0.28646,35.58515 c -0.18441,22.90778 0.0781,36.26635 0.73687,37.49727 0.7904,1.47687 5.29432,2.95053 19.78646,6.47401 37.51304,9.12058 66.85206,14.12501 99.76313,17.01685 30.099,2.64475 33.5,2.81434 33.5,1.67052 0,-0.58779 0.45,-1.06872 1,-1.06872 0.6603,0 1,35.33333 1,104 l 0,104 -512,0 -512,0 0.00356984,-103.25 z"
       id="path3467"
       inkscape:connector-curvature="0" />
  </g>
</svg>
