<?xml version="1.0" encoding="UTF-8" standalone="no"?>
<!-- Created with Inkscape (http://www.inkscape.org/) -->

<svg
   xmlns:dc="http://purl.org/dc/elements/1.1/"
   xmlns:cc="http://creativecommons.org/ns#"
   xmlns:rdf="http://www.w3.org/1999/02/22-rdf-syntax-ns#"
   xmlns:svg="http://www.w3.org/2000/svg"
   xmlns="http://www.w3.org/2000/svg"
   xmlns:sodipodi="http://sodipodi.sourceforge.net/DTD/sodipodi-0.dtd"
   xmlns:inkscape="http://www.inkscape.org/namespaces/inkscape"
   id="svg3178"
   version="1.1"
   inkscape:version="0.48.2 r9819"
   width="776"
   height="479"
   viewBox="0 0 776 479"
   xml:space="preserve"
   sodipodi:docname="elephant.svg"><metadata
     id="metadata3184"><rdf:RDF><cc:Work
         rdf:about=""><dc:format>image/svg+xml</dc:format><dc:type
           rdf:resource="http://purl.org/dc/dcmitype/StillImage" /><dc:title /></cc:Work></rdf:RDF></metadata><defs
     id="defs3182"><clipPath
       clipPathUnits="userSpaceOnUse"
       id="clipPath3194"><path
         d="M 0,0 658,0 658,556 0,556 0,0 z"
         id="path3196"
         inkscape:connector-curvature="0" /></clipPath></defs><sodipodi:namedview
     pagecolor="#ffffff"
     bordercolor="#666666"
     borderopacity="1"
     objecttolerance="10"
     gridtolerance="10"
     guidetolerance="10"
     inkscape:pageopacity="0"
     inkscape:pageshadow="2"
     inkscape:window-width="1036"
     inkscape:window-height="677"
     id="namedview3180"
     showgrid="false"
     inkscape:zoom="0.48022217"
     inkscape:cx="71.140122"
     inkscape:cy="167.29856"
     inkscape:window-x="0"
     inkscape:window-y="0"
     inkscape:window-maximized="0"
     inkscape:current-layer="g3186"
     fit-margin-top="0"
     fit-margin-left="0"
     fit-margin-right="0"
     fit-margin-bottom="0"/><g
     id="g3186"
     inkscape:groupmode="layer"
     inkscape:label="elephants"
     transform="matrix(1.25,0,0,-1.25,-10.245249,778.91785)"><g
       id="g3188" /><g
       id="g3190"
       transform="translate(-7.0677966,87.169493)"><g
         id="g3192"
         clip-path="url(#clipPath3194)"
         transform="matrix(-2.4938611,0,0,2.6374529,662.99482,-877.61704)"><path
           d="m 126.584,525.254 c 1.864,0.651 3.703,1.28 5.617,1.872 1.868,0.579 3.951,1.283 6.141,1.349 3.738,0.11 7.197,-0.99 10.334,-1.873 3.289,-0.925 6.637,-1.853 10.26,-1.873 7.201,-0.039 13.749,2.136 20.519,3.521 3.773,0.771 6.95,0.924 10.559,-0.15 3.148,-0.937 6.199,-1.862 9.062,-3.071 2.86,-1.207 5.392,-2.613 7.864,-4.268 1.208,-0.81 2.394,-1.688 3.594,-2.471 1.267,-0.828 2.595,-1.517 3.669,-2.396 1.111,-0.913 2.04,-2.179 3.071,-3.296 1.017,-1.101 2.209,-2.114 3.221,-3.145 2.126,-2.17 3.807,-4.531 5.616,-7.115 1.658,-2.369 3.442,-4.944 5.017,-7.714 1.567,-2.752 3.18,-5.727 3.895,-8.836 0.281,-1.227 0.376,-2.565 0.598,-3.82 0.221,-1.243 0.487,-2.451 0.675,-3.669 0.39,-2.533 0.565,-5.121 1.123,-7.564 0.443,-1.939 1.321,-3.994 2.022,-5.991 2.234,-6.358 4.657,-12.068 8.987,-17.299 0.812,-0.982 1.504,-2.168 2.396,-2.995 0.34,-0.316 0.732,-0.369 1.048,-0.675 1.445,-1.398 2.127,-4.553 2.097,-7.115 -0.596,0.035 -1.21,0.634 -1.648,1.124 -1.221,1.371 -2.453,3.265 -2.546,5.617 -6.224,6.534 -10.331,10.667 -13.33,19.321 -0.664,1.919 -1.318,3.829 -2.171,5.692 0.004,-4.661 0.421,-9.605 0.224,-14.528 -0.204,-5.122 -0.863,-9.689 0.075,-13.93 0.219,-0.989 1.263,-2.364 1.947,-3.37 0.688,-1.01 1.433,-1.991 2.022,-2.92 2.608,-4.113 5,-8.002 8.088,-11.533 0.761,-0.871 1.488,-1.81 2.246,-2.696 1.163,-1.356 2.33,-2.171 3.296,-3.745 0.28,-0.456 0.666,-0.957 0.824,-1.348 0.395,-0.978 0.308,-1.918 1.273,-2.321 0.459,-0.193 0.952,-0.14 1.348,-0.225 2.357,-0.507 4.532,-2.452 4.044,-5.916 -0.214,-1.516 -1.123,-2.935 -1.872,-4.268 -0.757,-1.348 -1.29,-2.798 -2.247,-3.82 -0.262,-1.037 -0.908,-1.688 -1.423,-2.472 -1.457,-0.909 -3.134,-2.22 -4.792,-3.22 -0.958,-0.576 -1.954,-2.219 -3.221,-0.973 -0.374,0.071 -0.358,-0.637 -0.599,-0.449 -0.767,0.281 -1.356,0.876 -1.872,1.497 -0.474,0.572 -1.117,1.408 -1.273,2.172 -0.171,0.832 -0.137,1.682 -0.226,2.472 -0.084,0.762 -0.248,1.426 -0.449,2.171 -0.384,1.429 -0.529,2.87 -1.048,4.194 -0.708,1.808 -1.949,3.409 -2.996,5.018 -1.068,1.643 -2.467,3.026 -3.519,4.493 -2.975,4.146 -5.279,8.545 -9.062,11.832 -2.597,2.257 -6.082,3.724 -8.986,5.766 0.322,-4.085 1.895,-8.051 2.321,-12.056 0.149,-1.395 0.13,-2.9 -0.075,-4.343 -0.201,-1.417 -0.18,-2.934 -0.449,-4.27 -0.245,-1.217 -0.848,-2.538 -1.498,-3.594 -0.701,-1.14 -1.811,-1.412 -1.423,-3.37 0.086,-0.429 0.425,-0.743 0.6,-1.198 0.193,-0.509 0.22,-0.94 0.449,-1.348 -0.543,-1.107 -0.439,-2.92 -1.348,-3.744 -0.714,-0.649 -2.6,-0.904 -3.969,-1.124 -1.519,-0.243 -3.039,-0.33 -4.494,-0.375 -3.067,-0.093 -7.148,-0.369 -9.361,0.449 -0.513,0.191 -1.091,0.547 -1.723,0.75 -0.651,0.209 -1.36,0.3 -1.721,0.674 0,2.138 0.669,3.875 1.721,5.092 0.313,0.362 0.827,0.504 1.124,0.824 0.259,0.278 0.413,0.701 0.674,0.973 0.962,1.004 1.882,2.334 2.696,3.595 0.63,0.974 0.921,2.141 1.499,3.22 1.054,1.97 2.159,4.041 2.545,6.815 0.31,2.218 -0.127,4.564 -0.824,6.591 -0.665,1.935 -1.239,3.681 -2.096,5.465 -0.54,1.124 -1.372,2.121 -2.022,3.147 -1.978,3.113 -4.2,5.78 -5.018,10.259 -3.426,0.356 -6.692,-0.192 -9.96,0 -1.6,0.094 -3.251,0.231 -4.868,0.299 -1.699,0.072 -3.394,-0.237 -5.092,-0.074 -2.862,0.273 -5.555,1.479 -7.938,2.546 -2.45,1.096 -4.667,2.525 -6.741,3.67 0.086,-0.316 0.105,-1.092 0.075,-1.273 -0.221,-1.592 -1.687,-3.399 -1.947,-4.943 -0.27,-1.608 -0.005,-3.689 0.076,-5.617 0.247,-5.904 0.176,-11.264 0.749,-16.476 0.37,-3.378 1.103,-6.775 1.571,-10.185 0.235,-1.695 0.573,-3.416 0.9,-5.092 0.337,-1.731 0.473,-3.683 0.973,-5.167 0.627,-1.863 2.445,-3.359 1.573,-5.841 -0.24,-0.683 -1.364,-2.032 -2.172,-2.247 -2.601,-0.691 -5.438,-0.798 -8.613,-1.123 -0.925,-0.095 -1.737,-0.423 -2.62,-0.375 -1.017,0.056 -1.909,0.569 -2.996,0.675 -0.791,0.076 -1.68,-0.019 -2.546,0.149 -1.253,0.244 -2.602,0.128 -2.995,1.049 -0.245,0.098 -0.784,-0.247 -0.974,0.149 -0.064,1.607 0.148,2.752 0.674,3.82 0.429,0.873 1.414,1.583 2.097,2.396 0.542,0.645 0.998,1.508 1.647,2.247 0.943,1.073 1.676,1.945 1.423,3.819 -0.097,0.712 -0.43,1.475 -0.599,2.247 -0.509,2.335 -1.402,4.315 -1.796,6.665 -0.277,1.641 -0.476,3.19 -0.975,4.718 -2.294,7.019 -4.394,14.892 -6.815,21.418 -0.61,-0.252 -0.894,-0.938 -1.272,-1.423 -1.208,-1.544 -2.582,-3.084 -3.745,-4.793 -1.457,-2.139 -3.156,-4.397 -4.419,-6.965 -1.26,-2.565 -1.769,-5.556 -2.92,-8.462 -0.477,-1.203 -1.107,-2.583 -1.647,-4.043 -0.501,-1.353 -1.007,-3.502 -0.825,-4.869 0.156,-1.156 1.272,-2.018 1.124,-3.669 -0.096,-1.067 -0.76,-2.482 -1.498,-2.921 -0.497,-0.295 -1.363,-0.403 -2.097,-0.449 -1.659,-0.103 -3.418,0.149 -5.167,0.3 -1.704,0.145 -3.37,0.591 -4.942,0.673 -0.35,0.019 -0.753,-0.089 -1.124,-0.074 -0.95,0.036 -1.818,0.599 -2.846,0.898 -1.665,0.486 -3.265,0.485 -3.669,1.947 -0.43,0.095 -0.836,0.213 -1.048,0.524 0.196,2.083 1.068,3.322 2.396,4.344 0.437,0.337 0.99,0.477 1.423,0.824 0.423,0.34 0.694,1.145 1.198,1.647 0.457,0.456 1.128,0.666 1.573,1.048 0.423,0.367 0.951,0.911 1.198,1.349 0.327,0.58 0.842,1.761 1.123,2.77 0.142,0.511 0.203,1.087 0.374,1.573 0.179,0.506 0.495,0.923 0.6,1.348 0.202,0.824 0.144,1.676 0.3,2.472 0.43,2.211 1.288,4.171 1.871,6.29 0.767,2.783 1.663,5.401 2.77,8.088 1.639,3.971 3.22,7.753 4.57,11.832 0.45,1.36 0.781,2.771 1.347,4.044 0.588,1.322 1.586,2.431 2.247,3.744 1.045,2.08 1.531,3.922 1.797,6.891 0.21,2.343 0.468,2.785 -1.497,4.268 -0.693,0.522 -1.286,1.12 -1.873,1.423 -1.203,0.623 -2.899,1.036 -4.418,1.498 -3.057,0.929 -6.182,1.377 -9.436,2.247 -1.571,0.419 -3.27,1.155 -4.718,1.123 -0.046,-10e-4 -0.105,0.01 -0.15,0 -1.514,-0.33 -3.218,-0.265 -4.643,-0.525 -2.018,-0.366 -4.502,-1.679 -5.842,-2.995 -0.632,-0.622 -1.201,-1.491 -1.796,-2.322 -0.562,-0.783 -1.386,-1.656 -1.723,-2.396 -0.206,-0.452 -0.155,-0.851 -0.299,-1.198 -0.525,-1.257 -1.733,-1.906 -2.547,-3.07 -0.541,-0.775 -0.568,-2.092 -1.946,-2.397 -0.18,-0.101 -3.913,-5.024 -13.93,-10.559 -9.431,-5.213 -11.491,-5.729 -23.215,-4.419 -4.744,0.531 -6.725,1.324 -10.709,3.221 -2.055,0.978 -4.362,1.594 -6.665,2.695 -2.985,1.428 -8.616,2.639 -10.105,-1.149 -0.552,-1.404 -1.214,-2.242 -0.83,-3.736 0.334,-1.296 -0.227,-2.779 -1.122,-2.903 -1.298,0.075 -0.979,1.766 -1.648,2.471 -2.342,0.789 -2.743,-1.84 -4.643,-1.722 -0.634,1.016 0.584,2.054 0.941,3.046 0.599,1.664 0.512,2.287 0.639,4.074 0.322,4.51 4.233,6.959 8.131,8.271 3.267,1.1 7.141,1.5 11.033,0.785 6.298,-1.156 10.478,-4.12 17.075,-2.771 2.781,0.569 5.504,1.677 8.012,2.546 10.331,3.58 9.993,5.861 10.485,15.952 0.082,1.676 -0.047,3.455 0.075,5.167 0.22,3.064 0.821,6.147 1.423,8.987 0.572,2.7 1.552,5.387 2.546,7.863 1.002,2.498 2.172,4.767 3.221,7.189 1.023,2.366 1.918,4.984 3.444,6.964 1.801,2.338 4.51,4.2 7.864,4.943 1.113,0.248 2.528,0.348 3.743,0.748 0.8,0.266 1.601,0.727 2.322,1.124 0.749,0.413 1.391,1.052 2.097,1.348 1.547,0.65 3.7,0.545 5.317,1.274 0.457,0.206 0.88,0.803 1.348,1.197 0.498,0.42 1.08,0.718 1.423,1.05 1.041,1.005 1.904,2.384 2.772,3.594 1.698,2.372 4.231,4.142 6.889,5.767 0.556,0.339 1.304,0.806 2.022,1.123 1.383,0.61 3.275,1.381 5.241,0.898 0.776,-0.19 1.767,-0.855 2.397,-1.347 0.736,-0.577 1.918,-2.119 2.472,-2.997 1.231,-1.949 2.119,-4.329 2.92,-6.215"
           style="fill:#036db4;fill-opacity:1;fill-rule:evenodd;stroke:none"
           id="path3198"
           inkscape:connector-curvature="0" /></g></g></g></svg>