<?xml version="1.0" encoding="UTF-8" standalone="no"?>
<!-- Created with Inkscape (http://www.inkscape.org/) -->

<svg
   xmlns:dc="http://purl.org/dc/elements/1.1/"
   xmlns:cc="http://creativecommons.org/ns#"
   xmlns:rdf="http://www.w3.org/1999/02/22-rdf-syntax-ns#"
   xmlns:svg="http://www.w3.org/2000/svg"
   xmlns="http://www.w3.org/2000/svg"
   xmlns:sodipodi="http://sodipodi.sourceforge.net/DTD/sodipodi-0.dtd"
   xmlns:inkscape="http://www.inkscape.org/namespaces/inkscape"
   id="svg50978"
   version="1.1"
   inkscape:version="0.91 r13725"
   width="500"
   height="500"
   viewBox="0 0 500 500"
   sodipodi:docname="opacitySpace.svg">
  <metadata
     id="metadata50984">
    <rdf:RDF>
      <cc:Work
         rdf:about="">
        <dc:format>image/svg+xml</dc:format>
        <dc:type
           rdf:resource="http://purl.org/dc/dcmitype/StillImage" />
        <dc:title></dc:title>
      </cc:Work>
    </rdf:RDF>
  </metadata>
  <defs
     id="defs50982" />
  <sodipodi:namedview
     pagecolor="#ffffff"
     bordercolor="#666666"
     borderopacity="1"
     objecttolerance="10"
     gridtolerance="10"
     guidetolerance="10"
     inkscape:pageopacity="0"
     inkscape:pageshadow="2"
     inkscape:window-width="1366"
     inkscape:window-height="705"
     id="namedview50980"
     showgrid="false"
     inkscape:zoom="0.73096447"
     inkscape:cx="-5.4780447"
     inkscape:cy="268.62944"
     inkscape:window-x="1432"
     inkscape:window-y="-8"
     inkscape:window-maximized="1"
     inkscape:current-layer="layer2" />
  <g
     inkscape:groupmode="layer"
     id="layer1"
     inkscape:label="Layer 1">
    <rect
       style="fill:#ffffff;fill-opacity:1;stroke:#ffffff"
       id="rect51017"
       width="500"
       height="500"
       x="0"
       y="-2.0763888" />
  </g>
  <g
     inkscape:groupmode="layer"
     id="layer2"
     inkscape:label="Layer 2"
     style="display:inline;opacity:0.08">
    <g
       id="g50988"
       transform="matrix(1.2679813,0,0,1.58536,0.4153588,0.45027)"
       style="">
      <path
         style="fill:#a1a1a1"
         d="M 0,157.5 0,0 197,0 394,0 394,157.5 394,315 197,315 0,315 0,157.5 Z"
         id="path51004"
         inkscape:connector-curvature="0" />
      <path
         style="fill:#6d6d6d"
         d="m 0,244.12781 0,-70.87219 3.9426155,-0.63045 C 9.6495272,171.71259 10.051653,170 4.559017,170 L 0,170 0,85 0,0 56.487455,0 112.97491,0 115.6554,4.2461684 c 2.91014,4.6099648 4.44392,3.6638436 2.00054,-1.2340421 L 116.15329,0 216.63566,0 c 66.73361,0 100.2748,0.33586755 99.86434,1 -0.33992,0.55 -0.16803,1 0.38197,1 0.55,0 1.27811,-0.45 1.61803,-1 0.39422,-0.63785628 14.17705,-1 38.05902,-1 L 394,0 l 0,81.5 c 0,71.77778 -0.17894,81.5 -1.5,81.5 -0.825,0 -1.5,0.45 -1.5,1 0,0.55 0.675,1 1.5,1 1.32,0 1.5,9 1.5,75 l 0,75 -137.62244,0 c -119.88774,0 -137.46791,-0.1862 -136.42324,-1.44496 0.65956,-0.79472 1.03214,-2.48222 0.82794,-3.75 -0.34288,-2.12884 -0.5474,-2.01839 -2.67554,1.44496 L 115.80245,315 57.901224,315 0,315 0,244.12781 Z M 98.55887,227.5318 c 1.63076,-1.23344 1.68089,-1.47328 0.313575,-1.5 C 97.977289,226.01431 96.684689,226.675 96,227.5 c -1.595574,1.92255 0.03233,1.94278 2.55887,0.0318 z M 268.75621,186.75 c -0.22574,-0.6875 -1.72574,-1.37269 -3.33333,-1.52264 -2.78815,-0.26007 -2.83341,-0.20246 -0.98175,1.25 2.34613,1.84032 4.88247,2.00058 4.31508,0.27264 z M 41,143 c 0,-0.55 -1.4625,-0.99311 -3.25,-0.98469 -2.466223,0.0116 -2.888257,0.24909 -1.75,0.98469 1.965494,1.2702 5,1.2702 5,0 z M 26.070814,136.90255 C 22.992978,135.67268 12,134.4908 12,135.38977 c 0,1.37704 4.67791,2.48346 10.5,2.48346 4.880871,0 5.546905,-0.18105 3.570814,-0.97068 z M 300,130 c 1.21296,-0.78387 1.06944,-0.9723 -0.75,-0.98469 C 298.0125,129.00689 297,129.45 297,130 c 0,1.25292 1.06124,1.25292 3,0 z m 37.41821,-0.60699 C 339.82165,128.47073 339.30759,127 336.58179,127 c -3.27455,0 -5.69125,1.01387 -5.01703,2.10478 0.63678,1.03033 3.54624,1.17359 5.85345,0.28823 z M 126.5,117 c -0.33992,-0.55 -1.04148,-1 -1.55902,-1 -0.51754,0 -0.94098,0.45 -0.94098,1 0,0.55 0.70156,1 1.55902,1 0.85746,0 1.2809,-0.45 0.94098,-1 z M 281,91 c 0,-0.55 -0.19844,-1 -0.44098,-1 -0.24254,0 -0.7191,0.45 -1.05902,1 -0.33992,0.55 -0.14148,1 0.44098,1 C 280.52344,92 281,91.55 281,91 Z M 54,84.485302 c 0,-0.822273 -6.369062,-4.477452 -7.809017,-4.481564 -2.08976,-0.006 -0.232821,2.071069 3.179065,3.555871 C 52.769508,85.039002 54,85.285021 54,84.485302 Z"
         id="path51002"
         inkscape:connector-curvature="0" />
      <path
         style="fill:#4d4d4d"
         d="m 0,244.16203 0,-70.83797 3.3388753,-0.12552 c 1.8363813,-0.069 4.6488813,-0.62359 6.25,-1.23235 2.6693707,-1.01491 2.7558697,-1.19371 1.0415987,-2.15309 -1.0282391,-0.57544 -3.8407391,-0.82408 -6.2499998,-0.55252 L 0,169.75433 0,84.877163 0,0 l 56.453083,0 56.453087,0 1.61771,3.4090851 c 0.88975,1.8749968 2.48586,4.1947412 3.54692,5.1549876 1.84147,1.6665083 1.92892,1.6592743 1.92304,-0.1590851 -0.003,-1.0477432 -0.67839,-3.1939257 -1.5,-4.7692945 C 117.67223,2.0603243 117,0.59782427 117,0.38569308 117,0.17356189 161.80532,0 216.56739,0 315.6797,0 316.13187,0.00914104 315.5,2 c -0.82647,2.6039688 1.10587,2.6039688 2.73207,0 1.21272,-1.94186673 2.33203,-2 38.50848,-2 L 394,0 l 0,81.5 0,81.5 -4.05902,0 c -2.45136,0 -3.81423,0.39607 -3.44098,1 0.33992,0.55 2.16648,1 4.05902,1 l 3.44098,0 0,75 0,75 -133.25,-0.0576 c -73.2875,-0.0317 -135.05,-0.42995 -137.25,-0.885 -2.2,-0.45505 -3.48857,-0.87912 -2.8635,-0.94237 1.30089,-0.13163 2.41754,-5.96357 1.27684,-6.66856 -0.90142,-0.55711 -4.58139,3.93233 -5.43951,6.63602 C 115.88318,314.94344 114.15652,315 57.932612,315 L 0,315 0,244.16203 Z m 33.219385,48.0638 c 0.586089,-0.70079 0.806047,-1.53373 0.488795,-1.85098 C 32.983057,289.64972 26,294.90445 26,296.17522 c 0,1.05943 5.586125,-1.99648 7.219385,-3.94939 z M 339,291.5 c -0.68469,-0.825 -1.69489,-1.5 -2.24489,-1.5 -0.55783,0 -0.44954,0.66326 0.24489,1.5 0.68469,0.825 1.69489,1.5 2.24489,1.5 0.55783,0 0.44954,-0.66326 -0.24489,-1.5 z m -227.19313,-7.02646 c -0.30789,-0.30789 -0.86705,0.24711 -1.24258,1.23333 -0.54268,1.4252 -0.42782,1.54006 0.5598,0.5598 0.68342,-0.67834 0.99067,-1.48524 0.68278,-1.79313 z M 200,275 c 0,-1.65 -0.45,-3 -1,-3 -0.55,0 -1,1.35 -1,3 0,1.65 0.45,3 1,3 0.55,0 1,-1.35 1,-3 z m -55.34508,-27.54313 c 0.80982,-2.11034 -0.54185,-3.2497 -1.69398,-1.42791 -1.22421,1.93575 -1.19966,2.97104 0.0704,2.97104 0.56727,0 1.29786,-0.69441 1.62354,-1.54313 z M 58.55887,239.5318 c 1.067622,-0.8075 1.464638,-1.4825 0.88226,-1.5 -0.582379,-0.0175 -1.932379,0.62889 -3,1.4364 -1.067622,0.8075 -1.464638,1.4825 -0.88226,1.5 0.582379,0.0175 1.932379,-0.62889 3,-1.4364 z M 355,240.02568 c 0,-0.53588 -1.35,-1.67243 -3,-2.52568 -3.7604,-1.94458 -3.99884,-0.10575 -0.25,1.92803 3.34438,1.81435 3.25,1.797 3.25,0.59765 z M 99.139216,228.08608 c 1.298434,-1.05266 1.997774,-2.27817 1.554084,-2.72337 -0.962395,-0.96567 -5.857312,1.60636 -6.446457,3.38729 -0.623929,1.88608 2.223657,1.49965 4.892373,-0.66392 z M 41.13671,219.21224 c -0.721441,-0.24048 -1.787158,0.0382 -2.36826,0.61931 -0.742068,0.74207 -0.351636,0.87221 1.311709,0.43724 1.352204,-0.35361 1.805497,-0.8069 1.056551,-1.05655 z m 21.42216,-7.68044 c 1.067622,-0.8075 1.415434,-1.4825 0.772917,-1.5 C 61.431998,209.98008 59,211.14516 59,212.10699 c 0,1.31057 1.355281,1.09152 3.55887,-0.57519 z m 244.98225,-5.46527 C 306.73189,204.75717 304,204.64928 304,205.92668 c 0,0.50967 0.7875,1.10184 1.75,1.31593 2.18229,0.48541 2.63447,0.1885 1.79112,-1.17608 z m -120.79126,-3.65 c -0.95295,-0.95296 -2.86349,0.5906 -2.1533,1.7397 0.42212,0.683 0.98146,0.66575 1.69964,-0.0524 0.58876,-0.58876 0.79291,-1.34803 0.45366,-1.68727 z m 83.70785,-14.34811 C 271.25676,186.77554 267.04051,184 264.27749,184 c -3.09121,0 -2.86854,1.61548 0.47251,3.42803 3.21717,1.74534 4.9076,1.935 5.70771,0.64039 z M 42.75,181.36971 c 1.2375,-0.33163 2.25,-1.029 2.25,-1.5497 0,-1.39696 -6.276031,-0.53308 -6.756322,0.92999 -0.446727,1.36083 0.998984,1.55964 4.506322,0.61971 z m 330,-36 C 375.95881,144.50979 375.53308,143 372.08179,143 c -3.72382,0 -6.22752,0.95518 -5.51703,2.10478 0.63738,1.0313 2.95511,1.13057 6.18524,0.26493 z M 42.55887,142.4682 c -2.137163,-1.61647 -9.110744,-2.0023 -10.006084,-0.55361 -0.820111,1.32697 1.270267,1.92113 6.947214,1.97466 4.606782,0.0434 4.847342,-0.0683 3.05887,-1.42105 z M 30,138.06739 c 0,-1.18481 -1.866257,-1.73911 -10.292398,-3.05698 C 9.9262771,133.4806 6.4838711,135.92265 15.41271,138.05722 19.949492,139.1418 30,139.14881 30,138.06739 Z m 89,-0.008 c 0,-1.17986 -1.95035,-2.442 -2.66667,-1.72569 -0.71631,0.71595 0.54583,2.6663 1.72569,2.6663 0.51754,0 0.94098,-0.42344 0.94098,-0.94098 z m 181.5573,-7.47726 c 1.06675,-0.78003 1.59398,-1.76381 1.17161,-2.18618 -1.02165,-1.02165 -5.95462,0.77053 -6.48053,2.35442 -0.56454,1.70021 2.90398,1.5903 5.30892,-0.16824 z M 340,128.98469 c 2.41916,-1.58808 -0.80664,-3.14858 -4.99238,-2.4151 -4.04438,0.70871 -5.00762,1.18756 -5.00762,2.48943 0,1.24452 8.08248,1.18444 10,-0.0743 z M 41.55887,127.4682 C 39.398809,125.83441 36,125.49719 36,126.91667 c 0,1.18195 1.85366,1.91325 5,1.97258 2.411319,0.0455 2.431143,-0.005 0.55887,-1.42105 z M 168,126 c 0,-0.55 -0.47656,-1 -1.05902,-1 -0.58246,0 -0.7809,0.45 -0.44098,1 0.33992,0.55 0.81648,1 1.05902,1 0.24254,0 0.44098,-0.45 0.44098,-1 z m -40,-7.87756 c 0,-1.50335 -2.82096,-3.30357 -4.63055,-2.95502 -1.62948,0.31387 -1.62816,0.43105 0.0234,2.08258 1.84093,1.84091 4.60716,2.36474 4.60716,0.87244 z M 107.5,107 c -0.33992,-0.55 -1.29303,-1 -2.11803,-1 -0.825,0 -1.22189,0.45 -0.88197,1 0.33992,0.55 1.29303,1 2.11803,1 0.825,0 1.22189,-0.45 0.88197,-1 z M 65,98 c -1.958372,-1.265597 -3.282182,-1.265597 -2.5,0 0.339919,0.55 1.378976,0.993109 2.309017,0.984687 C 66.266292,98.971491 66.292687,98.835399 65,98 Z m 216.61241,-6.531208 c 0.91218,-1.392165 1.38343,-2.80629 1.04721,-3.142501 -0.76341,-0.76341 -3.4463,1.406597 -4.7494,3.841465 -1.56883,2.931385 1.73179,2.308235 3.70219,-0.698964 z M 113,87.606989 c 0,-1.421 -2.88006,-3.060264 -3.78563,-2.154694 C 108.57602,86.090648 110.96083,89 112.12244,89 112.6051,89 113,88.373145 113,87.606989 Z M 54.945277,84.434063 c -1.346508,-1.622443 -5.097748,-3.781135 -9.43849,-5.431483 -4.524501,-1.720212 -2.867058,1.460577 2.243213,4.304935 5.523732,3.074489 9.303002,3.666201 7.195277,1.126548 z M 306.5,73 c 0.33992,-0.55 0.16803,-1 -0.38197,-1 -0.55,0 -1.27811,0.45 -1.61803,1 -0.33992,0.55 -0.16803,1 0.38197,1 0.55,0 1.27811,-0.45 1.61803,-1 z M 228,64.940983 C 228,64.423442 227.55,64 227,64 c -0.55,0 -1,0.701558 -1,1.559017 0,0.857459 0.45,1.280902 1,0.940983 0.55,-0.339919 1,-1.041476 1,-1.559017 z m 141.52646,-1.747855 c -0.30789,-0.307887 -1.11479,-6.34e-4 -1.79313,0.682784 -0.98026,0.987616 -0.8654,1.10248 0.5598,0.559795 0.98622,-0.375531 1.54122,-0.934692 1.23333,-1.242579 z M 20.139216,44.966731 c -1.298431,-1.081702 -2.873431,-1.95176 -3.5,-1.933462 -0.626569,0.0183 -0.07686,0.918298 1.221568,2 1.298431,1.081702 2.873431,1.95176 3.5,1.933462 0.626569,-0.0183 0.07686,-0.918298 -1.221568,-2 z M 194,34.5 c 0,-1.375 -0.45,-2.5 -1,-2.5 -0.55,0 -1,1.125 -1,2.5 0,1.375 0.45,2.5 1,2.5 0.55,0 1,-1.125 1,-2.5 z M 209,22 c 0,-1.035081 -0.39884,-2.128462 -0.88631,-2.429736 -1.02421,-0.632995 -1.99037,2.328757 -1.36552,4.185967 C 207.34772,25.538262 209,24.249633 209,22 Z"
         id="path51000"
         inkscape:connector-curvature="0" />
      <path
         style="fill:#373737"
         d="M 0.01332004,243.94075 C 0.05023262,174.84065 0.10314677,172.89796 1.9325432,173.47859 4.8222627,174.39575 13,172.02108 13,170.26479 c 0,-1.21921 -1.208946,-1.4208 -6.5,-1.08389 L 0,169.59479 0,84.789136 0,-0.0165145 56.75,0.24174275 C 93.709168,0.40993611 113.51462,0.84873713 113.54192,1.5 c 0.12845,3.0644933 5.79509,10.49632 7.04797,9.243442 0.93218,-0.9321829 -1.60404,-8.7374676 -2.87843,-8.8584411 C 117.04516,1.8217514 118.3,1.3976848 120.5,0.94263061 124.82294,0.04846116 316,-0.34997659 316,0.53518329 316,0.82953411 315.27325,2.1795341 314.38499,3.5351833 312.05331,7.0937795 314.51648,6.7291197 318,3 L 320.80242,0 357.40121,0 394,0 l 0,81.404843 0,81.404847 -3.75,-0.44589 c -3.74201,-0.44493 -7.3256,0.89393 -5.9839,2.23563 0.3895,0.3895 2.73885,0.75147 5.22079,0.80438 l 4.51261,0.0962 2.5e-4,74.80088 L 394,315.10176 262.25,314.74057 C 189.7875,314.54191 129.18153,314.04553 127.57007,313.6375 123.2913,312.5541 123,312.22286 123,308.44098 123,306.54844 122.56622,305 122.03605,305 120.83986,305 116,312.00164 116,313.73213 116,314.74139 104.16684,315 57.98768,315 l -58.0123191,0 0.03795914,-71.05925 z M 30.612495,294.91574 C 35.122013,291.338 36.754839,289 34.74397,289 c -2.563882,0 -9.683484,6.0375 -9.728657,8.25 -0.02978,1.45833 1.755105,0.71396 5.597182,-2.33426 z M 342,294.08889 C 342,292.97961 336.21252,288 334.92327,288 c -1.79184,0 -0.8876,1.85222 2.15346,4.41111 3.17355,2.67037 4.92327,3.26665 4.92327,1.67778 z m 25.7613,-3.66883 C 364.01767,286.98927 362,286.13955 362,287.99373 c 0,1.30752 8.14713,7.19247 8.90629,6.43331 0.32281,-0.32281 -1.09243,-2.12595 -3.14499,-4.00698 z M 197,288 c 0,-1.65 -0.45,-3 -1,-3 -0.55,0 -1,1.35 -1,3 0,1.65 0.45,3 1,3 0.55,0 1,-1.35 1,-3 z m -85.07258,-1.63486 c 2.33121,-2.96366 2.68946,-4.73743 0.83175,-4.1182 -1.63425,0.54475 -5.24153,6.75306 -3.9238,6.75306 0.56071,0 1.95213,-1.18569 3.09205,-2.63486 z M 89.703101,282.36977 C 88.732582,281.39925 85,284.98056 85,286.88226 c 0,1.1517 0.721435,0.85085 2.69697,-1.12468 1.483333,-1.48334 2.386092,-3.00785 2.006131,-3.38781 z M 200.5,277 c 0.72375,-2.28032 -0.20617,-6 -1.5,-6 -0.47587,0 -1.15087,0.9 -1.5,2 -0.72375,2.28032 0.20617,6 1.5,6 0.47587,0 1.15087,-0.9 1.5,-2 z m 147,-13.531 c -1.65,-1.35248 -3.675,-2.44512 -4.5,-2.42807 -0.94487,0.0195 -0.38974,0.94106 1.5,2.49007 1.65,1.35248 3.675,2.44512 4.5,2.42807 0.94487,-0.0195 0.38974,-0.94106 -1.5,-2.49007 z M 153,252.72554 c 0,-2.01636 -2.52158,0.11819 -2.7794,2.35279 -0.27057,2.34514 -0.23106,2.36032 1.25,0.48054 0.84117,-1.06762 1.5294,-2.34262 1.5294,-2.83333 z m -7.81612,-5.22977 c 1.56743,-3.44014 0.0687,-4.51965 -2.26996,-1.63499 -2.30903,2.84815 -2.43145,4.13922 -0.39248,4.13922 0.83679,0 2.03489,-1.1269 2.66244,-2.50423 z M 311.5,246 c -0.99549,-1.1 -2.48498,-2 -3.30998,-2 -1.23,0 -1.17421,0.35999 0.30998,2 0.99549,1.1 2.48498,2 3.30998,2 1.23,0 1.17421,-0.35999 -0.30998,-2 z M 157,245 c 0.85431,-1.5963 0.76049,-2 -0.46482,-2 -0.84435,0 -1.53518,0.1882 -1.53518,0.41821 0,0.23002 -0.27314,1.13002 -0.60699,2 C 153.51073,247.71741 155.7368,247.3603 157,245 Z M 43.777494,241.4433 C 47.244101,239.01519 46.387709,237.84747 42.5,239.70139 38.986392,241.37691 37.892804,243 40.277494,243 c 0.702621,0 2.277621,-0.70052 3.5,-1.5567 z M 59.5,239.531 c 2.638482,-2.16274 2.755675,-2.46341 0.972506,-2.49504 C 58.201719,236.99568 54,239.60581 54,241.0567 c 0,1.67028 2.419951,0.99898 5.5,-1.5257 z m 295.10836,-1.19145 c -2.6578,-2.28615 -8.35254,-3.35268 -7.10258,-1.3302 0.9733,1.57483 7.88829,4.86013 8.90834,4.23234 0.50277,-0.30943 -0.30982,-1.61539 -1.80576,-2.90214 z M 98.631966,228.91844 c 3.319284,-2.05143 4.556374,-4.92199 2.118034,-4.9147 -2.217597,0.007 -7.75,3.91969 -7.75,5.48156 0,2.06644 1.637944,1.90158 5.631966,-0.56686 z M 285,226 c 0,-0.55 -0.47656,-1 -1.05902,-1 -0.58246,0 -0.7809,0.45 -0.44098,1 0.33992,0.55 0.81648,1 1.05902,1 0.24254,0 0.44098,-0.45 0.44098,-1 z m -16.8,-3.2 c -0.64167,-0.64167 -1.49863,-0.8347 -1.90437,-0.42896 -0.40574,0.40574 -0.0888,1.13877 0.70437,1.62896 1.86759,1.15423 2.71091,0.31091 1.2,-1.2 z m -26.2,0.25902 c 0,-1.17986 -1.95035,-2.442 -2.66667,-1.72569 C 238.61702,222.04965 239.87916,224 241.05902,224 241.57656,224 242,223.57656 242,223.05902 Z M 263.5,222 c -0.33992,-0.55 -1.06803,-1 -1.61803,-1 -0.55,0 -0.72189,0.45 -0.38197,1 0.33992,0.55 1.06803,1 1.61803,1 0.55,0 0.72189,-0.45 0.38197,-1 z M 41.604087,220.52096 c 4.699283,-1.96349 3.551225,-3.81624 -1.319766,-2.12986 -2.019463,0.69915 -3.847079,1.79717 -4.061369,2.44004 -0.522214,1.56665 1.115137,1.47226 5.381135,-0.31018 z M 248,220.55902 c 0,-0.24254 -0.45,-0.7191 -1,-1.05902 -0.55,-0.33992 -1,-0.14148 -1,0.44098 0,0.58246 0.45,1.05902 1,1.05902 0.55,0 1,-0.19844 1,-0.44098 z M 123,218 c 0,-0.55 -0.42344,-1 -0.94098,-1 -0.51754,0 -1.2191,0.45 -1.55902,1 -0.33992,0.55 0.0835,1 0.94098,1 0.85746,0 1.55902,-0.45 1.55902,-1 z m 70,-4.5 c 0,-0.825 -0.45,-1.5 -1,-1.5 -0.55,0 -1,0.675 -1,1.5 0,0.825 0.45,1.5 1,1.5 0.55,0 1,-0.675 1,-1.5 z M 62.709169,212.47705 c 2.777752,-1.16062 3.367277,-1.8006 2.477894,-2.68999 -0.889383,-0.88938 -2.0148,-0.76276 -4.730356,0.53219 -1.959825,0.93458 -3.287773,2.14507 -2.950996,2.68999 0.790365,1.27884 0.894567,1.26818 5.203458,-0.53219 z m 46.919601,-3.18161 C 108.80451,208.47118 106,209.79149 106,211.0038 c 0,0.73956 0.63946,0.72434 2.08565,-0.0496 1.1471,-0.61391 1.84151,-1.36033 1.54312,-1.65872 z m 155.02615,0.24769 C 264.32924,208.69441 263.59865,208 263.03138,208 c -1.46553,0 -1.28265,2.74359 0.21862,3.27976 1.69882,0.60672 2.1094,0.0992 1.40492,-1.73663 z M 309,207.03518 c 0,-1.34944 -3.77425,-3.22532 -5.731,-2.84841 -1.46964,0.28308 -1.45772,0.48169 0.12384,2.06323 1.86717,1.86715 5.60716,2.39087 5.60716,0.78518 z m -122,-3.5942 C 187,202.64844 186.325,202 185.5,202 c -1.50623,0 -2.05568,2.11099 -0.86052,3.30615 C 185.57272,206.23939 187,205.11163 187,203.44098 Z M 123.5,204 c 0.33992,-0.55 0.14148,-1 -0.44098,-1 -0.58246,0 -1.05902,0.45 -1.05902,1 0,0.55 0.19844,1 0.44098,1 0.24254,0 0.7191,-0.45 1.05902,-1 z m -56.40625,-1.05017 c 1.079246,-0.5776 1.724215,-1.43535 1.433262,-1.90612 -0.70554,-1.14159 -4.172305,-0.17603 -5.616698,1.56435 C 62.000913,203.70383 62.11432,204 63.443297,204 c 0.928502,0 2.571206,-0.47258 3.650453,-1.05017 z M 327,199.10699 c 0,-1.13332 -2.52569,-2.11635 -5.33179,-2.07519 -2.12165,0.0311 -2.12652,0.0633 -0.22708,1.5 2.14363,1.62137 5.55887,1.97475 5.55887,0.57519 z M 270.81114,187.25 C 270.24571,184.3007 261,182.2511 261,185.07505 c 0,1.27894 5.15524,3.83893 7.82332,3.88491 1.68442,0.029 2.23107,-0.4412 1.98782,-1.70996 z M 44.418213,181.39301 c 3.213059,-1.23297 1.440923,-2.4934 -3.090044,-2.1978 C 35.726792,179.56064 33.993206,182 39.334879,182 c 1.92585,0 4.21335,-0.27314 5.083334,-0.60699 z M 197,180.5 c 0,-0.825 -0.45,-1.5 -1,-1.5 -0.55,0 -1,0.675 -1,1.5 0,0.825 0.45,1.5 1,1.5 0.55,0 1,-0.675 1,-1.5 z M 375.41821,145.39301 C 378.55681,144.18862 376.8996,143 372.08179,143 c -5.54858,0 -8.33557,0.78036 -7.51703,2.10478 0.62405,1.00974 8.43283,1.21711 10.85345,0.28823 z M 44.569098,143.8882 c 1.12792,-1.82502 -1.709742,-2.85663 -7.902431,-2.87289 -4.157205,-0.0109 -5.716252,0.33593 -5.425861,1.20711 0.801709,2.40512 12.005912,3.80543 13.328292,1.66578 z m -15.150885,-4.49519 c 4.547127,-1.7449 -1.55569,-4.21703 -12.524445,-5.07342 -5.009665,-0.39112 -7.835558,-0.22279 -8.2780078,0.49311 -1.2836799,2.07703 3.8890458,3.52715 18.0524528,5.0608 0.642516,0.0696 1.880016,-0.14664 2.75,-0.48049 z M 119.75501,137.75 C 119.27832,136.30257 115,135.41522 115,136.76378 c 0,1.42806 1.17454,2.23622 3.25,2.23622 1.08622,0 1.7383,-0.5416 1.50501,-1.25 z m 181.80386,-7.18268 c 1.54755,-1.14219 1.68971,-1.68761 0.70114,-2.68999 -0.9951,-1.009 -1.93318,-0.92674 -4.75,0.4165 -1.9305,0.9206 -3.51001,2.13109 -3.51001,2.68999 0,1.51925 5.33438,1.22532 7.55887,-0.4165 z m 37.33735,-0.68099 c 1.75707,-0.61251 3.01791,-1.62501 2.80187,-2.25 -0.5095,-1.47391 -10.31769,-1.41673 -11.80324,0.0688 -2.93412,2.93412 2.83283,4.33155 9.00137,2.18118 z M 43.569098,128.8882 c 1.007599,-1.63033 -1.526076,-2.85543 -5.941543,-2.87289 -3.257872,-0.0129 -3.682783,0.21322 -2.677379,1.42466 1.065242,1.28353 3.068817,2.00398 6.740807,2.42385 0.655041,0.0749 1.500193,-0.36413 1.878115,-0.97562 z m 124.647572,-4.07153 c -1.52752,-1.52752 -2.65464,-0.40039 -1.80743,1.80742 0.50024,1.30358 0.93392,1.43275 1.82354,0.54313 0.88963,-0.88963 0.88579,-1.44865 -0.0161,-2.35055 z M 139,124 c 0,-0.55 -0.45,-1 -1,-1 -0.55,0 -1,0.45 -1,1 0,0.55 0.45,1 1,1 0.55,0 1,-0.45 1,-1 z m 106.5,-2 c 0.33992,-0.55 -0.0835,-1 -0.94098,-1 -0.85746,0 -1.55902,0.45 -1.55902,1 0,0.55 0.42344,1 0.94098,1 0.51754,0 1.2191,-0.45 1.55902,-1 z m -117.125,-2.79775 c 0.6938,-1.12258 -0.50184,-2.70643 -3.05926,-4.05255 C 122.48003,113.6571 122,113.69961 122,115.4433 c 0,0.79381 1.00013,2.14381 2.22251,3 2.49747,1.74929 3.43457,1.92057 4.15249,0.75895 z M 232,118 c 0,-0.55 -0.19844,-1 -0.44098,-1 -0.24254,0 -0.7191,0.45 -1.05902,1 -0.33992,0.55 -0.14148,1 0.44098,1 0.58246,0 1.05902,-0.45 1.05902,-1 z m 52,-9.14217 c 0,-0.5895 -0.7118,-0.79866 -1.58179,-0.46482 -0.86998,0.33385 -1.76998,0.60699 -2,0.60699 -0.23001,0 -0.41821,0.69083 -0.41821,1.53518 0,1.22531 0.4037,1.31913 2,0.46482 1.1,-0.5887 2,-1.55268 2,-2.14217 z m 43.13922,-0.82456 c 1.29843,-1.0817 1.81945,-1.9817 1.15783,-2 -1.8199,-0.0503 -6.29705,2.17311 -6.29705,3.12725 0,1.48909 2.71296,0.89403 5.13922,-1.12725 z M 109,107.97856 c 0,-1.36424 -4.80846,-3.50343 -5.75265,-2.55924 C 102.38446,106.2822 105.75737,109 107.69113,109 108.41101,109 109,108.54035 109,107.97856 Z m 187,-5.05416 c 0,-0.4739 -0.675,-0.60261 -1.5,-0.28603 -0.825,0.31659 -1.5,0.96334 -1.5,1.43723 0,0.4739 0.675,0.60261 1.5,0.28603 0.825,-0.31659 1.5,-0.96334 1.5,-1.43723 z m -57,-4.542434 c 0,-0.825 -0.45,-1.221885 -1,-0.881966 -0.55,0.339919 -1,1.293034 -1,2.118034 0,0.824996 0.45,1.221886 1,0.881966 0.55,-0.33992 1,-1.293034 1,-2.118034 z M 67,99.035184 C 67,97.84839 63.690603,96 61.565741,96 59.277777,96 59.653792,97.527402 62.25,98.779505 65.121541,100.1644 67,100.26551 67,99.035184 Z M 73.5,95 C 73.160081,94.45 72.346024,94.006891 71.690983,94.015313 70.975367,94.024514 71.098708,94.41754 72,95 c 1.921123,1.241525 2.267305,1.241525 1.5,0 z m 207.23331,-1.966171 c 2.1333,-1.987464 3.84068,-5.793176 2.98356,-6.650288 C 282.78624,85.45291 277,91.229228 277,93.088894 c 0,2.435572 1.07698,2.419687 3.73331,-0.05506 z M 114,88.828741 C 114,87.168466 110.94555,84 109.34501,84 c -2.11211,0 -1.57368,2.726427 0.8775,4.443296 C 112.87478,90.301023 114,90.415837 114,88.828741 Z M 56.417402,86.133647 C 57.558617,84.287122 47.098266,78 42.884851,78 c -2.169549,0 -2.172887,0.02467 -0.289839,2.141735 1.680388,1.889222 10.753739,6.822451 12.595971,6.848496 0.380041,0.0054 0.931929,-0.38009 1.226419,-0.856584 z M 181.82332,85.332866 C 181.33677,82.824097 179,82.479622 179,84.916667 179,86.145004 179.64569,87 180.57332,87 c 0.93124,0 1.44138,-0.68037 1.25,-1.667134 z M 135.36163,77.5 C 134.75303,75.914024 133,75.419158 133,76.833333 133,77.890847 134.09309,79 135.13528,79 c 0.44107,0 0.54293,-0.675 0.22635,-1.5 z m 100.96248,0.09777 c 0.29595,-0.771229 0.273,-1.667325 -0.051,-1.991324 C 235.56789,74.90122 233,76.875127 233,78.122445 c 0,1.430604 2.73974,0.998162 3.32411,-0.524679 z m 71.55669,-4.954142 c 0.708,-0.853081 0.82723,-1.70604 0.2853,-2.040971 -1.24165,-0.767378 -6.34264,3.302678 -5.61494,4.480126 0.6606,1.068867 3.4947,-0.228185 5.32964,-2.439155 z M 228,67.081787 c 0,-0.505016 0.27314,-1.630016 0.60699,-2.5 C 228.99423,63.572648 228.67094,63 227.71398,63 226.31337,63 225,64.975294 225,67.081787 225,67.586804 225.675,68 226.5,68 c 0.825,0 1.5,-0.413196 1.5,-0.918213 z m 143.5579,-4.145768 c 1.35494,-1.497189 1.43361,-1.935172 0.34709,-1.932281 -1.918,0.0051 -7.90499,3.738588 -7.90499,4.929544 0,1.454552 5.50465,-0.728446 7.5579,-2.997263 z M 77.108337,53.888916 c -1.315414,-1.066408 -2.665414,-1.663936 -3,-1.32784 -0.334585,0.336096 0.467911,1.483599 1.783326,2.550008 1.315414,1.066408 2.665414,1.663936 3,1.32784 0.334585,-0.336096 -0.467911,-1.483599 -1.783326,-2.550008 z M 21.037774,44.902454 C 19.13355,43.306104 16.701306,42 15.632787,42 c -1.849356,0 -1.859601,0.09189 -0.213088,1.911269 2.009545,2.220521 7.794328,5.214636 8.558438,4.429715 0.287024,-0.294843 -1.036139,-1.842181 -2.940363,-3.43853 z m 121.916386,-0.9881 c -0.61391,-1.147106 -1.36033,-1.841513 -1.65872,-1.543128 C 140.47118,43.195487 141.79149,46 143.0038,46 c 0.73956,0 0.72434,-0.639458 -0.0496,-2.085646 z M 194.5,34.5 c 0,-3.055464 -1.90106,-4.503202 -2.8084,-2.138716 -0.80079,2.086846 0.36567,5.786293 1.68572,5.346274 C 193.9948,37.501735 194.5,36.058333 194.5,34.5 Z m 144.99001,-7.489569 c 1.5753,-1.644263 2.616,-3.237757 2.31266,-3.541099 C 341.11776,22.784428 335,27.838202 335,29.088894 c 0,1.677629 1.60186,0.936115 4.49001,-2.078463 z M 209,21.85765 c 0,-2.771695 -0.38908,-3.896558 -1.25,-3.613864 -1.38399,0.454448 -2.21831,5.093422 -1.33164,7.404069 C 207.43174,28.288663 209,25.986233 209,21.85765 Z M 35.235294,8.7647059 C 32.943627,6.4730392 30.71838,4.9482865 30.2903,5.3763665 c -0.42808,0.4280801 1.161873,2.5881269 3.533229,4.8001045 5.61604,5.238585 6.839078,4.015547 1.411765,-1.4117651 z"
         id="path50998"
         inkscape:connector-curvature="0" />
      <path
         style="fill:#262626"
         d="M 0.44247088,253.75 C 0.86599604,220.0625 1.1487221,188 1.070751,182.5 0.99124653,176.89184 1.2951772,173.04136 1.7627855,173.73265 2.9392619,175.47189 14,172.32208 14,170.24781 c 0,-1.19534 -1.321441,-1.39884 -7,-1.07797 L 0,169.56538 0,84.774432 0,-0.0165145 56.654776,0.24174275 C 110.75253,0.48834398 113.32171,0.58287474 113.57895,2.3362183 113.95384,4.8915486 118.78744,12 120.15011,12 c 1.41261,0 0.31395,-9.095164 -1.21263,-10.0386403 -2.28457,-1.411944 28.36214,-1.9534281 110.77879,-1.95730454 L 315.93255,0 313.84231,3.5426982 C 310.77658,8.7387128 312.61767,9.1529962 316.98557,4.25 L 320.77174,0 357.38587,0 394,0 l 0,81.353207 0,81.353203 -4.87007,-0.46795 c -3.13008,-0.30076 -5.1309,-0.0459 -5.60013,0.71333 -1.1637,1.8829 0.28627,2.54821 5.55353,2.54821 l 4.91667,0 0,74.75 0,74.75 -117.5,0 c -73.74571,0 -117.5,-0.35463 -117.5,-0.95233 0,-0.52378 -3.0375,-0.98131 -6.75,-1.01673 -10.62234,-0.10135 -17.98928,-0.7793 -23.32312,-2.14632 C 124.49235,309.74809 124,309.341 124,306.81095 124,304.98953 123.47638,304 122.51254,304 120.86637,304 116,311.08384 116,313.48013 116,314.82254 109.20868,315 57.836213,315 l -58.16378786,0 0.77004574,-61.25 z m 29.63516012,42 c 4.63036,-3.55499 6.731188,-6.27451 5.668208,-7.33749 C 34.354265,287.02093 24,295.19672 24,297.68709 c 0,2.05398 1.503391,1.57482 6.077631,-1.93709 z M 343,295.29216 C 343,294.02275 335.62935,287 334.29705,287 c -2.18818,0 -1.46357,1.61017 2.42379,5.38595 3.41655,3.31849 6.27916,4.6434 6.27916,2.90621 z m 28.67034,-1.70886 C 371.06096,291.99528 363.29707,286 361.84996,286 c -2.70117,0 1.09528,4.64711 6.60373,8.08339 3.19972,1.99605 4.11963,1.85303 3.21665,-0.50009 z M 197.28975,290 c 0.7125,-2.7246 -0.29149,-6.16496 -1.66707,-5.71256 -0.61748,0.20307 -1.27077,1.37919 -1.45176,2.61361 -0.65402,4.46056 2.05806,7.15535 3.11883,3.09895 z m -84.55664,-3.94991 c 2.26838,-3.34778 2.23778,-5.35989 -0.068,-4.47505 -1.45815,0.55954 -4.66506,5.65519 -4.66506,7.41259 0,2.00372 2.39015,0.5203 4.73311,-2.93754 z m -23.139095,-1.55323 c 2.705539,-4.12918 1.093363,-5.33808 -2.425746,-1.81898 C 83.486913,286.35924 82.744265,289.74242 86,288 c 1.100001,-0.5887 2.717307,-2.16512 3.594015,-3.50314 z M 200.76099,275.9227 c 0.29479,-3.86593 -0.98551,-6.52001 -2.64919,-5.4918 -1.20746,0.74626 -1.54309,7.80448 -0.4243,8.92327 1.4271,1.42709 2.82174,-0.12999 3.07349,-3.43147 z M 351,266.01419 c 0,-1.30528 -7.61467,-6.3123 -8.91816,-5.86412 -1.31036,0.45054 -0.30129,1.86635 3.30302,4.6344 3.03208,2.32859 5.61514,2.89428 5.61514,1.22972 z M 121,253.19002 c 0,-1.23 -0.35999,-1.17421 -2,0.30998 -1.1,0.99549 -2,2.48498 -2,3.30998 0,1.23 0.35999,1.17421 2,-0.30998 1.1,-0.99549 2,-2.48498 2,-3.30998 z m 31.60104,1.26341 c 0.35154,-1.40061 0.32332,-2.86241 -0.0627,-3.24843 -0.83073,-0.83073 -3.53834,2.60215 -3.53834,4.48613 0,2.37458 2.9488,1.36106 3.60104,-1.2377 z m -7.2146,-6.7692 c 1.61915,-2.16868 1.76246,-2.93127 0.73986,-3.93695 -1.01607,-0.99926 -1.65185,-0.77784 -3.19728,1.1135 -2.1251,2.60075 -2.61772,6.53545 -0.73987,5.9095 0.65404,-0.21801 2.09282,-1.60673 3.19729,-3.08605 z M 314,248.07258 C 314,246.79367 309.03794,243 307.36514,243 c -2.14429,0 -1.60584,1.6655 1.26972,3.92742 2.75839,2.16975 5.36514,2.72615 5.36514,1.14516 z M 156.8,246.8 c 1.34614,-1.34614 1.63396,-4.8 0.4,-4.8 -1.41318,0 -3.2,2.34521 -3.2,4.2 0,2.08269 1.08484,2.31516 2.8,0.6 z M 117,244.5 c 0.69443,-0.83674 0.80272,-1.5 0.24489,-1.5 -0.55,0 -1.5602,0.675 -2.24489,1.5 -0.69443,0.83674 -0.80272,1.5 -0.24489,1.5 0.55,0 1.5602,-0.675 2.24489,-1.5 z m 59,-0.58333 c 0,-2.43705 -2.33677,-2.09257 -2.82332,0.4162 -0.19138,0.98676 0.31876,1.66713 1.25,1.66713 C 175.35431,246 176,245.145 176,243.91667 Z M 42.872493,242.56594 c 1.525245,-0.78874 3.357998,-2.13874 4.072784,-3 C 48.058376,238.22473 47.926564,238 46.026815,238 43.625317,238 38,241.5518 38,243.06809 c 0,1.3266 1.66863,1.15463 4.872493,-0.50215 z M 59.75,240.24086 C 62.103946,238.70203 62.816293,236 60.868034,236 58.777053,236 53,240.1477 53,241.64895 c 0,1.68966 2.954004,1.07344 6.75,-1.40809 z M 358,241.06809 c 0,-1.49973 -5.75846,-5.17159 -8.43464,-5.37831 -3.77116,-0.29131 -3.29717,1.56646 1.03171,4.04377 4.07165,2.33011 7.40293,2.93064 7.40293,1.33454 z M 165.8125,239.0625 c 0.25,-0.75 -0.125,-1.125 -0.875,-0.875 -0.72188,0.24062 -1.50938,1.02812 -1.75,1.75 -0.25,0.75 0.125,1.125 0.875,0.875 0.72187,-0.24063 1.50937,-1.02813 1.75,-1.75 z m 75.15502,-5.12319 C 239.78795,231.73527 238,231.35008 238,233.3 c 0,1.71093 2.09211,3.76111 3.16279,3.09939 0.46344,-0.28642 0.37557,-1.39346 -0.19527,-2.46008 z M 99.923275,228.41111 C 103.62937,225.29263 103.82086,224 100.57673,224 98.154046,224 92,228.36896 92,230.08889 c 0,1.86987 4.953779,0.82088 7.923275,-1.67778 z M 287,227.53896 c 0,-1.12391 -4.39419,-4.41337 -5.21659,-3.9051 C 280.62359,224.35067 283.85954,228 285.65499,228 286.39474,228 287,227.79253 287,227.53896 Z m -17,-2.91652 c 0,-0.75765 -0.5625,-1.82398 -1.25,-2.36961 -1.6954,-1.34554 -8.75,-2.55341 -8.75,-1.49814 0,1.57474 2.38901,3.24531 4.64098,3.24531 1.23254,0 2.5191,0.45 2.85902,1 0.90358,1.46203 2.5,1.22094 2.5,-0.37756 z m 40,0.43426 c 0,-1.42475 -4.18382,-4.06112 -5.3253,-3.35565 -0.56588,0.34973 -0.0134,1.41604 1.27375,2.45829 2.49081,2.01694 4.05155,2.36262 4.05155,0.89736 z m -67,-0.86557 c 0,-0.44488 -0.60673,-1.63863 -1.3483,-2.65278 -1.79794,-2.45883 -4.04951,-1.15018 -2.61922,1.52234 1.01401,1.89469 3.96752,2.73622 3.96752,1.13044 z M 43.04966,220.47432 c 5.944073,-3.0738 2.048686,-4.79573 -4.581779,-2.02535 -1.907334,0.79694 -3.467881,1.92194 -3.467881,2.5 0,1.55147 4.663311,1.2765 8.04966,-0.47465 z m 205.38031,0.63899 c 0.65323,-1.05695 -2.21301,-3.6636 -3.07767,-2.79894 -0.8332,0.8332 0.37204,3.68563 1.5573,3.68563 0.5348,0 1.21897,-0.39901 1.52037,-0.88669 z M 126,216 c 2.9808,-2.61006 3.93331,-3.95039 2.82143,-3.97016 -0.92322,-0.0164 -2.27322,0.53849 -3,1.23313 -0.72679,0.69463 -2.55893,2.055 -4.07143,3.02305 -1.5125,0.96805 -2.75,2.19971 -2.75,2.73703 0,1.95377 2.59726,0.8321 7,-3.02305 z m 68,-2.5 c 0,-0.76008 -0.50031,-1.69118 -1.1118,-2.0691 -1.5787,-0.97568 -2.99859,1.73116 -1.71769,3.27455 C 192.39823,216.18476 194,215.50236 194,213.5 Z M 65.412442,211.032 67.444444,209 64.672562,209 C 61.391761,209 56,211.58412 56,213.15652 c 0,1.77592 7.118825,0.1691 9.412442,-2.12452 z m 44.607618,-0.55617 c 0.69572,-0.83829 0.97772,-1.81139 0.62667,-2.16244 -0.86715,-0.86714 -5.64673,1.38875 -5.64673,2.66517 0,1.57075 3.59829,1.2104 5.02006,-0.50273 z M 266,210.56739 c 0,-1.4764 -3.70849,-3.19224 -4.71786,-2.18286 C 260.44835,209.21832 263.01832,212 264.62244,212 265.3801,212 266,211.35532 266,210.56739 Z m 44,-3.11566 c 0,-1.81939 -6.10391,-4.69332 -7.36287,-3.4667 -1.1562,1.12651 0.0808,2.95876 2.7152,4.02166 3.26451,1.31716 4.64767,1.152 4.64767,-0.55496 z m -11,-1.34474 C 299,205.18638 296.63273,204 294.79577,204 c -0.63011,0 -0.54954,0.59177 0.20423,1.5 1.35856,1.63697 4,2.0378 4,0.60699 z M 125,202.96482 C 125,202.43417 124.3801,202 123.62244,202 c -1.66192,0 -3.85612,2.43298 -2.98228,3.30683 0.81298,0.81298 4.35984,-1.09231 4.35984,-2.34201 z m 62.5,0.52148 c 0,-2.79806 -2.92896,-2.48798 -3.33121,0.35266 -0.25684,1.81382 0.0799,2.25979 1.5,1.98631 1.04197,-0.20067 1.83121,-1.20874 1.83121,-2.33897 z M 66.532119,203.551 c 3.94414,-1.64794 4.582091,-3.551 1.190387,-3.551 -2.76302,0 -6.979263,2.77554 -6.180219,4.06842 0.746818,1.20838 0.896663,1.19284 4.989832,-0.51739 z M 328,199.57755 c 0,-1.60208 -6.39968,-4.0666 -7.99676,-3.07955 -1.3729,0.8485 -0.31025,2.43571 2.34909,3.50869 3.28724,1.32633 5.64767,1.14697 5.64767,-0.42914 z m -39,-0.47056 c 0,-1.01369 -3.04579,-2.39454 -3.74326,-1.69706 -0.25136,0.25135 -0.16039,0.93695 0.20214,1.52354 0.79781,1.29088 3.54112,1.42531 3.54112,0.17352 z M 219,190.5 c 0,-0.825 -0.675,-1.5 -1.5,-1.5 -0.825,0 -1.5,0.675 -1.5,1.5 0,0.825 0.675,1.5 1.5,1.5 0.825,0 1.5,-0.675 1.5,-1.5 z m 53,-3.15802 C 272,185.76684 266.2854,183 263.03212,183 c -4.37417,0 -1.61972,4.45952 3.65395,5.91583 3.39956,0.93879 5.31393,0.3718 5.31393,-1.57385 z M 72.55887,187.5318 c 1.899444,-1.43666 1.894567,-1.46888 -0.227083,-1.5 -3.016758,-0.0443 -5.427613,1.00413 -4.767026,2.07298 0.814997,1.3187 2.793154,1.09174 4.994109,-0.57298 z M 342,185 c -1.98326,-1.28168 -6.29212,-1.28168 -5.5,0 0.33992,0.55 2.05398,0.99311 3.80902,0.98469 2.42807,-0.0117 2.83235,-0.24708 1.69098,-0.98469 z m -101.54271,-1.9309 c 0.73955,-1.1966 -1.14162,-2.38223 -2.4736,-1.55902 C 236.86533,182.20126 237.59952,184 239,184 c 0.48508,0 1.14086,-0.41891 1.45729,-0.9309 z M 46.45,180.89708 c 1.948985,-1.84042 -1.191554,-3.16292 -5.85151,-2.46412 -4.881644,0.73205 -6.70588,2.23552 -4.476605,3.68946 1.555057,1.01421 8.876288,0.14561 10.328115,-1.22534 z m 109.09112,0.0364 c 0.92034,-1.48915 -0.14673,-2.29879 -2.06137,-1.56407 -0.88358,0.33906 -1.32643,1.06965 -0.98412,1.62354 0.81058,1.31154 2.21511,1.28411 3.04549,-0.0595 z m 41.91617,0.13563 c 0.73955,-1.1966 -1.14162,-2.38223 -2.4736,-1.55902 C 193.86533,180.20126 194.59952,182 196,182 c 0.48508,0 1.14086,-0.41891 1.45729,-0.9309 z M 135,146.05902 c 0,-1.17986 -1.95035,-2.442 -2.66667,-1.72569 C 131.61702,145.04965 132.87916,147 134.05902,147 134.57656,147 135,146.57656 135,146.05902 Z M 229,145.5 c 0,-0.825 -0.675,-1.5 -1.5,-1.5 -0.825,0 -1.5,0.675 -1.5,1.5 0,0.825 0.675,1.5 1.5,1.5 0.825,0 1.5,-0.675 1.5,-1.5 z m 148.49164,-0.64346 c 2.40882,-2.28294 -5.4535,-3.64591 -11.4175,-1.97928 -3.01416,0.8423 -3.79168,2.78776 -1.37948,3.45164 2.54115,0.69937 11.60596,-0.34358 12.79698,-1.47236 z M 45.429973,144.11331 c 1.018058,-1.64726 -2.261938,-3.24047 -7.860906,-3.81834 C 33.767962,139.90266 32,139.28056 32,138.33535 c 0,-2.21048 -4.768484,-3.47468 -15.384271,-4.07864 -8.2079428,-0.46696 -9.8063617,-0.32442 -9.4248908,0.84048 0.6593908,2.01359 6.1393728,3.6332 15.0591618,4.45074 5.646838,0.51756 7.75,1.09109 7.75,2.11342 0,0.7717 1.0125,1.81007 2.25,2.30749 2.937759,1.18083 12.474855,1.28537 13.179973,0.14447 z m 75.163787,-5.26501 c 0.39148,-0.63344 -0.11797,-1.75844 -1.13211,-2.5 -2.18797,-1.59988 -2.50641,-1.62229 -4.46165,-0.31398 -1.29833,0.86874 -1.23902,1.2028 0.44113,2.48468 2.32798,1.77615 4.18507,1.89483 5.15263,0.3293 z m 180.00511,-7.46224 C 304.58055,129.49663 305.12028,127 301.54705,127 c -4.99287,0 -9.06061,3.15311 -6.88038,5.33333 1.01076,1.01076 2.20926,0.81938 5.9322,-0.94727 z m 41.52888,-2.11381 C 344.11731,127.28269 341.96308,126 336.63211,126 c -5.6334,0 -9.45721,1.85594 -8.15729,3.95926 0.95054,1.538 11.98307,0.98285 13.65293,-0.68701 z M 45,128.57755 c 0,-0.78234 -1.567191,-1.93967 -3.482647,-2.57182 -6.238589,-2.05892 -10.500812,0.0934 -5.405155,2.72953 C 39.464719,130.46958 45,130.37137 45,128.57755 Z M 169,126 c 0,-1.33333 -0.66667,-2 -2,-2 -1.92719,0 -2.7099,1.95677 -1.33333,3.33333 C 167.04323,128.7099 169,127.92719 169,126 Z m -29.18816,-1.73852 C 139.39344,122.08893 136,121.27156 136,123.34334 c 0,1.37399 1.30203,2.38389 3.32332,2.57771 0.45283,0.0434 0.67266,-0.70338 0.48852,-1.65957 z m 105.84308,-1.80461 c 0.32569,-0.84872 0.32244,-1.81284 -0.007,-2.1425 -0.86466,-0.86466 -3.7309,1.74199 -3.07767,2.79894 0.85349,1.38097 2.43195,1.04509 3.08489,-0.65644 z M 129,118.5567 C 129,116.78534 125.19642,114 122.77749,114 c -2.47839,0 -2.22035,2.5764 0.44502,4.4433 2.78911,1.95357 5.77749,2.01223 5.77749,0.1134 z m 103.5,-0.39003 c 0,-1.80866 -1.9573,-1.47847 -2.3455,0.39568 -0.21599,1.04271 0.15888,1.49986 1,1.21948 0.74002,-0.24667 1.3455,-0.9735 1.3455,-1.61516 z m 83.96036,-0.51403 c 1.01344,-0.74104 1.43695,-1.58821 0.94113,-1.88258 -1.25522,-0.74525 -5.40149,0.94176 -5.40149,2.19772 0,1.44587 2.27151,1.28539 4.46036,-0.31514 z M 162.6306,112.47975 c -0.33906,-0.88358 -1.0915,-1.31293 -1.6721,-0.9541 -0.72494,0.44804 -0.68251,1.10197 0.13544,2.08754 1.45303,1.7508 2.38084,1.06645 1.53666,-1.13344 z m 120.80716,-2.06037 c 0.86934,-0.86934 1.33542,-1.97737 1.03572,-2.46229 -0.76894,-1.24417 -5.47348,1.07947 -5.47348,2.70343 0,1.82532 2.50755,1.68907 4.43776,-0.24114 z M 109.375,109.20225 c 1.16119,-1.87884 -4.85846,-6.11879 -6.44072,-4.53653 -1.05315,1.05315 -0.0648,2.64766 2.56572,4.13933 2.40958,1.36639 3.22439,1.44991 3.875,0.3972 z m 218.76422,-1.16898 2.36078,-1.96673 -2.63922,-0.0333 c -1.45156,-0.0183 -3.70156,0.85176 -5,1.93346 l -2.36078,1.96673 2.63922,0.0333 c 1.45156,0.0183 3.70156,-0.85176 5,-1.93346 z M 229.77083,104.1875 C 229.98854,103.53437 229.45417,103 228.58333,103 227.7125,103 227,103.7125 227,104.58333 c 0,1.76593 2.15276,1.45839 2.77083,-0.39583 z m 65.29491,0.77732 c 2.4651,-1.31928 2.49657,-2.96482 0.0567,-2.96482 -2.0866,0 -4.47425,2.31486 -3.4471,3.34201 0.86778,0.86778 1.11568,0.8402 3.3904,-0.37719 z m 30.49313,-2.43302 c 1.90947,-1.44425 1.90755,-1.46871 -0.11774,-1.5 -1.13238,-0.0175 -2.93238,0.62889 -4,1.4364 -1.90947,1.44425 -1.90755,1.46871 0.11774,1.5 1.13238,0.0175 2.93238,-0.62889 4,-1.4364 z M 240,98.377555 c 0,-1.613242 -2.58697,-1.854868 -3.5296,-0.329668 -0.35619,0.576338 -0.37742,1.752019 -0.0472,2.612623 0.48529,1.26466 0.88584,1.32788 2.08861,0.32967 C 239.33032,100.31089 240,99.135211 240,98.377555 Z M 68,99.52568 C 68,97.955465 63.134605,95 60.54966,95 57.832277,95 58.884453,97.693233 62.25,99.352327 66.326189,101.36174 68,101.4122 68,99.52568 Z m 8,-3.5 C 76,94.741279 70.003404,91.662472 69.15707,92.512343 68.323071,93.349828 72.759015,97 74.610784,97 75.374853,97 76,96.561556 76,96.02568 Z M 219.77083,94.1875 C 219.98854,93.534375 219.45417,93 218.58333,93 217.7125,93 217,93.7125 217,94.583333 c 0,1.765927 2.15276,1.45839 2.77083,-0.395833 z M 281.22442,93.25 c 0.84392,-0.9625 2.27522,-3.2125 3.18067,-5 C 285.76651,85.562341 285.80711,85 284.63973,85 282.89862,85 276,91.963394 276,93.720842 c 0,1.871568 3.44264,1.561306 5.22442,-0.470842 z M 115,88.952251 c 0,-0.576262 -1.19071,-2.151262 -2.64602,-3.5 -4.69043,-4.346942 -7.50458,-2.370367 -3.17967,2.233298 C 111.39799,90.052548 115,90.835747 115,88.952251 Z m 67,-3.393234 c 0,-1.342541 -0.48921,-2.743331 -1.08713,-3.112868 -1.67419,-1.034703 -3.18979,1.106006 -2.44482,3.453188 C 179.39937,88.833653 182,88.58307 182,85.559017 Z M 57.044176,85.082543 c -0.564406,-1.054602 -3.802114,-3.304602 -7.194907,-5 -9.284514,-4.639527 -13.309823,-3.823818 -6.554999,1.328337 4.066907,3.101981 9.45957,5.498056 12.490914,5.549978 1.946032,0.03333 2.132883,-0.245434 1.258992,-1.878315 z M 137,79.154988 c 0,-1.243387 -3.91522,-4.573105 -4.58715,-3.90117 C 131.46243,76.204241 133.95951,80 135.53518,80 136.34083,80 137,79.619744 137,79.154988 Z m 99.60104,-1.701558 c 0.35154,-1.400614 0.37098,-2.814739 0.0432,-3.142501 C 235.65918,73.325843 233,76.107063 233,78.122445 c 0,2.80033 2.86383,2.268278 3.60104,-0.669015 z m 69.93414,-3.06844 C 309.1935,72.643191 309.85637,70 307.63486,70 305.96206,70 301,73.793665 301,75.07258 c 0,1.443506 2.81673,1.093606 5.53518,-0.68759 z M 227.8,67.8 C 229.45804,66.141958 229.32021,62 227.60699,62 226.07797,62 225,64.10129 225,67.081787 c 0,2.191368 1.05598,2.462232 2.8,0.718213 z m 142.22502,-3.05 c 3.57795,-2.424237 4.96379,-4.760143 2.80831,-4.73355 -1.97947,0.02442 -9.11441,4.290646 -9.58892,5.73355 -0.66236,2.014109 3.1652,1.449623 6.78061,-1 z M 288,60.170698 c 0,-1.143012 -0.61158,-0.944777 -2.46918,0.800348 -1.35805,1.27582 -2.21337,2.733576 -1.90072,3.239457 C 284.38855,65.437696 288,62.099047 288,60.170698 Z M 80,56.568094 C 80,55.282165 75.074693,51 73.59563,51 71.967558,51 73.323515,54.074556 75.75,55.884913 79.029322,58.331557 80,58.487592 80,56.568094 Z M 24.753172,47.75 c -0.595071,-1.798911 -7.921253,-6.677542 -10.086505,-6.716779 -2.732992,-0.04952 -1.517977,2.112175 2.913494,5.183558 4.12364,2.85803 7.876614,3.660222 7.173011,1.533221 z M 144.30109,45.217975 C 143.47058,42.884942 141.94066,41 140.87756,41 c -1.36976,0 -1.0337,2.33207 0.69086,4.794224 1.75035,2.498973 3.68235,2.091564 2.73267,-0.576249 z M 194.5,34.416667 C 194.5,31.601852 194.07801,30.5 193,30.5 c -1.59204,0 -2.58662,4.528917 -1.57405,7.167631 1.08265,2.821333 3.07405,0.715324 3.07405,-3.250964 z M 339.4652,27.896408 C 342.71837,25.040091 344.12602,22 342.19542,22 340.91549,22 334,28.653447 334,29.88487 c 0,1.894767 1.78011,1.247089 5.4652,-1.988462 z M 209.49506,24.022471 c 0.78661,-3.581369 -0.21622,-7.280098 -1.82992,-6.749349 -0.64083,0.210769 -1.3023,2.48554 -1.46993,5.055047 C 205.96106,25.917256 206.23234,27 207.36575,27 c 0.8237,0 1.76419,-1.315141 2.12931,-2.977529 z M 40,13.62736 C 40,12.090221 31.615412,4 30.022343,4 27.679909,4 29.29809,7.0924161 33.64079,10.915013 38.555621,15.24122 40,15.857281 40,13.62736 Z"
         id="path50996"
         inkscape:connector-curvature="0" />
      <path
         style="fill:#161616"
         d="M 0.27204289,279.75 C 0.81076914,237.26814 2.8097731,186.25832 4.0439465,183.5 c 0.4921801,-1.1 1.0211385,-3.53069 1.1754632,-5.40153 0.2577492,-3.12463 0.6672577,-3.51376 5.0305903,-4.78026 4.743041,-1.37671 6.20244,-3.54688 3.168213,-4.71122 C 10.830879,167.61414 2,167.91809 2,169 2,169.55 1.55,170 1,170 0.34117647,170 0,141 0,85 L 0,0 56.5,0 c 53.36037,0 56.5,0.09823794 56.5,1.7678655 0,1.8032541 4.51398,9.1770415 6.37641,10.4161515 1.96479,1.307217 2.71581,-0.386231 2.07283,-4.6739588 -0.54747,-3.6507789 -0.363,-4.4019116 1.20202,-4.8945415 3.94995,-1.2433439 27.94257,-1.75136459 109.25692,-2.31341138 l 84.40818,-0.58343139 -2.65818,3.48505387 C 310.74846,7.0185722 310.28548,9 312.30383,9 c 1.47397,0 8.33131,-6.7363929 7.94569,-7.8055418 -0.13776,-0.381952 16.39974,-0.81243525 36.75,-0.95662941 L 394,-0.02434242 394,81.487829 c 0,72.643571 -0.36297,85.923271 -2.19802,80.418111 -0.54563,-1.63689 -9.80198,-0.0423 -9.80198,1.68855 0,1.77554 4.188,2.79896 8.55429,2.09041 L 394,165.12574 394,240.06287 394,315 292.5,315 c -57.58249,0 -101.5,-0.37982 -101.5,-0.87783 0,-0.4828 -8.2125,-1.10404 -18.25,-1.38053 -10.0375,-0.27649 -21.625,-1.01001 -25.75,-1.63004 -4.125,-0.62004 -10.875,-1.4613 -15,-1.86947 -7.22696,-0.71511 -7.51152,-0.84224 -7.81642,-3.49213 -0.17403,-1.5125 -0.69653,-2.75 -1.16111,-2.75 -1.54671,0 -6.12014,6.23835 -6.70039,9.13962 L 115.75,315 l -57.962487,0 -57.96248681,0 0.4470167,-35.25 z M 26.315741,298.84453 C 30.809161,296.46753 37,290.69346 37,288.87954 c 0,-2.55681 -0.894013,-2.38499 -6.331784,1.21683 -5.139434,3.40422 -8.945687,7.64566 -8.095574,9.02117 0.707485,1.14473 1.119912,1.11465 3.743099,-0.27301 z M 344,296.0348 c 0,-1.36197 -5.88221,-7.90139 -8.2445,-9.16565 -1.38271,-0.74 -2.28584,-0.73881 -3.02865,0.004 -0.74457,0.74457 0.2861,2.40296 3.47578,5.59264 4.20424,4.20423 7.79737,5.84888 7.79737,3.56901 z m 28.08848,-2.86948 C 371.06334,291.24983 362.44487,285 360.82856,285 c -1.72762,0 -0.7227,2.72533 1.92144,5.21095 3.77692,3.55049 9.68225,6.97504 10.06485,5.8367 0.17317,-0.51523 -0.1537,-1.81227 -0.72637,-2.88233 z M 197.56383,290.60171 C 198.46599,287.00723 197.69368,283.5 196,283.5 c -1.56347,0 -2.63339,5.40703 -1.60184,8.0952 0.83677,2.1806 2.50003,1.65861 3.16567,-0.99349 z m -84.849,-3.50652 c 2.72302,-4.04069 2.94769,-6.36943 0.57034,-5.91159 -1.90716,0.36728 -6.28517,6.31426 -6.28517,8.53761 0,2.45482 3.31846,0.92996 5.71483,-2.62602 z M 88.944687,285.75 C 92.208785,282.26736 92.862931,280 90.603592,280 89.098396,280 83,286.44424 83,288.0348 c 0,2.00327 3.009967,0.84641 5.944687,-2.2848 z M 200.5,275.43036 c 0,-3.87444 -0.36711,-4.97367 -1.75,-5.23999 -1.47469,-0.284 -1.75,0.43491 -1.75,4.56964 0,2.69866 0.30937,5.21603 0.6875,5.59416 1.65042,1.65042 2.8125,-0.38401 2.8125,-4.92381 z M 352,267.19113 c 0,-2.60182 -8.33025,-8.66211 -10.67161,-7.76365 -1.42629,0.54732 -1.3952,0.84538 0.28549,2.73655 3.55684,4.00228 10.38612,7.3078 10.38612,5.0271 z m -209.95416,-9.27678 c 0.61391,-1.1471 0.86562,-2.33623 0.55935,-2.6425 C 141.77925,254.44592 139,257.0289 139,258.62244 c 0,2.07032 1.78039,1.65642 3.04584,-0.70809 z m -21.4827,-2.37037 c 2.32318,-3.54562 0.81406,-5.24697 -2.16864,-2.44487 -1.31697,1.23723 -2.3945,2.84608 -2.3945,3.5752 0,2.19713 2.8446,1.4925 4.56314,-1.13033 z m 32.41186,-0.48362 c 0.6697,-1.61681 0.90462,-3.44612 0.52204,-4.06515 -1.05791,-1.71173 -4.49704,1.85184 -4.49704,4.65978 0,3.30864 2.51399,2.93257 3.975,-0.59463 z m -8.04758,-5.69522 c 2.53243,-3.21946 2.76993,-6.64893 0.42856,-6.18846 -2.33889,0.45998 -5.74388,5.37009 -5.02432,7.24524 0.86962,2.26618 2.22753,1.95394 4.59576,-1.05678 z m 169.33701,0.0371 c 1.10949,-1.10948 -0.44413,-3.35017 -3.73169,-5.38199 C 306.49417,241.52426 306,241.51135 306,243.9018 c 0,1.05201 1.45221,2.83182 3.25,3.98315 3.51564,2.25148 4.10263,2.42909 5.01443,1.51728 z m -157.40512,-1.73271 c 1.57343,-1.89587 1.85702,-5.87204 0.45442,-6.37138 -0.65244,-0.23227 -1.93942,0.72715 -2.85995,2.13205 -2.51232,3.83429 -0.3788,7.59425 2.40553,4.23933 z M 215.1125,245.7125 C 214.29583,244.89583 214,245.00774 214,246.13333 c 0,0.84334 0.32812,1.86146 0.72917,2.2625 0.40104,0.40104 0.90166,0.21167 1.1125,-0.42083 0.21083,-0.6325 -0.1173,-1.65063 -0.72917,-2.2625 z m -97.94124,-0.36749 C 119.25894,243.45569 119.54506,242 117.82874,242 116.43293,242 113,244.95393 113,246.15499 c 0,1.3895 2.21644,0.95911 4.17126,-0.80998 z m 59.17936,-0.57776 c 0.32113,-1.22802 0.18782,-2.62881 -0.29624,-3.11287 -1.37793,-1.37793 -3.05438,0.21633 -3.05438,2.90464 0,3.08056 2.55791,3.23953 3.35062,0.20823 z M 47.433277,239.99501 c 1.719555,-1.70518 1.75493,-1.98556 0.319992,-2.5362 -1.767736,-0.67834 -7.99427,1.92173 -9.793363,4.0895 -0.622647,0.75024 -0.844272,1.82977 -0.492499,2.39895 0.805503,1.30334 7.238793,-1.24797 9.96587,-3.95225 z M 192,242.44098 c 0,-1.65007 -1.58044,-1.92885 -2.5,-0.44098 -0.81551,1.31952 0.38021,3.19207 1.5691,2.45729 0.51199,-0.31643 0.9309,-1.22377 0.9309,-2.01631 z M 59.44284,240.90122 c 3.341937,-1.97179 4.521643,-4.1871 2.797254,-5.25283 C 60.357203,234.4847 52,239.72671 52,242.07143 c 0,1.60255 3.739986,1.01453 7.44284,-1.17021 z M 358.5,240.9863 c 0,-1.63082 -10.23717,-7.26677 -11.63274,-6.40426 -2.05081,1.26747 -0.53874,3.55153 3.88274,5.86509 5.15141,2.6955 7.75,2.87629 7.75,0.53917 z m -192.10681,-1.24786 c 1.24401,-1.97217 0.28509,-3.2127 -1.85006,-2.39336 -1.78523,0.68505 -2.14218,5.02127 -0.36457,4.42873 0.6482,-0.21606 1.64479,-1.13198 2.21463,-2.03537 z M 242,236.08179 C 242,234.0303 240.70327,232 239.39301,232 c -1.4174,0 -1.94027,3.11941 -0.72634,4.33333 0.98607,0.98608 3.33333,0.80895 3.33333,-0.25154 z M 100.18901,228.86542 C 102.93897,226.90727 104.0795,223 101.90113,223 c -2.149121,0 -7.992794,3.29278 -9.394033,5.29333 -2.996662,4.27833 1.958701,4.64737 7.681913,0.57209 z M 230,229.05902 c 0,-1.17986 -1.95035,-2.442 -2.66667,-1.72569 C 226.61702,228.04965 227.87916,230 229.05902,230 229.57656,230 230,229.57656 230,229.05902 Z m 57,-1.23028 C 287,226.16847 283.94555,223 282.34501,223 c -2.11211,0 -1.57368,2.72643 0.8775,4.4433 2.65227,1.85772 3.77749,1.97254 3.77749,0.38544 z m 22.13922,-4.89972 C 306.33261,220.63572 304,220.4265 304,222.46806 c 0,1.997 5.18342,4.69706 6.5,3.38587 0.6658,-0.66306 0.21102,-1.64058 -1.36078,-2.92491 z m -66.60727,-0.82836 C 241.78483,219.7467 238,219.1854 238,221.42857 c 0,0.78572 0.73607,2.16464 1.63571,3.06429 2.04138,2.04138 3.83357,0.56108 2.89624,-2.3922 z m 28.45274,3.14934 c -0.0458,-2.24419 -3.28568,-4.44697 -8.30919,-5.64942 -2.52572,-0.60456 -2.79017,-0.43408 -2.5,1.61167 0.22525,1.58802 1.39501,2.65281 3.8245,3.48131 4.07583,1.38992 7.00647,1.6234 6.98469,0.55644 z M 41.282119,221.6549 c 3.926121,-1.64114 6.280589,-4.18909 4.746889,-5.13697 -2.424394,-1.49836 -12.721063,3.55328 -11.44641,5.61572 0.761925,1.23282 2.984972,1.07396 6.699521,-0.47875 z M 249,220.56343 c 0,-2.19036 -2.89174,-4.07169 -4.21875,-2.74468 -0.84532,0.84532 -0.67323,1.64313 0.67603,3.13404 1.87931,2.07662 3.54272,1.8938 3.54272,-0.38936 z M 125.55954,217.28824 C 129.78762,213.75401 131.25862,211 128.9183,211 127.17907,211 119,218.10882 119,219.62046 c 0,2.25831 1.85815,1.59765 6.55954,-2.33222 z M 194,213.5 c 0,-2.54098 -2.27754,-3.47798 -3.5296,-1.45211 C 189.50719,213.60641 190.7174,216 192.46862,216 193.43543,216 194,215.07833 194,213.5 Z M 63.987771,212.63414 C 66.834687,211.31885 67.984711,208 65.593561,208 62.856396,208 56,211.17458 56,212.44191 c 0,2.83036 2.164833,2.88245 7.987771,0.19223 z M 110.1,210.9 c 2.70867,-2.70867 1.1799,-4.64664 -2.24264,-2.84294 -2.71708,1.43192 -3.94,3.00021 -3.23236,4.14519 0.88162,1.42649 3.32819,0.84456 5.475,-1.30225 z m 156.43894,1.03699 C 267.31971,210.67368 264.24287,207 262.40403,207 c -2.47042,0 -2.72294,2.32334 -0.45236,4.16195 2.59734,2.1032 3.65589,2.28204 4.58727,0.77504 z M 311,208.07258 C 311,206.47041 305.83362,203 303.44847,203 c -1.25499,0 -2.46754,0.55721 -2.69455,1.23824 -0.32592,0.97777 -1.00651,0.9677 -3.23546,-0.0479 -3.97132,-1.80946 -5.5671,0.0764 -2.02727,2.39582 1.95705,1.28231 3.16176,1.49773 4.35691,0.77911 1.14207,-0.68672 2.42348,-0.59229 4.1519,0.30597 2.90842,1.5115 7,1.74607 7,0.40131 z M 123.41821,205.39301 C 124.86332,204.83847 125.75111,201 124.43426,201 122.82889,201 120,203.25531 120,204.53518 c 0,1.58052 0.92801,1.81341 3.41821,0.85783 z m 64.41183,-2.22305 c 0.27462,-1.93881 -0.0612,-2.27462 -2,-2 -1.55336,0.22003 -2.44005,1.10672 -2.66008,2.66008 -0.27462,1.93881 0.0612,2.27462 2,2 1.55336,-0.22003 2.44005,-1.10672 2.66008,-2.66008 z m -119.78038,0.30436 c 5.586943,-2.88912 2.575167,-5.59788 -3.432927,-3.08754 C 60.697076,202.02452 59.686329,205 63.04966,205 c 1.127313,0 3.377313,-0.68656 5,-1.52568 z M 290,199.51905 c 0,-1.50463 -4.59896,-3.25342 -5.68907,-2.16331 C 283.32584,198.34082 286.10706,201 288.12244,201 289.1551,201 290,200.33357 290,199.51905 Z m 39,0.53765 C 329,198.42861 324.67613,196 321.77749,196 c -3.42923,0 -3.78281,2.66036 -0.52749,3.96884 3.00981,1.20979 7.75,1.26354 7.75,0.0879 z M 218.55733,189.12876 c -2.14624,-2.14624 -4.52022,0.006 -2.58227,2.34119 1.00712,1.2135 1.60139,1.29652 2.70781,0.37828 1.2183,-1.0111 1.20066,-1.39327 -0.12554,-2.71947 z M 74.819144,187.51419 c 1.308894,-1.30889 -1.83463,-2.6697 -4.70884,-2.03842 -3.534111,0.77622 -4.951172,2.38651 -3.104497,3.52782 1.190172,0.73557 6.624226,-0.30029 7.813337,-1.4894 z m 197.927096,0.76573 c 0.60812,-1.85267 -5.81652,-5.36296 -9.24624,-5.05195 -4.10392,0.37213 -3.85958,2.83689 0.5,5.0438 3.81934,1.93343 8.11297,1.93743 8.74624,0.008 z M 344,185.97525 C 344,184.78691 339.75676,183 336.9349,183 c -2.4125,0 -2.56269,2.68929 -0.1849,3.31067 3.32153,0.86801 7.25,0.68626 7.25,-0.33542 z M 240.80963,182.25 c -0.18536,-0.9625 -0.99969,-1.75 -1.80963,-1.75 -0.80994,0 -1.62427,0.7875 -1.80963,1.75 -0.23646,1.22785 0.30348,1.75 1.80963,1.75 1.50615,0 2.04609,-0.52215 1.80963,-1.75 z M 44.994749,182.10647 c 1.372112,-0.38179 2.653637,-1.5192 2.847833,-2.52758 0.318465,-1.65366 -0.246277,-1.79007 -5.759635,-1.39127 -6.193584,0.448 -8.858755,1.74808 -7.636798,3.72525 0.734053,1.18772 6.589623,1.29519 10.5486,0.1936 z m 110.669421,-0.67369 c 0.78813,-2.05384 -0.79372,-3.58878 -2.56825,-2.49206 C 151.58465,179.87474 152.2807,183 154,183 c 0.58452,0 1.3334,-0.70525 1.66417,-1.56722 z m 42,0 c 0.83346,-2.17196 -1.28244,-4.21451 -2.79695,-2.7 C 193.58718,180.01282 194.38017,183 196,183 c 0.58452,0 1.3334,-0.70525 1.66417,-1.56722 z M 182.30282,161.5137 c 0.10845,-0.54247 -0.59032,-1.13797 -1.55282,-1.32333 -1.0946,-0.2108 -1.75,0.27967 -1.75,1.30963 0,1.73979 2.9553,1.75204 3.30282,0.0137 z M 135.75501,145.75 C 135.27832,144.30257 131,143.41522 131,144.76378 c 0,1.42806 1.17454,2.23622 3.25,2.23622 1.08622,0 1.7383,-0.5416 1.50501,-1.25 z m 93.79884,0.16287 c 0.36954,-0.59793 0.19017,-1.56885 -0.3986,-2.15762 -1.2479,-1.2479 -4.49423,0.88726 -3.58522,2.35806 0.76113,1.23154 3.17383,1.11015 3.98382,-0.20044 z m 148.7384,-0.80512 c 2.19877,-2.19877 -0.87448,-3.36734 -7.71096,-2.93203 -7.0233,0.44721 -10.23975,2.11137 -7.57293,3.91816 1.87571,1.2708 13.79607,0.50169 15.28389,-0.98613 z M 45.39917,144.69739 c 1.636646,-1.19675 1.649483,-1.41212 0.157951,-2.64998 -0.892913,-0.74106 -3.874159,-1.56363 -6.624991,-1.82795 -3.44676,-0.33119 -5.30062,-1.03947 -5.963717,-2.27848 -1.380673,-2.57981 -20.173422,-5.96285 -24.8602682,-4.4753 -5.6751465,1.80122 1.2485658,5.25186 12.4352572,6.19748 5.800719,0.49034 7.769276,1.05257 8.506124,2.42938 1.639312,3.06308 13.203343,4.90548 16.349644,2.60485 z m 76.19459,-5.84909 C 122.51523,137.35733 119.27789,135 116.30887,135 114.70013,135 114,135.5812 114,136.91667 c 0,2.86108 6.06573,4.40403 7.59376,1.93163 z m 181.48032,-8.41535 c 1.45403,-1.31587 1.64975,-2.06079 0.80797,-3.07508 C 301.86077,124.92239 293,128.42112 293,131.65472 c 0,1.30458 0.7707,1.50525 4.07762,1.0617 2.24268,-0.30081 4.9411,-1.32837 5.99646,-2.28347 z m 34.79477,0.50176 c 5.3785,-1.15349 7.19105,-3.2971 4.15965,-4.91946 -2.39811,-1.28343 -5.53376,-1.28039 -10.17901,0.01 -4.45383,1.23709 -5.73057,3.6839 -2.58284,4.94989 2.95224,1.18736 2.8762,1.18771 8.6022,-0.0403 z M 46,128.59783 C 46,126.89316 40.922622,125 36.350777,125 c -3.715558,0 -4.602388,2.17162 -1.600777,3.9199 2.756925,1.60576 11.25,1.36261 11.25,-0.32207 z m 123.64326,-1.11056 C 170.24677,125.91455 168.43001,123 166.84617,123 c -1.57466,0 -2.12303,2.96148 -0.8356,4.51273 1.5781,1.90151 2.89679,1.89226 3.63269,-0.0255 z M 141,125.58179 C 141,123.61667 139.37195,122 137.39301,122 c -2.63025,0 -3.03741,0.9556 -1.19301,2.8 1.11702,1.11702 4.8,1.71687 4.8,0.78179 z m 105.82875,-3.913 c 0.27033,-1.41772 -0.17665,-1.75642 -1.97957,-1.5 -1.29371,0.184 -2.48395,1.14511 -2.67793,2.16242 -0.27033,1.41772 0.17665,1.75642 1.97957,1.5 1.29371,-0.184 2.48395,-1.14511 2.67793,-2.16242 z m 50.72855,-0.087 c 1.06675,-0.78003 1.60466,-1.75313 1.19535,-2.16244 -1.05397,-1.05398 -5.99534,1.37898 -5.25002,2.58493 0.83447,1.35021 1.76262,1.2535 4.05467,-0.42249 z M 129.79616,118.1242 c -0.40923,-2.20063 -6.90569,-5.41464 -8.24251,-4.07782 -1.31298,1.31298 0.36905,4.06142 3.43777,5.61729 2.8086,1.42398 5.21258,0.65373 4.80474,-1.53947 z M 233,117.92668 c 0,-2.56265 -3.30983,-2.27193 -3.81184,0.3348 -0.2311,1.2 0.30742,1.73852 1.73852,1.73852 1.43109,0 2.07332,-0.64223 2.07332,-2.07332 z m 85.76515,-1.72213 c 0.55017,-1.65051 -3.91394,-1.54745 -6.2268,0.14375 -1.01414,0.74156 -1.52831,1.85894 -1.14258,2.48305 0.84934,1.37427 6.735,-0.72367 7.36938,-2.6268 z M 164,113.46862 c 0,-1.59667 -2.65762,-3.14433 -3.66667,-2.13529 -0.31922,0.31923 -0.31394,1.27482 0.0118,2.12354 0.7669,1.99852 3.65492,2.00779 3.65492,0.0118 z m 118.77749,-2.02532 c 2.47439,-1.73313 2.98266,-4.4433 0.83329,-4.4433 -2.19447,0 -6.01098,3.54344 -5.21087,4.83805 0.94961,1.5365 1.71945,1.46708 4.37758,-0.39475 z m 45.02201,-2.46244 c 3.92896,-2.39544 3.29308,-4.44938 -1.10516,-3.56973 -3.42512,0.68503 -6.93222,3.39495 -6.11174,4.72252 0.88492,1.43183 3.72057,0.97888 7.2169,-1.15279 z M 110,108.5567 C 110,106.78534 106.19642,104 103.77749,104 c -2.47839,0 -2.22035,2.5764 0.44502,4.4433 2.78911,1.95357 5.77749,2.01223 5.77749,0.1134 z m 119.81955,-4.38503 C 229.9953,102.97725 229.7129,102 229.192,102 c -1.53389,0 -3.42239,2.81821 -2.68645,4.00898 1.03159,1.66915 2.95495,0.60283 3.314,-1.83731 z m 66.24619,0.79315 C 298.38531,103.72342 298.63844,101 296.43426,101 293.9656,101 291,102.92923 291,104.53518 c 0,1.70908 2.30914,1.90493 5.06574,0.42964 z m 30.07348,-1.89053 c 2.05685,-1.67779 2.14711,-2.00895 0.70104,-2.57235 C 325.00497,99.786898 319,102.48578 319,104.02568 c 0,1.68299 4.67309,1.06025 7.13922,-0.95139 z m -86.24418,-2.87817 c 0.61172,-1.143011 0.61717,-2.333686 0.0149,-3.250002 -0.79046,-1.202583 -1.28303,-1.049663 -2.92486,0.908046 -1.08588,1.294791 -1.72518,2.757286 -1.42067,3.249996 0.92764,1.50097 3.30858,1.00173 4.33066,-0.90804 z M 68.770282,99.810846 c -0.617732,-1.853196 -5.016885,-4.750368 -7.66005,-5.044716 -3.675144,-0.409272 -3.637974,1.941741 0.06641,4.200217 3.663125,2.233323 8.225723,2.740733 7.593644,0.844499 z M 77,95.966663 C 77,94.81678 71.650239,92 69.466327,92 66.897006,92 68.289165,94.332382 71.976659,96.205739 75.264944,97.876285 77,97.793708 77,95.966663 Z M 219.81955,94.171672 C 219.9953,92.977252 219.67364,92 219.10473,92 c -1.32634,0 -3.2418,3.529592 -2.38205,4.38935 1.16132,1.161312 2.76908,0.01 3.09687,-2.217678 z m 59.62783,0.670349 C 283.39819,93.041912 288.03131,84 285.00288,84 282.81744,84 276,91.282003 276,93.616362 c 0,2.748037 0.0596,2.76923 3.44738,1.225659 z M 115.44767,90.084672 C 116.43822,88.48193 110.99351,83 108.41111,83 c -3.19585,0 -3.0423,1.522654 0.51197,5.076923 2.93393,2.933936 5.46988,3.714299 6.52459,2.007749 z m 67.08746,-2.141507 c 0.35923,-0.58126 0.37722,-2.15626 0.04,-3.5 C 181.74953,81.153883 178,81.036552 178,84.3 c 0,3.547868 3.06989,6.013973 4.53513,3.643165 z M 58,86.550891 c 0,-3.439753 -16.052751,-11.89814 -18.305503,-9.645388 -1.589431,1.589431 0.788281,3.697395 8.55107,7.58096 C 55.911924,88.321785 58,88.763705 58,86.550891 Z m 79,-7.395903 c 0,-2.502966 -3.72884,-5.826151 -5.05231,-4.502679 -0.6734,0.673402 -0.31167,1.88654 1.09621,3.676371 2.45169,3.116818 3.9561,3.431043 3.9561,0.826308 z m 99.68902,-1.178123 c 0.65395,-1.300858 0.9649,-2.727822 0.69098,-3.171031 -1.03978,-1.682396 -3.46836,-0.703632 -4.4119,1.778082 -1.80763,4.754423 1.42306,5.963853 3.72092,1.392949 z m 70.23425,-3.565759 C 309.99439,71.826933 311.01039,69 308.86803,69 306.47477,69 301,73.231694 301,75.081559 c 0,2.655361 2.27708,2.39762 5.92327,-0.670453 z m -78.16644,-7.635355 c 1.36343,-2.795098 0.68539,-6.087895 -1.13004,-5.487839 -1.85945,0.614609 -4.009,5.273685 -3.29343,7.138423 0.88002,2.293307 2.86007,1.554469 4.42347,-1.650584 z m 141.62224,-1.801196 c 4.66941,-2.961253 5.78201,-5.799132 2.01719,-5.145169 C 369.15076,60.39314 362,65.010317 362,66.542154 c 0,2.310285 3.21176,1.709413 8.37907,-1.567599 z M 287.97708,62.042823 C 289.33656,59.502607 289.26975,59 287.57258,59 c -1.75328,0 -5.75353,4.898198 -4.99827,6.120242 0.74799,1.210262 4.14302,-0.72355 5.40277,-3.077419 z M 81,57.603592 C 81,56.098396 74.555761,50 72.965204,50 70.888043,50 72.170275,52.942319 75.534796,55.896408 79.378657,59.271362 81,59.777826 81,57.603592 Z M 26,48.548041 C 26,46.813568 18.401348,41.38982 14.653518,40.449175 10.419312,39.386456 11.332227,42.448304 16.25,45.803651 22.653574,50.172746 26,51.114684 26,48.548041 Z M 145,46.222506 C 145,43.803581 142.21466,40 140.4433,40 c -1.84704,0 -1.82483,1.361529 0.0824,5.04966 1.67817,3.245255 4.4743,3.978201 4.4743,1.172846 z M 194.5,34.416667 C 194.5,30.712963 194.12994,29.5 193,29.5 c -1.58104,0 -2.66088,6.335394 -1.56611,9.188319 1.21083,3.155374 3.06611,0.570631 3.06611,-4.271652 z M 339.83361,28.15361 C 343.73496,24.551906 345.29604,21 342.97766,21 341.38459,21 333,29.090221 333,30.62736 c 0,2.407016 2.54454,1.485899 6.83361,-2.47375 z M 209.55463,25.638373 C 210.53452,21.73416 209.66552,16.5 208.03743,16.5 c -1.85024,0 -3.49275,5.549741 -2.64371,8.932589 0.80793,3.219025 3.37279,3.345875 4.16091,0.205784 z M 41,14.38487 C 41,11.716663 29.694712,1.971955 28.261702,3.4049647 27.192428,4.4742382 30.117231,8.467487 34.844614,12.392651 39.63402,16.369313 41,16.811419 41,14.38487 Z"
         id="path50994"
         inkscape:connector-curvature="0" />
      <path
         style="fill:#0a0a0a"
         d="M 0.44030655,287.75 C 1.3943745,249.88326 1.8262084,241.28568 2.983318,237.11998 3.5363585,235.12899 3.9913558,225.30333 3.9944231,215.28518 3.9996857,198.09685 4.112708,197.01005 6,196 c 1.7962311,-0.96131 2,-2.09382 2,-11.11563 l 0,-10.04526 4.041009,-1.58735 c 2.679129,-1.0524 3.93955,-2.12058 3.739957,-3.16956 C 15.400451,168.08238 3.6045129,167.25341 1.4126898,169.07246 0.19765176,170.08085 0,158.33527 0,85.122445 L 0,0 56.606989,0 C 105.78991,0 113.1406,0.19122692 112.65447,1.4580664 111.81338,3.6499012 118.10157,12.5 120.5,12.5 c 1.55556,0 2,-0.666667 2,-3 0,-2.8484848 0.27778,-3.0505051 5.5,-4 3.025,-0.55 5.95,-1.2657126 6.5,-1.5904725 0.55,-0.3247599 10.86748,-0.6892312 22.92773,-0.8099363 12.78109,-0.1279195 22.73611,-0.6520909 23.86569,-1.2566231 1.2521,-0.6701038 25.52015,-1.23000839 68.57226,-1.58207718 L 316.5,-0.28402686 313.78532,2.4590336 c -3.23494,3.2687534 -4.38438,6.3419095 -2.91981,7.8064724 0.75223,0.752239 2.22912,-0.210255 5.03838,-3.2835339 C 318.0897,4.59073 319.79302,2.1540509 319.68904,1.5671296 319.55855,0.8305085 331.03697,0.41880104 356.75,0.23782879 L 394,-0.02434242 394,81.487829 C 394,135.16261 393.65849,163 393,163 c -0.55,0 -1,-0.45 -1,-1 0,-1.23248 -7.9755,-1.30148 -9.89572,-0.0856 -0.76764,0.48607 -1.14093,1.54771 -0.82953,2.35921 0.70272,1.83126 9.98838,3.43701 10.52723,1.82046 1.82301,-5.46904 2.19802,7.1429 2.19802,73.92224 l 0,75.01629 -86.75,-0.33104 c -123.67265,-0.47193 -114.25793,-0.26786 -115.82883,-2.51063 -1.1972,-1.70924 -3.23136,-1.95924 -20.62468,-2.53481 -10.61307,-0.3512 -25.25899,-0.93216 -32.54649,-1.29103 -12.96553,-0.63847 -13.25,-0.7018 -13.25,-2.94976 0,-3.20554 -1.75427,-3.94744 -4.16942,-1.76328 -2.59806,2.34957 -5.69023,8.46194 -5.10844,10.09796 0.35234,0.99077 -11.62636,1.25 -57.761941,1.25 l -58.20646732,0 0.68657487,-27.25 z M 28.027494,298.3507 C 32.098918,295.63483 38,289.68573 38,288.29705 38,286.4965 34.930941,286.67586 31.972506,288.6493 27.901082,291.36517 22,297.31427 22,298.70295 c 0,1.80055 3.069059,1.62119 6.027494,-0.35225 z m 316.701376,-2.03731 c 0.93317,-2.79951 -10.86899,-12.57327 -12.82305,-10.61921 -1.31497,1.31497 2.80916,7.19713 7.04965,10.0548 3.45269,2.32676 5.13125,2.49086 5.7734,0.56441 z M 374,295.57755 c 0,-1.69255 -9.4823,-10.20891 -12.14093,-10.90415 -1.02139,-0.2671 -2.08399,-0.11849 -2.36132,0.33024 -1.00672,1.62891 0.85934,4.17813 5.8788,8.03102 5.27662,4.05027 8.62345,5.03718 8.62345,2.54289 z m -176.5,-7.50791 c 0,-6.00577 -1.74972,-7.81044 -3.6113,-3.72472 -1.60872,3.53077 -0.31942,9.88468 1.91831,9.45373 1.34153,-0.25835 1.69299,-1.44769 1.69299,-5.72901 z M 110.22183,290.75 c 1.96607,-1.53207 5.76932,-7.78912 5.77443,-9.5 0.006,-1.84805 -3.45228,-1.51689 -5.22068,0.5 -5.22593,5.96023 -5.65767,12.97727 -0.55375,9 z M 89.383638,285.99712 C 93.386075,281.5669 94.007625,279 91.077923,279 89.019395,279 82,286.48494 82,288.68 c 0,2.62934 3.847316,1.2314 7.383638,-2.68288 z M 201.42083,277.76203 C 202.46072,273.56475 200.99162,269 198.60089,269 c -1.84537,0 -2.98564,5.13558 -2.14051,9.64052 0.88079,4.69501 3.70345,4.19512 4.96045,-0.87849 z m 151.10624,-9.80583 c 0.82624,-1.33689 -1.02511,-3.56175 -5.92711,-7.12292 -4.77184,-3.46662 -6.8559,-3.65598 -6.41951,-0.58328 0.19627,1.38196 2.19568,3.50384 5.18256,5.5 5.26405,3.51801 6.17915,3.79982 7.16406,2.2062 z m -210.53679,-9.18062 c 1.36097,-2.23794 1.6407,-3.53818 0.91432,-4.25 -1.30443,-1.27827 -4.9046,2.82149 -4.9046,5.5852 0,2.86747 1.80097,2.26484 3.99028,-1.3352 z m -21.05837,-2.67995 C 123.51158,252.47281 123.55224,251 121.07258,251 119.00802,251 115,255.37913 115,257.63486 c 0,2.43286 3.80693,1.44503 5.93191,-1.53923 z m 31.67604,1.15437 c 0.73065,-0.9625 1.34275,-2.96514 1.36025,-4.45031 0.0175,-1.48517 0.64111,-3.06017 1.38582,-3.5 C 157.02646,248.31193 159,244.6669 159,242.56574 159,241.67601 158.15169,241 157.03518,241 154.97193,241 153,243.70726 153,246.5399 c 0,0.91926 -1.125,3.00837 -2.5,4.64247 -2.43551,2.89444 -3.18122,5.80308 -1.83333,7.15096 1.1336,1.13361 2.55496,0.74293 3.94128,-1.08333 z m -5.99148,-9.87451 C 148.14094,243.72691 147.78663,242 145.51356,242 c -3.15168,0 -7.02015,8.16008 -4.88208,10.29815 1.23015,1.23015 4.55776,-1.50681 5.98499,-4.92266 z m 166.00329,-2.08514 C 308.96856,241.94427 305,240.92103 305,243.32569 c 0,1.45127 3.35304,4.78987 6.48942,6.46148 1.42466,0.75931 2.37711,0.73856 3.35508,-0.0731 1.11398,-0.92452 0.70397,-1.73978 -2.22474,-4.42374 z M 217,248.58179 C 217,246.06854 215.82302,244 214.39301,244 c -1.47403,0 -1.79314,1.79371 -0.78602,4.41821 0.7543,1.96567 3.39301,2.09288 3.39301,0.16358 z m -99.08621,-3.19933 C 119.96394,242.77613 119.89976,241 117.75543,241 116.15296,241 112,245.09442 112,246.67431 c 0,2.27264 3.75523,1.45232 5.91379,-1.29185 z m 58.04053,1.17258 c 1.45461,-1.7527 1.01798,-5.74286 -0.68997,-6.30526 -1.55341,-0.51151 -3.73123,4.09117 -2.92719,6.18645 0.74922,1.95245 2.05965,1.9955 3.61716,0.11881 z m 16.56091,-2.60303 c 0.69645,-2.19431 -1.16019,-5.28947 -2.62854,-4.38198 -0.48768,0.3014 -0.88669,1.87145 -0.88669,3.48899 0,3.43541 2.50623,4.07208 3.51523,0.89299 z M 44.006402,242.99673 c 4.4736,-2.28226 6.93003,-5.70016 4.709171,-6.55238 C 45.831176,235.3375 36,240.8453 36,243.56809 c 0,2.02014 3.402619,1.77732 8.006402,-0.57136 z M 60.75,240.37125 c 6.972393,-5.30553 1.594588,-7.57668 -5.599962,-2.36498 C 52.867517,239.65972 51,241.38472 51,241.83961 c 0,3.01074 4.817047,2.28529 9.75,-1.46836 z M 165.8,241.8 c 1.7034,-1.7034 1.51636,-5.8 -0.26482,-5.8 -1.81764,0 -3.87988,3.65935 -3.14357,5.57814 0.66672,1.73744 1.81788,1.81237 3.40839,0.22186 z M 360,242.58179 C 360,239.59533 351.54567,234 347.03324,234 c -4.23089,0 -1.77138,4.03873 4.46676,7.3348 2.71067,1.43225 8.5,2.28157 8.5,1.24699 z M 242.45369,237.07494 C 243.43702,235.48387 240.7694,231 238.83948,231 c -2.04448,0 -2.38102,2.11961 -0.8043,5.06574 1.08944,2.03563 3.4508,2.57497 4.41851,1.0092 z M 100,229.04284 C 104.4601,225.52705 105.11218,223 101.5593,223 c -3.125464,0 -9.330746,3.82701 -10.119518,6.24105 -1.487917,4.55378 2.65354,4.45789 8.560218,-0.19821 z M 230.98469,229.75 c -0.0285,-2.32404 -1.76209,-4.0494 -3.42689,-3.41055 -1.31051,0.50288 -1.42528,1.03964 -0.56574,2.64571 1.18394,2.21222 4.01701,2.75493 3.99263,0.76484 z M 288,227.51356 C 288,225.89131 283.31732,222 281.36514,222 c -1.94235,0 -1.69095,3.4062 0.38486,5.21452 3.30421,2.87845 6.25,3.01939 6.25,0.29904 z m -16.56438,-1.4094 c 0.96612,-1.5632 -2.88859,-5.27394 -6.9173,-6.65894 C 260.40551,218.0313 259,218.2838 259,220.43657 c 0,3.19775 10.89364,8.16257 12.43562,5.66759 z M 312,225.56809 C 312,223.86313 306.86287,220 304.59563,220 c -2.64836,0 -1.8394,3.80388 1.15437,5.42803 3.51892,1.90904 6.25,1.97024 6.25,0.14006 z m -68.47282,-0.61207 C 244.38758,223.56386 241.32928,219 239.53596,219 c -2.34002,0 -2.8082,1.93556 -1.0991,4.54398 1.67842,2.5616 3.9845,3.2013 5.09032,1.41204 z M 43,221.15509 C 47.286745,219.12796 48.315495,216 44.695448,216 c -3.194668,0 -8.989693,2.44469 -10.710752,4.51844 -1.145589,1.38035 -1.133232,1.77384 0.07961,2.53495 1.602334,1.00552 3.767873,0.54548 8.935698,-1.8983 z M 250,221.5 c 0,-1.97748 -3.80541,-5.7383 -5.03647,-4.97746 -1.33966,0.82796 -1.20487,3.83612 0.23647,5.27746 1.68884,1.68884 4.8,1.49439 4.8,-0.3 z m -124.13462,-3.67683 c 5.05404,-4.11128 6.14877,-6.07836 4.09064,-7.35035 -1.13651,-0.7024 -3.57602,0.74349 -8.87956,5.26293 -2.3515,2.00383 -3.22246,3.4414 -2.78139,4.59081 0.93627,2.43987 1.87519,2.12938 7.57031,-2.50339 z m 68.09475,-2.27513 C 195.68629,213.46815 194.82776,210.5 192.5,210.5 c -2.04198,0 -3.09294,2.51243 -2.11596,5.05841 0.70605,1.83994 2.04369,1.83606 3.57609,-0.0104 z M 65.538099,212.56699 C 68.986357,210.30761 68.731609,208 65.033927,208 60.647694,208 55,210.99266 55,213.31688 c 0,1.69668 0.518186,1.87695 4.038099,1.40484 2.220955,-0.2979 5.145955,-1.26752 6.5,-2.15473 z m 44.633161,-1.22198 C 112.64444,209.10681 112.47836,207 109.82874,207 107.33976,207 104,209.66722 104,211.65499 c 0,1.87992 3.97189,1.68042 6.17126,-0.30998 z m 157.26436,0.75915 c 0.79468,-1.28581 -2.58066,-4.93547 -4.89937,-5.29753 -2.63875,-0.41203 -3.33297,3.13763 -0.95386,4.87727 2.07166,1.51484 5.04482,1.72831 5.85323,0.42026 z M 311.5,208.10792 c 0,-2.16559 -4.92406,-5.31521 -8.11927,-5.19339 -1.5844,0.0604 -4.59969,0.11233 -6.70064,0.11537 -3.07678,0.004 -3.7553,0.34106 -3.48777,1.73021 0.43518,2.25974 5.63906,4.80851 7.01281,3.43476 0.678,-0.678 2.03856,-0.55394 4.15168,0.37855 3.77829,1.6673 7.14319,1.44803 7.14319,-0.4655 z M 123.77749,205.4433 c 2.67986,-1.87705 2.91876,-4.4433 0.41364,-4.4433 -2.82035,0 -5.60395,2.48182 -4.88499,4.35539 0.78535,2.0466 1.65063,2.06361 4.47135,0.0879 z m 64.41682,-0.97043 c 1.41731,-3.11066 -0.0256,-4.97857 -3.09365,-4.00482 -1.32002,0.41896 -2.10066,1.50879 -2.10066,2.93267 0,4.3248 3.39319,5.02518 5.19431,1.07215 z M 68.455897,204.01677 C 71.623608,202.81241 72.012682,199 68.967881,199 65.77017,199 60,201.75535 60,203.28231 c 0,3.00202 2.02836,3.1782 8.455897,0.73446 z M 290.78479,199.879 c 0.42961,-2.23081 -5.40997,-4.66236 -7.09042,-2.95238 -0.92905,0.94536 -0.65841,1.6532 1.21828,3.18636 2.73965,2.23816 5.41659,2.1315 5.87214,-0.23398 z m 38.94897,0.43473 c 0.56699,-1.72278 -4.15567,-4.48948 -7.96096,-4.6638 -2.65611,-0.12168 -3.2728,0.22693 -3.2728,1.85007 0,3.33547 10.21961,5.89519 11.23376,2.81373 z M 219.5,190.4863 c 0,-1.29852 -0.77909,-2.09695 -2.25,-2.30585 -1.65701,-0.23533 -2.25,0.18196 -2.25,1.58333 0,1.04659 0.31556,2.21844 0.70124,2.60412 1.32654,1.32654 3.79876,0.10201 3.79876,-1.8816 z M 75.233952,188.16605 C 76.878605,186.5214 75.090276,185 71.512412,185 c -3.547039,0 -6.975812,2.44119 -5.891957,4.1949 0.752642,1.2178 8.159543,0.4251 9.613497,-1.02885 z M 273,187.94377 c 0,-1.47825 -1.27664,-2.62095 -4.54178,-4.06528 -5.43806,-2.40551 -7.84619,-2.14383 -8.28013,0.89976 -0.24868,1.74411 0.4339,2.5861 3,3.70064 1.82705,0.79356 4.78441,1.46044 6.57191,1.48197 2.62565,0.0316 3.25,-0.35588 3.25,-2.01709 z m 71.5,-1.93941 c 0,-1.64545 -7.05655,-4.38851 -9.18669,-3.57109 -2.44798,0.93937 -1.33636,3.50276 1.93669,4.46599 4.36033,1.28321 7.25,0.92652 7.25,-0.8949 z M 241.5,182.5 c 0,-2.20918 -3.11943,-3.28057 -4.76384,-1.63616 -0.7352,0.7352 -0.65572,1.52816 0.26426,2.63667 1.74054,2.09722 4.49958,1.48374 4.49958,-1.00051 z M 46.4349,182.02475 c 3.224633,-1.226 3.321037,-3.61821 0.177606,-4.40716 -2.851773,-0.71575 -11.364361,0.73427 -12.812556,2.18246 -0.564127,0.56413 -0.723337,1.51489 -0.353801,2.11282 0.835385,1.35168 9.530832,1.42658 12.988751,0.11188 z m 110.37879,-1.27777 c 0.18377,-0.96417 -0.40903,-2.0382 -1.31732,-2.38675 -1.98527,-0.76181 -5.03079,1.96605 -4.02033,3.60099 1.05237,1.70278 4.9507,0.81596 5.33765,-1.21424 z m 41.45567,1.00302 c 0.70631,-2.02486 -0.34856,-3.75 -2.29302,-3.75 -0.99532,0 -2.00588,0.5625 -2.2457,1.25 -0.70631,2.02486 0.34856,3.75 2.29302,3.75 0.99532,0 2.00588,-0.5625 2.2457,-1.25 z m -15.60519,-19.31722 c 0.79032,-2.05954 -0.8936,-3.66571 -2.99695,-2.85857 -1.95782,0.75128 -2.21149,3.03951 -0.41722,3.76351 2.16539,0.87375 2.79573,0.70668 3.41417,-0.90494 z m -46.3493,-15.81092 C 136.97553,144.90019 135.16244,143 132.85902,143 c -2.37489,0 -3.2889,1.7771 -1.82267,3.5438 1.52867,1.84193 4.58432,1.88711 5.27852,0.0781 z m 93.50468,-1.38208 C 230.05966,143.5568 229.6393,143 228.12857,143 c -2.39351,0 -3.52958,1.51261 -2.72021,3.62179 0.8554,2.22914 4.03825,1.23197 4.41119,-1.38201 z m 148.73932,0.32754 c 3.6023,-2.65873 -0.87544,-4.23893 -10.61774,-3.74702 -4.1035,0.2072 -7.57414,2.34645 -6.53489,4.028 1.06257,1.71927 14.7462,1.49512 17.15263,-0.28098 z M 46.664167,144.43278 c 0.896029,-2.33501 -0.971835,-3.62203 -6.532424,-4.50104 -2.743725,-0.43372 -5.866044,-1.66604 -6.938488,-2.73849 C 29.42122,133.42122 5.5,131.51506 5.5,134.98653 c 0,2.25412 4.1353866,3.78002 13.389007,4.94032 5.378021,0.67435 8.774171,1.59784 9.49343,2.58149 2.472899,3.38189 17.130377,4.92482 18.28173,1.92444 z M 122,138.10699 C 122,135.95149 120.1375,135 115.91821,135 113.70896,135 113,135.46564 113,136.91667 c 0,2.23328 1.26739,2.89549 5.75,3.00438 2.54991,0.0619 3.25,-0.32883 3.25,-1.81406 z m 180.25,-6.77301 C 305.87321,129.50875 306.01653,126 302.46788,126 c -3.03926,0 -8.94412,2.34352 -9.93189,3.94177 -0.38949,0.63021 -0.16794,1.79678 0.49234,2.59237 1.31106,1.57972 4.53676,1.15991 9.22167,-1.20016 z m 38.06118,-0.40345 c 3.10302,-0.86168 3.75336,-1.46452 3.5,-3.24443 -0.25886,-1.81852 -1.06783,-2.24096 -4.81118,-2.51236 -6.07928,-0.44077 -12,1.38466 -12,3.69973 0,0.98626 0.3,2.0932 0.66667,2.45986 1.01807,1.01807 8.37126,0.78383 12.64451,-0.4028 z m -293.576391,-1.6168 c 0.647989,-1.97408 -4.046526,-4.27399 -9.2911,-4.55183 C 33.079367,124.53069 32.5,124.73439 32.5,126.5 c 0,3.54308 13.142647,6.14093 14.234789,2.81373 z M 169.81642,126.25 c -0.36593,-3.1803 -4.39196,-4.5197 -5.43277,-1.8074 -0.78451,2.04442 1.31371,4.5574 3.80522,4.5574 1.53074,0 1.87671,-0.58457 1.62755,-2.75 z M 141,125.2 c 0,-2.30387 -1.89613,-4.2 -4.2,-4.2 -2.34935,0 -2.38552,3.55959 -0.05,4.9199 2.65742,1.54781 4.25,1.27804 4.25,-0.7199 z m 105.44297,-2.13699 C 248.42067,120.87769 247.78312,119 245.06343,119 c -2.34894,0 -4.45176,2.54565 -3.70669,4.48727 0.79756,2.0784 2.98661,1.8958 5.08623,-0.42426 z m 52.5922,-1.60539 c 0.90115,-1.08582 0.9665,-1.85595 0.22076,-2.60169 -1.24001,-1.24001 -6.3563,0.87061 -7.01542,2.89407 -0.59863,1.83776 5.23515,1.58672 6.79466,-0.29238 z M 130,119.07258 C 130,116.78877 125.52888,113 122.83376,113 c -3.21667,0 -3.45809,3.06622 -0.44546,5.65758 3.4065,2.93015 7.6117,3.15942 7.6117,0.415 z m 102.98943,0.44015 C 234.29675,117.93751 233.71962,115 232.10281,115 c -1.72569,0 -4.03106,3.02341 -3.45333,4.52894 0.72557,1.89082 2.76358,1.88321 4.33995,-0.0162 z m 85.89846,-1.97205 c 1.15838,-1.15838 1.24658,-1.80621 0.36583,-2.68696 -1.63913,-1.63913 -8.62322,1.11087 -9.09928,3.58285 -0.31353,1.62804 0.11053,1.78212 3.42461,1.24432 2.08034,-0.3376 4.46932,-1.30069 5.30884,-2.14021 z M 164.48723,115.02067 C 165.34603,113.63109 163.20282,110 161.52383,110 c -2.09736,0 -2.75378,1.70181 -1.53489,3.97933 1.14442,2.13838 3.48536,2.6803 4.49829,1.04134 z m 119.29026,-3.57737 c 2.32634,-1.62943 2.90444,-3.90381 1.25188,-4.92515 -1.28167,-0.79211 -6.63608,2.01456 -7.33929,3.8471 -1.13468,2.95693 2.48878,3.59863 6.08741,1.07805 z m 44.5347,-2.12782 c 3.67289,-1.86918 3.2518,-4.89598 -0.64295,-4.62152 l -2.75238,0.19395 2.29157,-1.87297 c 1.83786,-1.50215 2.04418,-2.12452 1.04206,-3.143463 -1.00886,-1.025802 -2.11626,-0.849383 -5.75,0.916023 -4.84088,2.35188 -5.7118,4.08298 -2.47941,4.92826 1.57852,0.4128 1.77299,0.82744 0.88812,1.89365 -0.62312,0.75082 -0.85982,2.07688 -0.526,2.94681 0.65571,1.70875 2.78933,1.37488 7.92899,-1.24074 z M 110.5,108.54236 c 0,-1.12358 -1.36467,-2.72727 -3.26543,-3.83738 -6.02077,-3.51631 -8.917534,0.67682 -2.98457,4.32023 3.85689,2.36851 6.25,2.18362 6.25,-0.48285 z m 120.33356,-3.89858 c 0.1947,-1.02092 -0.11913,-2.32935 -0.6974,-2.90762 C 228.72202,100.32202 226,102.59631 226,105.192 c 0,2.57724 4.3312,2.08601 4.83356,-0.54822 z m 65.26215,0.64061 c 3.13597,-1.85246 3.77735,-4.01213 1.45607,-4.9029 C 295.48204,99.587264 290,103.09648 290,105.21561 c 0,2.25218 2.35454,2.27875 6.09571,0.0688 z m -56.66714,-3.85582 c 2.40463,-2.404623 2.04939,-5.638781 -0.57644,-5.248121 -2.6262,0.390714 -4.39098,2.972944 -3.54266,5.183631 0.7895,2.0574 2.10558,2.07801 4.1191,0.0645 z M 69.5,100.10792 c 0,-2.184864 -4.867783,-5.264988 -8.604669,-5.444665 -4.725728,-0.227223 -4.438367,2.177033 0.604669,5.059062 4.302287,2.458703 8,2.636933 8,0.385603 z m 7.875,-2.905666 C 78.517853,95.353079 72.834584,91 69.277494,91 c -3.346666,0 -2.823322,2.696599 0.972506,5.01096 3.39239,2.068381 6.284115,2.551875 7.125,1.191294 z m 142.81931,-1.72938 c 1.48113,-3.250721 -0.23177,-5.516598 -2.65193,-3.508048 C 215.21426,93.896992 215.65326,98 218.18811,98 c 0.47012,0 1.37291,-1.137207 2.0062,-2.527126 z M 281.64107,93.75 C 284.26035,90.788044 287,86.332769 287,85.035183 287,84.465832 286.03088,84 284.84639,84 282.27582,84 275,91.512278 275,94.16639 c 0,2.630992 4.17788,2.369042 6.64107,-0.41639 z M 115.80717,89.266167 C 116.14548,86.97835 110.56052,82 107.65561,82 c -2.84933,0 -1.83524,3.6351 1.93841,6.948403 3.91913,3.441043 5.73753,3.534043 6.21315,0.317764 z M 59,86.595971 C 59,84.696085 56.145668,82.43766 49.459461,79.04724 43.161563,75.853722 39.585222,75.244074 38.399908,77.161952 37.512556,78.597717 40.840487,81.377004 47.490457,84.75383 55.701924,88.923578 59,89.451446 59,86.595971 Z M 183,86.2 C 183,83.212062 181.42603,81 179.3,81 178.49333,81 178,82.264957 178,84.333333 178,88.140385 178.58331,89 181.16667,89 182.50794,89 183,88.248485 183,86.2 Z M 138,79.722506 C 138,77.458177 134.94417,74 132.9433,74 c -2.40242,0 -2.55131,2.670674 -0.28831,5.171259 C 134.55186,81.267276 138,81.622893 138,79.722506 Z m 98.96482,-0.656765 C 238.67962,75.861604 238.24105,73 236.03518,73 233.86459,73 232,75.742117 232,78.934259 c 0,2.690222 3.54517,2.784109 4.96482,0.131482 z m 70.95845,-4.654635 c 4.43885,-3.735042 4.03537,-6.114821 -0.92327,-5.445644 -2.00247,0.270237 -7,5.069029 -7,6.721629 0,2.21253 4.67148,1.460223 7.92327,-1.275985 z M 229.02475,67.4349 C 230.59332,63.309259 230.2382,61 228.03518,61 225.74513,61 224,63.782686 224,67.434259 c 0,3.542341 3.67802,3.542811 5.02475,6.41e-4 z m 141.96906,-2.310253 c 5.10754,-3.071644 6.52272,-6.13018 2.82951,-6.115263 C 370.81665,59.021528 361,64.643721 361,66.353561 c 0,3.400056 2.88705,3.045042 9.99381,-1.228914 z M 287.81194,63.040493 C 290.43565,59.491734 290.58437,58 288.31445,58 286.01941,58 282,61.93021 282,64.174314 c 0,2.844787 3.35422,2.190431 5.81194,-1.133821 z M 81.657899,58.449119 c 0.694071,-1.80872 -2.874491,-5.97149 -6.925864,-8.079103 -2.483925,-1.292192 -2.834359,-1.266939 -3.414965,0.246096 -0.451107,1.175566 0.602307,2.851394 3.479242,5.534971 4.491701,4.189813 5.948427,4.67769 6.861587,2.298036 z M 26.817412,48.697835 C 27.166342,46.898908 18.162506,40.580858 13.628067,39.442787 11.433834,38.892069 11,39.119994 11,40.823498 c 0,2.129351 2.748319,4.46205 9.490869,8.055595 4.385073,2.337091 5.846189,2.295229 6.326543,-0.181258 z M 145.74903,46.988516 C 146.1398,44.849993 142.3067,39 140.5147,39 c -1.96351,0 -1.94368,3.269768 0.0431,7.111846 1.62263,3.137826 4.68355,3.654744 5.19119,0.87667 z M 194.8,39.8 c 1.65147,-1.651467 1.50888,-7.999235 -0.23268,-10.35887 -2.0078,-2.720353 -4.02538,-0.538965 -4.01053,4.336143 0.0194,6.361547 1.62517,8.640769 4.24321,6.022727 z M 340.04284,28.363158 c 2.72644,-2.550263 4.95716,-5.475263 4.95716,-6.5 0,-2.24228 -0.3038,-2.274538 -3.90122,-0.414241 C 337.68925,23.212054 332,29.518514 332,31.534796 c 0,2.703057 3.0468,1.501571 8.04284,-3.171638 z M 209.49758,28.003914 c 1.15195,-1.863894 0.85756,-11.048947 -0.39367,-12.282681 -0.97731,-0.963645 -1.54074,-0.811802 -2.67123,0.719897 -1.44376,1.956136 -2.00402,10.654193 -0.76601,11.892203 0.99069,0.990692 3.12866,0.806849 3.83091,-0.329419 z M 42,15.15222 C 42,12.945946 30.826398,2 28.574237,2 25.307475,2 27.203863,5.9733142 33.057,11.392287 39.33514,17.204737 42,18.325133 42,15.15222 Z"
         id="path50992"
         inkscape:connector-curvature="0" />
      <path
         style="fill:#000000"
         d="M 0.1119296,306.75 C 0.26349986,295.5782 1.6177459,278.27792 1.8927734,284 l 0.2162893,4.5 1.9904382,-4.90701 c 1.2353291,-3.04545 1.7605236,-5.95381 1.3843923,-7.66632 -0.3333253,-1.51762 -0.1201393,-4.56383 0.4737467,-6.76936 0.5938859,-2.20552 1.2630475,-7.08068 1.4870257,-10.83367 0.2239783,-3.753 0.890556,-8.09043 1.4812838,-9.63874 C 9.6190385,246.86831 10,233.15202 10,210.01436 l 0,-35.85545 2.930902,-0.64373 c 1.611996,-0.35406 3.50751,-1.33851 4.212253,-2.18767 1.066059,-1.28452 0.951654,-1.79101 -0.680902,-3.01446 C 14.446261,166.80226 5.4348513,166.89715 1.75,168.46797 0.09124435,169.17508 0,164.8026 0,84.606989 L 0,0 56.567388,0 C 110.5695,0 113.10889,0.0815693 112.56389,1.7987029 111.47345,5.2343843 120.24713,16.419534 122.36852,14.29815 122.71583,13.950834 123,12.440899 123,10.942739 123,7.3697812 124.26562,7.1839881 154,6.3919317 170.44403,5.9539001 178.51249,5.350702 180.87212,4.3829726 183.25593,3.4053287 188.89782,3 200.12212,3 213.56912,3 216,2.7703526 216,1.5 216,0.18664309 222.22878,0 266.05902,0 299.17705,0 315.90888,0.33842021 315.5,1 c -0.33992,0.55 -1.19561,1 -1.90155,1 -0.70593,0 -2.10006,1.5162464 -3.09807,3.3694364 C 308.65841,8.7897758 308.9621,12 311.12765,12 312.7732,12 321.27377,2.5912566 320.00909,2.1696971 319.44724,1.9824125 319.2419,1.4176142 319.55279,0.9145898 319.87792,0.38850973 335.81024,0 357.05902,0 L 394,0 l 0,80.797393 0,80.797397 -6.29187,-0.40064 c -6.64686,-0.42324 -9.47534,0.94644 -7.74297,3.74948 1.07543,1.74008 12.03484,2.81482 12.03484,1.1802 0,-0.61811 0.45,-1.12383 1,-1.12383 0.65778,0 1,25.66667 1,75 l 0,75 -84.75,-0.006 -84.75,-0.006 -1.64648,-2.89433 c -1.114,-1.95831 -2.4076,-2.87165 -4,-2.82418 -1.29443,0.0386 -22.71602,-0.54469 -47.60352,-1.29617 L 126,306.607 l 0,-2.33456 c 0,-3.07557 -2.57802,-3.96365 -5.03953,-1.73601 C 118.38946,304.86251 113.85495,313 115.12941,313 c 0.54374,0 0.71051,0.45 0.37059,1 -0.40042,0.64789 -20.843718,1 -58.059017,1 L 0,315 0.1119296,306.75 Z M 32.021055,296.22981 c 2.631548,-2.0514 5.530894,-4.97086 6.442991,-6.48771 1.491816,-2.48093 1.501349,-2.81815 0.09492,-3.35785 -2.985329,-1.14557 -6.455246,0.65152 -12.662182,6.55784 -5.244229,4.99024 -6.04125,6.17891 -4.991313,7.44401 1.634394,1.96932 4.75389,0.8029 11.115584,-4.15629 z m 313.537875,1.67484 c 1.11065,-1.79708 -1.67362,-5.82583 -6.90468,-9.99086 -5.24143,-4.17329 -7.3752,-4.80455 -8.279,-2.44928 -0.76468,1.99272 3.03012,7.09219 7.9062,10.62441 4.28457,3.10373 6.18795,3.57862 7.27748,1.81573 z m 29.74805,-0.54497 c 1.10971,-1.1097 -2.33151,-5.73863 -6.65075,-8.9462 -6.16262,-4.57652 -8.70547,-5.76424 -9.86293,-4.60678 -1.81507,1.81507 0.31249,5.24707 6.04026,9.74363 5.21297,4.09242 8.86284,5.41994 10.47342,3.80935 z M 197.96482,293.06574 C 198.53417,292.0019 199,289.357 199,287.18819 c 0,-2.28521 0.63073,-4.46676 1.5,-5.18819 0.98097,-0.81413 1.4947,-3.01913 1.48469,-6.37244 -0.0178,-5.96481 -0.98366,-7.96542 -3.60452,-7.46623 -1.54179,0.29366 -1.93482,1.4137 -2.18381,6.22345 -0.17682,3.41566 -0.90771,6.46943 -1.75,7.31171 -1.47412,1.47413 -2.08248,11.33406 -0.77969,12.63684 1.25732,1.25733 3.2635,0.66567 4.29815,-1.26759 z m -85.96153,-3.23049 c 3.84627,-4.21113 5.65465,-8.57731 4.1682,-10.06376 -1.87197,-1.87197 -5.75894,0.6684 -8.69909,5.6854 -4.30158,7.34008 -1.04687,10.48523 4.53089,4.37836 z M 89.915013,286.35921 C 94.633416,280.99882 95.23251,278 91.584987,278 88.770713,278 81,286.17874 81,289.14079 c 0,3.61388 4.529494,2.20063 8.915013,-2.78158 z M 353.66128,268.4403 c 1.31333,-3.42248 -12.24278,-13.2588 -14.77839,-10.72319 -1.71395,1.71395 0.92548,5.30511 6.72019,9.14337 5.29457,3.50698 7.17706,3.87604 8.0582,1.57982 z M 141.92742,260.36514 C 143.06734,258.91597 144,256.67685 144,255.38931 c 0,-1.28753 0.89832,-3.81435 1.99626,-5.61514 1.09795,-1.80079 1.99795,-4.54297 2,-6.09372 0.003,-2.34136 -0.37203,-2.76536 -2.2119,-2.5 -2.8495,0.41097 -6.96692,6.51617 -6.62068,9.81699 0.14699,1.40137 -0.33094,3.99216 -1.06209,5.7573 -1.34478,3.24658 -0.96333,6.24526 0.79445,6.24526 0.52734,0 1.89146,-1.18569 3.03138,-2.63486 z m -20.4579,-3.91407 C 124.38345,252.63071 124.24103,250 121.12028,250 119.06922,250 114,255.27553 114,257.41006 c 0,3.88518 4.18446,3.34795 7.46952,-0.95899 z m 32.0048,0.59859 c 0.83912,-1.62269 1.52568,-3.87269 1.52568,-5 0,-1.12731 0.47296,-2.04966 1.05103,-2.04966 1.39737,0 4.21716,-6.85873 3.54255,-8.61673 -0.94227,-2.45553 -4.45714,-1.54779 -6.0679,1.56707 -0.83912,1.62269 -1.52568,3.64769 -1.52568,4.5 0,0.85231 -0.40114,1.54966 -0.89142,1.54966 -1.32805,0 -4.15986,7.70279 -3.48161,9.47029 0.9724,2.53402 4.20895,1.74769 5.84735,-1.42063 z m 63.82542,-9.42645 c -0.27605,-3.85753 -2.142,-5.99902 -3.93242,-4.5131 -1.64281,1.36341 -1.74053,3.32402 -0.29985,6.01596 1.58482,2.96126 4.47821,1.93383 4.23227,-1.50286 z m 99.29823,2.21827 C 317.67423,248.10006 309.59625,241 306.53872,241 c -3.72162,0 -3.26605,3.15421 0.99608,6.89641 3.59043,3.15244 7.76347,4.04803 9.06317,1.94507 z M 117.68555,246.82569 C 120.51203,244.17034 120.81846,240 118.18709,240 c -2.53304,0 -7.59368,5.49805 -6.84837,7.4403 0.84591,2.2044 3.63347,1.93446 6.34683,-0.61461 z m 59.28008,-1.07414 c 1.16792,-2.08127 1.26951,-3.1543 0.42538,-4.49292 -1.6125,-2.55711 -3.67308,-2.15711 -5.18981,1.00746 -2.818,5.87955 1.60517,9.11535 4.76443,3.48546 z m 15.84521,-3.0179 c 0.22951,-2.76851 -0.124,-3.91659 -1.35092,-4.3874 -2.00306,-0.76865 -3.42355,1.18484 -3.44461,4.73708 -0.033,5.57197 4.33102,5.25375 4.79553,-0.34968 z m -148.395435,0.49299 c 5.709444,-3.1671 7.631665,-5.57957 5.858534,-7.3527 -2.559341,-2.55934 -17.709194,5.99475 -15.874544,8.96328 1.163684,1.88288 4.761043,1.30442 10.01601,-1.61058 z M 59.627299,241.75 c 8.747621,-5.85779 6.082092,-10.20617 -3.258511,-5.31573 -5.077934,2.65864 -7.208022,5.3988 -5.874319,7.55678 1.123584,1.818 4.197864,1.06362 9.13283,-2.24105 z m 106.816001,0.0275 c 0.85618,-1.22237 1.5567,-3.27867 1.5567,-4.56955 0,-3.27831 -4.04817,-2.6145 -5.74747,0.94247 -2.39262,5.00823 1.10379,8.03436 4.19077,3.62708 z m 194.04393,1.24318 c 1.16441,-1.88406 -1.49574,-4.84602 -6.66627,-7.4226 C 350.95345,234.16913 347.54078,233 346.23723,233 c -1.96655,0 -2.3162,0.44241 -2.05365,2.59849 0.52726,4.32998 14.33096,10.61405 16.30365,7.42218 z M 243.28579,237.69763 C 244.20058,235.31372 241.25374,230 239.01689,230 c -2.86877,0 -3.46137,2.2398 -1.56356,5.90974 1.63945,3.17036 4.91648,4.1749 5.83246,1.78789 z m -143.11353,-7.99228 c 2.38026,-1.81206 4.47154,-4.28706 4.64729,-5.5 C 105.08685,222.36063 104.65998,222 102.2091,222 c -2.772805,0 -9.853369,3.94552 -11.443787,6.37686 -0.404078,0.61773 -0.741578,1.91064 -0.75,2.87314 -0.02598,2.96874 5.290321,2.16025 10.156947,-1.54465 z m 130.89359,-2.03216 C 229.71689,224.12517 226,223.94569 226,227.42857 c 0,1.33572 0.73929,3.16786 1.64286,4.07143 1.40717,1.40718 1.84344,1.44227 3.04109,0.24462 1.05964,-1.05964 1.15212,-2.04558 0.3819,-4.07143 z M 289,228.08889 c 0,-2.35208 -5.67001,-7.2978 -7.88335,-6.87632 -2.75122,0.52392 -2.4851,4.35245 0.46378,6.67204 3.45899,2.72084 7.41957,2.82989 7.41957,0.20428 z m -17,-2.27444 C 272,222.96505 268.23286,219 265.52569,219 c -1.16913,0 -2.59044,-0.46475 -3.15847,-1.03278 C 260.92571,216.52571 258,217.85536 258,219.952 c 0,2.21542 3.2513,5.1678 7.32646,6.65288 5.07636,1.84993 6.67354,1.66076 6.67354,-0.79043 z m 40.5,-0.27462 c 0,-2.23051 -6.0708,-6.76727 -8.44964,-6.31449 -3.00893,0.57271 -2.35092,4.3853 1.1473,6.64762 3.98278,2.57568 7.30234,2.42425 7.30234,-0.33313 z m -68.04535,-0.39695 c 0.42759,-1.34721 1.26979,-1.72705 3.06739,-1.38342 C 249.54705,224.14657 250,223.83424 250,222.05084 250,218.49669 248.1287,216 245.46482,216 243.59198,216 243,216.52837 243,218.2 c 0,1.71111 -0.26667,1.93333 -1.2,1 -1.57417,-1.57417 -4.76761,-1.54171 -4.91848,0.05 -0.54721,5.77306 5.99535,10.86403 7.57313,5.89288 z M 43.064619,221.87686 C 46.998667,220.18447 48,219.27147 48,217.37686 c 0,-3.00111 -2.057172,-3.07569 -9.369756,-0.33971 -5.181084,1.9385 -7.307723,4.05765 -6.074471,6.05309 0.943264,1.52624 5.313372,1.02165 10.508846,-1.21338 z m 83.854121,-4.00124 c 5.45368,-4.34228 6.2853,-7.1298 2.29671,-7.69836 -1.50326,-0.21428 -3.93622,1.07721 -7.23979,3.84312 -9.23704,7.73369 -4.53445,11.40137 4.94308,3.85524 z M 194.5,213.0137 c 0,-4.39259 -2.89894,-5.42699 -4.62046,-1.64867 -1.5396,3.37907 -0.46484,5.85709 2.36599,5.45511 1.84697,-0.26227 2.25447,-0.9503 2.25447,-3.80644 z M 64.03811,213.75 c 2.986983,-1.50625 4.56752,-2.99375 4.781441,-4.5 C 69.089739,207.34757 68.677734,207 66.152456,207 61.522811,207 54,210.58905 54,212.7978 c 0,3.94293 3.457013,4.27085 10.03811,0.9522 z m 45.27763,-0.8997 c 2.64909,-1.39438 3.64868,-2.78393 3.66895,-5.1003 0.0214,-2.44964 -4.05285,-2.27083 -7.34983,0.32258 -5.11575,4.02405 -2.16463,7.85455 3.68088,4.77772 z M 268,211.5567 C 268,208.75696 264.66463,206 261.27749,206 c -3.08499,0 -3.12165,4.29532 -0.055,6.4433 3.51881,2.46467 6.77749,2.03839 6.77749,-0.8866 z M 312,209.5 c 0.99557,-1.19959 0.98461,-1.81361 -0.0547,-3.06594 -2.22421,-2.68 -6.91924,-4.56429 -10.76173,-4.31907 -7.30416,0.46613 -9.18355,0.0229 -9.18355,-2.16602 0,-2.25248 -6.14396,-5.49144 -8.61673,-4.54255 -3.7957,1.45655 0.75364,6.59358 5.83924,6.59358 2.25821,0 2.77749,0.44471 2.77749,2.37868 0,2.74086 3.77667,4.76004 8.53501,4.5632 1.63074,-0.0675 4.31499,0.32933 5.96499,0.88178 4.09594,1.37137 4.09311,1.37153 5.5,-0.32366 z m -186.66213,-3.9878 c 2.21935,-1.64372 1.8287,-4.85644 -0.64852,-5.33351 -2.50758,-0.48291 -6.68935,2.49339 -6.68935,4.76103 0,3.12096 3.52555,3.39602 7.33787,0.57248 z m 61.72787,1.45262 c 1.24464,-0.66611 1.93426,-2.09223 1.93426,-4 C 189,200.53776 188.58282,200 186.7,200 c -2.67822,0 -4.7,1.72066 -4.7,4 0,1.41718 1.78585,4 2.76574,4 0.20116,0 1.23616,-0.46583 2.3,-1.03518 z M 68.604399,204.52083 c 2.789104,-1.16537 3.471788,-1.96094 3.217881,-3.75 -0.261532,-1.84279 -0.910479,-2.24569 -3.442773,-2.13747 -4.615251,0.19725 -8.831177,2.5465 -9.199058,5.12601 C 58.908347,205.6673 59.321452,206 61.962568,206 c 1.705918,0 4.694742,-0.66563 6.641831,-1.47917 z m 261.411171,-3.03959 c 1.734,-2.08934 -0.80264,-4.80126 -5.92701,-6.33656 -4.78109,-1.43245 -7.29802,-0.61705 -6.89143,2.2326 0.22121,1.5504 1.65095,2.58275 5.30287,3.82895 6.20294,2.11673 5.99344,2.10906 7.51557,0.27501 z m -109.645,-9.70694 C 221.63423,189.77098 219.60691,187 216.87756,187 215.8449,187 215,187.1882 215,187.41821 c 0,0.23002 -0.25088,1.072 -0.55751,1.87106 -0.63528,1.65552 2.24624,4.98115 3.85214,4.44585 0.58437,-0.19479 1.51854,-1.07715 2.07594,-1.96082 z M 75.886744,188.47947 c 0.77518,-0.74032 1.097232,-2.07885 0.730264,-3.03515 -0.543275,-1.41575 -1.472181,-1.60047 -5.386744,-1.07117 -5.288603,0.71507 -7.941089,3.06543 -6.041953,5.35375 1.379994,1.66279 8.523317,0.82989 10.698433,-1.24743 z M 273.8127,188.30231 c 0.24307,-1.70836 -0.60828,-2.66754 -3.8236,-4.30787 -5.30054,-2.70414 -10.36279,-2.38169 -10.79978,0.6879 -0.20558,1.444 0.45131,2.59015 1.9416,3.38772 6.47464,3.46513 12.20685,3.57011 12.68178,0.23225 z M 346,186.09783 C 346,183.89899 341.52841,182 336.35078,182 333.64896,182 333,182.39359 333,184.03222 c 0,2.47506 3.01142,3.81881 8.75,3.90439 3.53269,0.0527 4.25,-0.25766 4.25,-1.83878 z M 241.94695,184.56392 C 243.67624,182.48026 241.56507,179 238.57181,179 c -3.34931,0 -4.23381,3.04552 -1.52221,5.24124 2.63374,2.13268 3.35571,2.18025 4.89735,0.32268 z M 48.540304,182.34616 c 0.900383,-0.34551 1.436769,-1.50253 1.262568,-2.72344 -0.251678,-1.76392 -1.090998,-2.17364 -4.965532,-2.42394 -5.894912,-0.38084 -10.859886,0.88397 -12.254991,3.12192 -1.728326,2.77247 1.039947,3.85951 8.155083,3.20231 3.430588,-0.31688 6.94188,-0.84646 7.802872,-1.17685 z m 107.525436,0.61866 c 2.32906,-1.24648 2.54991,-4.5146 0.36182,-5.35425 -2.19347,-0.84171 -5.42756,1.09958 -5.42756,3.25795 0,3.18432 1.7103,3.89207 5.06574,2.0963 z M 198.5,180.5 c 0,-2.52893 -0.39041,-3 -2.4863,-3 -1.60345,0 -2.60998,0.64215 -2.83458,1.80841 -0.58425,3.03378 0.65315,4.85441 3.06641,4.51173 C 198.01269,183.5692 198.5,182.85154 198.5,180.5 Z m -15,-19 c 0,-2.32462 -4.305,-3.43355 -5.54439,-1.42818 -1.33719,2.16362 0.14328,4.05453 2.92214,3.73228 1.85422,-0.21503 2.62225,-0.88988 2.62225,-2.3041 z m 47,-16.00557 c 0,-2.6471 -2.95749,-4.18956 -4.91618,-2.564 -1.8909,1.56931 -2.08825,4.72639 -0.33382,5.34031 2.12605,0.74396 5.25,-0.90805 5.25,-2.77631 z m -93.5,0.1222 c 0,-1.57891 -0.70761,-2.56841 -2.09645,-2.9316 C 132.03351,141.9345 130,142.86977 130,144.94032 130,147.34516 130.89177,148 134.16667,148 136.48525,148 137,147.567 137,145.61663 Z m 242.29556,0.82345 c 2.66851,-1.024 2.09608,-4.30368 -0.8816,-5.05103 -4.20759,-1.05604 -15.45446,0.22288 -17.18584,1.95426 -1.33839,1.33839 -1.36101,1.79164 -0.16153,3.23693 1.16841,1.40785 2.62258,1.58594 8.95966,1.09726 4.16067,-0.32085 8.33186,-0.87769 9.26931,-1.23742 z M 45.75,146.36971 c 1.497803,-0.40139 2.25,-1.36399 2.25,-2.87935 0,-2.58326 -0.85469,-3.04611 -7.451683,-4.03539 -2.58906,-0.38825 -4.942862,-1.31956 -5.230672,-2.06958 -0.678479,-1.76809 -5.595374,-3.03752 -17.160397,-4.43041 C 7.6072638,131.68434 4,132.16937 4,134.85854 c 0,2.54727 3.6805653,3.95245 14.052537,5.36503 5.799355,0.78983 8.947463,1.655 8.947463,2.45896 0,1.53358 6.761484,3.40605 15,4.15398 0.825,0.0749 2.5125,-0.13516 3.75,-0.4668 z m 76.75,-8.28638 c 0,-1.75647 -0.76297,-2.67099 -2.79291,-3.34763 C 115.7806,133.42687 112,134.56274 112,137.05128 c 0,2.37373 3.24524,3.95692 7.5,3.65887 2.44777,-0.17147 3,-0.655 3,-2.62682 z m 180.98557,-6.48192 c 2.72504,-1.78551 3.36626,-5.3373 1.11924,-6.19956 -2.00493,-0.76937 -9.02491,1.30799 -11.67691,3.45545 -1.53484,1.24284 -2.04149,2.40431 -1.57691,3.61499 0.55963,1.45838 1.49962,1.69194 5.15234,1.28022 2.4573,-0.27697 5.59931,-1.24497 6.98224,-2.1511 z M 341.5,131.08868 c 3.80683,-0.89701 4.62246,-4.41759 1.42046,-6.13125 -3.71142,-1.98629 -15.05105,0.23914 -17.07794,3.35159 -2.56729,3.94228 5.01256,5.28792 15.65748,2.77966 z M 46.47135,130.64461 c 4.167778,-3.04756 -1.881855,-6.62678 -11.22135,-6.63903 -3.831919,-0.005 -4.25,0.23272 -4.25,2.41687 0,2.76028 3.498602,4.27612 12.55887,5.44137 0.582379,0.0749 1.892995,-0.47375 2.91248,-1.21921 z m 124.33187,-3.28018 c 0.36375,-2.53739 -2.40207,-5.58696 -4.6746,-5.15416 -2.36584,0.45056 -2.70239,4.89701 -0.49293,6.51261 2.48017,1.81354 4.80024,1.20364 5.16753,-1.35845 z M 142,125.02305 c 0,-2.35521 -4.35543,-5.48437 -6.49228,-4.66439 -1.80648,0.69322 -1.9804,3.76866 -0.30772,5.44134 0.66,0.66 2.46,1.2 4,1.2 2.12245,0 2.8,-0.47839 2.8,-1.97695 z M 246.8,123.8 c 1.41931,-1.41931 1.58301,-4.44525 0.28392,-5.24814 -2.5493,-1.57555 -8.04384,3.08594 -6.52815,5.53838 0.80831,1.30788 4.8332,1.12079 6.24423,-0.29024 z m 51.6349,-0.77525 c 1.58778,-0.60367 2.5651,-1.74669 2.5651,-3 0,-2.66216 -4.85225,-2.77473 -8.04833,-0.1867 -4.00666,3.2444 -0.31366,5.39067 5.48323,3.1867 z M 130.5,119.09423 c 0,-3.78618 -7.32881,-8.09723 -10.44314,-6.14301 -3.4403,2.15875 4.08319,9.52696 8.94314,8.75856 0.8464,-0.13383 1.5,-1.27351 1.5,-2.61555 z m 104.19323,-0.73719 c 0.31914,-0.83167 -0.10378,-2.19616 -0.93982,-3.0322 -1.2012,-1.2012 -1.96411,-1.28244 -3.63675,-0.38728 -2.32308,1.24328 -2.91934,5.60796 -0.86666,6.34398 1.66721,0.5978 4.72125,-1.04305 5.44323,-2.9245 z m 81.71681,1.24499 c 4.30634,-1.7993 5.38041,-3.55087 3.16898,-5.16791 C 317.18739,112.68532 309,115.38881 309,117.92734 c 0,3.41963 2.09866,3.89393 7.41004,1.67469 z m -151.60011,-5.86189 c 0.32174,-2.70489 -2.8305,-5.46349 -4.8306,-4.22737 -1.62153,1.00217 -1.10247,5.31626 0.77067,6.4053 2.50158,1.45442 3.70464,0.80905 4.05993,-2.17793 z M 283.75,112.01096 C 287.95047,109.44989 288.22165,106 284.22251,106 280.38622,106 277,108.60522 277,111.5567 c 0,3.04123 2.25786,3.19317 6.75,0.45426 z m 45.7881,-2.44397 c 2.60173,-1.70472 3.31508,-5.11593 1.21614,-5.81558 -0.68517,-0.22839 -1.24767,-1.27839 -1.25,-2.33333 -0.006,-2.738966 -5.14699,-2.991625 -9.25424,-0.45481 C 317.19739,102.84868 315.78964,106 318,106 c 0.55,0 1,1.40925 1,3.13167 0,3.08129 0.065,3.12296 4.0381,2.59005 2.22095,-0.2979 5.14595,-1.26752 6.5,-2.15473 z m -218.09387,0.52325 C 113.02346,107.53498 107.63415,103 103.01828,103 c -4.35135,0 -3.2993,5.12461 1.447,7.04848 2.77518,1.12488 6.29652,1.14596 6.97895,0.0418 z m 119.59759,-4.16838 C 232.44934,103.29188 231.60631,101 229.23138,101 226.73776,101 225,102.93021 225,105.7 c 0,3.06061 4.4354,3.22348 6.04182,0.22186 z m 64.99802,0.0578 C 300.76799,103.56755 301.60951,100 297.45034,100 293.77888,100 289,102.74789 289,104.85901 c 0,3.6816 1.53959,3.92668 7.03984,1.12067 z m -225.944783,-4.5942 c 1.153632,-1.390038 0.960146,-1.941225 -1.391513,-3.964038 -3.714533,-3.195106 -10.353296,-5.17167 -11.963164,-3.561802 -1.775982,1.775982 0.120535,4.248652 5.284863,6.89038 5.236433,2.67861 6.304359,2.76271 8.069814,0.63546 z M 240.975,100.06036 C 242.37531,96.67971 241.7078,95 238.96404,95 c -2.30802,0 -5.41562,4.380829 -4.60538,6.49228 1.04569,2.72503 5.27347,1.81004 6.61634,-1.43192 z M 78.281539,97.75 c 0.777479,-2.168308 -1.025001,-4.330569 -5.167002,-6.198351 -7.592124,-3.423571 -9.853791,1.050069 -2.606052,5.154845 4.488299,2.54196 7.109583,2.893859 7.773054,1.043506 z m 141.440781,0 c 2.77971,-3.592426 1.47648,-8.530989 -1.90845,-7.232068 -2.13419,0.818965 -3.2272,5.279106 -1.73448,7.077721 1.43852,1.733321 2.38998,1.773633 3.64293,0.154347 z m 61.09685,-2.335898 C 283.48561,93.546457 288,86.697552 288,84.519872 288,83.541101 287.05334,83 285.34096,83 c -4.61884,0 -13.2395,10.768124 -10.67429,13.333333 1.13497,1.134974 3.78499,0.739041 6.1525,-0.919231 z M 117,90.434259 c 0,-2.65818 -1.82742,-5.164482 -5.35538,-7.344882 C 107.11346,80.288971 105,80.386629 105,83.396408 c 0,1.491237 1.33516,3.568696 3.5348,5.5 3.80337,3.339406 8.4652,4.186308 8.4652,1.537851 z m 66.33892,-4.309628 C 183.04788,80.026304 177,77.554954 177,83.534357 c 0,3.993541 1.81545,6.63255 4.31766,6.276327 1.79015,-0.25485 2.15339,-0.917279 2.02126,-3.686053 z M 60,87.050891 c 0,-2.448206 -4.904424,-6.234186 -12.32988,-9.518075 -6.602341,-2.919869 -9.482248,-3.185978 -10.338249,-0.955275 -0.834016,2.173412 1.083918,3.833576 9.729886,8.422193 C 55.424247,89.437901 60,90.163316 60,87.050891 Z m 78.77782,-7.117673 C 139.24818,77.462379 135.16091,73 132.42742,73 c -3.09271,0 -3.22475,2.716643 -0.31203,6.419571 2.30115,2.92543 6.14688,3.221921 6.66243,0.513647 z m 98.74802,-0.983197 C 239.41083,75.304868 238.62895,72 235.88159,72 c -2.18728,0 -5.40457,6.194748 -4.47517,8.616733 0.95716,2.494315 4.4612,1.539939 6.11942,-1.666712 z m 70.99982,-4.409447 c 4.07743,-3.845518 4.14145,-5.883573 0.19951,-6.351951 -3.38232,-0.401884 -10.38178,5.657887 -9.42257,8.157567 1.05438,2.747655 5.27032,1.922291 9.22306,-1.805616 z m -78.92021,-7.138712 c 1.80707,-4.32492 1.49884,-6.758096 -0.91497,-7.222954 -2.5667,-0.494301 -4.54279,1.516915 -5.26314,5.35669 -0.7451,3.971756 -0.0123,5.464402 2.6827,5.464402 1.34172,0 2.4828,-1.17462 3.49541,-3.598138 z M 369.5,66.755177 c 5.36935,-2.668835 7.5,-4.669095 7.5,-7.041007 0,-1.681706 -0.49735,-1.895145 -3.34082,-1.433715 C 369.04857,59.028655 360,64.751357 360,66.919108 c 0,3.641131 1.91106,3.608154 9.5,-0.163931 z m -81.16391,-3.30967 C 291.29271,59.74001 291.29272,57 288.3361,57 285.78927,57 281,62.018405 281,64.687091 c 0,3.664506 3.95568,2.995033 7.33609,-1.241584 z M 82.78616,58.871863 C 83.427331,55.54253 73.574622,46.908796 70.970632,48.51815 c -2.016687,1.246382 -0.820871,3.968181 3.607707,8.211504 4.570679,4.379481 7.623517,5.176259 8.207821,2.142209 z M 27.816755,49.261122 c 0.251458,-1.76113 -0.929586,-3.023996 -5.729251,-6.126169 -7.053812,-4.559098 -11.030107,-5.845857 -12.2025341,-3.94883 -1.2736125,2.060748 1.1918831,4.780553 8.1443721,8.984444 7.011989,4.239867 9.301325,4.494955 9.787413,1.090555 z M 146.32965,48.583324 C 147.23726,46.218146 142.77503,38.5 140.5,38.5 c -1.62314,0 -1.97175,0.616691 -1.85007,3.272798 0.27629,6.031158 6.02312,11.12756 7.67972,6.810526 z m 48.08856,-7.190313 C 195.58586,40.944943 196,39.395449 196,35.474799 c 0,-2.921173 -0.27314,-6.023028 -0.60699,-6.893012 -0.78513,-2.046006 -4.00089,-2.046006 -4.78602,0 -0.96183,2.506478 -0.70612,9.364475 0.42819,11.483954 1.15774,2.163251 1.18086,2.172322 3.38303,1.32727 z M 340.55986,28.854943 c 3.59026,-3.395521 5.44014,-5.945837 5.44014,-7.5 0,-3.122527 -1.8448,-2.97439 -6.69271,0.53742 C 334.41426,25.436852 331,29.646477 331,32.134859 c 0,3.385986 3.94151,2.033682 9.55986,-3.279916 z M 209.96482,28.065741 C 211.56158,25.082163 211.25471,16.456281 209.5,15 c -1.13929,-0.945524 -1.83457,-0.96722 -2.89129,-0.09022 -1.70444,1.414563 -2.93675,8.935027 -2.04578,12.484919 0.78296,3.119585 3.88522,3.50496 5.40189,0.671045 z M 42.798572,15.331765 C 43.187074,12.714294 31.330788,1.4285714 28.192486,1.4285714 c -3.829151,0 -2.583203,3.7609731 3.057514,9.2293016 7.828892,7.589631 10.929541,8.844513 11.548572,4.673892 z M 1.1578947,274 c 0,-1.375 0.2269737,-1.9375 0.504386,-1.25 0.2774123,0.6875 0.2774123,1.8125 0,2.5 -0.2774123,0.6875 -0.504386,0.125 -0.504386,-1.25 z"
         id="path50990"
         inkscape:connector-curvature="0" />
    </g>
  </g>
</svg>
