<?xml version="1.0" encoding="UTF-8" standalone="no"?>
<!-- Created with Inkscape (http://www.inkscape.org/) -->

<svg
   xmlns:dc="http://purl.org/dc/elements/1.1/"
   xmlns:cc="http://creativecommons.org/ns#"
   xmlns:rdf="http://www.w3.org/1999/02/22-rdf-syntax-ns#"
   xmlns:svg="http://www.w3.org/2000/svg"
   xmlns="http://www.w3.org/2000/svg"
   xmlns:sodipodi="http://sodipodi.sourceforge.net/DTD/sodipodi-0.dtd"
   xmlns:inkscape="http://www.inkscape.org/namespaces/inkscape"
   id="svg4688"
   version="1.1"
   inkscape:version="0.91 r13725"
   width="500"
   height="500"
   viewBox="0 0 500 500"
   sodipodi:docname="pretty.svg">
  <metadata
     id="metadata4694">
    <rdf:RDF>
      <cc:Work
         rdf:about="">
        <dc:format>image/svg+xml</dc:format>
        <dc:type
           rdf:resource="http://purl.org/dc/dcmitype/StillImage" />
        <dc:title></dc:title>
      </cc:Work>
    </rdf:RDF>
  </metadata>
  <defs
     id="defs4692" />
  <sodipodi:namedview
     pagecolor="#ffffff"
     bordercolor="#666666"
     borderopacity="1"
     objecttolerance="10"
     gridtolerance="10"
     guidetolerance="10"
     inkscape:pageopacity="0"
     inkscape:pageshadow="2"
     inkscape:window-width="1440"
     inkscape:window-height="837"
     id="namedview4690"
     showgrid="false"
     inkscape:zoom="0.7552"
     inkscape:cx="266.41299"
     inkscape:cy="200.15774"
     inkscape:window-x="-8"
     inkscape:window-y="-8"
     inkscape:window-maximized="1"
     inkscape:current-layer="svg4688" />
  <g
     id="g5238"
     transform="scale(0.8,0.79999999)">
    <path
       style="fill:#fcfcfc"
       d="M 0,312.5 0,0 312.5,0 625,0 625,312.5 625,625 312.5,625 0,625 0,312.5 Z"
       id="path5254"
       inkscape:connector-curvature="0" />
    <path
       style="fill:#cfebf3"
       d="M 0,312.5 0,0 312.5,0 625,0 625,312.5 625,625 312.5,625 0,625 0,312.5 Z m 534.2771,118.24646 c 10.77823,-4.50342 19.5762,-16.43813 31.75526,-43.07691 4.19958,-9.18555 9.0603,-18.56889 10.80161,-20.85187 1.74132,-2.28298 3.16603,-4.71043 3.16603,-5.39433 0,-1.85805 -21.14925,-20.89715 -33.52945,-30.18406 -21.24594,-15.9375 -37.82223,-22.63163 -58.10612,-23.46546 -12.42289,-0.51068 -14.27852,-0.27532 -23.0493,2.92357 -26.32327,9.60064 -58.44365,40.41148 -89.60995,85.95658 -4.62134,6.75343 -8.10578,13.05207 -7.74318,13.99698 1.07365,2.7979 10.66879,4.96077 22.038,4.96763 14.71614,0.009 20.7923,-3.1501 38.71841,-20.12963 7.645,-7.2413 15.82404,-13.96992 18.17565,-14.95248 14.7569,-6.16583 29.76764,3.06731 51.96453,31.96352 6.07326,7.90625 12.8848,15.64063 15.13675,17.1875 4.81209,3.30544 13.78402,3.77389 20.28176,1.05896 z M 517.19007,421.5625 C 513.59189,417.78884 506.25,403.78472 506.25,400.69511 c 0,-2.47372 1.61389,-2.45536 6.62458,0.0754 7.56758,3.82213 16.73561,11.52066 18.34403,15.40373 1.40815,3.39958 1.32973,4.2005 -0.62248,6.35768 -3.31059,3.65816 -9.41454,3.21677 -13.40606,-0.9694 z M 396.25,407.65537 c 0,-2.17269 16.33744,-18.27382 20.9375,-20.63463 4.01749,-2.06184 4.0625,-2.05267 4.0625,0.82744 0,4.30727 -6.54865,13.85996 -11.67214,17.02644 -5.24331,3.24056 -13.32786,4.92732 -13.32786,2.78075 z M 99.133377,404.38541 c 16.484603,-4.29369 27.558923,-13.10506 46.679583,-37.14098 6.40128,-8.04683 12.82695,-15.26653 14.27929,-16.0438 4.19743,-2.24639 7.69534,-0.52496 12.78439,6.29162 9.1589,12.26799 29.17703,24.31675 46.99625,28.28669 8.02465,1.7878 10.82387,1.89076 18.00287,0.66215 12.00571,-2.05466 24.62424,-8.91803 24.62424,-13.39342 0,-2.64028 -31.05426,-37.91011 -51.21909,-58.17198 -19.93601,-20.03197 -34.85801,-32.13972 -48.10651,-39.03377 -6.73536,-3.50483 -8.69507,-3.9283 -18.1744,-3.92721 -9.79424,10e-4 -11.32034,0.3607 -19.51791,4.59858 -11.53783,5.96467 -24.58423,16.46957 -38.6367,31.11008 C 73.887402,321.12361 58.75,340.10679 58.75,342.85661 c 0,1.0298 1.295394,2.19749 2.878652,2.59486 1.583259,0.39738 4.966864,2.81072 7.519122,5.36297 5.610325,5.61032 8.349385,13.91647 8.359466,25.34993 0.01593,18.05682 3.526105,27.86322 10.460603,29.22382 1.461436,0.28675 2.960852,0.59796 3.332033,0.69158 0.371183,0.0936 3.896258,-0.66883 7.833501,-1.69436 z m 1.443943,-14.53562 c -1.307973,-4.12108 2.97416,-8.68374 13.0569,-13.91229 8.88932,-4.60969 13.86578,-5.85903 13.86578,-3.481 0,1.89511 -7.53177,10.0022 -14.17475,15.25751 -6.8395,5.41076 -11.46265,6.18533 -12.74793,2.13578 z M 210.625,348.51693 c -3.16141,-1.68842 -14.375,-12.45957 -14.375,-13.80784 0,-1.47379 8.69301,3.27535 13.58248,7.42033 4.67761,3.96541 5.27517,8.78154 0.79252,6.38751 z m -24.28428,-28.06051 c -2.65996,-3.38159 -3.4163,-6.70642 -1.52557,-6.70642 2.2092,0 9.55942,5.80057 9.95535,7.85646 0.67919,3.52673 -5.40381,2.69685 -8.42977,-1.15004 z M 286.25,215.54282 c 0,-3.94838 -1.9619,-7.80636 -5.80118,-11.4077 -2.48638,-2.33228 -2.81036,-3.54641 -2.17778,-8.16153 1.66905,-12.17705 -6.2584,-19.86383 -10.35032,-10.03609 -2.41663,5.80415 -3.35597,6.41277 -8.33152,5.39819 -3.745,-0.76367 -4.0052,-1.18582 -4.70564,-7.63453 -2.38411,-21.94968 -17.38356,-20.3832 -17.38356,1.81549 0,6.18017 -0.32516,7.00574 -3.33913,8.47764 -1.99765,0.97558 -3.92258,3.38833 -4.79143,6.00571 -1.26854,3.82136 -2.03654,4.42435 -6.06908,4.76494 -3.82442,0.32301 -5.15008,1.23476 -7.72425,5.3125 -2.61295,4.1392 -3.77685,4.92256 -7.31373,4.92256 -2.31345,0 -4.90652,0.84375 -5.76238,1.875 -1.37804,1.66044 3.32485,1.875 41.09695,1.875 l 42.65305,0 0,-3.20718 z m 313.41479,-45.56886 c -1.34359,-14.81729 -7.05264,-24.82557 -18.89677,-33.12709 l -3.60697,-2.52811 1.5721,-11.07506 C 582.1021,99.510355 574.94235,80 562.86394,80 c -6.58218,0 -11.74684,6.070066 -15.45923,18.169355 -1.62322,5.290375 -3.68218,9.899315 -4.57546,10.242105 -0.89329,0.34278 -3.44218,-0.14394 -5.6642,-1.08161 -2.22202,-0.93767 -6.85255,-1.70485 -10.29005,-1.70485 l -6.25,0 -0.94894,-11.25 c -2.07982,-24.65721 -4.70155,-34.237309 -11.73231,-42.871385 -3.20012,-3.929896 -11.12907,-6.491048 -15.87845,-5.128945 -12.50163,3.585419 -20.81805,26.042167 -18.80991,50.792147 0.96029,11.835323 0.1579,13.581643 -6.81849,14.839633 -9.17025,1.6536 -11.43674,4.57369 -13.97843,18.00951 -1.95882,10.3547 -3.4023,12.02109 -8.78706,10.14395 -12.55212,-4.3757 -20.52667,1.27501 -28.04641,19.87348 -1.1407,2.82127 -2.14168,3.16556 -11.44709,3.93732 -5.6084,0.46515 -12.07715,1.79718 -14.375,2.96008 C 384.1413,169.796 377.5,174.861 377.5,176.31361 c 0,0.73964 41.95756,1.18639 111.42361,1.18639 l 111.42361,0 -0.68243,-7.52604 z M 172.77174,136.25 c -0.62348,-7.72154 -4.01478,-14.79923 -9.2301,-19.26335 l -5.0117,-4.28984 0.87418,-8.16304 c 0.54677,-5.105536 0.31259,-10.504061 -0.6252,-14.41318 C 157.19886,83.53415 152.40294,77.5 148.74813,77.5 c -3.77405,0 -8.63665,4.954564 -10.18689,10.37956 -2.13764,7.480525 -3.12711,8.473616 -6.98231,7.007871 -1.77509,-0.674886 -4.12214,-1.142124 -5.21568,-1.038305 C 121.91061,94.27185 121.58891,93.614325 120.96346,82.8125 119.97535,65.747375 114.47594,56.25 105.58257,56.25 c -8.902237,0 -14.758281,11.170495 -15.041355,28.691616 l -0.190911,11.816617 -3.612653,1.158993 c -5.723406,1.836155 -7.76236,4.377214 -9.406163,11.722514 l -1.534603,6.85732 -4.799037,-0.76739 c -6.8014,-1.08759 -11.56558,1.75705 -15.306459,9.13932 -3.030744,5.98088 -3.162757,6.06906 -9.925913,6.62991 -7.068521,0.58617 -15.740096,5.09827 -15.756935,8.19884 -0.0068,1.24917 14.714275,1.50634 71.553959,1.25 l 71.5625,-0.32274 -0.35326,-4.375 z"
       id="path5252"
       inkscape:connector-curvature="0" />
    <path
       style="fill:#f2ccd2"
       d="M 0,312.5 0,0 312.5,0 625,0 625,312.5 625,625 312.5,625 0,625 0,312.5 Z m 534.2771,118.24646 c 10.81001,-4.51671 20.30245,-17.57937 32.6905,-44.98584 4.03711,-8.9314 9.08692,-18.02612 11.32882,-20.40322 l 4.04492,-4.28888 -9.80585,-9.38893 c -21.9046,-20.9733 -41.85574,-34.68002 -60.05664,-41.25975 -7.68504,-2.77819 -12.04091,-3.4735 -24.41506,-3.89728 -14.26714,-0.4886 -15.55228,-0.32497 -24.375,3.10345 -19.84742,7.71251 -44.92119,29.13519 -68.77648,58.76165 C 384.5911,381.20582 365,408.72985 365,410.41221 c 0,0.27256 3.23437,1.55694 7.1875,2.85418 4.76229,1.56276 10.77259,2.35861 17.8125,2.35861 14.71812,0 20.79802,-3.16194 38.71841,-20.13604 7.645,-7.2413 15.82404,-13.96992 18.17565,-14.95249 14.7569,-6.16582 29.76764,3.06732 51.96453,31.96353 6.07326,7.90625 12.8848,15.64062 15.13675,17.1875 4.81209,3.30544 13.78402,3.77389 20.28176,1.05896 z M 99.133377,404.38541 c 16.484603,-4.29369 27.558923,-13.10506 46.679583,-37.14098 6.40128,-8.04683 12.82695,-15.26653 14.27929,-16.0438 4.19743,-2.24639 7.69534,-0.52496 12.78439,6.29162 9.1589,12.26799 29.17703,24.31675 46.99625,28.28669 8.02465,1.7878 10.82387,1.89076 18.00287,0.66215 9.42028,-1.6122 16.925,-4.9683 23.04335,-10.30498 l 4.0441,-3.52744 -11.3648,-13.49183 C 215.78099,314.22155 185.79689,285.9983 163.125,273.95657 c -5.49648,-2.91935 -7.68169,-3.32028 -18.125,-3.32556 -11.35545,-0.006 -12.26239,0.20107 -20.72929,4.72692 -11.22496,6.00012 -26.068583,17.85521 -37.736872,30.13913 C 77.244659,315.27635 56.25,341.03913 56.25,342.6587 c 0,0.49357 1.89393,1.52247 4.208734,2.28642 10.534781,3.47679 17.034539,15.37917 17.048506,31.21925 0.01593,18.05682 3.526105,27.86322 10.460603,29.22382 1.461436,0.28675 2.960852,0.59796 3.332033,0.69158 0.371183,0.0936 3.896258,-0.66883 7.833501,-1.69436 z M 287.8157,218.4375 c 0.99027,-2.95274 -1.369,-9.97046 -4.45938,-13.26455 -2.5027,-2.66766 -3.18926,-4.89696 -3.5924,-11.6647 C 279.24064,184.72371 276.70051,180 272.5,180 c -2.51318,0 -5.62016,3.27856 -6.81139,7.1875 -0.85096,2.79241 -3.5794,3.54341 -7.46137,2.05376 -1.35563,-0.5202 -1.97724,-2.36101 -1.97724,-5.85533 0,-7.0434 -4.3597,-15.67759 -8.43228,-16.69974 -1.76256,-0.44238 -4.05076,-0.27063 -5.08487,0.38167 -3.54761,2.23778 -6.48285,9.60209 -6.48285,16.26501 0,5.75429 -0.4177,6.79433 -3.65443,9.09908 -2.01213,1.43276 -4.02288,4.27975 -4.47432,6.33511 -0.45094,2.05312 -1.19708,3.77982 -1.65808,3.8371 -0.46098,0.0572 -2.10847,0.24489 -3.66106,0.41688 -3.16616,0.35072 -9.05211,5.34976 -9.05211,7.68812 0,1.77304 -2.79301,3.04084 -6.6991,3.04084 -3.0305,0 -8.3009,3.2196 -8.3009,5.07087 0,1.93224 88.41674,1.55165 89.0657,-0.38337 z m 313.98094,-46.25 c -2.01388,-16.74034 -6.82705,-26.53425 -16.58154,-33.74031 -5.4341,-4.0144 -6.55132,-5.44937 -5.9429,-7.633 0.4121,-1.47905 1.11026,-7.8883 1.55148,-14.24276 1.02271,-14.7293 -1.52468,-25.269708 -7.91002,-32.72954 -3.81982,-4.462598 -5.01026,-5.09189 -9.63238,-5.09189 -7.46306,0 -13.36351,6.256048 -17.09475,18.125 -1.51292,4.8125 -3.17792,9.21974 -3.70002,9.79387 -0.52209,0.57413 -2.75321,0.11101 -4.95806,-1.02916 -2.53883,-1.31287 -6.14377,-1.92483 -9.83112,-1.66887 l -5.82233,0.40416 -0.95494,-12.5 C 519.02485,67.066976 515.61989,56.595794 506.982,49.01163 488.56792,32.843857 468.91511,59.275073 471.81242,96.311469 c 0.94434,12.071591 0.53455,12.909491 -7.0023,14.317781 -8.20978,1.53404 -11.17787,6.31087 -15.32603,24.66566 l -0.77289,3.41993 -9.40461,-0.79499 -9.40462,-0.79498 -6.12637,6.35602 c -3.66922,3.80675 -6.74586,8.42367 -7.67094,11.51128 -1.89377,6.32084 -3.18875,7.02929 -14.22966,7.78463 -5.35306,0.36621 -10.72261,1.60592 -13.83116,3.19329 C 382.32356,168.89114 375,175.29535 375,177.37651 c 0,0.98793 31.94374,1.37349 113.79305,1.37349 l 113.79306,0 -0.78947,-6.5625 z M 178.36411,138.94079 c -0.87622,-11.36265 -4.64715,-22.44935 -9.55962,-28.10574 -2.89828,-3.33717 -3.54865,-5.45136 -4.13487,-13.441205 -0.3826,-5.214636 -1.42813,-11.926065 -2.32343,-14.914288 -1.85538,-6.192713 -9.53831,-14.981855 -13.09014,-14.974885 -4.33757,0.0085 -10.12659,4.672143 -12.89285,10.386489 -4.47657,9.24738 -9.22549,8.904264 -10.73499,-0.775621 -2.01913,-12.948 -4.79673,-20.008435 -10.01316,-25.4526 -4.25506,-4.440825 -6.00289,-5.41294 -9.73228,-5.41294 -9.77298,0 -17.415501,11.72647 -19.743694,30.294164 -1.170831,9.337561 -1.682275,10.650875 -5.514876,14.161401 -2.3234,2.128151 -5.162902,6.215006 -6.310006,9.0819 C 72.599459,104.07301 71.6379,105 68.907274,105 c -6.601063,0 -11.76832,4.14276 -16.540502,13.26105 -4.390546,8.3891 -4.657652,8.63541 -10.232547,9.43639 -6.877853,0.98817 -15.892799,6.87381 -19.521424,12.74505 -5.53495,8.95573 -11.539021,8.30751 76.94747,8.30751 l 79.560269,0 -0.75643,-9.80921 z"
       id="path5250"
       inkscape:connector-curvature="0" />
    <path
       style="fill:#b5e3ed"
       d="m 0,507.60416 c 0,-92.74707 0.32806686,-117.52821 1.5625,-118.02631 1.25,-0.50439 1.25,-0.65021 0,-0.72916 C 0.3196219,388.77019 0,348.98904 0,194.375 L 0,0 312.5,0 625,0 l 0,194.27084 c 0,154.24707 -0.32191,194.40072 -1.5625,194.90131 -1.25,0.50439 -1.25,0.65021 0,0.72916 C 624.67571,389.97956 625,414.38596 625,507.5 L 625,625 312.5,625 0,625 0,507.60416 Z m 535.96189,-75.8197 c 11.20607,-5.58422 17.93892,-14.4866 30.3824,-40.17247 6.10872,-12.60969 12.50362,-24.32354 14.21089,-26.0308 l 3.10411,-3.10412 -10.26715,-9.93547 c -22.05379,-21.34138 -42.45526,-35.44906 -60.91329,-42.12176 -7.68504,-2.77819 -12.04091,-3.4735 -24.41506,-3.89728 -14.26714,-0.4886 -15.55228,-0.32497 -24.375,3.10345 -19.84741,7.71251 -44.92119,29.13519 -68.77648,58.76165 -14.79824,18.37829 -30.33121,41.21772 -29.50185,43.379 1.06759,2.78209 14.67386,6.17855 24.78287,6.18642 13.7409,0.0113 22.19075,-4.41023 39.01915,-20.41464 7.10193,-6.7542 14.82508,-13.27303 17.16256,-14.48628 13.88151,-7.20512 29.58259,2.19164 50.55859,30.2582 16.22627,21.71129 24.58867,25.66965 39.02826,18.4741 z M 107.91248,403.8411 c 13.32732,-5.71276 23.12162,-14.55665 40.13004,-36.23598 10.05183,-12.81228 14.27762,-16.31141 18.01203,-14.91467 0.63901,0.239 3.07932,2.96177 5.42292,6.05061 12.8752,16.96938 38.86326,30.00894 59.80828,30.00894 10.66249,0 18.86455,-2.52759 27.63272,-8.51544 8.3918,-5.73082 8.73904,-4.48306 -6.15282,-22.10956 -37.477,-44.359 -67.15585,-72.22606 -89.64065,-84.16843 -5.49648,-2.91935 -7.68169,-3.32028 -18.125,-3.32556 -11.35545,-0.006 -12.26239,0.20107 -20.72929,4.72692 -11.14046,5.95496 -26.049586,17.83521 -37.468357,29.85646 -10.417644,10.9673 -27.194423,31.59618 -29.834285,36.68452 -1.845324,3.55686 -1.824561,3.59773 2.601805,5.11944 5.964086,2.05035 11.21418,7.28371 13.549957,13.50675 1.052815,2.80495 2.395409,12.20095 2.983541,20.88 1.126914,16.62984 2.90908,22.02661 8.171879,24.74614 3.742845,1.9341 16.68716,0.669 23.63723,-2.31014 z M 28.125,375 c 1.244357,-1.375 1.981219,-2.5 1.637469,-2.5 -0.34375,0 -1.643112,1.125 -2.887469,2.5 -1.244358,1.375 -1.981219,2.5 -1.637469,2.5 0.34375,0 1.643111,-1.125 2.887469,-2.5 z m 12.034444,-12.1875 c 1.554838,-1.98258 1.510626,-2.02679 -0.471944,-0.47195 -1.203125,0.94356 -2.1875,1.92794 -2.1875,2.1875 0,1.0288 1.026482,0.36664 2.659444,-1.71555 z M 287.8157,218.4375 c 0.99027,-2.95274 -1.369,-9.97046 -4.45938,-13.26455 -2.5027,-2.66766 -3.18926,-4.89696 -3.5924,-11.6647 C 279.24064,184.72371 276.70051,180 272.5,180 c -2.51318,0 -5.62016,3.27856 -6.81139,7.1875 -0.85096,2.79241 -3.5794,3.54341 -7.46137,2.05376 -1.35563,-0.5202 -1.97724,-2.36101 -1.97724,-5.85533 0,-7.0434 -4.3597,-15.67759 -8.43228,-16.69974 -1.76256,-0.44238 -4.05076,-0.27063 -5.08487,0.38167 -3.54761,2.23778 -6.48285,9.60209 -6.48285,16.26501 0,5.75429 -0.4177,6.79433 -3.65443,9.09908 -2.01213,1.43276 -4.02288,4.27975 -4.47432,6.33511 -0.45094,2.05312 -1.19708,3.77982 -1.65808,3.8371 -0.46098,0.0572 -2.10847,0.24489 -3.66106,0.41688 -3.16616,0.35072 -9.05211,5.34976 -9.05211,7.68812 0,1.77304 -2.79301,3.04084 -6.6991,3.04084 -3.0305,0 -8.3009,3.2196 -8.3009,5.07087 0,1.93224 88.41674,1.55165 89.0657,-0.38337 z m 313.98094,-46.25 c -2.01388,-16.74034 -6.82705,-26.53425 -16.58154,-33.74031 -5.4341,-4.0144 -6.55132,-5.44937 -5.9429,-7.633 0.4121,-1.47905 1.11026,-7.8883 1.55148,-14.24276 1.02271,-14.7293 -1.52468,-25.269708 -7.91002,-32.72954 -3.81982,-4.462598 -5.01026,-5.09189 -9.63238,-5.09189 -7.46306,0 -13.36351,6.256048 -17.09475,18.125 -1.51292,4.8125 -3.17792,9.21974 -3.70002,9.79387 -0.52209,0.57413 -2.75321,0.11101 -4.95806,-1.02916 -2.53883,-1.31287 -6.14377,-1.92483 -9.83112,-1.66887 l -5.82233,0.40416 -0.95494,-12.5 C 519.02485,67.066976 515.61989,56.595794 506.982,49.01163 488.56792,32.843857 468.91511,59.275073 471.81242,96.311469 c 0.94434,12.071591 0.53455,12.909491 -7.0023,14.317781 -8.20978,1.53404 -11.17787,6.31087 -15.32603,24.66566 l -0.77289,3.41993 -9.40461,-0.79499 -9.40462,-0.79498 -6.12637,6.35602 c -3.66922,3.80675 -6.74586,8.42367 -7.67094,11.51128 -1.89377,6.32084 -3.18875,7.02929 -14.22966,7.78463 -5.35306,0.36621 -10.72261,1.60592 -13.83116,3.19329 C 382.32356,168.89114 375,175.29535 375,177.37651 c 0,0.98793 31.94374,1.37349 113.79305,1.37349 l 113.79306,0 -0.78947,-6.5625 z M 178.36411,138.94079 c -0.87622,-11.36265 -4.64715,-22.44935 -9.55962,-28.10574 -2.89828,-3.33717 -3.54865,-5.45136 -4.13487,-13.441205 -0.3826,-5.214636 -1.42813,-11.926065 -2.32343,-14.914288 -1.85538,-6.192713 -9.53831,-14.981855 -13.09014,-14.974885 -4.33757,0.0085 -10.12659,4.672143 -12.89285,10.386489 -4.47657,9.24738 -9.22549,8.904264 -10.73499,-0.775621 -2.01913,-12.948 -4.79673,-20.008435 -10.01316,-25.4526 -4.25506,-4.440825 -6.00289,-5.41294 -9.73228,-5.41294 -9.77298,0 -17.415501,11.72647 -19.743694,30.294164 -1.170831,9.337561 -1.682275,10.650875 -5.514876,14.161401 -2.3234,2.128151 -5.162902,6.215006 -6.310006,9.0819 C 72.599459,104.07301 71.6379,105 68.907274,105 c -6.601063,0 -11.76832,4.14276 -16.540502,13.26105 -4.390546,8.3891 -4.657652,8.63541 -10.232547,9.43639 -6.877853,0.98817 -15.892799,6.87381 -19.521424,12.74505 -5.53495,8.95573 -11.539021,8.30751 76.94747,8.30751 l 79.560269,0 -0.75643,-9.80921 z"
       id="path5248"
       inkscape:connector-curvature="0" />
    <path
       style="fill:#ebbac2"
       d="m 0,507.52381 0,-117.47619 3.4375,-0.71886 c 11.073756,-2.31581 23.151997,-11.55281 39.869506,-30.49077 6.21047,-7.03535 12.055288,-12.54902 13.317569,-12.56303 5.92661,-0.0658 14.494186,7.61888 17.008596,15.25579 0.741408,2.25184 1.841104,11.1953 2.443771,19.87435 1.57572,22.69205 5.098783,27.32931 19.478835,25.63921 17.614083,-2.07019 31.146843,-12.23887 52.486743,-39.43919 10.05183,-12.81228 14.27762,-16.31141 18.01203,-14.91467 0.63901,0.239 3.07932,2.96177 5.42292,6.05061 12.88305,16.97973 38.86273,30.00894 59.83649,30.00894 10.56976,0 18.65869,-2.45471 26.98435,-8.18881 3.63421,-2.50298 7.15507,-4.35631 7.82412,-4.11853 1.71371,0.60907 19.61636,23.34133 42.91708,54.49484 10.92681,14.60937 20.15129,26.5625 20.49884,26.5625 1.27479,0 -19.70209,-28.4519 -43.21578,-58.61555 -9.32116,-11.95731 -18.56782,-24.05106 -20.54813,-26.875 -7.34238,-10.47034 -33.2298,-39.49221 -52.63747,-59.0108 -21.81117,-21.93583 -36.27146,-33.48279 -50.35855,-40.21276 -8.60808,-4.11245 -9.64852,-4.31524 -19.375,-3.77639 -8.68021,0.4809 -11.6612,1.27161 -19.17134,5.08529 -11.55125,5.86575 -24.462884,16.27497 -39.266386,31.65616 -12.61523,13.10752 -26.977019,30.88967 -30.479394,37.7383 -1.157213,2.26284 -9.24941,11.34397 -17.982661,20.18032 -13.678483,13.83994 -17.19582,16.69059 -25.384804,20.57325 C 5.890445,386.72177 1.24982,388.75 0.80633549,388.75 0.36285098,388.75 0,301.28125 0,194.375 L 0,0 312.5,0 625,0 l 0,194.50874 c 0,155.10516 -0.31652,194.38281 -1.5625,193.88715 -0.85938,-0.34186 -4.09375,-1.62918 -7.1875,-2.8607 -8.55661,-3.4061 -21.47614,-13.63135 -38.79989,-30.70847 -25.4309,-25.06883 -44.69861,-38.44819 -66.38059,-46.09421 -9.23651,-3.25719 -12.10713,-3.68361 -24.81952,-3.68682 -13.33391,-0.004 -15.09924,0.29036 -24.375,4.05578 -13.97182,5.67176 -27.60334,15.47458 -43.83561,31.52353 -24.6689,24.39029 -49.38354,58.64255 -77.11543,106.875 -4.60599,8.01091 -7.50841,11.81612 -8.91967,11.69407 -1.64472,-0.14223 -1.78508,0.1889 -0.65652,1.54874 1.90866,2.29979 2.80249,1.5847 6.78848,-5.43089 6.70456,-11.8004 22.07507,-37.27776 24.14639,-40.02376 l 2.11902,-2.80925 7.48666,2.66635 c 5.15277,1.83514 10.65118,2.69606 17.63767,2.76165 14.36971,0.13491 22.53272,-4.05464 39.68649,-20.36847 7.10193,-6.7542 14.82508,-13.27303 17.16256,-14.48628 13.88151,-7.20512 29.58259,2.19164 50.55859,30.2582 16.22627,21.71129 24.58867,25.66965 39.02826,18.4741 11.16251,-5.56251 17.67612,-14.22169 31.23755,-41.52705 6.69656,-13.48325 13.0858,-25.05427 14.1983,-25.71339 1.58657,-0.93997 4.34213,0.80493 12.77889,8.09195 10.66335,9.2102 20.76473,15.37594 27.38587,16.71597 L 625,390.04762 625,507.52381 625,625 312.5,625 0,625 0,507.52381 Z M 288.98099,215.7178 c -0.45395,-5.65366 -3.29069,-11.78138 -5.92135,-12.79085 -1.28334,-0.49246 -1.8102,-2.74587 -1.81158,-7.74819 -0.001,-4.2104 -0.88295,-8.81732 -2.1875,-11.42876 -1.87352,-3.75038 -2.81019,-4.375 -6.56056,-4.375 -3.82646,0 -4.66631,0.59639 -6.69847,4.75662 -1.76501,3.61333 -2.96679,4.66489 -5,4.375 -2.20792,-0.31481 -2.81199,-1.4914 -3.45023,-6.72023 C 256.10076,171.54117 251.78431,165 246.27416,165 239.87555,165 235,173.15529 235,183.85818 c 0,5.37608 -0.4085,6.38155 -3.08884,7.60278 -1.76165,0.80267 -3.68312,3.20808 -4.47194,5.5982 -1.01165,3.06534 -2.12163,4.19084 -4.13303,4.19084 -3.70999,0 -7.9144,3.11651 -10.22043,7.57587 -1.46382,2.83073 -2.76351,3.67413 -5.66184,3.67413 -4.77482,0 -9.92392,3.32544 -9.92392,6.40916 0,2.29178 1.54689,2.3606 45.9375,2.04374 l 45.9375,-0.3279 -0.39401,-4.9072 z M 602.77694,172.5 c -0.61004,-12.04939 -4.9858,-23.48694 -11.45354,-29.93776 -3.1362,-3.12798 -7.01384,-6.70625 -8.61699,-7.95172 -1.89349,-1.47103 -2.63492,-2.99383 -2.11604,-4.34602 0.43932,-1.14485 1.12863,-7.49618 1.53182,-14.11408 0.91786,-15.06608 -2.21179,-27.166642 -8.84548,-34.200409 C 569.60256,78.054279 568.33452,77.5 563.09636,77.5 c -5.31966,0 -6.49324,0.5359 -10.57868,4.830592 -3.2128,3.377353 -5.47189,7.607932 -7.50927,14.0625 -1.60272,5.077548 -3.05175,9.414008 -3.22006,9.636578 -0.16831,0.22257 -2.13734,-0.54234 -4.37562,-1.6998 -2.69835,-1.39537 -5.71299,-1.88405 -8.94688,-1.45029 -3.11968,0.41844 -5.05721,0.13007 -5.37656,-0.8002 -0.2746,-0.79991 -1.05155,-8.655886 -1.72655,-17.457729 -1.06039,-13.827362 -1.76666,-17.173573 -5.19424,-24.609809 -4.49046,-9.742176 -7.2288,-12.76558 -14.20012,-15.678387 -18.20128,-7.604978 -33.04828,16.784904 -31.7592,52.172342 l 0.41582,11.414953 -5.97846,1.54556 c -9.56014,2.4715 -12.309,6.05154 -15.05999,19.61368 l -1.58116,7.79501 -9.5364,-0.43669 -9.53642,-0.43667 -5.5287,5.5287 c -3.17659,3.1766 -6.50055,8.14851 -7.81307,11.68667 -1.2564,3.3869 -2.49458,6.42113 -2.7515,6.74274 -0.25692,0.32161 -4.83393,0.96002 -10.17111,1.41869 -10.55567,0.90712 -17.2611,3.64547 -24.50844,10.00872 -2.42536,2.1295 -4.40975,4.94149 -4.40975,6.24888 0,2.32111 2.69881,2.36953 114.6875,2.058 L 603.125,179.375 602.77694,172.5 Z M 179.75,149.75 c 1.98434,-1.98434 1.86494,-9.69838 -0.30886,-19.95471 -1.99645,-9.41956 -4.60698,-15.20392 -8.96981,-19.87515 -2.51788,-2.69584 -3.0828,-4.82428 -3.55697,-13.401265 -0.36516,-6.60516 -1.51457,-12.406794 -3.26346,-16.472199 -2.88099,-6.697044 -10.98379,-15.049723 -14.592,-15.042004 -4.06875,0.0088 -10.42119,5.009848 -14.3104,11.266271 -2.1297,3.425981 -4.29286,6.229057 -4.80703,6.229057 -0.51416,0 -1.57385,-3.796875 -2.35486,-8.4375 -1.9424,-11.54145 -7.79962,-23.267717 -13.58614,-27.199764 -6.84028,-4.648089 -11.693,-4.138961 -18.26181,1.915952 -6.824936,6.291007 -10.445761,14.575985 -12.085542,27.653492 -1.067087,8.51018 -1.785754,10.580651 -4.381226,12.622249 -1.707615,1.343211 -4.457963,5.11263 -6.111885,8.376487 -2.590235,5.111584 -3.549838,5.949714 -6.921757,6.045594 -5.785186,0.16448 -11.824737,5.48691 -15.837975,13.9574 -3.039752,6.41582 -4.004431,7.44922 -7.00433,7.50334 -11.137113,0.20089 -28.3876,16.76662 -25.444985,24.43495 0.630576,1.64326 10.686379,1.8778 80.509809,1.8778 60.391621,0 80.153891,-0.36466 81.289231,-1.5 z"
       id="path5246"
       inkscape:connector-curvature="0" />
    <path
       style="fill:#a0dce9"
       d="m 0,507.53125 0,-117.46875 3.6632791,0.73265 c 8.3263299,1.66527 28.2485369,-13.69204 48.0228369,-37.01908 l 5.805827,-6.84892 4.553862,2.45241 c 8.886308,4.7856 12.862302,15.47342 12.929061,34.75442 0.0344,9.9363 2.170791,17.59797 5.876775,21.07572 2.661549,2.49764 4.399475,2.9153 12.130646,2.9153 17.006613,0 33.192013,-10.74064 51.800783,-34.375 12.24009,-15.54572 16.49482,-20 19.104,-20 1.18065,0 3.88999,2.39063 6.02073,5.3125 8.45852,11.59914 28.9887,24.97834 44.54739,29.03086 15.67033,4.08162 32.40477,1.78305 44.04418,-6.0497 l 6.19143,-4.16652 14.34224,18.24894 c 7.88822,10.0369 20.13988,26.12392 27.22591,35.74892 7.08602,9.625 14.90472,19.48139 17.37486,21.90308 2.47015,2.42168 5.75309,5.93731 7.29543,7.8125 1.54232,1.87518 3.31897,3.40942 3.94811,3.40942 0.62912,0 4.2895,-5.63165 8.13415,-12.51479 5.63465,-10.08778 18.46204,-31.30047 22.11692,-36.57481 0.41439,-0.598 3.78939,-0.24137 7.5,0.79249 11.73154,3.26869 19.00155,3.66455 27.4675,1.49567 10.4636,-2.68065 14.46388,-5.33843 29.86884,-19.84485 7.19938,-6.77945 14.79274,-13.20691 16.87416,-14.28326 12.81309,-6.6259 28.96839,3.09831 48.1921,29.0078 17.20759,23.19221 26.11315,27.39385 42.09262,19.85933 11.08477,-5.22663 19.2443,-16.49399 32.10235,-44.32959 4.00577,-8.67186 8.55417,-17.36095 10.10756,-19.30908 l 2.82434,-3.54206 8.60856,7.60124 c 13.09685,11.56435 22.55175,17.1992 28.92105,17.23612 l 5.3125,0.0308 0,117.1875 0,117.1875 -312.5,0 -312.5,0 0,-117.46875 z m 328.09844,-52.80378 c -5.61178,-8.49293 -23.38642,-32.25281 -41.77587,-55.84302 -9.32116,-11.95731 -18.56782,-24.05106 -20.54813,-26.875 -7.34238,-10.47034 -33.2298,-39.49221 -52.63747,-59.0108 -21.81117,-21.93583 -36.27146,-33.48279 -50.35855,-40.21276 -8.60808,-4.11245 -9.64852,-4.31524 -19.375,-3.77639 -8.68021,0.4809 -11.6612,1.27161 -19.17134,5.08529 -11.55125,5.86575 -24.462884,16.27497 -39.266386,31.65616 -12.61523,13.10752 -26.977019,30.88967 -30.479394,37.7383 -1.157213,2.26284 -9.24941,11.34397 -17.982661,20.18032 -13.678483,13.83994 -17.19582,16.69059 -25.384804,20.57325 C 5.890445,386.72177 1.24982,388.75 0.80633549,388.75 0.36285098,388.75 0,301.28125 0,194.375 L 0,0 312.5,0 625,0 l 0,194.50874 c 0,155.10516 -0.31652,194.38281 -1.5625,193.88715 -0.85938,-0.34186 -4.09375,-1.62918 -7.1875,-2.8607 -8.55661,-3.4061 -21.47614,-13.63135 -38.79989,-30.70847 -25.4309,-25.06883 -44.69861,-38.44819 -66.38059,-46.09421 -9.23651,-3.25719 -12.10713,-3.68361 -24.81952,-3.68682 -13.33391,-0.004 -15.09924,0.29036 -24.375,4.05578 -13.97182,5.67176 -27.60334,15.47458 -43.83561,31.52353 -24.67678,24.39807 -49.94618,59.42997 -77.02933,106.78859 -3.70786,6.48372 -7.33409,11.98608 -8.05826,12.22747 -0.72416,0.24139 -2.90819,-1.96972 -4.85336,-4.91359 z M 288.98099,215.7178 c -0.45395,-5.65366 -3.29069,-11.78138 -5.92135,-12.79085 -1.28334,-0.49246 -1.8102,-2.74587 -1.81158,-7.74819 -0.001,-4.2104 -0.88295,-8.81732 -2.1875,-11.42876 -1.87352,-3.75038 -2.81019,-4.375 -6.56056,-4.375 -3.82646,0 -4.66631,0.59639 -6.69847,4.75662 -1.76501,3.61333 -2.96679,4.66489 -5,4.375 -2.20792,-0.31481 -2.81199,-1.4914 -3.45023,-6.72023 C 256.10076,171.54117 251.78431,165 246.27416,165 239.87555,165 235,173.15529 235,183.85818 c 0,5.37608 -0.4085,6.38155 -3.08884,7.60278 -1.76165,0.80267 -3.68312,3.20808 -4.47194,5.5982 -1.01165,3.06534 -2.12163,4.19084 -4.13303,4.19084 -3.70999,0 -7.9144,3.11651 -10.22043,7.57587 -1.46382,2.83073 -2.76351,3.67413 -5.66184,3.67413 -4.77482,0 -9.92392,3.32544 -9.92392,6.40916 0,2.29178 1.54689,2.3606 45.9375,2.04374 l 45.9375,-0.3279 -0.39401,-4.9072 z M 602.77694,172.5 c -0.61004,-12.04939 -4.9858,-23.48694 -11.45354,-29.93776 -3.1362,-3.12798 -7.01384,-6.70625 -8.61699,-7.95172 -1.89349,-1.47103 -2.63492,-2.99383 -2.11604,-4.34602 0.43932,-1.14485 1.12863,-7.49618 1.53182,-14.11408 0.91786,-15.06608 -2.21179,-27.166642 -8.84548,-34.200409 C 569.60256,78.054279 568.33452,77.5 563.09636,77.5 c -5.31966,0 -6.49324,0.5359 -10.57868,4.830592 -3.2128,3.377353 -5.47189,7.607932 -7.50927,14.0625 -1.60272,5.077548 -3.05175,9.414008 -3.22006,9.636578 -0.16831,0.22257 -2.13734,-0.54234 -4.37562,-1.6998 -2.69835,-1.39537 -5.71299,-1.88405 -8.94688,-1.45029 -3.11968,0.41844 -5.05721,0.13007 -5.37656,-0.8002 -0.2746,-0.79991 -1.05155,-8.655886 -1.72655,-17.457729 -1.06039,-13.827362 -1.76666,-17.173573 -5.19424,-24.609809 -4.49046,-9.742176 -7.2288,-12.76558 -14.20012,-15.678387 -18.20128,-7.604978 -33.04828,16.784904 -31.7592,52.172342 l 0.41582,11.414953 -5.97846,1.54556 c -9.56014,2.4715 -12.309,6.05154 -15.05999,19.61368 l -1.58116,7.79501 -9.5364,-0.43669 -9.53642,-0.43667 -5.5287,5.5287 c -3.17659,3.1766 -6.50055,8.14851 -7.81307,11.68667 -1.2564,3.3869 -2.49458,6.42113 -2.7515,6.74274 -0.25692,0.32161 -4.83393,0.96002 -10.17111,1.41869 -10.55567,0.90712 -17.2611,3.64547 -24.50844,10.00872 -2.42536,2.1295 -4.40975,4.94149 -4.40975,6.24888 0,2.32111 2.69881,2.36953 114.6875,2.058 L 603.125,179.375 602.77694,172.5 Z M 179.75,149.75 c 1.98434,-1.98434 1.86494,-9.69838 -0.30886,-19.95471 -1.99645,-9.41956 -4.60698,-15.20392 -8.96981,-19.87515 -2.51788,-2.69584 -3.0828,-4.82428 -3.55697,-13.401265 -0.36516,-6.60516 -1.51457,-12.406794 -3.26346,-16.472199 -2.88099,-6.697044 -10.98379,-15.049723 -14.592,-15.042004 -4.06875,0.0088 -10.42119,5.009848 -14.3104,11.266271 -2.1297,3.425981 -4.29286,6.229057 -4.80703,6.229057 -0.51416,0 -1.57385,-3.796875 -2.35486,-8.4375 -1.9424,-11.54145 -7.79962,-23.267717 -13.58614,-27.199764 -6.84028,-4.648089 -11.693,-4.138961 -18.26181,1.915952 -6.824936,6.291007 -10.445761,14.575985 -12.085542,27.653492 -1.067087,8.51018 -1.785754,10.580651 -4.381226,12.622249 -1.707615,1.343211 -4.457963,5.11263 -6.111885,8.376487 -2.590235,5.111584 -3.549838,5.949714 -6.921757,6.045594 -5.785186,0.16448 -11.824737,5.48691 -15.837975,13.9574 -3.039752,6.41582 -4.004431,7.44922 -7.00433,7.50334 -11.137113,0.20089 -28.3876,16.76662 -25.444985,24.43495 0.630576,1.64326 10.686379,1.8778 80.509809,1.8778 60.391621,0 80.153891,-0.36466 81.289231,-1.5 z"
       id="path5244"
       inkscape:connector-curvature="0" />
    <path
       style="fill:#eeb4be"
       d="m 0,507.53125 0,-117.46875 3.6632791,0.73265 c 8.3263299,1.66527 28.2485369,-13.69204 48.0228369,-37.01908 l 5.805827,-6.84892 4.553862,2.45241 c 8.886308,4.7856 12.862302,15.47342 12.929061,34.75442 0.0344,9.9363 2.170791,17.59797 5.876775,21.07572 2.661549,2.49764 4.399475,2.9153 12.130646,2.9153 17.006613,0 33.192013,-10.74064 51.800783,-34.375 12.24009,-15.54572 16.49482,-20 19.104,-20 1.18065,0 3.88999,2.39063 6.02073,5.3125 8.45852,11.59914 28.9887,24.97834 44.54739,29.03086 15.67033,4.08162 32.40477,1.78305 44.04418,-6.0497 l 6.19143,-4.16652 14.34224,18.24894 c 7.88822,10.0369 20.13988,26.12392 27.22591,35.74892 7.08602,9.625 14.90472,19.48139 17.37486,21.90308 2.47015,2.42168 5.75309,5.93731 7.29543,7.8125 1.54232,1.87518 3.31897,3.40942 3.94811,3.40942 0.62912,0 4.2895,-5.63165 8.13415,-12.51479 5.63465,-10.08778 18.46204,-31.30047 22.11692,-36.57481 0.41439,-0.598 3.78939,-0.24137 7.5,0.79249 11.73154,3.26869 19.00155,3.66455 27.4675,1.49567 10.4636,-2.68065 14.46388,-5.33843 29.86884,-19.84485 7.19938,-6.77945 14.79274,-13.20691 16.87416,-14.28326 12.81309,-6.6259 28.96839,3.09831 48.1921,29.0078 17.20759,23.19221 26.11315,27.39385 42.09262,19.85933 11.08477,-5.22663 19.2443,-16.49399 32.10235,-44.32959 4.00577,-8.67186 8.55417,-17.36095 10.10756,-19.30908 l 2.82434,-3.54206 8.60856,7.60124 c 13.09685,11.56435 22.55175,17.1992 28.92105,17.23612 l 5.3125,0.0308 0,117.1875 0,117.1875 -312.5,0 -312.5,0 0,-117.46875 z"
       id="path5242"
       inkscape:connector-curvature="0" />
    <path
       style="fill:#f39baf"
       d="m 0,565.54076 c 0,-56.04207 0.1257168,-59.42189 2.1875,-58.80936 9.198695,2.7328 7.4346435,4.79563 21.451163,-25.08417 12.558844,-26.77239 15.131518,-31.51733 15.091778,-27.83473 -0.01075,0.99688 -3.028895,14.46875 -6.706971,29.9375 -4.944984,20.79694 -6.324078,28.5033 -5.29294,29.57689 C 27.983198,514.63112 43.733325,520 46.306794,520 c 0.573901,0 9.578835,-12.10023 20.010965,-26.88938 10.43213,-14.78916 19.465822,-27.19736 20.074875,-27.57377 2.107487,-1.3025 1.076956,3.37704 -5.845053,26.54179 -3.82383,12.79659 -6.475836,23.74311 -5.893347,24.3256 0.58249,0.58248 6.382952,-0.3604 12.889918,-2.09531 6.506967,-1.73492 13.886938,-3.70275 16.399928,-4.37295 l 4.56909,-1.21857 3.33507,-14.34158 c 1.8343,-7.88787 3.79465,-14.62562 4.35636,-14.97277 1.20574,-0.74518 2.10125,3.96219 3.23102,16.98423 0.45389,5.23176 1.26993,10.23177 1.81341,11.11114 0.56913,0.92087 15.48789,4.4824 35.18206,8.39894 l 34.19391,6.80011 9.375,-2.12832 c 14.71546,-3.34072 13.75,-1.84947 13.75,-21.23813 0,-9.51876 0.50405,-16.83103 1.16019,-16.83103 1.18157,0 3.80441,6.44789 8.77107,21.5625 3.20127,9.74213 3.01825,9.67826 16.85629,5.88185 l 9.31545,-2.55566 27.24761,7.70374 27.24762,7.70372 30.63838,-5.13842 c 24.81909,-4.16248 31.96173,-4.94827 37.6057,-4.13719 3.83201,0.55069 7.62615,0.78164 8.4314,0.51322 0.80525,-0.26841 4.00293,-5.40367 7.10594,-11.41167 6.16007,-11.92707 8.84215,-16.08017 9.76457,-15.12013 0.32924,0.34268 0.16029,6.52929 -0.37545,13.74804 -0.68861,9.27859 -0.55935,13.55759 0.44108,14.60113 0.77834,0.81186 10.20797,2.69509 20.95476,4.18497 l 19.53961,2.70885 26.74649,-7.62401 26.74649,-7.624 19.78694,4.36653 c 10.88281,2.40161 20.28843,4.05659 20.9014,3.67777 0.61295,-0.37883 1.11446,-6.39309 1.11446,-13.36502 0,-7.69426 0.44933,-12.20951 1.14329,-11.48872 0.62881,0.65312 2.84022,7.0367 4.91425,14.18574 2.07403,7.14902 4.45334,13.41996 5.28733,13.9354 0.83402,0.51545 4.77398,1.57806 8.75548,2.36137 6.30063,1.23958 8.5786,1.0822 17.57161,-1.21392 15.72613,-4.01523 14.97085,-3.10025 12.33177,-14.93935 -1.2302,-5.51882 -1.79128,-10.30952 -1.24683,-10.646 0.54445,-0.33649 3.61809,3.60494 6.8303,8.75873 6.77199,10.8652 6.33778,10.74463 22.54659,6.26105 6.18266,-1.7102 11.66308,-3.11645 12.17871,-3.125 0.51563,-0.009 0.9375,26.70323 0.9375,59.35948 L 625,625 312.5,625 0,625 0,565.54076 Z M 313.75,499.3493 c 0,-3.56157 10.30682,-43.0993 11.23527,-43.0993 0.5086,0 2.44176,2.18907 4.2959,4.8646 l 3.37118,4.86461 -8.83453,17.63539 c -4.85898,9.69947 -9.11201,17.6354 -9.45117,17.6354 -0.33915,0 -0.61665,-0.85531 -0.61665,-1.9007 z M 256.54057,486.62869 C 251.05689,478.86244 236.25,445.08301 236.25,440.33917 c 0,-6.16635 14.98334,13.83095 22.66903,30.2549 4.54181,9.70563 5.52381,18.43618 2.15072,19.12102 -1.15612,0.23473 -3.13755,-1.1155 -4.52918,-3.0864 z m -75.10628,-7.5961 c -7.3132,-18.96375 -13.03282,-46.35565 -14.68335,-70.32025 -0.62088,-9.01469 -0.46309,-12.46234 0.57037,-12.46234 0.78578,0 1.42869,0.25516 1.42869,0.56702 0,0.68162 17.1721,85.10028 18.12852,89.12048 0.36802,1.54687 0.13678,2.8125 -0.51385,2.8125 -0.65062,0 -2.8693,-4.37284 -4.93038,-9.71741 z M 409.1662,470 c 0.40548,-4.46875 1.94663,-12.90625 3.42479,-18.75 3.01876,-11.93429 11.24316,-30.57355 12.0434,-27.29439 0.62962,2.57999 -13.03205,51.19861 -14.87017,52.91939 -0.9427,0.88253 -1.11851,-1.13859 -0.59802,-6.875 z m 187.50199,-5.3125 C 590.71708,458.49126 571.25,435.26859 571.25,434.36563 c 0,-2.42245 5.10925,0.50265 11.47902,6.57187 7.49477,7.14111 22.27098,25.64504 22.27098,27.88944 0,2.62098 -3.51706,0.87364 -8.33181,-4.13944 z"
       id="path5240"
       inkscape:connector-curvature="0" />
  </g>
</svg>
