<?xml version="1.0" encoding="UTF-8" standalone="no"?>
<!-- Created with Inkscape (http://www.inkscape.org/) -->

<svg
   xmlns:dc="http://purl.org/dc/elements/1.1/"
   xmlns:cc="http://creativecommons.org/ns#"
   xmlns:rdf="http://www.w3.org/1999/02/22-rdf-syntax-ns#"
   xmlns:svg="http://www.w3.org/2000/svg"
   xmlns="http://www.w3.org/2000/svg"
   xmlns:sodipodi="http://sodipodi.sourceforge.net/DTD/sodipodi-0.dtd"
   xmlns:inkscape="http://www.inkscape.org/namespaces/inkscape"
   id="svg3336"
   version="1.1"
   inkscape:version="0.91 r13725"
   width="499"
   height="500"
   viewBox="0 0 499 500"
   sodipodi:docname="space2.svg">
  <metadata
     id="metadata3342">
    <rdf:RDF>
      <cc:Work
         rdf:about="">
        <dc:format>image/svg+xml</dc:format>
        <dc:type
           rdf:resource="http://purl.org/dc/dcmitype/StillImage" />
        <dc:title></dc:title>
      </cc:Work>
    </rdf:RDF>
  </metadata>
  <defs
     id="defs3340" />
  <sodipodi:namedview
     pagecolor="#ffffff"
     bordercolor="#666666"
     borderopacity="1"
     objecttolerance="10"
     gridtolerance="10"
     guidetolerance="10"
     inkscape:pageopacity="0"
     inkscape:pageshadow="2"
     inkscape:window-width="1366"
     inkscape:window-height="705"
     id="namedview3338"
     showgrid="false"
     inkscape:zoom="0.75801847"
     inkscape:cx="250.45207"
     inkscape:cy="240.72656"
     inkscape:window-x="1432"
     inkscape:window-y="-8"
     inkscape:window-maximized="1"
     inkscape:current-layer="svg3336" />
  <g
     id="g3460"
     transform="matrix(1.0019294,0,0,0.99913692,0.03724501,0.1847433)">
    <path
       style="fill:#929292"
       d="M 0,250 0,0 249.5,0 499,0 l 0,250 0,250 -249.5,0 L 0,500 0,250 Z"
       id="path3468"
       inkscape:connector-curvature="0" />
    <path
       style="fill:#535353"
       d="M 0.24569065,387.8333 0.5,275.6666 3,274.92077 c 1.375,-0.4102 3.7375,-1.01876 5.25,-1.35235 C 9.7625,273.23483 11,272.29547 11,271.48095 11,270.35253 9.6907751,270 5.5,270 L 0,270 0,134.99338 0,-0.0132377 71.75,0.24338115 143.5,0.5 l 2.42265,5.25 c 1.33245,2.8875 3.01995,5.25 3.75,5.25 1.67309,0 1.66309,-0.79695 -0.0717,-5.7138665 l -1.39904,-3.9653196 36.64904,-0.65893032 c 56.34132,-1.01298675 216.36073,-0.81340508 215.69176,0.26901812 -1.10479,1.7875726 1.56483,2.2286574 3.96608,0.655294 C 406.63056,0.19596337 412.61696,0 452.96482,0 L 499,0 l 0,129.34719 0,129.34718 -2.25,1.00508 -2.25,1.00507 2.25,0.71513 2.25,0.71513 0,119.05611 0,119.05612 -170.75,-0.4302 c -129.80736,-0.32706 -171.27438,-0.71668 -172.9369,-1.62492 -1.83283,-1.00129 -2.09145,-1.78289 -1.59738,-4.82751 0.82668,-5.09422 -1.50666,-4.11183 -4.63096,1.94973 L 146.66951,500 73.330447,500 -0.0086187,500 0.24569065,387.8333 Z M 125.02006,361.47583 c 0.69572,-0.83829 1.04022,-1.74888 0.76557,-2.02353 -0.81748,-0.81748 -3.58883,0.59246 -4.17693,2.12502 -0.7301,1.90261 1.81084,1.82702 3.41136,-0.10149 z M 341,297.2 c 0,-1.54865 -2.42543,-3.2 -4.7,-3.2 -2.72695,0 -3.00735,1.48863 -0.55,2.9199 2.10475,1.2259 5.25,1.39371 5.25,0.2801 z M 52,227.01905 c 0,-1.2475 -4.53723,-2.42309 -5.959476,-1.54409 -0.590231,0.36478 -0.81425,1.08214 -0.497819,1.59414 C 46.310737,228.3118 52,228.26771 52,227.01905 Z m -18.272072,-8.68419 c 0.468302,-1.42775 -1.414782,-2.05553 -9.444177,-3.14847 -6.595791,-0.8978 -9.647637,-0.15028 -7.628754,1.86861 1.205101,1.2051 10.188889,2.83644 14.267884,2.59087 1.332585,-0.0802 2.594856,-0.67018 2.805047,-1.31101 z M 379.7823,206.1545 c 0.28658,-0.86063 -0.19425,-1.221 -1.33427,-1 -0.98026,0.19002 -1.98391,0.95098 -2.23033,1.691 -0.28658,0.86063 0.19425,1.221 1.33427,1 0.98026,-0.19002 1.98391,-0.95098 2.23033,-1.691 z m 49.08658,-1.49651 C 430.32476,202.90376 429.32043,202 425.91512,202 422.14662,202 420,202.94609 420,204.60699 c 0,1.8447 7.34519,1.88694 8.86888,0.051 z M 160,186 c 0,-0.55 -0.70156,-1 -1.55902,-1 -0.85746,0 -1.2809,0.45 -0.94098,1 0.33992,0.55 1.04148,1 1.55902,1 0.51754,0 0.94098,-0.45 0.94098,-1 z m 195.5,-41 c 0.33992,-0.55 0.14148,-1 -0.44098,-1 -0.58246,0 -1.05902,0.45 -1.05902,1 0,0.55 0.19844,1 0.44098,1 0.24254,0 0.7191,-0.45 1.05902,-1 z M 68,134.17431 C 68,132.5598 60.688832,127 58.565741,127 58.254584,127 58,127.64949 58,128.44332 c 0,0.79383 1.9125,2.58957 4.25,3.99054 4.505408,2.7003 5.75,3.07702 5.75,1.74045 z"
       id="path3466"
       inkscape:connector-curvature="0" />
    <path
       style="fill:#2c2c2c"
       d="m 0.64936145,389.25 c 0.39557825,-70.32052 0.98304445,-111.20631 1.60926835,-112 0.5424428,-0.6875 2.1686595,-1.27161 3.6138149,-1.29803 3.6059886,-0.0659 9.5334433,-3.10551 9.9144933,-5.08415 0.398933,-2.07149 -6.8335835,-3.31609 -11.461665,-1.97236 -1.7460999,0.50696 -3.43359986,0.66288 -3.75,0.34648 C 0.25887285,268.92554 0,208.21667 0,134.33333 L 0,0 64.25,0.12421044 c 35.3375,0.0683157 67.39876,0.40581574 71.24724,0.75 L 142.49447,1.5 l 3.18259,6.3941096 c 1.75042,3.5167604 3.87263,7.0841534 4.71602,7.9275414 1.37791,1.377909 1.60282,1.352606 2.2176,-0.249484 0.37629,-0.980604 0.15739,-4.065058 -0.48646,-6.8543413 -0.83336,-3.6103299 -0.86155,-5.3806177 -0.0978,-6.1446253 1.13131,-1.1317637 90.91621,-2.27315632 194.33203,-2.47045059 L 400.21682,0 399.61267,2.4070992 c -0.33228,1.3239045 -0.8792,3.1239045 -1.21539,4 -1.38677,3.6138618 2.72159,1.1174002 6.09928,-3.7062512 L 406.03767,0.5 452.51883,0.15754856 499,-0.18490289 499,129.26076 l 0,129.44565 -4.78881,-0.46014 c -3.57969,-0.34396 -5.12305,-0.0574 -6.11262,1.13496 -1.11912,1.34846 -1.05423,1.69855 0.41967,2.26414 0.95892,0.36798 3.70949,0.7108 6.11238,0.76184 l 4.36888,0.0928 2.5e-4,118.75 L 499,500 382.25,499.94059 c -131.67422,-0.067 -218.73147,-1.6425 -223.38229,-4.0426 -0.94846,-0.48947 -1.91527,-2.72944 -2.30777,-5.34687 -0.37152,-2.47747 -1.07016,-4.74842 -1.55254,-5.04655 -1.32775,-0.82059 -5.64941,5.44369 -7.0682,10.24543 L 146.68342,500 73.354889,500 0.02635278,500 0.64936145,389.25 Z M 39.408224,467.5373 C 41.933701,465.08282 44,462.15782 44,461.0373 44,459.91679 43.755722,459 43.457159,459 41.946886,459 33,468.52841 33,470.13684 c 0,2.84109 1.390699,2.27694 6.408224,-2.59954 z M 432,466.0348 C 432,464.76711 426.0436,458 424.92779,458 c -1.37494,0 0.13783,3.25367 2.90589,6.25 2.60694,2.82192 4.16632,3.48994 4.16632,1.7848 z m 35.12701,-2.7848 c -1.4532,-2.69578 -6.03668,-6.67366 -6.80471,-5.90563 -0.37708,0.37708 0.83442,2.25385 2.69222,4.17061 3.61943,3.73431 5.65263,4.59209 4.11249,1.73502 z M 143,451.38922 C 143,450.62515 142.62223,450 142.16052,450 c -0.95414,0 -3.17758,4.47715 -3.12725,6.29705 0.046,1.66433 3.96673,-3.18656 3.96673,-4.90783 z M 111.60795,452.25 c 1.57675,-2.07711 1.79943,-3.61981 0.39743,-2.75332 -1.30144,0.80433 -3.27344,4.50332 -2.40081,4.50332 0.37122,0 1.27274,-0.7875 2.00338,-1.75 z M 253.96937,436.5 c 0,-1.65 -0.39474,-3.62329 -0.8772,-4.3851 -0.70358,-1.11096 -1.09639,-0.97552 -1.98468,0.68426 C 250.49837,433.93731 250,435.60268 250,436.5 c 0,0.89732 0.49837,2.56269 1.10749,3.70084 0.88829,1.65978 1.2811,1.79522 1.98468,0.68426 0.48246,-0.76181 0.8772,-2.7351 0.8772,-4.3851 z m 185.25285,-18.72222 c -1.19166,-1.19167 -2.43392,-1.89942 -2.76056,-1.57278 -0.32664,0.32665 0.41561,1.53439 1.64945,2.68389 2.92604,2.72602 3.93714,1.71492 1.11111,-1.11111 z M 183.80651,392.6721 c 0.71858,-1.47412 1.01141,-3.1577 0.65072,-3.7413 C 183.424,387.25899 180,390.95208 180,393.73832 c 0,3.09816 2.05745,2.52186 3.80651,-1.06622 z M 394,390.5 c -0.68469,-0.825 -1.69489,-1.5 -2.24489,-1.5 -0.55783,0 -0.44954,0.66326 0.24489,1.5 0.68469,0.825 1.69489,1.5 2.24489,1.5 0.55783,0 0.44954,-0.66326 -0.24489,-1.5 z M 199,387.94098 C 199,387.42344 198.55,387 198,387 c -0.55,0 -1,0.70156 -1,1.55902 0,0.85746 0.45,1.2809 1,0.94098 0.55,-0.33992 1,-1.04148 1,-1.55902 z m -143.860784,-4.8549 c 1.298431,-1.05266 2.062328,-2.21361 1.697548,-2.5799 C 56.049288,379.71544 51,382.83738 51,384.11501 c 0,1.42515 1.603958,1.02644 4.139216,-1.02893 z m 19.85708,-2.58214 c 1.289708,-1.37283 2.045051,-2.79593 1.67854,-3.16244 -1.043627,-1.04362 -5.433736,1.33948 -6.648316,3.60895 C 69.103449,382.67522 69.224513,383 70.790502,383 c 1.023479,0 2.916086,-1.12323 4.205794,-2.49606 z m 373.237924,-2.5708 c -2.99507,-2.69001 -7.25556,-3.97846 -7.21891,-2.18314 0.0548,2.68654 7.86944,7.77453 9.45911,6.15872 0.7047,-0.7163 0.004,-1.96015 -2.2402,-3.97558 z M 124.37146,363.92245 c 3.03711,-2.389 4.97002,-5.56091 4.17379,-6.84924 -1.53107,-2.47732 -9.54525,3.29831 -9.54525,6.87904 0,2.61879 2.01857,2.60759 5.37146,-0.0298 z M 53.25,349.60795 c 0.9625,-0.73064 1.75,-1.87165 1.75,-2.53558 0,-1.6389 -3.939599,-0.40196 -6.472222,2.03214 -1.957431,1.88127 -1.953681,1.89525 0.5,1.86369 C 50.3875,350.9507 52.2875,350.3386 53.25,349.60795 Z M 79.095708,337.28439 C 82.387133,335.3401 82.941559,333 80.110784,333 c -2.588701,0 -6.600482,3.39864 -5.710876,4.83805 0.937085,1.51623 1.255262,1.47872 4.6958,-0.55366 z M 335,333.55902 c 0,-0.24254 -0.45,-0.7191 -1,-1.05902 -0.55,-0.33992 -1,-0.14148 -1,0.44098 0,0.58246 0.45,1.05902 1,1.05902 0.55,0 1,-0.19844 1,-0.44098 z M 391,328.7 c 0,-2.00328 -2.1553,-3.7 -4.7,-3.7 -2.68229,0 -2.94077,1.21637 -0.72857,3.42857 C 387.47212,330.32927 391,330.50566 391,328.7 Z m -154.1545,-6.14803 c 0.221,-1.14002 -0.13937,-1.62085 -1,-1.33427 -0.74002,0.24642 -1.50098,1.25007 -1.691,2.23033 -0.221,1.14002 0.13937,1.62085 1,1.33427 0.74002,-0.24642 1.50098,-1.25007 1.691,-2.23033 z M 84.557298,321.58176 c 1.066757,-0.78003 1.641306,-1.71649 1.276776,-2.08102 C 84.99128,318.65795 81,320.75052 81,322.03518 c 0,1.36334 1.299211,1.19773 3.557298,-0.45342 z M 413,315.96778 c 0,-1.25596 -4.14627,-2.94297 -5.40149,-2.19772 C 406.52658,314.40648 409.81281,317 411.69113,317 412.41101,317 413,316.5355 413,315.96778 Z M 342.69884,298.34242 C 343.58713,296.02759 338.66276,292 334.94424,292 c -4.16151,0 -3.98895,3.39243 0.30576,6.01096 3.96716,2.41882 6.60284,2.53611 7.44884,0.33146 z M 56.461646,287.6517 c 2.949543,-2.15675 0.938521,-3.96871 -3.712376,-3.3449 -4.378294,0.58726 -6.343119,1.92332 -5.303121,3.60607 0.942864,1.52558 6.804176,1.35579 9.015497,-0.26117 z M 475.17173,230.22827 C 477.03415,228.36585 475.0048,227 470.37524,227 c -5.94664,0 -8.99373,1.54984 -7.22861,3.67667 1.44142,1.73681 10.16519,1.41151 12.0251,-0.4484 z M 55.944477,228.5669 c 0.955294,-1.15106 0.733386,-1.72256 -1.127556,-2.9039 -5.377626,-3.41377 -15.589517,-2.83993 -14.19367,0.79759 1.228385,3.20112 13.062407,4.82802 15.321226,2.10631 z m -17.140608,-8.75906 c 0.467375,-2.46761 -4.588908,-4.70596 -13.595998,-6.01875 C 16.991499,212.59154 12,213.18793 12,215.36718 c 0,1.87259 6.425705,4.51618 13.5,5.55401 8.706819,1.27732 12.917812,0.92492 13.303869,-1.11335 z m 112.755441,0.0962 c 0.97313,-1.57457 -2.10385,-4.29279 -4.02489,-3.55562 -1.28821,0.49433 -1.39947,1.03522 -0.54236,2.63674 1.17432,2.19424 3.49098,2.66032 4.56725,0.91888 z m 228.49035,-11.42972 c 1.75571,-0.90791 2.95034,-2.32511 2.95034,-3.5 0,-2.92063 -5.03157,-2.63407 -7.93045,0.45165 -3.84586,4.09373 -0.72983,6.00107 4.98011,3.04835 z m 50.60397,-2.98303 c 2.39546,-1.56956 2.46091,-1.80532 0.92702,-3.33921 -2.42567,-2.42567 -10.26457,-1.92143 -12.98238,0.8351 -2.09382,2.12365 -2.09403,2.13138 -0.0983,3.64666 2.43973,1.85236 8.44435,1.28787 12.15363,-1.14255 z M 54.664167,204.43278 c 0.886568,-2.31036 -1.028456,-3.6766 -5.34387,-3.81248 -4.529435,-0.14263 -5.252858,2.09588 -1.320297,4.08543 3.394375,1.71727 5.940467,1.61299 6.664167,-0.27295 z M 213.26443,201.40223 C 214.06555,200.60112 213.01705,198 211.89301,198 211.40186,198 211,198.9 211,200 c 0,1.94919 1.06067,2.606 2.26443,1.40223 z m -50.50307,-13.18632 c 0.437,-1.311 -4.09813,-6.21591 -5.74729,-6.21591 -2.52868,0 -2.27487,3.37892 0.42848,5.70425 2.82347,2.42864 4.62214,2.60167 5.31881,0.51166 z M 358,173.88197 c 0,-0.55 -0.45,-0.72189 -1,-0.38197 -0.55,0.33992 -1,1.06803 -1,1.61803 0,0.55 0.45,0.72189 1,0.38197 0.55,-0.33992 1,-1.06803 1,-1.61803 z M 136.81955,170.75 c -0.20536,-1.44596 -1.12359,-2.36419 -2.56955,-2.56955 -2.74002,-0.38915 -3.09032,2.23073 -0.5,3.73945 2.68553,1.56418 3.41819,1.28494 3.06955,-1.1699 z m 276.72157,1.18347 c 1.17263,-1.89735 -0.53762,-2.36554 -2.27922,-0.62395 -1.55894,1.55895 -1.56168,1.69048 -0.0352,1.69048 0.9104,0 1.95188,-0.47994 2.31442,-1.06653 z M 84.006319,156.01181 c -1.073301,-2.00548 -5.576465,-3.775 -6.713425,-2.63804 -1.118138,1.11814 2.974643,4.62623 5.397277,4.62623 2.065607,0 2.239562,-0.26278 1.316148,-1.98819 z m 271.942831,-8.67429 c 2.13426,-2.71328 3.67603,-7.04568 2.81407,-7.90763 C 357.16579,137.83245 351,144.8868 351,148.31188 c 0,2.53936 2.58567,2.03031 4.94915,-0.97436 z M 144,140.31445 C 144,138.55911 140.26408,134 138.82569,134 c -1.36334,0 -0.9329,3.40193 0.73101,5.77749 1.83662,2.62214 4.4433,2.93715 4.4433,0.53696 z m -73,-4.7571 c 0,-3.76536 -14.896463,-13.06089 -17.215017,-10.74233 -1.487422,1.48742 5.129883,7.94433 11.239623,10.96719 C 69.42811,137.96089 71,137.90174 71,135.55735 Z m 158.45729,0.51175 c 0.31644,-0.512 0.11799,-1.21356 -0.44098,-1.55902 -0.55897,-0.34546 -1.01631,0.0734 -1.01631,0.9309 0,1.75653 0.60006,2.01516 1.45729,0.62812 z M 298.36163,123.5 c 0.31658,-0.825 0.13972,-1.5 -0.39301,-1.5 -0.53274,0 -0.96862,0.675 -0.96862,1.5 0,0.825 0.17686,1.5 0.39301,1.5 0.21616,0 0.65203,-0.675 0.96862,-1.5 z m 89.80963,-6.15499 C 390.14087,115.56254 390.62963,113 389,113 c -1.29694,0 -5,3.70306 -5,5 0,1.52711 2.12957,1.19272 4.17126,-0.65499 z M 288.82694,103.5639 c 0.23043,-1.96067 -0.0648,-2.65312 -1,-2.34576 -0.72982,0.23985 -1.47406,1.68794 -1.65388,3.21796 -0.23043,1.96067 0.0648,2.65312 1,2.34576 0.72982,-0.23985 1.47406,-1.68794 1.65388,-3.21796 z m 180.21119,-2.3395 c 1.09443,-1.39135 1.77977,-2.73983 1.52298,-2.996624 -0.85229,-0.852293 -7.04915,3.352354 -7.36607,4.997974 -0.46593,2.41938 3.41001,1.09181 5.84309,-2.00135 z M 98,87 c 0,-0.55 -0.476558,-1 -1.059017,-1 -0.582459,0 -0.780902,0.45 -0.440983,1 0.339919,0.55 0.816476,1 1.059017,1 C 97.801558,88 98,87.55 98,87 Z M 29,74.588894 C 29,72.870681 23.399089,68 21.423275,68 18.63535,68 20.890076,72.33285 24.775141,74.441198 28.230036,76.316101 29,76.343018 29,74.588894 Z M 245.5,55.166667 c 0,-4.554375 -1.94008,-4.396193 -2.31666,0.188886 -0.23337,2.841489 0.0296,3.740119 1,3.416666 C 244.9075,58.530832 245.5,56.908333 245.5,55.166667 Z M 431,40.651372 c 0,-0.55 -1.125,0.05688 -2.5,1.348628 -1.375,1.291745 -2.5,2.798628 -2.5,3.348628 0,0.55 1.125,-0.05688 2.5,-1.348628 1.375,-1.291745 2.5,-2.798628 2.5,-3.348628 z M 264.56383,38.601713 c 0.79948,-3.185408 0.20664,-6.856113 -1.18102,-7.312448 -1.35378,-0.445196 -2.49117,4.580369 -1.71144,7.562049 0.74509,2.849224 2.14502,2.728418 2.89246,-0.249601 z M 47.084621,18.25 c -1.944027,-3.451242 -5.918072,-7.737397 -6.572723,-7.088928 -0.367057,0.363589 0.99497,2.501089 3.026726,4.75 3.956247,4.379093 5.132044,5.154645 3.545997,2.338928 z"
       id="path3464"
       inkscape:connector-curvature="0" />
    <path
       style="fill:#000000"
       d="M 0.53205384,463.25 C 0.84512877,443.0375 1.5196075,417.725 2.0308954,407 2.5421834,396.275 3.2034381,374.675 3.5003503,359 4.214399,321.30296 5.4621991,302.3027 8.606854,281.24324 c 0.402653,-2.69653 1.3169305,-3.67767 5.314937,-5.70361 5.490841,-2.78242 6.710736,-4.76425 4.372108,-7.10287 -1.284349,-1.28435 -3.226537,-1.54915 -9.3491248,-1.27464 l -7.728004,0.34649 -0.66903811,-29.0043 C 0.17976113,222.55194 0.01848784,162.475 0.18934699,105 L 0.5,0.5 41.5,0.18596303 c 22.55,-0.17272034 54.131528,-0.009457 70.18117,0.3628065 l 29.18118,0.67684347 4.08007,8.2740861 c 4.40407,8.9311159 6.18746,11.0481739 8.54485,10.1435609 C 154.60485,19.214403 155,17.496469 155,13.066569 c 0,-4.9541137 0.34437,-6.180504 1.98153,-7.0566833 1.11652,-0.5975437 14.10346,-1.4847842 29.75,-2.0324581 C 202.00419,3.4428407 227.55,2.5439389 243.5,1.9798681 292.0508,0.26287225 400,-0.52612141 400,0.83601989 400,1.476209 399.63967,2 399.19927,2 398.07449,2 394,10.641294 394,13.026751 394,14.112038 394.62838,15 395.39641,15 c 1.61567,0 7.25223,-6.1347378 8.84163,-9.6230886 C 404.83368,4.0696101 405.72536,3 406.21953,3 406.71371,3 406.88456,2.6222298 406.5992,2.1605106 406.08431,1.3273922 453.03396,0.00512601 483.25,0.0017564 L 499,0 l 0,128.33333 c 0,70.58334 -0.25107,128.58441 -0.55793,128.89127 -0.30687,0.30687 -1.85084,0.0699 -3.43105,-0.52654 -6.44037,-2.43097 -14.20119,2.49606 -9.42863,5.98584 2.1503,1.57234 11.41761,1.78101 11.41761,0.25708 0,-0.58246 0.45,-0.7809 1,-0.44098 0.65757,0.4064 1,41.21337 1,119.16798 l 0,118.54994 -124.25,-0.49371 c -110.34976,-0.43848 -124.95924,-0.67546 -130.58966,-2.11827 -3.48681,-0.89351 -14.06181,-2.06387 -23.5,-2.6008 -19.78611,-1.12562 -23.59843,-1.47582 -44.66034,-4.10259 -16.05262,-2.00203 -18,-2.77287 -18,-7.12506 0,-3.26588 -3.11129,-3.37339 -5.6673,-0.19584 -2.59004,3.21986 -6.63996,13.11218 -5.87491,14.35005 1.01367,1.64016 -15.00533,2.0543 -79.726377,2.06119 L -0.03717329,500 0.53205384,463.25 Z M 33.851529,474.57678 c 6.247476,-3.2307 15.438809,-15.68644 13.215757,-17.90949 -3.35806,-3.35806 -19.539421,13.054 -17.671025,17.92297 0.672895,1.75353 1.040385,1.75242 4.455268,-0.0135 z M 436,469.69578 C 436,466.17749 425.83014,454 422.89189,454 c -1.96125,0 -2.14526,3.37406 -0.36434,6.68101 C 426.17018,467.44498 436,474.02236 436,469.69578 Z m 36.3898,-0.51748 c 1.36077,-2.20177 -7.16349,-12.9113 -12.51302,-15.72084 -7.66598,-4.02613 -3.11523,7.25253 5.47531,13.57008 4.103,3.01738 6.12097,3.63408 7.03771,2.15076 z m -222.42498,-6.11256 c 1.13431,-2.11948 1.39002,-8.97747 0.42819,-11.48395 C 248.84279,447.54198 245,451.759 245,457.5 c 0,3.15308 1.70403,7.5 2.94007,7.5 0.54426,0 1.4554,-0.87042 2.02475,-1.93426 z M 142.75,456.57565 C 146.49647,451.04046 147.12683,446 144.07258,446 c -3.71164,0 -9.26443,10.45172 -7.70785,14.50809 0.96097,2.50424 2.79179,1.37672 6.38527,-3.93244 z m -30.7866,-1.18674 C 116.79535,449.88562 118.32979,444 114.93259,444 c -2.91554,0 -10.56706,10.90421 -9.53633,13.59026 0.90906,2.36896 3.24054,1.58743 6.56714,-2.20135 z m 142.00142,-11.32317 c 1.69474,-3.16665 1.30022,-13.60089 -0.57303,-15.15555 -1.3664,-1.13401 -1.81748,-1.0485 -3,0.56869 C 247.77634,433.05571 249.03638,446 252,446 c 0.5113,0 1.39547,-0.87042 1.96482,-1.93426 z M 446,423.45716 c 0,-1.98008 -8.58477,-11.1906 -11.20564,-12.02243 -5.55828,-1.76413 -3.66198,5.05593 2.91262,10.47527 4.03136,3.32299 8.29302,4.11805 8.29302,1.54716 z M 181,407.44823 c 0,-2.51504 -1.91441,-2.5085 -3.56602,0.0122 -0.95571,1.45861 -1.36504,3.26615 -0.96964,4.28187 0.61921,1.59065 0.86728,1.53333 2.60995,-0.60306 C 180.13343,409.84078 181,408.17984 181,407.44823 Z M 151.75156,407.75 c 2.55347,-2.73562 3.83438,-7.26984 2.3184,-8.20676 -1.46714,-0.90675 -7.06996,4.80957 -7.06996,7.21317 0,3.78458 1.79587,4.16012 4.75156,0.99359 z m 42.11299,-1.35206 C 195.48859,402.83356 195.33369,397 193.61501,397 c -3.08376,0 -6.72381,8.95905 -4.65356,11.45355 1.54769,1.86485 3.48733,1.05167 4.9031,-2.05561 z m -10.53816,-9.37399 c 3.34072,-3.97021 4.37187,-8.75426 2.32753,-10.7986 -1.30902,-1.30902 -1.80792,-1.34243 -3.16967,-0.21228 C 177.9932,389.74031 176.228,400 180.07777,400 c 0.40944,0 1.87132,-1.33922 3.24862,-2.97605 z M 399,393.88044 C 399,391.79013 391.64717,385 389.38364,385 c -4.39354,0 -1.77635,6.5743 4.02059,10.09963 2.909,1.76907 5.59577,1.18368 5.59577,-1.21919 z m -199.52568,-1.83078 c 3.31451,-6.40956 0.95502,-11.41269 -3.13811,-6.65414 -3.05581,3.55259 -3.28384,9.60448 -0.36189,9.60448 1.17489,0 2.59209,-1.19463 3.5,-2.95034 z M 274,392.55902 c 0,-1.59263 -1.81436,-3.07799 -2.69007,-2.20228 C 270.48729,391.17938 271.77145,394 272.96862,394 273.53588,394 274,393.35156 274,392.55902 Z m -124.6587,-3.81174 c 1.40879,-1.88871 1.72995,-3.07603 1.0232,-3.78278 -1.51626,-1.51626 -4.2383,-0.10922 -5.8616,3.0299 -2.51584,4.86509 1.32527,5.46279 4.8384,0.75288 z M 222.8,390.8 c 1.761,-1.761 1.49348,-6.75015 -0.40092,-7.4771 -1.93824,-0.74377 -3.36302,1.26069 -3.38377,4.76043 -0.0228,3.84897 1.53452,4.96684 3.78469,2.71667 z M 55.724181,385.32561 c 7.027831,-4.55693 8.307259,-10.37554 1.929455,-8.77481 -4.013814,1.0074 -11.143615,7.72995 -10.361065,9.76925 0.922929,2.40511 3.692493,2.07846 8.43161,-0.99444 z M 243,385.55902 c 0,-1.34254 -0.4176,-2.69908 -0.928,-3.01452 -1.12795,-0.69711 -2.45125,3.03285 -1.57753,4.44655 1.13315,1.83348 2.50553,1.0491 2.50553,-1.43203 z M 72.315741,384.87781 C 79.058127,381.41384 82.723902,374 77.69428,374 c -2.559872,0 -8.121817,3.73768 -10.398224,6.98771 -2.809204,4.0107 0.218257,6.35689 5.019685,3.8901 z M 454.16335,382.5 c -0.48805,-2.89942 -3.86465,-6.17699 -8.84985,-8.59028 -7.03747,-3.40678 -9.6207,-0.80512 -4.84085,4.8754 4.80087,5.70552 14.46728,8.32843 13.6907,3.71488 z M 209.8,382.8 c 1.43636,-1.43636 1.6123,-6.8 0.22305,-6.8 -1.56539,0 -4.29793,4.84129 -3.66439,6.49228 0.69798,1.81889 1.82903,1.92003 3.44134,0.30772 z m 96.84527,-7.31796 c 0.89825,-2.34082 -1.66447,-7.62499 -3.52427,-7.26683 -2.25089,0.43349 -2.57442,3.44383 -0.68074,6.33396 1.83344,2.79818 3.35932,3.13669 4.20501,0.93287 z m -179.93695,-11.9272 c 3.17486,-3.17486 4.35149,-5.10381 4.1174,-6.75 -0.44676,-3.14171 -4.83889,-2.79491 -9.48512,0.74894 -6.10499,4.6565 -7.06959,10.44622 -1.74041,10.44622 1.81791,0 4.07358,-1.41062 7.10813,-4.44516 z m 164.55611,0.84739 C 292.23758,363.42909 290.90144,361 289.39301,361 288.62686,361 288,361.6 288,362.33333 c 0,2.21483 1.90878,3.42456 3.26443,2.0689 z M 364,361.13486 C 364,358.46584 360.19906,354 357.92742,354 c -2.66053,0 -2.5225,3.73766 0.24689,6.68555 2.64908,2.81982 5.82569,3.06481 5.82569,0.44931 z m -21,-4.54597 c 0,-4.20844 -9.58876,-10.19715 -12.9756,-8.10397 -2.88407,1.78245 -0.44774,5.72015 5.4756,8.84988 4.62286,2.4426 7.5,2.15646 7.5,-0.74591 z m 51,0.96687 c 0,-2.08322 -4.15521,-6.40105 -6.5,-6.75438 -2.9305,-0.4416 -3.16849,3.49792 -0.36887,6.10616 2.58612,2.40934 6.86887,2.81351 6.86887,0.64822 z m -86.18721,-2.26439 C 308.25543,352.1948 306.28546,349 303.93343,349 c -2.8045,0 -3.35724,2.27975 -1.44795,5.97193 1.85946,3.59579 4.83348,3.77412 5.32731,0.31944 z M 53.404117,351.73355 c 4.530247,-2.59176 6.170436,-4.7939 5.286415,-7.09763 -0.849125,-2.21278 -3.335495,-2.01691 -8.603967,0.67779 -4.972545,2.54335 -6.698376,4.64955 -5.777097,7.05037 0.869799,2.26666 4.466379,2.01731 9.094649,-0.63053 z M 315.64134,351.49228 C 316.35395,349.63524 313.45712,345 311.58394,345 c -2.1794,0 -2.76889,3.06879 -1.08357,5.6409 1.75363,2.67639 4.28009,3.09478 5.14097,0.85138 z m -155.34945,-7.37324 c 8.2363,-8.80528 5.36757,-12.62218 -3.35472,-4.4635 -4.86471,4.55036 -6.78533,8.16309 -5.47062,10.29033 0.96755,1.56553 3.43366,-0.0627 8.82534,-5.82683 z M 245.5,338.9863 c 0,-2.81963 -0.38245,-3.4863 -2,-3.4863 -1.33151,0 -2.10999,0.77636 -2.32908,2.32273 -0.47639,3.36248 0.56315,5.37513 2.57606,4.98748 1.27092,-0.24476 1.75302,-1.29638 1.75302,-3.82391 z m -165.969515,-0.001 c 4.811881,-2.32939 7.178327,-6.15209 4.952179,-7.99963 C 81.677378,328.65743 71,334.13785 71,337.90591 c 0,3.70151 2.468574,4.01385 8.530485,1.07933 z M 138.83258,336.25 c 1.95619,-1.66655 2.54913,-3.22289 2.2859,-6 -0.20723,-2.1863 -3.17151,-1.35081 -6.2972,1.77488 -2.47709,2.47709 -2.80318,3.29201 -1.80063,4.5 1.61215,1.94252 3.30302,1.86255 5.81193,-0.27488 z m 198.98873,-0.56065 c 0.54958,-2.85375 -2.61425,-6.85935 -5.13451,-6.50062 -2.98996,0.42559 -3.36391,4.13416 -0.68681,6.81126 2.44579,2.44579 5.32002,2.29241 5.82132,-0.31064 z m 55.85139,-5.2788 c 0.94062,-2.45121 -4.84569,-7.71359 -8.3308,-7.57649 -1.56305,0.0615 -5.2044,0.12394 -8.0919,0.13878 -4.5539,0.0234 -5.25,0.28912 -5.25,2.00402 0,2.74111 4.36746,5.399 7.76168,4.7235 1.50608,-0.29974 3.86332,0.0791 5.23832,0.8419 3.42364,1.89926 7.91954,1.83098 8.6727,-0.13171 z m -156.11282,-4.86159 c 2.87121,-4.38202 -0.81022,-8.89862 -4.35988,-5.34896 -2.23741,2.23741 -0.82754,7.8 1.97695,7.8 0.42732,0 1.49964,-1.10297 2.38293,-2.45104 z m -80.13131,-0.12039 C 159.92136,322.93579 159.43821,320 156.53518,320 154.05111,320 152,322.45773 152,325.43426 c 0,2.02989 3.39655,2.02633 5.42857,-0.006 z M 87,323.13053 c 5.369959,-3.96598 1.816556,-8.56091 -4.355472,-5.63209 -4.060396,1.92679 -6.131102,4.79118 -5.206131,7.20162 0.749948,1.95433 5.944899,1.10159 9.561603,-1.56953 z m 328.94695,-4.56661 c 2.57419,-3.10171 -3.65897,-8.16653 -9.10201,-7.39591 -3.87815,0.54906 -3.1647,4.92247 1.15506,7.08044 4.25455,2.12538 6.375,2.20956 7.94695,0.31547 z M 367,316.66052 c 0,-2.40352 -4.21933,-5.26103 -6.07494,-4.11421 -2.50892,1.5506 0.64122,6.45369 4.14637,6.45369 1.35519,0 1.92857,-0.69555 1.92857,-2.33948 z m -89,-14.67598 c 0,-1.86766 -2.54905,-3.38128 -4.09024,-2.42877 -1.28457,0.79391 -1.12991,3.82408 0.26645,5.22044 1.48606,1.48606 3.82379,-0.22067 3.82379,-2.79167 z m 66.38576,-1.51316 c 2.3497,-2.34969 0.57663,-5.63183 -4.52618,-8.37843 -3.17287,-1.70781 -5.2545,-2.21065 -7.16577,-1.73095 -5.09959,1.27992 -2.41497,7.83425 4.3067,10.51455 3.6146,1.44133 5.65044,1.32964 7.38525,-0.40517 z M 92.49873,299.81862 c 1.778777,-0.81046 2.49997,-1.83084 2.297053,-3.25 -0.408831,-2.85925 -5.645236,-3.32086 -8.789456,-0.77483 -4.710988,3.81473 0.230355,6.87801 6.492403,4.02483 z m 342.32082,-5.03142 c -0.21781,-1.50827 -1.53163,-2.67273 -4.12647,-3.65736 -3.44688,-1.30794 -3.96706,-1.28171 -5.5,0.27731 -1.59252,1.6196 -1.55286,1.83684 0.6677,3.65736 1.3245,1.08589 3.87904,1.93549 5.81955,1.93549 2.99925,0 3.41632,-0.29398 3.13922,-2.2128 z M 304.89481,291.62675 C 306.44122,289.76343 305.22686,287 302.86163,287 c -2.42637,0 -3.47487,2.55617 -1.85106,4.51273 1.53236,1.84639 2.42476,1.87259 3.88424,0.11402 z M 59.137146,288.37588 c 2.462331,-2.22837 2.367824,-5.08083 -0.195288,-5.89433 -3.474618,-1.1028 -11.991398,0.56799 -14.21134,2.78793 l -2.051878,2.05188 2.407396,1.94939 c 1.936808,1.56833 3.363356,1.83617 7.297826,1.37019 2.689737,-0.31856 5.728715,-1.33783 6.753284,-2.26506 z M 197.81642,286.74145 C 198.07242,284.5235 197.73225,284 196.03504,284 c -2.32687,0 -3.5732,2.15519 -2.64505,4.57391 0.9697,2.52699 4.07147,1.24292 4.42643,-1.83246 z M 250.5,286.4863 c 0,-2.31277 -0.44799,-2.9863 -1.9863,-2.9863 -2.07927,0 -3.10726,2.51082 -2.1013,5.13232 1.04496,2.72313 4.0876,1.12572 4.0876,-2.14602 z m -19.83583,-29.05352 c 0.83346,-2.17196 -1.28244,-4.21451 -2.79695,-2.7 C 226.58718,256.01282 227.38017,259 229,259 c 0.58452,0 1.3334,-0.70525 1.66417,-1.56722 z M 171.64326,232.48727 C 172.33006,230.6975 170.34803,228 168.34617,228 c -1.99087,0 -2.80313,2.74447 -1.3356,4.51273 1.59192,1.91815 3.89171,1.90551 4.63269,-0.0255 z m 118.34617,0.0255 C 291.50638,230.68493 290.62021,228 288.5,228 c -1.8349,0 -2.95814,2.36374 -2.13837,4.5 0.73129,1.90573 2.0529,1.91037 3.6278,0.0127 z M 477.75,231.41109 c 6.99245,-4.52861 -4.63706,-8.55333 -14.75,-5.10465 -4.3733,1.49137 -5.37758,5.18179 -1.82036,6.68929 3.04364,1.28986 13.70643,0.27017 16.57036,-1.58464 z M 56.4349,231.02475 c 5.559633,-2.11377 2.138405,-7.00265 -6.205136,-8.86705 -2.34863,-0.52481 -5.442513,-1.78749 -6.875294,-2.80595 -6.251138,-4.44349 -7.840565,-5.18717 -13.441143,-6.28902 -8.155712,-1.60454 -19.653892,-1.72217 -21.1595928,-0.21646 -3.2681945,3.26819 3.8258178,7.35958 16.5722728,9.55786 7.153015,1.23363 9.47851,2.09506 12.26834,4.54456 1.893283,1.66233 4.671579,3.29328 6.173993,3.62433 1.502413,0.33106 3.18166,0.75203 3.73166,0.9355 2.078087,0.69322 6.46376,0.45576 8.9349,-0.48377 z m 95.98331,-8.63174 c 2.48663,-0.95421 1.91566,-5.12814 -0.95917,-7.01181 -2.06253,-1.35142 -3.01683,-1.44808 -5.06829,-0.51338 -3.22192,1.46801 -2.90094,5.07286 0.60925,6.84241 2.88484,1.45429 3.27843,1.50389 5.41821,0.68278 z M 381.92267,209.18827 C 387.42684,205.12458 387.30424,201 381.67927,201 c -3.85821,0 -9.99813,3.70163 -10.50492,6.33321 -0.91709,4.76204 5.34661,5.8431 10.74832,1.85506 z m 49.07439,-1.93982 c 6.74681,-3.37324 4.41811,-8.24974 -3.93819,-8.2469 -5.92325,0.002 -11.45118,2.73679 -11.89636,5.88536 -0.18562,1.3128 0.26438,2.76841 1,3.23469 2.32435,1.4733 11.18446,0.9518 14.83455,-0.87315 z M 58,205.32976 c 1.328496,-1.28917 1.187718,-1.72692 -1.231263,-3.8286 -6.826647,-5.93118 -19.419085,-3.01964 -12.809693,2.96178 3.852659,3.4866 10.893331,3.92126 14.040956,0.86682 z m 157,-4.3143 c 0,-3.16822 -2.25918,-5.51372 -4.48727,-4.65872 -1.95916,0.7518 -1.94922,5.06391 0.0162,7.02934 2.14778,2.14778 4.47106,0.91594 4.47106,-2.37062 z m -37.10519,-1.38871 c 0.62683,-0.75529 0.85399,-2.11779 0.50479,-3.02778 -0.77816,-2.02788 -4.0856,-3.91107 -5.42027,-3.0862 -1.62143,1.0021 -1.10253,5.31609 0.77067,6.40713 2.32932,1.3567 2.80338,1.32318 4.14481,-0.29315 z M 311.8,195.8 c 1.70105,-1.70105 1.48725,-4.75254 -0.38328,-5.47033 -2.08601,-0.80048 -5.88753,3.00104 -5.08705,5.08705 0.71779,1.87053 3.76928,2.08433 5.47033,0.38328 z m 65.33922,-2.72902 c 1.84086,-1.50418 2.0968,-2.19762 1.16213,-3.14865 -0.9418,-0.95828 -1.74539,-0.8614 -3.75,0.45207 -2.73543,1.79232 -3.44726,4.6256 -1.16213,4.6256 0.76406,0 2.45156,-0.86806 3.75,-1.92902 z m -213.17905,-2.52299 c 1.66562,-2.00695 0.50197,-4.98134 -3.15152,-8.05555 -3.82161,-3.21567 -7.21168,-2.98784 -7.55218,0.50756 -0.26972,2.76874 1.00195,4.73606 4.71604,7.29589 3.02407,2.08426 4.41838,2.14297 5.98766,0.2521 z m 131.37466,-1.71417 c 1.28295,-2.0374 -0.74763,-4.99638 -2.86988,-4.182 -1.67464,0.64262 -2.84974,3.91656 -1.93626,5.3946 0.90568,1.46542 3.538,0.80128 4.80614,-1.2126 z m 106.03031,-0.9064 c 4.73503,-3.72457 2.6144,-6.79958 -3.04746,-4.41895 -3.5583,1.49616 -4.72459,2.98876 -3.93768,5.03942 0.79486,2.07135 3.91544,1.79416 6.98514,-0.62047 z m -193.56688,-7.52514 c 0.16404,-1.14251 -0.41753,-2.67134 -1.29238,-3.3974 -2.22238,-1.84441 -3.94763,0.0989 -3.09694,3.48835 0.79254,3.15772 3.93221,3.09267 4.38932,-0.091 z m 149.65694,-2.02346 c 2.2317,-0.85639 4.59161,-5.68505 3.57911,-7.3233 -1.20306,-1.9466 -5.69501,-0.50299 -7.63161,2.45264 -2.65653,4.05438 -0.51809,6.62456 4.0525,4.87066 z m 59.74466,-6.44816 C 419.47928,169.2107 418.44499,167 414.89301,167 c -3.3088,0 -3.5562,-0.6097 -1.27173,-3.13401 1.78766,-1.97534 1.22805,-4.86599 -0.94201,-4.86599 -2.1646,0 -8.17927,4.41971 -8.17927,6.0103 0,0.78685 0.96368,1.91108 2.14151,2.49829 1.90014,0.94732 1.98467,1.28215 0.75,2.97067 -1.72929,2.36494 -1.79853,5.20643 -0.14151,5.8075 1.84555,0.66947 7.99417,-2.02243 9.94986,-4.3561 z m -277.39771,0.45212 c 0.19813,-1.3883 -0.79613,-3.04137 -2.8879,-4.80148 -6.04936,-5.0902 -10.68505,-1.08283 -5.27711,4.56185 3.36624,3.5136 7.67971,3.64019 8.16501,0.23963 z m 151.80558,-5.956 c 0.35588,-1.41794 0.15898,-3.06007 -0.43856,-3.65761 -1.55302,-1.55302 -4.16917,0.86491 -4.16917,3.85327 0,3.41797 3.74064,3.25913 4.60773,-0.19566 z m 82.43509,1.5503 c 2.85249,-1.5266 4.35172,-4.79677 2.96509,-6.46755 -2.49859,-3.01062 -10.05739,2.31318 -8.6163,6.06861 0.64122,1.67098 2.96753,1.8352 5.65121,0.39894 z m -70.078,-7.91134 c 1.30667,-2.44154 1.33497,-5.76242 0.0559,-6.55297 -2.62998,-1.62541 -7.24253,4.7012 -5.49225,7.53322 1.01564,1.64333 4.3545,1.04129 5.4364,-0.98025 z M 87.699838,159.41913 c 0.578007,-1.76446 -3.78581,-6.5571 -7.311841,-8.03037 -8.46966,-3.53885 -8.374263,3.67363 0.112003,8.46802 2.383404,1.34652 6.701353,1.08405 7.199838,-0.43765 z m 10.045698,-6.14072 c 1.044244,-3.17172 -8.585215,-8.83873 -10.968752,-6.45519 -1.615709,1.6157 5.502634,8.42091 8.367967,7.99986 1.209226,-0.17769 2.379579,-0.8728 2.600785,-1.54467 z M 277.8,152.8 c 1.41587,-1.41587 1.59641,-5.43697 0.28062,-6.25017 C 276.80848,145.7636 274,148.76088 274,150.90476 c 0,3.06288 1.75637,3.93887 3.8,1.89524 z m 78.45929,-3.55 c 3.19356,-3.33486 7.10717,-11.85263 6.35112,-13.82287 -0.94419,-2.46052 -3.21795,-1.57691 -7.264,2.82287 -6.35607,6.91175 -8.12899,13.75 -3.56489,13.75 1.01437,0 3.02936,-1.2375 4.47777,-2.75 z m -210.17696,-5.8492 c 1.11733,-1.3463 1.01809,-2.16957 -0.62756,-5.20602 -2.29132,-4.22781 -8.02143,-8.02812 -9.6497,-6.39985 -1.67713,1.67713 0.003,6.21332 3.65387,9.86401 3.76766,3.76766 4.73171,4.02119 6.62339,1.74186 z m 85.5119,-4.92021 C 232.35129,135.46423 230.30211,130 228.41386,130 c -1.95183,0 -3.63461,3.71668 -2.84687,6.28777 1.56725,5.11534 4.98193,6.35766 6.02724,2.19282 z M 73.82131,137.68935 c 0.52267,-2.71401 -2.04036,-5.90793 -8.077656,-10.06598 -5.897053,-4.06146 -12.364612,-6.70605 -14.446445,-5.90718 -3.553094,1.36345 0.03824,6.6534 8.453663,12.45203 8.300415,5.71939 13.401262,6.99588 14.070438,3.52113 z M 174,125.45455 c 0,-2.79945 -4.43091,-7.9243 -6.00838,-6.94937 -2.8137,1.73896 0.50687,9.49482 4.06508,9.49482 1.41544,0 1.9433,-0.69142 1.9433,-2.54545 z m 125.4433,0.32294 c 1.83103,-2.61417 2.05324,-7.35258 0.39291,-8.37872 C 298.25848,116.42368 294,121.52428 294,124.3891 c 0,4.19666 2.94939,4.94895 5.4433,1.38839 z m 88.143,-5.42599 c 2.97851,-1.9516 5.78235,-6.94842 5.01744,-8.94176 -0.95134,-2.47914 -4.40237,-1.51795 -8.0556,2.24366 -6.00266,6.18074 -3.75042,11.14615 3.03816,6.6981 z m -97.87616,-12.36036 c 3.23593,-6.39584 0.0936,-12.936857 -3.8659,-8.047115 -1.81277,2.238685 -2.55542,9.011455 -1.143,10.423875 1.29483,1.29484 3.73777,0.13565 5.0089,-2.37676 z m 178.03363,-2.92049 C 474.59927,100.10455 477.10932,95 472.69578,95 c -2.98084,0 -11.09391,5.15179 -13.21784,8.39333 -3.42184,5.22237 1.88535,6.29932 8.26583,1.67732 z M 361.4552,103.37882 C 363.25255,102.68911 366,97.956179 366,95.54966 c 0,-2.816176 -3.93604,-1.702775 -6.01096,1.70034 -3.18133,5.21777 -2.59095,7.68568 1.46616,6.12882 z M 102.81346,91.218172 C 103.15726,88.887296 95.724776,80 93.431657,80 c -3.741444,0 -2.218489,5.146502 3.095462,10.460452 3.918401,3.918404 5.786931,4.143625 6.286341,0.75772 z M 32.833022,77.068873 C 33.450078,72.854511 20.555044,62.80556 16.51796,64.354734 c -2.370752,0.909743 -1.841987,2.338424 2.681885,7.246246 4.161004,4.514157 10.372919,8.566438 12.300155,8.023883 0.55,-0.154835 1.14986,-1.305031 1.333022,-2.55599 z M 183.77203,73.422988 C 184.08833,70.02442 180.72715,64 178.5147,64 c -2.2332,0 -1.92611,5.81293 0.51895,9.823362 2.37322,3.892583 4.35443,3.725179 4.73838,-0.400374 z m 63.69464,-18.408702 c 0,-6.943971 -1.52235,-9.387174 -4.1881,-6.721429 -2.13678,2.13678 -2.35903,11.700342 -0.32876,14.14667 2.44744,2.948977 4.51686,-0.452936 4.51686,-7.425241 z m 179.8021,-6.011058 C 430.54132,46.429039 436,38.192362 436,35.828555 c 0,-3.948516 -4.63904,-1.491462 -10.0079,5.300654 -5.9214,7.491134 -5.05216,12.852277 1.27667,7.874019 z M 265.05564,43.432963 c 1.94698,-2.345977 1.84389,-13.96149 -0.14154,-15.947209 -1.44797,-1.448172 -1.70536,-1.442199 -2.95927,0.06867 -1.86615,2.248566 -2.56573,14.004551 -0.9493,15.952229 1.574,1.896558 2.42784,1.881022 4.05011,-0.07369 z M 52.299483,24.661943 c 0.282403,-0.735931 -0.223396,-2.873431 -1.123999,-4.75 C 49.29372,15.990948 38.993686,5 37.200937,5 c -3.958514,0 1.532438,10.816076 8.844677,17.422245 4.294529,3.879848 5.463795,4.298598 6.253869,2.239698 z"
       id="path3462"
       inkscape:connector-curvature="0" />
  </g>
</svg>
