<?xml version="1.0" encoding="UTF-8" standalone="no"?>
<!-- Created with Inkscape (http://www.inkscape.org/) -->

<svg
   xmlns:dc="http://purl.org/dc/elements/1.1/"
   xmlns:cc="http://creativecommons.org/ns#"
   xmlns:rdf="http://www.w3.org/1999/02/22-rdf-syntax-ns#"
   xmlns:svg="http://www.w3.org/2000/svg"
   xmlns="http://www.w3.org/2000/svg"
   xmlns:sodipodi="http://sodipodi.sourceforge.net/DTD/sodipodi-0.dtd"
   xmlns:inkscape="http://www.inkscape.org/namespaces/inkscape"
   width="210mm"
   height="297mm"
   viewBox="0 0 744.09448819 1052.3622047"
   id="svg3491"
   version="1.1"
   inkscape:version="0.91 r13725"
   sodipodi:docname="testBG.svg">
  <defs
     id="defs3493" />
  <sodipodi:namedview
     id="base"
     pagecolor="#ffffff"
     bordercolor="#666666"
     borderopacity="1.0"
     inkscape:pageopacity="0.0"
     inkscape:pageshadow="2"
     inkscape:zoom="0.35"
     inkscape:cx="375"
     inkscape:cy="520"
     inkscape:document-units="px"
     inkscape:current-layer="layer1"
     showgrid="false"
     inkscape:window-width="1366"
     inkscape:window-height="705"
     inkscape:window-x="1432"
     inkscape:window-y="-8"
     inkscape:window-maximized="1" />
  <metadata
     id="metadata3496">
    <rdf:RDF>
      <cc:Work
         rdf:about="">
        <dc:format>image/svg+xml</dc:format>
        <dc:type
           rdf:resource="http://purl.org/dc/dcmitype/StillImage" />
        <dc:title></dc:title>
      </cc:Work>
    </rdf:RDF>
  </metadata>
  <g
     inkscape:label="Layer 1"
     inkscape:groupmode="layer"
     id="layer1">
    <g
       id="g3512"
       transform="matrix(2.4601733,0,0,4.5714292,-1530.7021,-3589.0492)">
      <path
         style="fill:#c9e8f3"
         d="m 617.82855,900.93364 0,-115.2 153.6,0 153.60001,0 0,115.2 0,115.19996 -153.60001,0 -153.6,0 0,-115.19996 z"
         id="path3528"
         inkscape:connector-curvature="0" />
      <path
         style="fill:#8cdbf8"
         d="m 617.82855,900.93364 0,-115.2 153.6,0 153.60001,0 0,115.2 0,115.19996 -153.60001,0 -153.6,0 0,-115.19996 z M 834.42856,883.555 c 0,-1.48346 -2.86053,-3.31503 -5.18464,-3.31969 -2.02906,-0.004 -3.81536,1.43096 -3.81536,3.06508 l 0,0.83325 4.5,0 c 4.24463,0 4.5,-0.0328 4.5,-0.57864 z M 724.51518,847.75864 c 0.98024,-2.91399 -0.88473,-7.86246 -4.07705,-10.81799 -4.11738,-3.81197 -9.20326,-4.92357 -13.57854,-2.9678 -1.70699,0.76303 -5.76853,3.81132 -7.84533,5.88813 -1.88174,1.88174 -2.88571,3.60762 -2.88571,4.96071 0,1.05836 -0.32856,1.12443 -2.42585,0.48784 -4.3755,-1.32809 -10.2895,-0.4367 -12.37065,1.86457 -0.54198,0.5993 -0.5283,0.60594 1.65,0.80031 1.20807,0.10779 10.87029,0.15397 21.47158,0.10261 10.60129,-0.0514 19.27504,0.008 19.275,0.13162 -1.8e-4,0.50678 0.57549,0.17743 0.78655,-0.45 z m 138.93388,-35.02071 c -0.29701,-3.27555 -2.32939,-6.27741 -5.2014,-7.68255 -2.19928,-1.07601 -5.37382,-1.3175 -7.59983,-0.57814 -0.85698,0.28464 -1.59255,0.47003 -1.63461,0.41196 -0.0421,-0.0581 -0.24981,-0.71306 -0.46168,-1.45556 -0.49239,-1.72559 -2.55598,-3.7852 -4.07875,-4.07088 -3.15139,-0.5912 -5.65392,0.57451 -7.00106,3.2612 l -0.70683,1.40968 -2.29317,0.003 c -1.77242,0.002 -2.63659,0.16284 -3.80543,0.70713 -1.66846,0.77693 -3.04266,2.20255 -3.31407,3.43806 -0.47957,2.18306 -0.57268,2.30697 -1.6614,2.2109 -1.45234,-0.12814 -3.70035,0.42932 -4.89851,1.21473 -1.12021,0.73431 -2.10309,2.15811 -1.81338,2.62686 0.1204,0.19481 7.94709,0.29938 22.40899,0.29938 l 22.22396,0 -0.16283,-1.79571 z"
         id="path3526"
         inkscape:connector-curvature="0" />
      <path
         style="fill:#898988"
         d="m 617.82855,981.97889 0,-34.15473 2.925,-1.36523 c 5.99101,-2.79626 14.98188,-5.94977 21.20837,-7.43875 1.31086,-0.31348 2.63454,-0.82112 2.94151,-1.12809 0.30698,-0.30698 3.08846,-4.46196 6.18109,-9.2333 l 5.62295,-8.67516 2.92649,0.0985 c 2.1127,0.0711 3.06122,-0.0123 3.41099,-0.3 0.26647,-0.21917 2.86859,-3.3685 5.7825,-6.9985 6.61095,-8.23559 11.92274,-14.26535 12.3926,-14.06768 0.19717,0.083 2.96756,3.37208 6.1564,7.30916 l 5.7979,7.15833 2.83373,1.4501 2.83374,1.45009 4.09485,6.525 c 2.25216,3.58875 4.24043,6.5234 4.41836,6.52144 0.17794,-0.002 1.06602,-0.20285 1.97352,-0.44644 0.9075,-0.24358 1.86544,-0.44448 2.12875,-0.44644 0.26331,-0.002 1.59943,1.48826 2.96916,3.31159 1.47275,1.96047 2.64621,3.25537 2.87167,3.16885 0.20969,-0.0805 10.32296,-5.63235 22.47393,-12.33753 12.15098,-6.70518 22.83158,-12.44545 23.73466,-12.75616 0.90309,-0.3107 5.51869,-1.32095 10.25691,-2.24499 8.78384,-1.71301 10.07632,-2.04157 21.36493,-5.43108 3.5475,-1.06517 6.736,-1.89787 7.08556,-1.85045 1.03003,0.13973 5.97482,6.31653 9.39696,11.73825 l 3.13253,4.96289 4.73308,2.46009 c 7.10303,3.69192 6.25222,2.82535 8.03975,8.18863 l 1.55403,4.66269 4.68413,4.5402 c 2.57628,2.49712 4.9631,4.64318 5.30405,4.76903 0.34095,0.12585 2.45112,0.47211 4.68927,0.76945 l 4.06936,0.54063 2.30527,-1.83191 c 5.1871,-4.122 10.14094,-6.07485 17.31462,-6.82558 5.62982,-0.58917 21.31125,-1.04195 22.79139,-0.65808 2.01689,0.52308 3.58926,1.71121 5.26705,3.97992 2.15501,2.914 3.44406,3.66844 6.92613,4.05362 8.25016,0.91264 16.02431,3.53938 20.73191,7.00492 l 1.87491,1.38022 0,33.15062 0,33.15059 -153.60001,0 -153.6,0 0,-34.15471 z"
         id="path3524"
         inkscape:connector-curvature="0" />
      <path
         style="fill:#84817c"
         d="m 617.90227,982.06623 0.0763,-34.06739 4.93848,-2.10583 c 5.94662,-2.5357 11.22281,-4.37141 17.26152,-6.00568 2.475,-0.66982 4.80548,-1.41016 5.17884,-1.6452 0.37335,-0.23505 2.9086,-0.8051 5.63387,-1.2668 2.72527,-0.46169 5.07859,-0.9637 5.2296,-1.11557 0.15101,-0.15187 1.75684,-3.38113 3.56851,-7.17613 l 3.29394,-6.9 2.94762,-0.22344 c 1.62119,-0.1229 3.96012,-0.39497 5.19762,-0.6046 l 2.25,-0.38114 0.55628,-1.79541 c 0.30596,-0.98747 1.03898,-3.28041 1.62895,-5.09541 0.88741,-2.73009 1.07737,-3.76628 1.09995,-6 l 0.0273,-2.7 1.4744,-2.1 c 2.73555,-3.89627 2.62293,-3.77384 3.10411,-3.37449 0.24056,0.19965 2.979,3.47374 6.08541,7.27576 l 5.64803,6.91277 2.639,1.29353 2.63901,1.29353 4.04031,6.44293 c 2.22218,3.54361 4.2011,6.57637 4.3976,6.73945 0.23893,0.19829 0.95175,0.14248 2.15178,-0.16848 0.98697,-0.25575 2.00097,-0.465 2.25334,-0.465 0.25236,0 1.55311,1.4175 2.89055,3.15 1.43797,1.86272 2.64264,3.14731 2.94785,3.14342 0.80705,-0.0103 2.37469,-0.79899 10.41614,-5.24042 4.125,-2.2783 11.55,-6.36778 16.5,-9.08773 4.95,-2.71995 9.675,-5.31858 10.5,-5.77473 9.37287,-5.18235 8.61741,-4.89881 17.9206,-6.7259 3.83867,-0.75389 8.21871,-1.65795 9.73341,-2.00902 l 2.75401,-0.63831 1.17073,1.01635 c 0.6439,0.55899 2.27421,1.99509 3.6229,3.19134 1.34869,1.19625 2.62286,2.175 2.83149,2.175 0.20864,0 2.25121,-2.50261 4.53906,-5.56136 2.28785,-3.05876 4.39685,-5.68827 4.68667,-5.84338 0.41955,-0.22454 0.76342,-0.0236 1.68742,0.98637 2.67981,2.92896 4.78492,5.75722 7.82747,10.5164 l 3.22625,5.04652 5.53078,2.90273 5.53079,2.90272 1.51921,4.57134 1.51922,4.57134 3.9,3.92448 c 5.81485,5.85135 5.479,5.63864 9.98056,6.32124 4.8768,0.73951 5.46842,0.75572 6.61978,0.18134 0.52231,-0.26056 0.94966,-0.3491 0.94966,-0.19674 0,0.35058 2.00928,0.36648 2.2249,0.0176 0.1386,-0.22427 0.59008,-0.24398 1.80744,-0.0789 0.15528,0.0211 0.0279,0.22433 -0.28305,0.45171 -0.53129,0.38849 -0.50868,0.42587 0.37507,0.61997 1.14784,0.25211 2.17564,-0.24106 2.17564,-1.04394 0,-0.57095 0.29701,-0.72402 1.16805,-0.60196 0.22993,0.0322 0.53368,-0.12053 0.675,-0.33945 0.21217,-0.32867 0.30338,-0.32599 0.52341,0.0154 0.37436,0.58086 0.93354,0.14292 0.93354,-0.73114 0,-0.40277 0.14409,-0.7323 0.32021,-0.7323 0.1837,0 0.23903,-0.25581 0.12979,-0.6 -0.16211,-0.51074 -0.0539,-0.6 0.72724,-0.6 0.59277,0 1.05034,0.21243 1.29238,0.6 0.47882,0.76672 0.83038,0.76672 0.83038,0 0,-0.33333 0.2,-0.6 0.45,-0.6 0.2475,0 0.45,0.135 0.45,0.3 0,0.41513 1.11621,0.37827 1.37813,-0.0455 0.11744,-0.19003 -0.019,-0.51555 -0.30323,-0.72338 -0.48681,-0.35596 -0.48512,-0.39582 0.0292,-0.6875 0.52345,-0.29689 0.52394,-0.33188 0.012,-0.84985 -0.51388,-0.51991 -0.54055,-0.51491 -0.70999,0.13302 -0.14488,0.55401 -0.38548,0.67322 -1.35877,0.67322 -0.87099,0 -1.12104,-0.0988 -0.94869,-0.375 0.52481,-0.84095 0.40555,-1.36868 -0.28004,-1.23917 -0.36772,0.0695 -0.12858,-0.0851 0.53142,-0.34356 1.50358,-0.58873 8.27062,-1.32011 13.11977,-1.41799 3.36693,-0.0679 3.77264,-0.0168 4.76564,0.60072 1.3518,0.84066 1.50767,0.83872 3.38565,-0.0422 0.99751,-0.4679 2.3916,-0.79179 4.01084,-0.93183 2.31745,-0.20043 2.59188,-0.16084 4.14206,0.59759 1.62757,0.7963 3.48053,2.72632 4.48811,4.67476 0.54564,1.05515 3.72501,2.67666 5.24826,2.67666 2.10223,0 8.54082,1.25367 11.83968,2.30531 3.62374,1.15523 7.83063,3.2215 10.275,5.04671 l 1.575,1.17605 0,32.93596 -10e-6,32.93596 -153.60128,0 -153.60128,0 0.0763,-34.06738 z m 249.55083,-43.6326 c 0.1515,0 0.27546,-0.135 0.27546,-0.3 0,-0.43438 -0.40079,-0.36888 -1.06766,0.1745 -0.53289,0.43419 -0.53567,0.45966 -0.0328,0.3 0.30224,-0.096 0.67349,-0.1745 0.825,-0.1745 z m -3.62454,-2.1 c 0,-0.165 -0.14297,-0.3 -0.31771,-0.3 -0.17474,0 -0.23427,0.135 -0.13229,0.3 0.10197,0.165 0.24494,0.3 0.3177,0.3 0.0728,0 0.1323,-0.135 0.1323,-0.3 z m -140.40001,-2.09058 c 0,-0.15982 -0.2025,-0.21288 -0.45,-0.11791 -0.2475,0.095 -0.45,0.22574 -0.45,0.29059 0,0.0648 0.2025,0.1179 0.45,0.1179 0.2475,0 0.45,-0.13076 0.45,-0.29058 z m 2.85,-0.009 c 0.10198,-0.165 0.4812,-0.29051 0.84271,-0.27891 0.63371,0.0203 0.63577,0.0303 0.0573,0.27891 -0.47947,0.20604 -0.37102,0.26207 0.5399,0.27892 1.1874,0.022 2.9101,-0.68048 2.9101,-1.18662 0,-0.16076 -0.135,-0.2923 -0.3,-0.2923 -0.48421,0 -0.34378,-0.819 0.17454,-1.0179 0.26099,-0.10015 0.88942,-0.1821 1.3965,-0.1821 0.90389,0 0.91128,0.0118 0.3773,0.60184 -0.79959,0.88354 -0.28492,1.11198 0.76178,0.33812 0.49651,-0.36708 1.04131,-0.58178 1.21068,-0.4771 0.16936,0.10467 0.53394,0.10359 0.81016,-0.002 0.4345,-0.16674 0.44268,-0.23428 0.0606,-0.50085 -0.33342,-0.23266 -0.24822,-0.26623 0.34785,-0.13707 1.13868,0.24672 2.66056,-0.35497 2.66056,-1.05189 0,-0.31385 -0.12055,-0.57065 -0.2679,-0.57065 -0.14735,0 -0.34104,-0.19058 -0.43043,-0.42352 -0.13042,-0.33988 0.25273,-0.42354 1.93984,-0.42354 1.68712,0 2.07027,0.0837 1.93985,0.42354 -0.18252,0.47562 -0.12875,0.49962 0.54239,0.24209 0.26004,-0.0998 0.39812,-0.30229 0.30683,-0.45 -0.0913,-0.14771 0.38198,-0.26857 1.05172,-0.26857 1.14276,0 1.2177,-0.0534 1.2177,-0.86717 0,-0.92746 -0.0165,-0.92058 3.44329,-1.43236 1.12481,-0.16638 1.16785,-0.1452 0.75,0.3691 -0.39211,0.48263 -0.39134,0.51521 0.007,0.28226 0.2475,-0.14484 0.82818,-0.53876 1.2904,-0.87538 0.7217,-0.5256 0.87994,-0.54951 1.1204,-0.16924 0.15401,0.24353 0.28001,0.30779 0.28001,0.14279 0,-0.165 -0.12731,-0.50137 -0.28291,-0.74749 -0.22531,-0.35639 -0.35875,-0.37166 -0.6554,-0.075 -0.55198,0.55198 -1.1525,0.45166 -1.1525,-0.19253 0,-0.65998 1.51414,-1.09128 1.86965,-0.53257 0.14338,0.22535 0.22278,0.16296 0.22576,-0.17741 0.006,-0.73213 1.10427,-0.673 1.50791,0.0812 0.17844,0.33341 0.2505,0.72582 0.16014,0.87203 -0.0904,0.1462 0.1059,0.19516 0.43613,0.10881 0.39942,-0.10445 0.60041,-0.40914 0.60041,-0.91019 0,-0.72115 0.0626,-0.74717 1.47229,-0.61172 1.44235,0.13859 1.46596,0.12756 1.16056,-0.5427 -0.17145,-0.37629 -0.23071,-0.89527 -0.1317,-1.15329 0.19334,-0.50385 1.69885,-0.66207 1.69885,-0.17855 0,0.15982 0.20422,0.21222 0.45382,0.11644 0.24961,-0.0958 0.66144,-0.002 0.91519,0.20875 0.38798,0.32199 0.48837,0.27962 0.63117,-0.26644 0.19228,-0.73532 1.29981,-0.90516 1.29981,-0.19934 0,0.2475 0.135,0.45 0.3,0.45 0.165,0 0.3,-0.18 0.3,-0.39999 0,-0.27408 0.42501,-0.40001 1.35,-0.40001 0.7425,0 1.43674,-0.0867 1.54275,-0.19275 0.26746,-0.26745 -0.47544,-1.10725 -0.97948,-1.10725 -0.2273,0 -0.41327,-0.24411 -0.41327,-0.54248 0,-0.49038 0.33853,-0.54612 3.525,-0.58032 4.33443,-0.0465 4.04668,-0.0185 3.8278,-0.37268 -0.11237,-0.18181 0.1982,-0.23668 0.80729,-0.14262 0.90599,0.1399 0.93269,0.12291 0.31492,-0.20036 -0.94171,-0.49279 -0.84143,-1.07731 0.225,-1.31154 0.69768,-0.15323 0.9,-0.36091 0.9,-0.92383 0,-0.73848 -0.32472,-0.88181 -1.725,-0.76147 -0.43254,0.0372 -0.67501,-0.10771 -0.67501,-0.40334 0,-0.25375 -0.2025,-0.46136 -0.45,-0.46136 -0.2475,0 -0.45,0.135 -0.45,0.3 0,0.165 -0.3375,0.3 -0.75,0.3 -0.65263,0 -0.75,-0.13214 -0.75,-1.0179 0,-1.12405 -0.50457,-1.49277 -1.64951,-1.20541 -0.56502,0.14181 -0.72119,0.044 -0.80116,-0.50177 -0.13154,-0.89778 -0.84525,-1.10532 -1.05414,-0.30652 -0.0908,0.34738 -0.31817,0.63309 -0.50517,0.63491 -0.18701,0.002 -0.85249,0.088 -1.47885,0.19149 -0.62636,0.10351 -1.11662,0.0683 -1.08947,-0.0783 0.0272,-0.14657 0.0334,-0.50275 0.0138,-0.7915 -0.0432,-0.63833 -0.93553,-0.70986 -0.93553,-0.075 0,0.2475 -0.2025,0.45 -0.45,0.45 -0.33999,0 -0.45,0.36667 -0.45,1.5 l 0,1.5 -1.20643,0 c -0.99934,0 -1.26575,-0.1302 -1.55203,-0.75851 -0.24229,-0.53177 -0.4146,-0.64687 -0.57641,-0.38506 -0.12694,0.2054 -0.087,0.54673 0.0888,0.75851 0.24494,0.29514 0.15335,0.38399 -0.39216,0.38047 -0.39146,-0.002 -0.57674,-0.10377 -0.41174,-0.225 0.36962,-0.27155 0.53283,-0.9721 0.225,-0.96581 -0.77433,0.0158 -1.08016,0.64059 -1.01479,2.07313 l 0.0696,1.52471 -2.32863,-0.035 c -1.47203,-0.0221 -2.36955,0.0878 -2.43989,0.29878 -0.0612,0.18358 -0.29775,0.33378 -0.5257,0.33378 -0.22795,0 -0.54957,0.25248 -0.71472,0.56107 -0.23305,0.43546 -0.56852,0.53831 -1.49859,0.45946 -0.72472,-0.0614 -1.35678,0.0569 -1.59927,0.29936 -0.22053,0.22052 -0.69841,0.49536 -1.06197,0.61075 -0.36355,0.11539 -0.66101,0.32523 -0.66101,0.46632 0,0.14108 -0.4725,0.41245 -1.05,0.60304 -1.1087,0.36591 -1.34947,0.80392 -0.6,1.09152 0.27766,0.10654 0.45,0.56253 0.45,1.19058 0,0.83941 -0.11233,1.0179 -0.64059,1.0179 -0.35233,0 -0.95339,-0.3375 -1.33568,-0.75 -0.70215,-0.75762 -1.32373,-0.98067 -1.32373,-0.475 0,0.15125 0.16875,0.33527 0.375,0.40893 0.21812,0.0779 0.26369,0.24524 0.10893,0.4 -0.15476,0.15476 -0.3221,0.10919 -0.4,-0.10893 -0.0737,-0.20625 -0.33314,-0.375 -0.57663,-0.375 -0.26162,0 -0.35397,0.14357 -0.22579,0.35099 0.14234,0.23031 0.0581,0.29004 -0.245,0.17372 -0.25558,-0.0981 -0.45748,-0.0203 -0.45196,0.17402 0.0543,1.91221 -0.12794,2.90127 -0.53455,2.90127 -0.2475,0 -0.45,-0.14572 -0.45,-0.32383 0,-0.20359 -0.33346,-0.2506 -0.89802,-0.1266 -0.62666,0.13764 -1.04108,0.0542 -1.37143,-0.27616 -0.32139,-0.32139 -0.35413,-0.47341 -0.10197,-0.47341 0.20428,0 0.30102,-0.0704 0.21498,-0.15644 -0.28766,-0.28766 -1.29356,0.30057 -1.29356,0.75644 0,0.29731 -0.24473,0.42297 -0.72123,0.37035 -0.39668,-0.0438 -0.93668,0.10897 -1.2,0.33951 -0.26332,0.23055 -0.7822,0.51164 -1.15307,0.62465 -0.37087,0.11302 -0.75675,0.53399 -0.85752,0.93549 -0.18947,0.75492 -0.58886,0.96797 -0.7739,0.41283 -0.0586,-0.17588 -0.34824,-0.2241 -0.65015,-0.10825 -0.39443,0.15136 -0.4428,0.27174 -0.17557,0.4369 0.23309,0.14405 0.28015,0.43238 0.12784,0.78325 -0.13256,0.3054 -0.21071,0.73757 -0.17365,0.96038 0.0371,0.22281 -0.0766,0.31609 -0.25268,0.2073 -0.17604,-0.1088 -0.32007,-0.0411 -0.32007,0.1505 0,0.24626 -0.55639,0.29676 -1.89905,0.17237 -1.41385,-0.13098 -2.0462,-0.0646 -2.475,0.25985 -0.52392,0.39643 -0.52853,0.43665 -0.0509,0.44533 0.28875,0.005 0.525,0.14454 0.525,0.30954 0,0.165 0.27797,0.3 0.61771,0.3 0.33974,0 0.53427,0.135 0.43229,0.3 -0.10197,0.165 0.0846,0.3 0.41459,0.3 0.33,0 0.68344,-0.135 0.78541,-0.3 z m 4.35,-4.35 c -0.30587,-0.36855 -0.28537,-0.45 0.11327,-0.45 0.2677,0 0.48673,-0.11659 0.48673,-0.25909 0,-0.1425 0.54,-0.25909 1.2,-0.25909 1.06154,0 1.2,0.0818 1.2,0.70909 0,0.63747 -0.13265,0.70909 -1.31326,0.70909 -0.80136,0 -1.45884,-0.1754 -1.68674,-0.45 z m 13.2,-7.15207 c 0,-0.54576 0.63368,-1.09793 1.26,-1.09793 0.36018,0 0.53981,0.22478 0.53941,0.675 -6e-4,0.53576 -0.18614,0.68799 -0.9,0.73793 -0.55654,0.0389 -0.89941,-0.0811 -0.89941,-0.315 z m -17.27704,9.35832 c -0.14951,-0.24192 0.023,-0.28466 0.5823,-0.14428 0.88293,0.2216 1.04376,-0.13183 0.32969,-0.72446 -0.38312,-0.31796 -0.54795,-0.30307 -0.9355,0.0845 -0.40806,0.40806 -0.3532,1.12801 0.086,1.12801 0.0825,0 0.0544,-0.15469 -0.0625,-0.34375 z m 13.61993,-1.98125 c -0.12178,-0.63235 -0.6542,-0.59248 -0.78988,0.0592 -0.0566,0.27179 0.10877,0.46584 0.39699,0.46584 0.30899,0 0.45613,-0.19662 0.39289,-0.525 z m -3.39289,-3.975 c 0.10474,-0.33 0.33884,-0.6 0.52022,-0.6 0.18138,0 0.2515,-0.0783 0.15581,-0.17397 -0.21865,-0.21865 -1.72603,0.7494 -1.72603,1.10848 0,0.52672 0.86402,0.25147 1.05,-0.33451 z m 21.9,-2.4 c -0.10197,-0.165 -0.31244,-0.3 -0.4677,-0.3 -0.15526,0 -0.2823,0.135 -0.2823,0.3 0,0.165 0.21047,0.3 0.46771,0.3 0.25724,0 0.38427,-0.135 0.28229,-0.3 z m 9.75,-3.31728 c 0,-0.52189 -0.49512,-0.51953 -0.82203,0.004 -0.29316,0.46943 -0.25882,0.52604 0.23996,0.39561 0.32014,-0.0837 0.58207,-0.26352 0.58207,-0.39954 z m 5.10001,-1.78272 c 0,-0.165 -0.0595,-0.3 -0.1323,-0.3 -0.0728,0 -0.21573,0.135 -0.3177,0.3 -0.10198,0.165 -0.0425,0.3 0.13229,0.3 0.17474,0 0.31771,-0.135 0.31771,-0.3 z m -19.59534,-1.09533 c -0.10744,-0.10744 0.0388,-0.38283 0.325,-0.612 0.48594,-0.38911 0.4809,-0.41067 -0.0762,-0.32622 -0.64704,0.0981 -1.03566,1.13355 -0.42544,1.13355 0.2046,0 0.28409,-0.0879 0.17666,-0.19533 z m 15.39533,-3.23696 c 0,-0.0728 -0.135,-0.21573 -0.3,-0.31771 -0.165,-0.10197 -0.3,-0.0424 -0.3,0.1323 0,0.17474 0.135,0.3177 0.3,0.3177 0.165,0 0.3,-0.0595 0.3,-0.13229 z m -5.453,-2.06757 c 0.0561,-0.28937 -0.0944,-0.50014 -0.35729,-0.50014 -0.55732,0 -0.89369,0.48905 -0.62992,0.91584 0.27136,0.43907 0.87035,0.18684 0.98721,-0.4157 z m 87.30926,28.91841 c 0.38843,-0.33843 0.82718,-0.54059 0.975,-0.44923 0.14781,0.0914 0.26899,-0.0106 0.26928,-0.22661 6e-4,-0.40985 1.60706,-1.50457 3.8823,-2.64553 l 1.33282,-0.66838 -0.51013,0.77856 -0.51013,0.77856 0.9023,-0.18045 c 1.00343,-0.20069 1.17885,0.17514 0.43088,0.9231 -0.78502,0.78502 -1.9117,0.46314 -1.76262,-0.50357 0.0461,-0.29869 -0.10921,-0.525 -0.3602,-0.525 -0.24264,0 -0.35773,0.135 -0.25575,0.3 0.10197,0.165 0.0424,0.3 -0.1323,0.3 -0.17473,0 -0.3177,0.14297 -0.3177,0.31771 0,0.17474 0.135,0.23427 0.3,0.13229 0.165,-0.10197 0.3,-0.0271 0.3,0.16635 0,0.22353 -0.34271,0.30146 -0.94014,0.21377 -0.73162,-0.10738 -0.97226,-0.0151 -1.08499,0.41595 -0.0797,0.30466 -0.34605,0.55393 -0.59196,0.55393 -0.24591,0 -0.37999,0.17489 -0.29797,0.38864 0.0871,0.22707 -0.0866,0.40641 -0.4179,0.43136 -0.31187,0.0235 -0.56704,-0.0886 -0.56704,-0.2492 0,-0.17867 -0.26185,-0.16486 -0.675,0.0356 -0.66596,0.3231 -0.66554,0.31925 0.0312,-0.28784 z m 6.94375,-3.91855 c -0.25818,-0.16684 -0.30061,-0.29277 -0.0995,-0.2954 0.19276,-0.002 0.58615,-0.095 0.87422,-0.20558 0.38766,-0.14876 0.4592,-0.0965 0.27532,0.20098 -0.18155,0.29375 -0.11403,0.35039 0.25079,0.2104 0.27456,-0.10536 0.49921,-0.0608 0.49921,0.099 0,0.37454 -1.21571,0.36818 -1.8,-0.009 z m 1.8,-0.9 c 0.2475,-0.15994 0.585,-0.29081 0.75,-0.29081 0.165,0 0.0975,0.13087 -0.15,0.29081 -0.2475,0.15995 -0.585,0.29081 -0.75,0.29081 -0.165,0 -0.0975,-0.13086 0.15,-0.29081 z"
         id="path3522"
         inkscape:connector-curvature="0" />
      <path
         style="fill:#827d7a"
         d="m 617.82855,982.14317 0,-33.99046 1.425,-0.63065 c 12.57033,-5.56316 24.40557,-9.21084 34.35159,-10.58734 1.44462,-0.19993 2.72499,-0.51821 2.84528,-0.7073 0.12028,-0.18908 1.66627,-3.38129 3.43553,-7.09379 l 3.21683,-6.75 1.28789,-0.0694 c 2.70565,-0.14588 8.95888,-1.08124 9.3497,-1.39853 0.22493,-0.18262 1.18499,-2.94349 2.13348,-6.13527 1.48878,-5.00995 1.69718,-6.00924 1.52458,-7.31037 -0.18267,-1.37707 -0.0912,-1.7177 1.05959,-3.94677 1.41899,-2.7485 2.29221,-4.08962 2.66282,-4.08962 0.13828,0 2.8581,3.18199 6.04403,7.07109 l 5.79261,7.07109 2.69114,1.40391 2.69115,1.4039 4.13489,6.6 c 2.27419,3.63 4.32794,6.64101 4.56388,6.69113 0.23594,0.0501 1.23845,-0.11864 2.2278,-0.375 0.98935,-0.25637 1.93163,-0.46613 2.09396,-0.46613 0.16233,0 1.27378,1.31625 2.46989,2.925 2.64305,3.55486 2.83342,3.72287 3.80143,3.35483 0.46551,-0.17699 2.52754,-0.16832 5.54644,0.0233 l 4.80545,0.30504 2.74752,-0.93975 c 1.51114,-0.51686 11.52252,-4.04217 22.24752,-7.83403 10.725,-3.79185 20.74714,-7.31956 22.27143,-7.83934 1.52428,-0.51978 2.77303,-1.10907 2.775,-1.30951 0.006,-0.57551 0.75745,-0.8473 5.55358,-2.00775 2.475,-0.59884 5.15675,-1.28883 5.95944,-1.5333 0.8027,-0.24448 1.64099,-0.4445 1.86287,-0.4445 0.61837,0 1.61911,-1.17753 6.18277,-7.275 2.31552,-3.09375 4.39564,-5.625 4.62249,-5.625 0.72544,0 5.56609,6.21159 8.97243,11.51355 l 3.3,5.13645 5.4536,2.78551 5.45361,2.78552 1.54626,4.63938 1.54626,4.63939 4.79413,4.7251 c 2.63677,2.5988 5.08933,4.81528 5.45013,4.92552 0.3608,0.11022 2.81601,0.48718 5.45601,0.83766 2.64,0.35049 6.20334,0.84761 7.91854,1.10471 l 3.11854,0.46747 4.08146,-1.96307 c 2.2448,-1.07967 5.70146,-2.50212 7.68146,-3.16097 1.98,-0.65886 4.005,-1.40013 4.5,-1.64728 0.495,-0.24715 2.3175,-0.60011 4.05,-0.78436 1.7325,-0.18426 3.60983,-0.4581 4.17184,-0.60854 0.56202,-0.15045 1.14691,-0.19625 1.29976,-0.10179 0.15284,0.0945 1.21323,-0.25936 2.3564,-0.78628 1.14317,-0.52693 3.01146,-1.09652 4.15174,-1.26576 1.92163,-0.28521 2.19014,-0.25391 3.67175,0.42806 1.7834,0.82087 3.13448,2.08199 4.48466,4.18606 1.40259,2.18576 2.85927,2.8732 7.22918,3.41163 8.43344,1.03911 14.6822,3.17044 19.95967,6.80789 l 2.175,1.49909 0,32.96253 0,32.96248 -153.60001,0 -153.6,0 0,-33.99041 z m 94.8,-39.49095 c 0,-0.27477 -3.53716,-7.00323 -4.38624,-8.34359 -0.48755,-0.76966 -2.41993,-0.96857 -2.68553,-0.27644 -0.14494,0.37772 2.76391,6.39691 3.55147,7.3489 0.40157,0.48542 2.53754,1.53528 3.1453,1.54596 0.20625,0.004 0.375,-0.12006 0.375,-0.27483 z m 98.63259,-2.58502 4.50863,-0.21461 0.17939,-0.89698 c 0.25484,-1.27421 0.21418,-8.40587 -0.0502,-8.80335 -0.12122,-0.18226 -1.5704,-0.89969 -3.2204,-1.59428 -1.65,-0.69459 -4.09454,-1.72672 -5.43232,-2.29362 -1.33777,-0.5669 -2.5702,-1.03073 -2.73873,-1.03073 -0.18467,0 -0.38752,1.69853 -0.51054,4.275 -0.32659,6.83995 -0.43778,10.83186 -0.3076,11.04251 0.0665,0.10767 0.78298,0.0911 1.59207,-0.0368 0.8091,-0.1279 3.49996,-0.32913 5.9797,-0.44716 z m 59.69242,-5.43225 c 0.20625,-0.0832 0.54375,-0.0832 0.75,0 0.20625,0.0832 0.0375,0.15132 -0.375,0.15132 -0.4125,0 -0.58125,-0.0681 -0.375,-0.15132 z M 770.7723,909.7287 c 0.21657,-0.0867 0.47532,-0.076 0.57501,0.0237 0.0997,0.0997 -0.0775,0.17059 -0.39375,0.15757 -0.34949,-0.0144 -0.42057,-0.0855 -0.18126,-0.18125 z m 8.10001,-2.4 c 0.21656,-0.0867 0.47531,-0.076 0.575,0.0237 0.0997,0.0997 -0.0775,0.17059 -0.39375,0.15757 -0.34949,-0.0144 -0.42057,-0.0855 -0.18125,-0.18125 z m 2.90625,-0.39507 c -0.10198,-0.165 0.10052,-0.3 0.45,-0.3 0.34947,0 0.55197,0.135 0.45,0.3 -0.10198,0.165 -0.30448,0.3 -0.45,0.3 -0.14553,0 -0.34803,-0.135 -0.45,-0.3 z"
         id="path3520"
         inkscape:connector-curvature="0" />
      <path
         style="fill:#797572"
         d="m 617.82855,982.14317 0,-33.99046 1.425,-0.63065 c 12.4216,-5.49733 23.73407,-9.01591 33.675,-10.4741 1.7325,-0.25414 3.43401,-0.644 3.78114,-0.86637 0.81981,-0.52517 1.95487,-0.69502 5.95221,-0.89066 1.90623,-0.0933 3.36947,-0.30005 3.48868,-0.49294 0.14263,-0.23078 0.24523,-0.21257 0.33596,0.0596 0.10374,0.31123 0.54678,0.32967 2.15302,0.0896 1.1675,-0.17448 2.09194,-0.18972 2.18691,-0.0361 0.0905,0.1464 0.85921,0.22211 1.70829,0.16825 l 1.54379,-0.0979 0.26399,-1.75712 c 0.16992,-1.13104 0.1576,-1.82546 -0.0346,-1.94892 -0.1642,-0.10549 -0.39334,-0.49555 -0.5092,-0.8668 -0.15379,-0.4928 -0.0897,-0.675 0.23757,-0.675 0.24652,0 0.4971,0.23625 0.55686,0.525 0.0598,0.28875 0.27769,-0.65966 0.48432,-2.10758 0.20663,-1.44792 0.45208,-2.83167 0.54546,-3.075 0.0934,-0.24333 0.0293,-0.44242 -0.14241,-0.44242 -0.17169,0 -0.3684,0.37125 -0.43714,0.825 -0.0687,0.45375 -0.14521,0.11625 -0.16993,-0.75 -0.0337,-1.18002 -0.1578,-1.575 -0.49495,-1.575 -0.48951,0 -0.60202,-0.60888 -0.19679,-1.065 0.13926,-0.15675 0.63379,-1.635 1.09895,-3.285 0.50444,-1.78933 1.06812,-3.1661 1.39679,-3.41159 0.30308,-0.22637 0.54898,-0.63137 0.54646,-0.9 -0.004,-0.42727 -0.0446,-0.43208 -0.32427,-0.0384 -0.24227,0.34105 -0.27171,0.23282 -0.12162,-0.44699 0.10893,-0.49335 0.31029,-0.96636 0.44747,-1.05114 0.13718,-0.0848 0.40542,-1.30114 0.59609,-2.70301 0.19067,-1.40187 0.47804,-3.35886 0.63858,-4.34886 0.31582,-1.94746 2.29289,-6.22079 2.80441,-6.06157 0.29459,0.0917 2.62009,2.82225 9.01393,10.58395 2.51035,3.04739 2.8832,3.372 5.3081,4.62122 1.71706,0.88456 2.7246,1.59928 2.94908,2.09197 0.22854,0.50158 0.23907,0.78235 0.0319,0.8514 -0.20515,0.0684 -0.21301,0.37367 -0.0234,0.90803 l 0.28568,0.805 -0.68698,-0.825 c -0.37783,-0.45375 -0.91547,-0.825 -1.19476,-0.825 -0.27928,0 -1.38693,-0.36103 -2.46143,-0.80229 -1.0745,-0.44127 -2.02186,-0.73409 -2.10524,-0.65071 -0.0834,0.0834 1.00339,2.36817 2.41505,5.0773 1.41165,2.70914 3.9268,7.6257 5.58922,10.9257 1.66242,3.3 3.20712,6.10796 3.43266,6.23991 0.22555,0.13196 0.61281,0.63194 0.86058,1.11108 0.38004,0.73493 0.90786,1.01931 3.375,1.81844 1.60847,0.52101 3.66699,0.99696 4.57449,1.05766 3.29948,0.22073 4.47374,0.38775 5.1063,0.72629 0.3548,0.18988 0.71491,0.27542 0.80024,0.19008 0.0853,-0.0853 0.44503,-0.0477 0.79931,0.0837 0.35428,0.13137 1.1504,0.33137 1.76915,0.44444 0.91886,0.16791 1.125,0.11718 1.125,-0.27687 0,-0.32813 -0.21591,-0.45243 -0.675,-0.38859 -0.60602,0.0843 -0.66825,-0.0211 -0.60897,-1.03115 0.0363,-0.61875 -0.0649,-1.125 -0.225,-1.125 -0.16007,0 -0.29103,0.2025 -0.29103,0.45 0,0.2475 -0.24454,0.45 -0.54343,0.45 -0.73944,0 -1.85657,-1.09012 -1.85657,-1.81168 0,-0.4096 -0.20504,-0.58883 -0.675,-0.59001 -0.57951,-0.002 -0.68137,-0.17122 -0.72002,-1.2 -0.0319,-0.8486 0.0775,-1.19831 0.375,-1.19831 0.55846,0 0.53262,-0.57834 -0.0549,-1.2275 -0.43699,-0.48287 -0.42093,-0.55362 0.20125,-0.8866 0.52785,-0.2825 1.78427,-0.28235 5.72891,6e-4 l 5.05277,0.36254 9.97098,-3.50292 c 5.48404,-1.92662 16.63448,-5.86456 24.77876,-8.75099 9.41356,-3.33627 15.04174,-5.18619 15.45001,-5.07822 0.4392,0.11615 0.79467,-0.0307 1.12449,-0.46466 0.28629,-0.37666 1.01775,-0.73051 1.8,-0.87079 0.72475,-0.12996 1.85772,-0.39259 2.51772,-0.58362 2.4845,-0.71909 2.85,-0.72319 2.85,-0.032 0,0.5045 -0.18388,0.63405 -0.9,0.63405 -0.56014,0 -0.9,0.15453 -0.9,0.40923 0,0.44042 -1.81339,0.79086 -4.09188,0.79086 -1.295,0 -1.30812,0.0105 -1.30812,1.05 0,0.5775 -0.135,1.05 -0.3,1.05 -0.165,0 -0.29794,0.43875 -0.29541,0.975 0.003,0.73987 0.0747,0.86648 0.29541,0.525 0.22782,-0.35252 0.2918,-0.27671 0.2954,0.35001 0.002,0.43999 -0.16415,0.86111 -0.3704,0.9358 -0.3,0.10864 -0.3,0.26283 0,0.77093 0.5304,0.89833 0.50145,3.94326 -0.0375,3.94326 -0.4901,0 -0.94812,1.89647 -0.49454,2.04766 0.46942,0.15647 0.36618,2.32979 -0.13023,2.74177 -0.29401,0.24401 -0.37802,0.65915 -0.25643,1.26711 0.11082,0.55407 0.0437,0.98896 -0.17336,1.1231 -0.19481,0.1204 -0.42643,0.74799 -0.5147,1.39464 -0.13973,1.02365 -0.10764,1.11145 0.24815,0.67883 0.29623,-0.36019 0.54963,-0.41799 0.92112,-0.21009 0.63184,0.35359 0.67916,1.45698 0.0625,1.45698 -0.28,0 -0.45,0.28334 -0.45,0.75 0,0.53457 -0.16233,0.75 -0.56511,0.75 -0.5043,0 -0.5817,0.31478 -0.71931,2.925 -0.0848,1.60875 -0.25528,3.24412 -0.37881,3.63416 -0.20077,0.63386 -0.15308,0.68645 0.44917,0.4953 0.37058,-0.11761 0.9641,-0.25077 1.31892,-0.29589 1.43632,-0.18267 4.55511,-0.82203 4.82576,-0.9893 0.15899,-0.0983 0.56589,-0.20447 0.90423,-0.23603 1.16828,-0.10895 3.65022,-0.69667 4.98048,-1.17937 1.47778,-0.53623 2.05075,-0.6967 2.60967,-0.73091 0.23367,-0.0143 0.375,-0.4752 0.375,-1.22296 0,-1.13333 -0.05,-1.2 -0.9,-1.2 -0.88,0 -0.9,-0.0333 -0.9,-1.5 0,-0.825 0.135,-1.5 0.3,-1.5 0.165,0 0.3,-0.59305 0.3,-1.3179 0,-1.29072 0.5305,-1.94587 1.22707,-1.51537 0.15011,0.0928 0.27293,-0.18751 0.27293,-0.62286 0,-0.71545 -0.0828,-0.77336 -0.86102,-0.60243 -0.72468,0.15917 -0.89029,0.0798 -1.0459,-0.50116 -0.10169,-0.37965 -0.18674,-0.99403 -0.18899,-1.36528 -0.004,-0.58391 0.15188,-0.675 1.15182,-0.675 l 1.15591,0 0.21193,-5.025 c 0.11656,-2.76375 0.22517,-5.2275 0.24135,-5.475 0.0162,-0.2475 0.008,-1.53 -0.0172,-2.85 l -0.0466,-2.4 -2.77569,0.0955 c -2.93732,0.10103 -3.18524,-0.17409 -0.71617,-0.79476 0.95715,-0.2406 1.58097,-0.2661 1.81236,-0.0741 0.24241,0.20118 0.46277,0.11681 0.70406,-0.26956 0.19317,-0.30931 0.6601,-0.60619 1.03764,-0.65974 0.50488,-0.0716 0.66327,-0.26603 0.59887,-0.73514 -0.0937,-0.68251 1.43488,-2.21223 2.21057,-2.21223 0.64322,0 0.53642,1.906 -0.1719,3.06775 -0.76237,1.25041 -0.7559,1.52181 0.0303,1.27226 0.59781,-0.18973 0.61904,-0.13084 0.39816,1.10479 -0.12832,0.71786 -0.21212,1.5077 -0.18622,1.7552 0.0259,0.2475 0.0968,2.8125 0.15764,5.7 0.0608,2.8875 0.20624,5.55127 0.32321,5.91949 l 0.21267,0.66948 0.65653,-0.61394 c 0.55476,-0.51876 0.67158,-0.54116 0.75354,-0.14448 0.0533,0.2582 0.22209,0.46945 0.375,0.46945 0.1529,0 0.278,1.21243 0.278,2.69429 0,2.62371 -0.0196,2.69921 -0.75,2.88252 -0.64418,0.16168 -0.75,0.35815 -0.75,1.39245 0,0.94614 0.0825,1.13572 0.38506,0.88464 0.4602,-0.38193 1.28125,0.0343 0.99173,0.50275 -0.11004,0.17805 0.0752,0.49562 0.41157,0.70571 0.74887,0.46767 0.80647,1.12185 0.0866,0.98405 -0.28875,-0.0553 -0.525,-0.12116 -0.525,-0.14641 0,-0.0253 -0.23625,-0.0911 -0.525,-0.14641 -0.40396,-0.0773 -0.525,0.10331 -0.525,0.78351 0,0.74846 0.0805,0.84113 0.525,0.60433 0.60397,-0.32175 4.52106,-0.86649 6.075,-0.84483 2.54358,0.0354 12.48564,-0.79098 12.825,-1.06607 0.41557,-0.33688 0.54734,-9.12208 0.14541,-9.69432 -0.12123,-0.17259 -1.70541,-0.96348 -3.52041,-1.75754 -1.815,-0.79406 -3.975,-1.75208 -4.8,-2.12893 -2.22055,-1.01434 -4.39458,-1.69682 -4.8493,-1.52233 -0.22038,0.0846 -0.4007,0.3605 -0.4007,0.61318 0,0.25941 -0.2612,0.45941 -0.6,0.45941 -0.52685,0 -0.6,-0.2 -0.6,-1.64058 0,-1.37357 0.0773,-1.61091 0.4751,-1.45827 0.26131,0.10027 0.59025,0.46729 0.73099,0.81558 0.19204,0.47529 0.26062,0.24736 0.27489,-0.91364 0.0172,-1.40344 -0.0366,-1.53236 -0.58098,-1.39001 -0.48711,0.12738 -0.6,0.009 -0.6,-0.62809 0,-0.43174 0.135,-0.78499 0.3,-0.78499 0.165,0 0.3,0.162 0.3,0.36 0,0.21917 0.0965,0.24851 0.24657,0.075 0.13562,-0.15675 0.19009,-0.99375 0.12105,-1.86 -0.10396,-1.30441 -0.22363,-1.575 -0.69657,-1.575 -0.45585,0 -0.57105,-0.21828 -0.57105,-1.08209 0,-0.83861 0.10126,-1.04324 0.45,-0.90942 0.33505,0.12857 0.45,-0.0454 0.45,-0.68126 0,-0.46967 -0.2025,-1.3386 -0.45,-1.93095 -0.50655,-1.21234 -0.60583,-3.69365 -0.15389,-3.84628 0.18115,-0.0612 0.22255,-0.88612 0.10662,-2.125 -0.17529,-1.87321 -0.24246,-2.025 -0.89611,-2.025 -0.40163,0 -0.70662,0.17913 -0.70662,0.41502 0,0.22825 -0.28002,0.48823 -0.62226,0.57773 -0.34225,0.0895 -0.69549,0.44275 -0.78499,0.78499 -0.0895,0.34224 -0.35423,0.62226 -0.5883,0.62226 -0.54263,0 -0.19964,-0.66612 1.0705,-2.07903 0.50878,-0.56597 0.92537,-1.10597 0.92575,-1.2 3e-4,-0.094 0.37721,-0.61146 0.83737,-1.14984 1.02492,-1.19911 0.9792,-1.22891 4.03371,2.62887 1.96245,2.47853 7.23768,10.25993 8.29112,12.23006 0.23721,0.44364 2.22276,1.61071 5.71138,3.35707 4.6077,2.30654 5.72573,3.04955 5.72573,3.80511 0,0.0788 -0.15586,0.0468 -0.34636,-0.0709 -0.21459,-0.13263 -0.26491,-0.0823 -0.13229,0.13229 0.11773,0.19049 0.12172,0.49577 0.009,0.67838 -0.14316,0.23163 -0.2808,0.20971 -0.45521,-0.0725 -0.20598,-0.33329 -0.31825,-0.33537 -0.6375,-0.0118 -0.31715,0.3214 -0.28383,0.46921 0.18355,0.81424 0.51728,0.38185 0.52398,0.43961 0.0712,0.61336 -0.27493,0.1055 -0.67932,0.0429 -0.89865,-0.13914 -0.51843,-0.43025 -0.88767,-0.061 -0.45741,0.45741 0.56849,0.68499 0.0665,1.30643 -1.05532,1.30643 -0.57089,0 -1.24049,0.2025 -1.48799,0.45 -0.2475,0.2475 -0.66214,0.45 -0.92143,0.45 -0.32381,0 -0.47143,0.28181 -0.47143,0.9 0,0.75999 -0.11666,0.9 -0.75,0.9 l -0.75,0 0,4.47363 0,4.47363 1.125,0.15416 c 2.22091,0.30434 5.89241,0.19367 6.13292,-0.18486 0.35447,-0.55792 0.28861,-0.81658 -0.20791,-0.81658 -0.26803,0 -0.44815,-0.27295 -0.44541,-0.675 0.007,-0.99359 0.34053,-1.35873 1.34638,-1.47293 0.88691,-0.10069 0.89764,-0.12329 0.79645,-1.67707 -0.0836,-1.28338 -0.0142,-1.575 0.375,-1.575 0.26267,0 0.47758,-0.11925 0.47758,-0.26501 0,-0.4738 1.22635,-0.6154 1.40044,-0.1617 0.0901,0.23469 0.30888,0.42671 0.48627,0.42671 0.17738,0 2.28918,1.93942 4.6929,4.30981 3.07931,3.03663 4.63626,4.3622 5.27039,4.48715 0.495,0.0975 2.925,0.45384 5.4,0.79179 2.475,0.33794 6.08541,0.83908 8.02313,1.11364 l 3.52314,0.49918 3.82686,-1.83056 c 4.93528,-2.36077 9.35632,-3.87471 12.76555,-4.37143 3.34148,-0.48686 4.22823,-0.37238 3.99003,0.5151 -0.0938,0.34943 -0.17236,0.80407 -0.17462,1.01032 -0.002,0.22779 -0.41628,0.375 -1.05409,0.375 -0.85,0 -1.05,-0.11428 -1.05,-0.6 0,-0.3908 -0.2,-0.6 -0.57363,-0.6 -0.43402,0 -0.62225,0.28777 -0.77339,1.18233 -0.16652,0.98566 -0.32924,1.19775 -0.97819,1.275 -0.5657,0.0674 -0.79179,0.28015 -0.82729,0.77866 -0.0462,0.64818 0.027,0.67503 1.32682,0.48715 0.75663,-0.10935 1.52732,-0.31912 1.71265,-0.46616 0.18534,-0.14703 0.57874,-0.17456 0.87422,-0.0612 0.30088,0.11546 0.46396,0.0847 0.37068,-0.0698 -0.0948,-0.15712 0.87198,-0.3014 2.24479,-0.33499 1.38833,-0.034 2.55178,-0.20898 2.74235,-0.4125 0.24216,-0.25863 0.2335,-0.38935 -0.0323,-0.48709 -0.22379,-0.0823 -0.29956,-0.45223 -0.19733,-0.96339 0.11096,-0.55477 -0.002,-0.99779 -0.34085,-1.33662 -0.62378,-0.62378 -0.37991,-1.3914 0.44204,-1.3914 0.40942,0 0.60942,0.19691 0.60942,0.6 0,0.33 0.135,0.6 0.3,0.6 0.165,0 0.3,-0.27198 0.3,-0.60441 0,-0.80415 1.75694,-1.90479 2.30911,-1.44653 0.35905,0.29798 0.51581,0.14209 0.42641,-0.42406 -0.0195,-0.12375 0.14922,-0.225 0.37502,-0.225 0.29583,0 0.41468,0.46105 0.42537,1.65 0.0145,1.61085 -0.005,1.65 -0.82556,1.65 -0.6179,0 -0.88826,0.1787 -1.02126,0.675 -0.36468,1.3608 -0.28148,1.42519 1.83591,1.42091 3.66036,-0.007 3.65201,0.002 3.75918,-4.26782 l 0.0658,-2.62191 0.98695,-0.003 c 0.54282,-0.002 1.50513,0.26127 2.13846,0.58437 1.30485,0.66568 3.45692,2.96577 4.18048,4.46801 0.76121,1.58038 2.68971,2.38026 7.02726,2.91469 8.41463,1.03676 14.66845,3.17105 19.94185,6.80568 l 2.175,1.4991 0,32.96253 0,32.96251 -153.60001,0 -153.6,0 0,-33.99044 z m 174.30001,-42.79183 c 0,-0.32026 -0.135,-0.66573 -0.3,-0.76771 -0.17015,-0.10515 -0.3,0.14689 -0.3,0.5823 0,0.42224 0.135,0.7677 0.3,0.7677 0.165,0 0.3,-0.26203 0.3,-0.58229 z m -72.90001,-0.28097 c 0,-0.1448 -0.2025,-0.43133 -0.45,-0.63674 -0.36495,-0.30288 -0.45,-0.29092 -0.45,0.0633 0,0.2402 0.09,0.52673 0.2,0.63673 0.28491,0.28491 0.7,0.24739 0.7,-0.0633 z m -39.16159,-3.91798 c 0.0988,-0.15985 -0.1849,-0.2239 -0.6573,-0.14839 -0.69361,0.11087 -0.74325,0.0799 -0.30005,-0.18706 0.29208,-0.17594 0.80939,-0.23156 1.14958,-0.12358 0.89664,0.28458 3.26936,-2.22328 3.26936,-3.45558 0,-0.66369 -0.11264,-0.84209 -0.45,-0.71264 -0.2475,0.095 -0.45949,0.32699 -0.47108,0.51559 -0.0496,0.80675 -0.53865,-0.96158 -0.55783,-2.01709 -0.0188,-1.03402 0.0472,-1.14214 0.60728,-0.99566 0.60807,0.15901 0.62175,0.0947 0.42335,-1.99001 -0.11654,-1.2245 -0.37967,-2.29218 -0.60963,-2.4737 -0.28579,-0.22559 -0.39803,-1.0625 -0.38222,-2.85 0.0476,-5.38391 -0.15143,-6.47607 -1.0451,-5.73439 -0.33572,0.27863 -0.40651,1.00358 -0.32031,3.28071 0.0651,1.72008 0.008,2.68514 -0.13945,2.34498 -0.23655,-0.54677 -0.26133,-0.54877 -0.45772,-0.037 -0.1142,0.2976 -0.0859,0.69273 0.063,0.87807 0.15992,0.19913 0.16079,0.62716 0.002,1.04636 -0.20339,0.53737 -0.44017,0.67658 -0.97641,0.57407 -0.68414,-0.13078 -0.7147,-0.0539 -0.91014,2.29061 -0.11123,1.33426 -0.27472,2.76343 -0.36331,3.17593 -0.12554,0.58459 -0.0915,0.65076 0.15429,0.3 0.22985,-0.32798 0.31218,0.30472 0.30364,2.33342 -0.0103,2.43684 -0.0745,2.77303 -0.51609,2.7 -0.35351,-0.0585 -0.53277,0.16335 -0.59931,0.74158 -0.0911,0.79202 -0.0409,0.825 1.2573,0.825 0.74372,0 1.43044,-0.12655 1.52604,-0.28124 z m -0.21341,-1.41744 c 0.20625,-0.0832 0.54375,-0.0832 0.75,0 0.20625,0.0832 0.0375,0.15132 -0.375,0.15132 -0.4125,0 -0.58125,-0.0681 -0.375,-0.15132 z m 0.19291,-0.87585 c 0.10015,-0.261 0.18209,-0.666 0.18209,-0.9 0,-0.73391 1.40572,-0.51616 1.61092,0.24953 0.2878,1.07396 0.24728,1.125 -0.89301,1.125 -0.86348,0 -1.04531,-0.0959 -0.9,-0.47453 z m 118.0821,-0.12547 c 0,-0.165 -0.12704,-0.3 -0.2823,-0.3 -0.15526,0 -0.36573,0.135 -0.4677,0.3 -0.10198,0.165 0.025,0.3 0.28229,0.3 0.25724,0 0.46771,-0.135 0.46771,-0.3 z m -2.49507,-10.55625 c -0.0958,-0.23931 -0.16686,-0.16823 -0.18125,0.18126 -0.013,0.31624 0.0579,0.49343 0.15757,0.39375 0.0997,-0.0997 0.11034,-0.35844 0.0237,-0.57501 z m -119.30494,-1.17915 c 0,-0.165 -0.135,-0.21657 -0.3,-0.1146 -0.165,0.10198 -0.3,0.32041 -0.3,0.48541 0,0.165 0.135,0.21657 0.3,0.11459 0.165,-0.10197 0.3,-0.3204 0.3,-0.4854 z m 3.6,-1.5825 c 0,-0.22985 -0.2025,-0.49561 -0.45,-0.59058 -0.30609,-0.11746 -0.45,0.0162 -0.45,0.4179 0,0.32496 0.20239,0.59058 0.45,0.59058 0.2475,0 0.45,-0.18805 0.45,-0.4179 z m 0.73548,-6.15859 c 0.11733,-0.18985 -0.0462,-0.32351 -0.39578,-0.32351 -0.69419,0 -0.95784,0.81964 -0.50709,1.57647 0.28351,0.47602 0.33221,0.45671 0.50824,-0.20149 0.10708,-0.40039 0.28466,-0.87355 0.39463,-1.05147 z m 0.66946,-0.97976 c -0.0958,-0.23931 -0.16686,-0.16823 -0.18125,0.18126 -0.013,0.31624 0.0579,0.49343 0.15756,0.39375 0.0997,-0.0997 0.11035,-0.35844 0.0237,-0.57501 z m 121.2,-2.4 c -0.0958,-0.23931 -0.16685,-0.16823 -0.18125,0.18126 -0.013,0.31624 0.0579,0.49343 0.15757,0.39375 0.0997,-0.0997 0.11034,-0.35844 0.0237,-0.57501 z m -122.4,-0.6 c -0.0958,-0.23931 -0.16686,-0.16823 -0.18125,0.18126 -0.013,0.31624 0.0579,0.49343 0.15756,0.39375 0.0997,-0.0997 0.11035,-0.35844 0.0237,-0.57501 z m 0.59375,-4.81875 c -0.0832,-0.20625 -0.15132,-0.0375 -0.15132,0.375 0,0.4125 0.0681,0.58125 0.15132,0.375 0.0832,-0.20625 0.0832,-0.54375 0,-0.75 z m 106.30132,39.375 c -0.27039,-0.17473 -0.30739,-0.29264 -0.0927,-0.2954 0.19651,-0.002 0.44073,0.1304 0.54271,0.2954 0.23019,0.37246 0.12633,0.37246 -0.45,0 z m -74.41493,-2.86798 c -0.35538,-0.4282 -0.33548,-0.55321 0.14379,-0.90366 0.30592,-0.2237 0.70583,-0.46881 0.88868,-0.5447 0.21604,-0.0897 0.17488,-0.24941 -0.11755,-0.45622 -0.37129,-0.26259 -0.32892,-0.31905 0.24225,-0.32284 0.62946,-0.004 0.68389,0.11105 0.6,1.2704 -0.0744,1.02783 -0.21365,1.29235 -0.7185,1.36448 -0.34444,0.0492 -0.81184,-0.13415 -1.03867,-0.40746 z m 87.31493,-0.73202 c 0,-0.165 0.2025,-0.3 0.45,-0.3 0.2475,0 0.45,0.135 0.45,0.3 0,0.165 -0.2025,0.3 -0.45,0.3 -0.2475,0 -0.45,-0.135 -0.45,-0.3 z m 85.725,-0.19868 c 0.20625,-0.0832 0.54375,-0.0832 0.75,0 0.20625,0.0832 0.0375,0.15132 -0.375,0.15132 -0.4125,0 -0.58125,-0.0681 -0.375,-0.15132 z m -83.325,-0.70383 c 0,-0.20333 -0.26884,-0.26681 -0.675,-0.15938 l -0.675,0.17854 0.675,-0.49492 c 0.47997,-0.35191 0.675,-0.80217 0.675,-1.55832 0,-0.58487 0.0688,-0.99461 0.15287,-0.91053 0.26056,0.26056 0.33263,2.98248 0.0831,3.13672 -0.12977,0.0802 -0.23593,-0.006 -0.23593,-0.19211 z m -90.30001,-0.29749 c 0,-0.165 0.14297,-0.3 0.31771,-0.3 0.17474,0 0.23427,0.135 0.13229,0.3 -0.10197,0.165 -0.24494,0.3 -0.3177,0.3 -0.0728,0 -0.1323,-0.135 -0.1323,-0.3 z m -1.15738,-3.225 c 0.0442,-0.28875 -0.0871,-0.82875 -0.2917,-1.2 -0.33111,-0.60075 -0.30487,-0.675 0.23853,-0.675 0.34271,0 0.61055,0.19741 0.61055,0.45 0,0.2475 0.135,0.45 0.3,0.45 0.48937,0 0.34104,1.12007 -0.17453,1.31791 -0.70083,0.26893 -0.77107,0.23366 -0.68285,-0.34291 z m -1.74184,-1.52302 c -0.51978,-1.32323 -0.96767,-1.54153 -3.17578,-1.54788 -1.10765,-0.003 -1.425,-0.11155 -1.425,-0.48662 0,-0.36489 0.18285,-0.43663 0.75,-0.29428 0.44965,0.11285 0.75,0.0598 0.75,-0.13245 0,-0.20083 0.64471,-0.28706 1.725,-0.23072 l 1.725,0.09 0.18156,1.2 c 0.0999,0.66 0.27781,1.4226 0.39545,1.69466 0.11765,0.27206 0.0635,0.58762 -0.12038,0.70125 -0.20444,0.12635 -0.51744,-0.25971 -0.80585,-0.99393 z m 178.1422,0.58093 c -0.25028,-0.15858 -0.29127,-0.32945 -0.10644,-0.44368 0.16533,-0.10218 0.37801,0.016 0.47262,0.2625 0.19879,0.51803 0.18006,0.5273 -0.36618,0.18118 z m -214.83344,-1.59735 c 0.0124,-0.88751 0.66395,-1.73556 1.33352,-1.73556 0.40891,0 0.4797,0.15118 0.31606,0.675 -0.11597,0.37125 -0.21297,0.945 -0.21556,1.275 -0.003,0.33 -0.0693,0.43233 -0.14834,0.2274 -0.10449,-0.27109 -0.30048,-0.28865 -0.71942,-0.0645 -0.49037,0.26244 -0.57438,0.20645 -0.56626,-0.37739 z m 41.86569,0.17201 c -0.158,-0.41174 -0.1141,-0.4303 0.26791,-0.11327 0.52057,0.43204 0.57475,0.6057 0.18896,0.6057 -0.14735,0 -0.35294,-0.22159 -0.45687,-0.49243 z m -53.87523,-1.58257 c 0,-0.48125 -0.16875,-0.93687 -0.375,-1.0125 -0.47563,-0.1744 -0.0186,-0.67168 0.86063,-0.9365 0.58586,-0.17645 0.63829,-0.0734 0.6696,1.31628 0.0296,1.31458 -0.0422,1.50772 -0.56063,1.50772 -0.45689,0 -0.5946,-0.20265 -0.5946,-0.875 z m 142.24079,-2.11 c -0.028,-2.1499 0.0563,-3.03795 0.26807,-2.82614 0.20653,0.20653 0.22004,1.24514 0.0408,3.135 l -0.26806,2.82614 -0.0408,-3.135 z m -90.49888,2.0719 c -0.0975,-0.15779 -0.0971,-0.2869 9.4e-4,-0.2869 0.0981,0 0.0338,-0.27 -0.14285,-0.6 -0.17661,-0.33 -0.20228,-0.6 -0.0571,-0.6 0.28154,0 1.25705,0.98287 1.25705,1.26653 0,0.32241 -0.88156,0.50601 -1.05809,0.22037 z m 115.04228,-1.6785 c -0.16553,-0.43539 -0.2453,-0.84728 -0.17726,-0.91532 0.068,-0.068 0.26729,0.28819 0.44278,0.79161 0.39012,1.11909 0.15464,1.22881 -0.26552,0.12371 z m -121.69091,-0.70457 c -0.23423,-0.62055 -0.5441,-0.90383 -0.98865,-0.90383 -0.57554,0 -0.59748,-0.05 -0.19749,-0.45 0.64332,-0.64331 0.7353,-0.58904 1.31875,0.77805 0.51966,1.21762 0.53558,1.22684 1.87411,1.08632 0.7425,-0.0779 1.58625,-0.24001 1.875,-0.36014 0.36195,-0.15058 0.525,-0.0805 0.525,0.22572 0,0.34437 -0.45661,0.45352 -2.03278,0.48592 -1.99983,0.0411 -2.03832,0.0271 -2.37394,-0.86204 z m 120.50673,0.57847 c 0,-0.17474 0.135,-0.23427 0.3,-0.1323 0.165,0.10198 0.3,0.24495 0.3,0.31771 0,0.0728 -0.135,0.13229 -0.3,0.13229 -0.165,0 -0.3,-0.14296 -0.3,-0.3177 z m -115.28553,-0.37246 c -0.22448,-0.58499 0.51697,-0.72526 0.86417,-0.16348 0.12652,0.20471 0.0829,0.26529 -0.10667,0.14813 -0.1764,-0.10903 -0.37499,-0.0355 -0.4413,0.16348 -0.0761,0.22824 -0.19275,0.17358 -0.3162,-0.14813 z m -7.99391,-2.02461 c -0.42408,-0.68187 -0.59059,-1.32009 -0.4878,-1.86978 0.12671,-0.67761 0.0217,-0.88561 -0.55808,-1.10606 -0.68871,-0.26185 -1.67469,-1.37685 -1.67469,-1.89384 0,-0.47511 0.63748,0.14398 0.92385,0.89719 0.21052,0.55371 0.4454,0.71298 0.88275,0.59861 0.44214,-0.11562 0.64138,0.0254 0.77216,0.54644 0.11159,0.44459 0.33128,0.64278 0.59875,0.54015 0.38253,-0.14679 0.56898,0.23179 0.44749,0.90864 -0.0253,0.14112 0.0825,0.41152 0.2397,0.60088 0.18463,0.22248 0.14668,0.60416 -0.10726,1.07865 l -0.39301,0.73434 -0.64386,-1.03522 z m -41.29036,-0.3422 c 0.46133,-1.10016 1.37265,-1.5274 1.3652,-0.64002 -0.006,0.76241 -0.33383,1.18131 -1.11351,1.42458 -0.65067,0.20303 -0.65723,0.18256 -0.25169,-0.78456 z m 2.1326,0.3777 c -0.0949,-0.1536 -0.0354,-0.36406 0.1323,-0.4677 0.16769,-0.10364 0.30489,0.022 0.30489,0.27927 0,0.52696 -0.18002,0.60455 -0.43719,0.18843 z m 161.5372,-0.92409 c 0,-1.35703 0.71133,-1.68918 1.0162,-0.47451 0.0997,0.39717 0.25236,0.90748 0.33929,1.13401 0.10525,0.27427 -0.0948,0.4328 -0.59872,0.47451 -0.69302,0.0574 -0.75677,-0.0382 -0.75677,-1.13401 z m -162.49962,-0.82403 c -0.2617,-0.16965 -0.24551,-0.41473 0.0644,-0.97462 0.22769,-0.41139 0.41877,-0.57924 0.42461,-0.37299 0.006,0.20625 0.22303,0.375 0.48263,0.375 0.28685,0 0.4326,0.20459 0.37155,0.52156 -0.11059,0.57424 -0.79737,0.80487 -1.34316,0.45105 z m 0.99501,-2.31248 c -0.22875,-0.5961 -0.0905,-0.88274 0.34561,-0.71638 0.15317,0.0584 0.18522,0.36638 0.0712,0.68432 -0.19696,0.54926 -0.21773,0.55086 -0.41681,0.0321 z m 3.4046,-0.74622 c 1.91742,-0.50329 4.8,-0.71279 4.8,-0.34886 0,0.18423 -0.37125,0.33591 -0.825,0.33709 -0.45375,10e-4 -1.77,0.0663 -2.925,0.14475 -1.64188,0.11151 -1.87094,0.0825 -1.05,-0.13298 z m 130.20001,-12.16391 c 0,-0.2475 0.135,-0.45 0.3,-0.45 0.165,0 0.3,0.2025 0.3,0.45 0,0.2475 -0.135,0.45 -0.3,0.45 -0.165,0 -0.3,-0.2025 -0.3,-0.45 z m -1.79982,-0.375 c 2.9e-4,-0.34364 2.72982,-3.74499 2.88265,-3.59216 0.22564,0.22564 -0.44788,1.71716 -0.77541,1.71716 -0.16908,0 -0.30742,0.15153 -0.30742,0.33674 0,0.23028 0.14455,0.21676 0.45725,-0.0427 0.54217,-0.44996 0.88952,-0.2092 0.63922,0.44308 -0.15165,0.39519 -0.96897,0.62517 -1.77147,0.49846 -0.12375,-0.0195 -0.225,0.16697 -0.225,0.41447 0,0.2475 -0.2025,0.45 -0.45,0.45 -0.2475,0 -0.44992,-0.10125 -0.44982,-0.225 z"
         id="path3518"
         inkscape:connector-curvature="0" />
      <path
         style="fill:#72a52e"
         d="m 617.82855,982.14317 0,-33.99046 1.425,-0.63065 c 8.76858,-3.88065 14.80393,-6.04667 22.425,-8.04812 5.67333,-1.48993 7.32111,-1.83918 11.94422,-2.53164 14.63213,-2.19164 28.50597,-1.45594 43.10578,2.2858 14.03559,3.59714 19.83557,4.89482 28.5,6.37655 13.80438,2.36073 22.0119,3.13046 33.45,3.13707 6.36762,0.004 9.89155,-0.13425 13.14456,-0.5145 8.28452,-0.96838 15.4409,-2.52355 21.20545,-4.60819 6.28844,-2.27411 11.47231,-3.07572 21.31627,-3.29627 10.1648,-0.22774 15.85225,0.19157 28.93373,2.13316 2.805,0.41633 6.1125,0.89777 7.35,1.06987 1.2375,0.1721 4.10188,0.67041 6.36529,1.10735 l 4.11529,0.79444 4.28471,-0.94769 c 10.29828,-2.27779 17.5213,-3.13784 26.63471,-3.1714 13.68329,-0.0504 23.39817,2.28212 30.825,7.40099 l 2.175,1.49909 0,32.96253 0,32.9625 -153.60001,0 -153.6,0 0,-33.99043 z"
         id="path3516"
         inkscape:connector-curvature="0" />
      <path
         style="fill:#679825"
         d="m 617.9015,995.38221 0.077,-20.75141 2.1,-0.86094 c 3.45426,-1.41615 10.33983,-3.5662 14.25,-4.44962 4.24068,-0.95809 10.71752,-2.11075 14.23222,-2.53286 4.51229,-0.54192 14.60975,-1.04825 16.44614,-0.82469 0.96166,0.11708 4.30793,-0.39995 11.17164,-1.72611 5.99288,-1.1579 24.23277,-3.69794 32.4,-4.51193 13.32769,-1.32832 33.39022,-1.89672 42.80626,-1.21276 10.01163,0.72721 33.98328,4.91404 56.23291,9.8215 l 7.53915,1.66286 9.26085,-1.51526 c 5.09346,-0.83339 10.81334,-1.72544 12.71084,-1.98234 7.82004,-1.05874 12.61471,-1.66313 15.45,-1.94756 1.65,-0.16553 4.2825,-0.43309 5.85,-0.59458 6.98313,-0.71943 20.38352,-1.28286 25.95,-1.09109 12.81877,0.44162 14.38128,0.78454 30.15,6.61692 3.8775,1.43417 7.82625,2.87731 8.775,3.20698 l 1.725,0.59939 0,21.42246 0,21.42243 -153.60206,0 -153.60206,0 0.0771,-20.75139 z m 57.4708,-59.55351 c 0.21656,-0.0867 0.47531,-0.076 0.575,0.0237 0.0997,0.0997 -0.0775,0.17059 -0.39375,0.15757 -0.34948,-0.0144 -0.42057,-0.0855 -0.18125,-0.18125 z"
         id="path3514"
         inkscape:connector-curvature="0" />
    </g>
  </g>
</svg>
