<?xml version="1.0" encoding="UTF-8" standalone="no"?>
<!-- Created with Inkscape (http://www.inkscape.org/) -->

<svg
   xmlns:dc="http://purl.org/dc/elements/1.1/"
   xmlns:cc="http://creativecommons.org/ns#"
   xmlns:rdf="http://www.w3.org/1999/02/22-rdf-syntax-ns#"
   xmlns:svg="http://www.w3.org/2000/svg"
   xmlns="http://www.w3.org/2000/svg"
   xmlns:sodipodi="http://sodipodi.sourceforge.net/DTD/sodipodi-0.dtd"
   xmlns:inkscape="http://www.inkscape.org/namespaces/inkscape"
   width="500"
   height="500"
   viewBox="0 0 499.99998 500.00001"
   id="svg5189"
   version="1.1"
   inkscape:version="0.91 r13725"
   sodipodi:docname="underWater.svg">
  <defs
     id="defs5191">
    <linearGradient
       id="linearGradient3361">
      <stop
         style="stop-color:#a2e7ee;stop-opacity:1;"
         offset="0"
         id="stop3363" />
      <stop
         style="stop-color:#56beb5;stop-opacity:1;"
         offset="1"
         id="stop3365" />
    </linearGradient>
    <inkscape:path-effect
       is_visible="true"
       id="path-effect24287-5"
       effect="spiro" />
    <inkscape:path-effect
       is_visible="true"
       id="path-effect24284-3"
       effect="spiro" />
    <inkscape:path-effect
       is_visible="true"
       id="path-effect24281-0"
       effect="spiro" />
    <inkscape:path-effect
       is_visible="true"
       id="path-effect24278-4"
       effect="spiro" />
    <inkscape:path-effect
       is_visible="true"
       id="path-effect24272-8"
       effect="spiro" />
    <inkscape:path-effect
       is_visible="true"
       id="path-effect24269-5"
       effect="spiro" />
    <inkscape:path-effect
       is_visible="true"
       id="path-effect24266-5"
       effect="spiro" />
    <inkscape:path-effect
       is_visible="true"
       id="path-effect24263-5"
       effect="spiro" />
    <inkscape:path-effect
       is_visible="true"
       id="path-effect24260-4"
       effect="spiro" />
    <inkscape:path-effect
       is_visible="true"
       id="path-effect24257-2"
       effect="spiro" />
    <inkscape:path-effect
       is_visible="true"
       id="path-effect24248-1"
       effect="spiro" />
    <inkscape:path-effect
       is_visible="true"
       id="path-effect24521-9"
       effect="spiro" />
    <inkscape:path-effect
       is_visible="true"
       id="path-effect24525-2"
       effect="spiro" />
    <inkscape:path-effect
       is_visible="true"
       id="path-effect24536-4"
       effect="spiro" />
    <inkscape:path-effect
       effect="spiro"
       id="path-effect29636-5"
       is_visible="true" />
  </defs>
  <sodipodi:namedview
     id="base"
     pagecolor="#ffffff"
     bordercolor="#666666"
     borderopacity="1.0"
     inkscape:pageopacity="0.0"
     inkscape:pageshadow="2"
     inkscape:zoom="0.98994949"
     inkscape:cx="64.201482"
     inkscape:cy="217.62119"
     inkscape:document-units="px"
     inkscape:current-layer="layer1"
     showgrid="false"
     units="px"
     inkscape:window-width="1440"
     inkscape:window-height="837"
     inkscape:window-x="-8"
     inkscape:window-y="-8"
     inkscape:window-maximized="1" />
  <metadata
     id="metadata5194">
    <rdf:RDF>
      <cc:Work
         rdf:about="">
        <dc:format>image/svg+xml</dc:format>
        <dc:type
           rdf:resource="http://purl.org/dc/dcmitype/StillImage" />
        <dc:title />
      </cc:Work>
    </rdf:RDF>
  </metadata>
  <g
     inkscape:label="Layer 1"
     inkscape:groupmode="layer"
     id="layer1"
     transform="translate(0,-552.36216)">
    <g
       id="g5594"
       transform="matrix(0.33326281,0,0,0.5181302,152.74471,453.02847)">
      <path
         style="fill:#b3ddf7"
         d="m -452.005,770.5296 0,-579 750,0 750,0 0,579 0,579 -750,0 -750,0 0,-579 z"
         id="path5610"
         inkscape:connector-curvature="0" />
      <path
         style="fill:#d3c68c"
         d="m -452.005,800.92212 0,-548.60747 10.3693,-1.6827 c 7.50965,-1.21865 19.76849,1.55073 44.45149,10.042 62.22391,21.4058 76.1044,21.08267 132.34113,-3.08082 42.40982,-18.22242 44.28404,-18.23695 91.88654,-0.71251 22.30166,8.21016 51.18635,17.29427 64.18823,20.18691 37.91937,8.43626 80.2908,3.02326 123.07881,-15.72344 25.14813,-11.01814 38.76111,-10.19121 75.1845,4.56717 41.27748,16.7252 64.86048,22.51742 93,22.84173 22.14288,0.25521 26.75229,-0.85146 59.56821,-14.30154 49.28448,-20.19996 51.40644,-20.29919 89.16651,-4.1695 40.59792,17.34192 68.69889,24.38771 88.96128,22.30537 8.6328,-0.88718 37.30323,-8.6746 63.71205,-17.30537 54.25989,-17.7329 42.84573,-18.14513 93.09195,3.36208 16.41336,7.02551 28.58664,10.00551 45,11.01591 20.38617,1.25496 25.31844,0.34274 52.5,-9.70989 44.58795,-16.49008 51.13329,-16.52709 91.84983,-0.51947 57.45372,22.58783 86.81718,25.64052 118.15017,12.28313 24.79314,-10.56941 52.44726,-19.13375 61.87119,-19.16119 4.32912,-0.0126 20.43018,5.55169 35.7801,12.36509 19.58531,8.6934 33.56651,12.84215 46.87881,13.91073 l 18.9699,1.52272 0,524.58927 0,524.58927 -750,0 -750,0 0,-548.60748 z"
         id="path5608"
         inkscape:connector-curvature="0" />
      <path
         style="fill:#c6b471"
         d="m -451.87555,1289.4811 c 0.21605,-45.2961 1.15662,-59.5267 3.82849,-57.9242 2.01657,1.2095 1.76882,-0.062 -0.57527,-2.9514 -2.68299,-3.3076 -2.94427,-5.0759 -0.75,-5.0759 1.85203,0 3.02983,-1.6875 2.61733,-3.75 -0.51854,-2.5927 2.95342,-3.524 11.25,-3.0176 16.09276,0.9822 183.60859,0.9955 195,0.015 4.95,-0.4259 14.99123,0.2508 22.31385,1.5036 9.04247,1.5471 13.99828,1.1704 15.44722,-1.174 1.28133,-2.0732 4.35109,-2.5292 7.68616,-1.1417 7.24419,3.0139 36.94473,2.978 44.24515,-0.054 3.13083,-1.3001 9.28851,-1.0064 13.68378,0.6527 4.39527,1.659 10.86444,1.9535 14.37597,0.6546 3.51153,-1.299 15.57882,-1.5477 26.81622,-0.5527 11.2374,0.9951 24.81915,1.6542 30.18165,1.4647 5.3625,-0.1896 12.7875,-0.3442 16.5,-0.3439 3.7125,2e-4 12.825,0.01 20.25,0.021 7.425,0.012 23.2704,-0.6207 35.21202,-1.4041 11.94162,-0.7833 22.37853,-0.3458 23.19312,0.9722 1.53444,2.4828 58.07844,1.4112 69.66099,-1.3201 3.6114,-0.8517 7.32987,-0.3127 8.26332,1.1976 0.93345,1.5104 14.17869,2.124 29.43387,1.3636 15.25518,-0.7604 68.91168,-1.3812 119.23668,-1.3796 50.325,0 98.925,-0.077 108,-0.1755 9.075,-0.098 19.2,-0.2019 22.5,-0.2304 3.3,-0.03 28.95,0.5763 57,1.3444 28.85622,0.7901 53.76603,0.1677 57.37053,-1.4337 4.15122,-1.8442 8.4555,-1.7142 12.35553,0.373 3.29178,1.7617 6.8226,2.3655 7.84629,1.3418 3.15111,-3.1511 62.82804,-3.3945 73.30137,-0.2991 5.43054,1.6051 12.18054,1.9472 15,0.7602 6.70596,-2.8232 156.79917,-3.5366 158.5191,-0.7535 0.72576,1.1745 4.30929,1.1421 7.96338,-0.072 5.52576,-1.8359 172.35969,-1.7007 201.6438,0.1635 4.95,0.3152 20.8608,-0.5197 35.3573,-1.8551 18.8225,-1.734 27.5587,-1.4311 30.5597,1.0595 3.3483,2.7788 4.2551,16.5539 4.4618,67.7783 l 0.2595,64.291 -750.14763,0 -750.14764,0 0.28642,-60.0485 z m 130.10613,-13.7651 c 4.13915,-1.5884 3.95791,-2.8928 -1.45892,-10.5 -7.43664,-10.4439 -13.60162,-11.1742 -15.38918,-1.8232 -2.49116,13.0317 3.52827,17.4344 16.8481,12.3232 z m 50.30577,-82.9364 c 0.82434,-5.8043 3.4805,-7.0986 18.95865,-9.238 34.14102,-4.719 31.4377,-2.5167 32,-26.0691 0.27501,-11.5186 0.6125,-23.3054 0.75,-26.1929 0.22554,-4.7365 -3.49142,-5.2541 -38,-5.2922 -34.56088,-0.038 -38.25,0.4681 -38.25,5.25 0,4.4002 2.71916,5.2922 16.13266,5.2922 10.22789,0 17.41848,1.5493 19.64568,4.2329 1.93216,2.3281 2.37631,4.9355 0.987,5.7941 -1.38931,0.8586 -18.3758,1.8779 -37.74775,2.265 -37.15873,0.7426 -49.63486,-2.7011 -32.02579,-8.8396 7.3931,-2.5773 9.23574,-4.7717 8.4773,-10.0959 -0.80684,-5.6638 -3.44105,-7.1547 -15.73321,-8.9045 -8.12026,-1.1559 -21.62026,-0.7215 -30,0.9655 -19.4321,3.9119 -76.67027,8.4194 -81.81996,6.4433 -3.19646,-1.2266 -3.91593,-81.8456 -3.91593,-438.78925 l 0,-437.2865 10.3693,-1.6827 c 7.50965,-1.21865 19.76849,1.55073 44.45149,10.042 62.22391,21.4058 76.1044,21.08267 132.34113,-3.08082 42.40982,-18.22242 44.28404,-18.23695 91.88654,-0.71251 22.30166,8.21016 51.18635,17.29427 64.18823,20.18691 37.91937,8.43626 80.2908,3.02326 123.07881,-15.72344 25.14813,-11.01814 38.76111,-10.19121 75.1845,4.56717 41.27748,16.7252 64.86048,22.51742 93,22.84173 22.14288,0.25521 26.75229,-0.85146 59.56821,-14.30154 49.28448,-20.19996 51.40644,-20.29919 89.16651,-4.1695 40.59792,17.34192 68.69889,24.38771 88.96128,22.30537 8.6328,-0.88718 37.30323,-8.6746 63.71205,-17.30537 54.25989,-17.7329 42.84573,-18.14513 93.09195,3.36208 16.41336,7.02551 28.58664,10.00551 45,11.01591 20.38617,1.25496 25.31844,0.34274 52.5,-9.70989 44.58795,-16.49008 51.13329,-16.52709 91.84983,-0.51947 57.45372,22.58783 86.81718,25.64052 118.15017,12.28313 24.79314,-10.56941 52.44726,-19.13375 61.87119,-19.16119 4.32912,-0.0126 20.43018,5.55169 35.7801,12.36509 19.58531,8.6934 33.56651,12.84215 46.87881,13.91073 l 18.9699,1.52272 0,407.48373 0,407.48371 -6.536,3.4979 c -4.83,2.585 -21.4693,2.8083 -63.74995,0.8556 -70.14231,-3.2395 -103.72911,-3.3121 -163.31427,-0.353 -47.28912,2.3484 -52.90935,3.341 -49.56438,8.7533 1.06332,1.7205 0.53346,3.9897 -1.17747,5.0427 -1.71093,1.053 -32.59638,1.9146 -68.63436,1.9146 -55.34076,0 -65.52357,-0.6783 -65.52357,-4.3648 0,-2.4006 3.36792,-5.1597 7.48425,-6.1315 4.11633,-0.9717 7.93629,-4.1141 8.48883,-6.9831 0.92673,-4.8122 -1.8612,-5.0633 -35.98425,-3.2404 -34.06692,1.8199 -48.89142,5.0506 -38.24049,8.3336 13.29618,4.0985 15.40683,5.231 13.43106,7.2068 -1.19865,1.1987 -24.67938,2.4453 -52.17939,2.7702 -27.50001,0.325 -68.90001,1.8154 -92.00001,3.3119 -26.79027,1.7357 -43.34604,1.6703 -45.71697,-0.1806 -4.8654,-3.7985 -1.96329,-8.2221 5.39403,-8.2221 3.20262,0 5.82294,-1.35 5.82294,-3 0,-1.65 -0.37293,-3 -0.82869,-3 -0.45579,0 -11.59329,1.3031 -24.75,2.8957 -13.15674,1.5927 -38.77131,3.6944 -56.92131,4.6704 -18.15,0.9761 -44.5653,4.5057 -58.70067,7.8436 -27.67071,6.5342 -32.21136,6.362 -176.79933,-6.705 -28.48515,-2.5744 -49.03899,-2.5158 -85.5,0.2436 -34.09689,2.5804 -54.83346,2.7514 -71.5923,0.5903 -15.93699,-2.0551 -32.97576,-2.0563 -52.5105,0 -23.79213,2.4999 -32.09846,2.2081 -46.85929,-1.6466 -9.86759,-2.5767 -18.84131,-3.7182 -19.94158,-2.5366 -2.24827,2.4145 1.15958,44.4043 3.81971,47.0644 0.94096,0.941 12.9528,3.6874 26.69299,6.1032 13.74017,2.4157 26.00942,6.0544 27.26495,8.0859 2.43921,3.9468 -2.63535,12.2055 -6.1608,10.0266 -1.15887,-0.7161 -15.00966,-2.6222 -30.77956,-4.2355 -21.52529,-2.2022 -37.55424,-1.8851 -64.30309,1.2724 -19.59679,2.3132 -36.73692,4.2341 -38.08918,4.2686 -1.35226,0.034 -2.02726,-2.9747 -1.5,-6.6872 z"
         id="path5606"
         inkscape:connector-curvature="0" />
      <path
         style="fill:#b9a661"
         d="m -451.38008,1330.7843 c 0.22624,-10.3151 1.86569,-19.7465 3.64322,-20.9588 2.18256,-1.4884 2.01433,-2.2189 -0.51814,-2.25 -4.5392,-0.055 -5.02012,-10.9068 -0.60433,-13.6359 2.04142,-1.2617 2.12883,-3.1668 0.24902,-5.4271 -2.1711,-2.6105 3.99179,-3.2763 24.60433,-2.6583 27.08858,0.8123 27.79339,0.6531 47.00098,-10.621 18.62935,-10.9347 19.5,-11.9603 19.5,-22.9697 0,-17.5271 6.91726,-20.2656 25.21242,-9.9813 16.80873,9.4486 21.74262,9.9376 38.96324,3.8618 21.37862,-7.5428 28.24827,1.6966 13.92115,18.7234 l -7.40318,8.7982 7.40318,6.955 c 4.07175,3.8252 7.42386,9.0821 7.44913,11.6819 0.0321,3.3038 0.73181,3.6483 2.32381,1.1441 1.25283,-1.9706 8.17807,-4.9086 15.38942,-6.5289 10.48655,-2.3562 14.00275,-2.0547 17.56301,1.5055 2.4483,2.4483 6.53195,3.6531 9.07479,2.6773 2.54283,-0.9758 5.72309,-0.041 7.06724,2.0775 1.76681,2.7845 2.45664,2.3081 2.48985,-1.7194 0.0316,-3.8394 1.52084,-5.005 4.7913,-3.75 2.60995,1.0016 5.94258,1.821 7.40585,1.821 1.46326,0 1.88342,2.025 0.93367,4.5 -1.09347,2.8495 0.0414,4.5 3.09415,4.5 2.65153,0 4.82097,-1.7736 4.82097,-3.9414 0,-2.9678 4.50617,-3.6155 18.24092,-2.622 11.29372,0.8169 20.90179,-0.1047 25.22741,-2.4196 5.80553,-3.1071 8.15957,-2.9174 13.92659,1.122 9.33819,6.5407 12.49173,6.1233 8.60508,-1.139 -2.72013,-5.0826 -2.28147,-6 2.86902,-6 3.34407,0 7.76631,2.7 9.82719,6 4.43544,7.1023 8.30379,7.8011 8.30379,1.5 0,-5.3425 6.37653,-5.9235 11.27286,-1.0271 2.62167,2.6216 4.49349,2.6257 7.63722,0.018 2.3457,-1.9468 12.17793,-3.1957 22.51407,-2.8598 10.09233,0.328 19.30059,-0.3546 20.46276,-1.5168 3.8721,-3.8721 7.20855,-2.1858 10.65894,5.387 3.99357,8.7649 9.78561,9.6649 14.4792,2.25 2.11428,-3.3402 3.85521,-4.0096 4.78566,-1.8402 2.11503,4.9312 33.02799,2.1154 43.28337,-3.9426 7.89489,-4.6637 8.93268,-4.6397 16.5969,0.382 7.42182,4.863 8.42316,4.914 10.86321,0.5539 2.23368,-3.9913 3.74739,-4.1777 8.95878,-1.103 4.98675,2.9422 6.54906,2.9319 7.629,-0.05 2.2581,-6.2353 7.6755,-4.2 5.98878,2.25 -1.15089,4.401 -0.0921,6 3.97305,6 3.04815,0 6.41037,-1.4049 7.47162,-3.122 1.06125,-1.7171 4.5159,-2.3012 7.67706,-1.2979 3.21294,1.0198 5.74752,0.4121 5.74752,-1.3779 0,-4.8177 12.74418,-3.8471 20.46135,1.5582 5.27724,3.6963 7.74408,3.9739 11.0361,1.2417 2.33184,-1.9352 5.6823,-2.6271 7.44546,-1.5374 1.76316,1.0897 2.83479,0.1935 2.38143,-1.9917 -0.52602,-2.5352 2.81904,-4.3218 9.24348,-4.9368 7.49046,-0.717 11.18199,0.627 14.4201,5.25 5.09781,7.2782 10.01208,8.1194 10.01208,1.7138 0,-2.475 1.1847,-4.5 2.63268,-4.5 1.44795,0 4.31325,2.025 6.36732,4.5 2.05407,2.475 5.63673,4.5 7.96149,4.5 2.32476,0 5.00388,-2.025 5.95362,-4.5 1.00566,-2.6207 5.4975,-4.5 10.75575,-4.5 7.24845,0 8.74785,1.0748 7.60362,5.4504 -1.33977,5.1233 -0.50559,5.2067 13.90011,1.3896 17.94117,-4.7538 36.55881,-5.7513 46.07541,-2.4686 5.17662,1.7857 6.75,1.1979 6.75,-2.5215 0,-6.6782 7.76721,-6.0827 15,1.1501 6.0606,6.0606 12,7.907 12,3.7305 0,-4.676 23.95581,-9.9652 30.14112,-6.655 3.25971,1.7446 7.599,2.8516 9.64281,2.4601 2.04384,-0.3915 6.85308,0.3504 10.68723,1.6486 4.20363,1.4234 10.61601,0.8508 16.15227,-1.4424 8.00475,-3.3157 9.67092,-3.1331 13.00377,1.4248 3.17397,4.3407 4.82004,4.6049 9.70032,1.5571 3.52311,-2.2002 8.13999,-2.7076 11.52507,-1.2668 7.84419,3.339 28.14741,4.4877 28.14741,1.5925 0,-1.3099 4.85157,-3.2918 10.78128,-4.4042 7.96215,-1.4937 11.6883,-0.8208 14.25,2.5734 2.7858,3.6912 5.83131,4.0377 15.46872,1.7603 6.6,-1.5597 17.65782,-2.8679 24.57294,-2.9073 6.91512,-0.039 13.46166,-1.5095 14.54784,-3.267 1.30224,-2.1071 3.8145,-1.5306 7.37592,1.6924 5.18544,4.6928 19.33449,4.4238 33.0033,-0.6274 9.67251,-3.5744 19.3473,-3.3759 30.99201,0.6361 9.36108,3.2251 15.48063,3.4718 26.65878,1.0745 9.55149,-2.0484 17.3676,-2.1149 22.87632,-0.1947 5.98221,2.0854 10.43544,1.8103 15.62097,-0.9649 5.27961,-2.8255 8.86038,-3.0217 13.15923,-0.7211 4.25328,2.2763 6.22584,2.2009 7.04928,-0.2694 1.78428,-5.3528 14.77311,-4.0253 16.98384,1.7357 1.69311,4.4122 2.37975,4.523 4.70601,0.759 2.18823,-3.5407 9.08649,-4.2126 35.08863,-3.4178 29.80326,0.9109 50.49675,1.1241 102.86493,1.0598 28.1718,-0.034 42.57276,0.9899 50.27151,3.5763 4.29648,1.4433 10.22166,0.5537 16.21092,-2.4342 10.92993,-5.4526 12.51642,-5.7522 10.1457,-1.9163 -2.85018,4.6117 4.29699,7.0041 9.07578,3.0381 2.4426,-2.0272 5.15106,-2.9758 6.01878,-2.1081 0.86772,0.8677 6.23409,0.5275 11.92521,-0.756 8.18133,-1.8452 11.93748,-1.0831 17.94237,3.6403 5.60148,4.4061 8.61603,5.1265 11.4858,2.7449 2.64066,-2.1916 7.11753,-2.3039 13.93179,-0.3496 7.36197,2.1114 13.53057,1.6948 23.12134,-1.5613 14.0475,-4.7693 47.3418,-6.2316 40.3005,-1.77 -3.1189,1.9762 -3.2194,3.1049 -0.4297,4.829 2.7897,1.7241 2.6892,2.8528 -0.4297,4.8291 -2.995,1.8977 -3.0796,2.5912 -0.3203,2.625 2.6834,0.033 3.75,6.8671 3.75,24.0293 l 0,23.9834 -749.89323,0.021 -749.89321,0.021 0.41136,-18.7548 z m 1222.56259,-37.0672 c -0.99687,-0.9969 -3.5844,-1.1034 -5.75001,-0.2367 -2.39319,0.9577 -1.68234,1.6685 1.81251,1.8125 3.16248,0.1302 4.93437,-0.5788 3.9375,-1.5757 z m -1089.85721,-16 c 5.059,-5.5901 4.8944,-6.1701 -4.30289,-15.1607 -11.13761,-10.8874 -15.86014,-10.4419 -18.24008,1.7207 -3.18715,16.2877 11.85166,25.2538 22.54297,13.44 z m 739.1072,6.7632 c 2.16561,-0.8666 4.75314,-0.7601 5.75001,0.2367 0.99687,0.9968 -0.77502,1.7059 -3.9375,1.5756 -3.49485,-0.144 -4.2057,-0.8548 -1.81251,-1.8124 z m -689.4375,-90.4331 c 0,-5.0765 5.22523,-7.0032 25.9691,-9.5758 10.72965,-1.3306 20.41351,-3.3211 21.51968,-4.4231 1.10617,-1.1021 2.01122,-14.3822 2.01122,-29.5112 l 0,-27.5075 -37.5,0.9697 c -20.625,0.5333 -38.55676,1.9951 -39.84835,3.2483 -1.29159,1.2533 -1.48465,4.5294 -0.42903,7.2803 1.42534,3.7144 5.65167,5.0017 16.4213,5.0017 7.97609,0 15.33779,1.3524 16.35934,3.0053 1.17595,1.9027 -5.0876,2.8367 -17.07295,2.5458 -10.41167,-0.2526 -24.61827,0.5301 -31.57022,1.7398 -15.32328,2.6662 -22.41141,-0.4671 -12.37546,-5.4706 4.48008,-2.2335 7.01537,-6.1416 7.01537,-10.814 0,-6.2634 -1.94319,-7.713 -13.5,-10.0709 -8.75314,-1.7858 -21.93887,-1.5795 -37.5,0.5869 -13.2,1.8377 -37.1625,4.2462 -53.25,5.3523 l -29.25,2.011 0,-438.05028 0,-438.05027 10.3693,-1.6827 c 7.50965,-1.21865 19.76849,1.55073 44.45149,10.042 62.22391,21.4058 76.1044,21.08267 132.34113,-3.08082 42.40982,-18.22242 44.28404,-18.23695 91.88654,-0.71251 22.30166,8.21016 51.18635,17.29427 64.18823,20.18691 37.91937,8.43626 80.2908,3.02326 123.07881,-15.72344 25.14813,-11.01814 38.76111,-10.19121 75.1845,4.56717 41.27748,16.7252 64.86048,22.51742 93,22.84173 22.14288,0.25521 26.75229,-0.85146 59.56821,-14.30154 49.28448,-20.19996 51.40644,-20.29919 89.16651,-4.1695 40.59792,17.34192 68.69889,24.38771 88.96128,22.30537 8.6328,-0.88718 37.30323,-8.6746 63.71205,-17.30537 54.25989,-17.7329 42.84573,-18.14513 93.09195,3.36208 16.41336,7.02551 28.58664,10.00551 45,11.01591 20.38617,1.25496 25.31844,0.34274 52.5,-9.70989 44.58795,-16.49008 51.13329,-16.52709 91.84983,-0.51947 57.45372,22.58783 86.81718,25.64052 118.15017,12.28313 24.79314,-10.56941 52.44726,-19.13375 61.87119,-19.16119 4.32912,-0.0126 20.43018,5.55169 35.7801,12.36509 19.59191,8.69632 33.56521,12.84204 46.88951,13.91159 l 18.9806,1.52358 -0.7607,408.33842 -0.7607,408.3384 -45,-0.027 c -24.75,-0.015 -64.575,-0.4326 -88.5,-0.9276 -23.925,-0.495 -67.8,0.4977 -97.5,2.206 -29.7,1.7083 -55.6875,3.1382 -57.75,3.1776 -5.49885,0.105 -4.58784,6.0716 0.92706,6.0716 2.57238,0 3.90159,1.2547 2.95383,2.7882 -0.94776,1.5335 -15.53994,3.0307 -32.42706,3.3271 -16.88709,0.2964 -36.10383,0.6823 -42.70383,0.8577 -33.2931,0.8848 -55.96782,-1.0706 -54.76503,-4.723 0.67926,-2.0625 4.16676,-4.1814 7.75002,-4.7086 7.13769,-1.0503 9.11319,-10.9024 2.68101,-13.3707 -2.1087,-0.8091 -11.8962,-0.1995 -21.75,1.3552 -9.8538,1.5545 -22.22268,2.0261 -27.48636,1.048 -19.83018,-3.6848 -33.04629,5.5948 -18.17964,12.7647 5.2101,2.5127 -3.51609,3.3522 -38.25,3.6797 -24.75,0.2334 -65.925,1.4909 -91.5,2.7946 -25.575,1.3037 -47.76561,1.221 -49.3125,-0.1839 -1.63296,-1.4829 1.19796,-3.3562 6.75,-4.4666 5.25939,-1.0519 9.5625,-3.2875 9.5625,-4.9679 0,-1.9956 -9.24225,-2.3578 -26.64318,-1.0442 -14.65377,1.1062 -44.15415,3.2628 -65.55642,4.7924 -21.4023,1.5296 -44.85036,4.8486 -52.10682,7.3755 -18.11685,6.3088 -37.11726,5.8812 -135.24996,-3.0437 -83.49951,-7.5941 -85.80165,-7.6454 -135.41394,-3.0124 -37.43265,3.4956 -52.06842,3.8578 -56.65677,1.4022 -4.23885,-2.2686 -20.93361,-2.674 -53.02968,-1.2879 -36.98094,1.597 -49.81,1.1053 -60.93458,-2.3354 -7.75024,-2.3971 -14.83774,-3.612 -15.75,-2.6997 -2.18995,2.1899 -2.06475,29.3043 0.19848,42.9871 l 1.79111,10.8285 24.28931,3.4349 c 24.93444,3.5262 32.65497,7.0156 27.32211,12.3484 -1.92042,1.9205 -7.07136,1.7887 -14.85,-0.3797 -11.7924,-3.2874 -87.33741,-1.6904 -108.65967,2.2971 -5.98859,1.1199 -9.75,0.6029 -9.75,-1.3401 z M 738.7232,956.06739 c 43.79754,-6.3153 114.2718,-46.33839 114.2718,-64.89624 0,-11.01975 -5.66064,-10.40118 -24.81648,2.71182 -10.27593,7.03431 -24.35703,16.63494 -31.29132,21.33471 -6.93429,4.69977 -30.55929,17.30196 -52.5,28.00482 -21.94071,10.70286 -37.31451,18.71022 -34.164,17.79408 3.15051,-0.91611 15.97551,-3.14328 28.5,-4.94919 z"
         id="path5604"
         inkscape:connector-curvature="0" />
      <path
         style="fill:#499a9a"
         d="m -345.4235,1306.7796 c -0.67662,-2.0625 -1.65889,-6.45 -2.18283,-9.75 -0.77191,-4.8617 -3.65091,-6.1735 -15.17565,-6.9144 -16.69183,-1.0731 -18.97988,-6.8873 -4.99063,-12.6819 12.49897,-5.1772 18.79835,-15.3813 16.35712,-26.4962 -1.19513,-5.4414 -0.60444,-9.6622 1.53745,-10.986 4.42148,-2.7326 17.53442,9.9432 13.37304,12.9273 -1.65,1.1831 -4.68644,6.8466 -6.74765,12.5854 -3.42078,9.5241 -3.15383,11.028 3.06072,17.2425 6.77084,6.7709 6.8659,6.7776 17.24765,1.2293 12.16146,-6.4994 15.4248,-16.7947 6.09669,-19.2341 -9.18369,-2.4016 -7.43519,-8.1719 2.47622,-8.1719 4.74849,0 13.48013,-2.025 19.40364,-4.5 5.92351,-2.475 12.16338,-4.5 13.86637,-4.5 5.55262,0 3.2636,7.797 -4.40364,15 -4.125,3.8753 -7.5,8.766 -7.5,10.8684 0,2.1023 3.375,7.4642 7.5,11.9151 14.33232,15.4648 8.32539,20.579 -12,10.2165 -15.48773,-7.8961 -16.40944,-7.7569 -29.79083,4.5 -12.27316,11.2418 -16.17724,12.6955 -18.12767,6.75 z m 126.01443,-124.5 c 1.23082,-2.8875 2.87648,-16.7717 3.65702,-30.8538 1.08911,-19.6489 0.44062,-26.4158 -2.78829,-29.0956 -2.97723,-2.4709 -15.35604,-2.9651 -42.33606,-1.6903 l -38.1286,1.8016 0,9.8419 c 0,7.1924 -1.60802,10.3523 -5.97315,11.7377 -7.51213,2.3842 -12.93897,-0.7874 -10.81553,-6.321 0.8912,-2.3224 0.39592,-7.4431 -1.10063,-11.3794 -3.83861,-10.0963 -29.11396,-12.7393 -61.61069,-6.4425 -13.2,2.5577 -35.1375,4.6506 -48.75,4.6509 l -24.75,5e-4 0,-436.10748 0,-436.10747 10.3693,-1.6827 c 7.50965,-1.21865 19.76849,1.55073 44.45149,10.042 62.22391,21.4058 76.1044,21.08267 132.34113,-3.08082 42.40982,-18.22242 44.28404,-18.23695 91.88654,-0.71251 22.30166,8.21016 51.18635,17.29427 64.18823,20.18691 37.91937,8.43626 80.2908,3.02326 123.07881,-15.72344 25.14813,-11.01814 38.76111,-10.19121 75.1845,4.56717 41.27748,16.7252 64.86048,22.51742 93,22.84173 22.14288,0.25521 26.75229,-0.85146 59.56821,-14.30154 49.28448,-20.19996 51.40644,-20.29919 89.16651,-4.1695 40.59792,17.34192 68.69889,24.38771 88.96128,22.30537 8.6328,-0.88718 37.30323,-8.6746 63.71205,-17.30537 54.25989,-17.7329 42.84573,-18.14513 93.09195,3.36208 16.41336,7.02551 28.58664,10.00551 45,11.01591 20.38617,1.25496 25.31844,0.34274 52.5,-9.70989 44.58795,-16.49008 51.13329,-16.52709 91.84983,-0.51947 57.45372,22.58783 86.81718,25.64052 118.15017,12.28313 24.79314,-10.56941 52.44726,-19.13375 61.87119,-19.16119 4.32912,-0.0126 20.43018,5.55169 35.7801,12.36509 19.58531,8.6934 33.56651,12.84215 46.87881,13.91073 l 18.9699,1.52272 0,407.19675 0,407.19679 -11.25,1.847 c -6.1875,1.0159 -37.13886,0.3099 -68.78076,-1.5688 -43.46052,-2.5805 -76.84425,-2.5528 -136.5,0.1134 -74.96226,3.3501 -79.21614,3.8539 -83.83536,9.9296 -3.00501,3.9525 -6.70545,5.6947 -9.67524,4.555 -2.64501,-1.0149 -15.81852,-0.5897 -29.27448,0.945 -13.45593,1.5346 -32.38959,1.962 -42.07476,0.9497 l -17.6094,-1.8406 0,-10.1266 0,-10.1266 -39.2898,1.556 c -21.60939,0.8558 -40.50939,2.3098 -42,3.231 -1.49061,0.9213 -2.7102,4.0854 -2.7102,7.0315 0,4.9306 -5.59614,5.5221 -70.38369,7.4393 -69.20658,2.0479 -70.49061,1.9758 -76.77669,-4.3103 -5.6988,-5.6988 -8.56185,-6.1884 -26.36631,-4.5091 -10.98531,1.0361 -38.87331,3.1348 -61.97331,4.6636 -23.1,1.5289 -50.1,4.9536 -60,7.6105 -22.42227,6.0174 -55.54299,5.9493 -114,-0.2346 -65.50599,-6.9297 -131.80029,-8.6663 -169.96065,-4.4523 -25.78872,2.8478 -35.71458,2.823 -47.18865,-0.1176 -10.81179,-2.771 -23.27277,-3.0004 -48.69057,-0.8962 -18.78807,1.5553 -39.56013,1.9309 -46.16013,0.8347 -6.6,-1.0962 -17.7375,-3.0084 -24.75,-4.2492 l -12.75,-2.2561 0.0261,13.1334 c 0.055,27.6838 3.61422,45.3626 9.43948,46.8859 12.41535,3.2467 4.22481,6.7475 -15.78652,6.7475 -19.1582,0 -21.09396,-0.5325 -19.08311,-5.25 z m 738.75961,-80.7901 c 12.25209,-7.582 15.64446,-13.0053 15.64446,-25.0104 0,-11.0714 -5.1969,-17.8087 -20.20929,-26.1995 -13.97529,-7.8112 -41.9892,-1.4587 -48.67728,11.0381 -6.50298,12.1509 3.05625,39.2119 13.85154,39.2119 5.11806,0 5.06073,-1.3145 -0.52863,-12.1231 -9.00219,-17.4083 3.63573,-34.1147 24.43305,-32.2986 13.94787,1.2179 20.83581,11.8916 17.8713,27.6939 -1.76724,9.42 -4.07748,12.0798 -14.66913,16.8885 -11.58534,5.2598 -11.91606,5.7127 -4.21602,5.7734 4.59555,0.036 12.02055,-2.2021 16.5,-4.9742 z M 403.961,1051.3043 c 49.94355,-5.8219 92.17569,-12.0863 120.534,-17.8791 11.55,-2.3593 29.1,-5.9567 39,-7.9942 9.9,-2.0375 30.15,-7.4675 45,-12.0668 14.85,-4.5992 37.8,-11.3179 51,-14.9303 68.99865,-18.88302 153.47727,-56.59644 182.66736,-81.54735 13.28904,-11.35911 13.83264,-12.46305 13.83264,-28.09038 0,-8.9466 -1.10013,-16.26657 -2.44473,-16.26657 -1.3446,0 -18.5571,10.80573 -38.25,24.01272 -78.03825,52.33614 -208.191,96.28095 -355.30527,119.96528 -32.175,5.18 -60.9174,10.7247 -63.87204,12.3217 -2.95461,1.597 -6.53328,2.1859 -7.95258,1.3087 -2.6328,-1.6272 -58.46943,8.9832 -63.44001,12.0552 -4.83675,2.9892 -2.94135,7.0297 5.51463,11.7555 8.8677,4.956 8.36001,4.9742 73.716,-2.6444 z m 344.00088,-9.2576 c 12.4497,-6.438 18.03312,-15.9808 18.03312,-30.821 0,-24.16294 -19.28568,-34.29553 -42.0468,-22.09114 -7.6695,4.11234 -11.32677,8.70603 -13.73358,17.25004 -3.88662,13.797 -2.12211,21.9592 7.01055,32.4292 7.67913,8.8038 17.88759,9.8775 30.73671,3.2329 z m -24.00954,-9.9484 c -18.7395,-15.1743 5.59506,-45.41474 25.86033,-32.13644 9.06993,5.94284 9.48888,18.82624 0.96459,29.66314 -7.27785,9.2523 -17.31081,10.1774 -26.82492,2.4733 z"
         id="path5602"
         inkscape:connector-curvature="0"
         sodipodi:nodetypes="sssssccssssssssssssscssscsssssscccsssssssssssssssssssscccsssscsscccscsssssssscssscsssccssssssssscssssssssssssscssssssssssss" />
      <path
         style="fill:#48768a"
         d="m -345.4235,1306.7796 c -0.67662,-2.0625 -1.65889,-6.45 -2.18283,-9.75 -0.77191,-4.8617 -3.65091,-6.1735 -15.17565,-6.9144 -16.69183,-1.0731 -18.97988,-6.8873 -4.99063,-12.6819 12.49897,-5.1772 18.79835,-15.3813 16.35712,-26.4962 -1.19513,-5.4414 -0.60444,-9.6622 1.53745,-10.986 4.42148,-2.7326 17.53442,9.9432 13.37304,12.9273 -1.65,1.1831 -4.68644,6.8466 -6.74765,12.5854 -3.42078,9.5241 -3.15383,11.028 3.06072,17.2425 6.77084,6.7709 6.8659,6.7776 17.24765,1.2293 12.16146,-6.4994 15.4248,-16.7947 6.09669,-19.2341 -9.18369,-2.4016 -7.43519,-8.1719 2.47622,-8.1719 4.74849,0 13.48013,-2.025 19.40364,-4.5 5.92351,-2.475 12.16338,-4.5 13.86637,-4.5 5.55262,0 3.2636,7.797 -4.40364,15 -4.125,3.8753 -7.5,8.766 -7.5,10.8684 0,2.1023 3.375,7.4642 7.5,11.9151 14.33232,15.4648 8.32539,20.579 -12,10.2165 -15.48773,-7.8961 -16.40944,-7.7569 -29.79083,4.5 -12.27316,11.2418 -16.17724,12.6955 -18.12767,6.75 z m 126.01443,-124.5 c 1.23082,-2.8875 2.87648,-16.7717 3.65702,-30.8538 1.08911,-19.6489 0.44062,-26.4158 -2.78829,-29.0956 -2.97723,-2.4709 -15.35604,-2.9651 -42.33606,-1.6903 l -38.1286,1.8016 0,9.8419 c 0,7.1924 -1.60802,10.3523 -5.97315,11.7377 -7.51213,2.3842 -12.93897,-0.7874 -10.81553,-6.321 0.8912,-2.3224 0.39592,-7.4431 -1.10063,-11.3794 -3.83861,-10.0963 -29.11396,-12.7393 -61.61069,-6.4425 -13.2,2.5577 -35.1375,4.6506 -48.75,4.6509 l -24.75,5e-4 0,-172.25001 c 0,-134.86665 0.81386,-172.62978 3.75,-174 3,-1.39998 3,-2.1 0,-3.49998 -2.0625,-0.96252 -3.75,-3.43548 -3.75,-5.49552 0,-2.82237 8.68784,-3.56793 35.25,-3.02505 19.3875,0.39627 36.9375,0.84426 39,0.99552 2.09131,0.1533 3.91181,4.58766 4.11583,10.02504 0.24207,6.45162 1.31852,3.66066 3.182,-8.25 4.3506,-27.80751 1.21018,-58.63092 -8.02033,-78.72012 -10.06811,-21.91212 -13.519,-45.77988 -6.61903,-45.77988 6.17926,0 31.20199,51.49053 35.15672,72.34377 1.61415,8.51133 2.93481,23.92146 2.93481,34.24473 0,14.38998 1.11318,19.19673 4.77073,20.60028 2.6239,1.00686 6.3364,0.81381 8.25,-0.42906 1.9136,-1.24284 10.22927,-2.48766 18.47927,-2.76621 8.25,-0.2787 18.7125,-1.44846 23.25,-2.59974 7.22561,-1.83333 8.28385,-1.21167 8.5226,5.00649 0.14991,3.90486 2.24137,-0.32526 4.64767,-9.40026 7.49588,-28.26969 34.48295,-108.9681 40.19737,-120.2007 7.80263,-15.33726 13.59035,-19.60623 19.70328,-14.53296 6.80361,5.64651 4.01848,21.37269 -10.65893,60.18537 -15.78922,41.7528 -21.26318,63.40512 -20.71249,81.92859 0.25854,8.69637 0.98043,11.61483 1.69926,6.8697 0.68738,-4.5375 2.8476,-8.33925 4.80051,-8.4483 31.65939,-1.76817 61.18434,-1.66119 63.55073,0.2304 1.65,1.31886 5.7,2.86371 9,3.43299 3.3,0.56928 6.99183,2.38506 8.20406,4.03506 1.21223,1.65 2.22473,-2.82624 2.25,-9.94722 0.0587,-16.52958 4.39964,-24.55293 13.28416,-24.55293 8.45385,0 12.49818,4.44297 17.68692,19.43028 3.49497,10.09497 5.09361,11.37153 14.99346,11.97258 10.67175,0.64791 11.0814,0.3069 11.0814,-9.22389 0,-18.40278 11.40483,-32.60913 21.27927,-26.50638 5.05887,3.12657 11.69457,20.91261 11.9316,31.98105 0.1305,6.08766 0.98925,8.10069 2.25,5.27337 1.95879,-4.39281 17.07462,-7.38156 33.53913,-6.63147 4.125,0.1878 30.45,0.33543 58.5,0.32784 28.05,-0.009 61.8,0.2595 75,0.59361 13.2,0.33408 27.375,0.56103 31.5,0.50427 41.11419,-0.56559 151.73451,-0.47754 174.99237,0.1392 16.22079,0.4302 30.14319,-0.2709 30.93867,-1.55799 0.79548,-1.28709 9.7989,-1.54998 20.00763,-0.58422 34.97877,3.30909 165.2991,2.06838 166.51698,-1.58532 0.73476,-2.20425 2.3349,-2.38167 4.59126,-0.50904 2.86155,2.37486 57.60702,4.41969 85.95309,3.21048 4.125,-0.1761 16.95,-0.0654 28.5,0.246 11.55,0.31122 41.33331,0.1836 66.18513,-0.2835 24.85182,-0.4671 46.76637,0.1281 48.69897,1.3224 4.24338,2.62254 24.01956,-0.72741 26.32608,-4.45944 2.39721,-3.87879 10.12662,-3.2517 14.55954,1.18122 2.88693,2.88693 16.06218,3.61689 53.03571,2.93835 27.05703,-0.49653 54.59457,-0.56271 61.19457,-0.147 22.7796,1.4346 49.95426,-0.2748 53.69268,-3.37737 2.61495,-2.1702 4.80885,-2.05353 7.24782,0.38544 2.33715,2.33715 15.42279,3.3246 39.4375,2.97594 l 35.9399,-0.52176 0.1335,173.55324 0.1335,173.55321 -11.2925,1.854 c -6.2109,1.0197 -37.18132,0.3168 -68.82322,-1.562 -301.59986,-18.1238 -519.54024,47.21 -812.46918,16.8767 -65.50599,-6.9296 -131.80029,-8.6663 -169.96065,-4.4523 -25.78872,2.8478 -35.71458,2.8231 -47.18865,-0.1176 -10.81179,-2.771 -23.27277,-3.0003 -48.69057,-0.8962 -18.78807,1.5553 -39.56013,1.931 -46.16013,0.8347 -6.6,-1.0962 -17.7375,-3.0083 -24.75,-4.2492 l -12.75,-2.2561 0.0261,13.1334 c 0.055,27.6838 3.61422,45.3626 9.43948,46.886 12.41535,3.2466 4.22481,6.7475 -15.78652,6.7475 -19.1582,0 -21.09396,-0.5326 -19.08311,-5.25 z m 1072.95934,-309.75 c -569.03352,119.88837 -284.51676,59.94419 0,0 z"
         id="path5600"
         inkscape:connector-curvature="0"
         sodipodi:nodetypes="sssssccssssssssssssscssscsssssscsccsscsssssscscssssssssscsssssssscsccsssssssccscssssssscccsccssscscscscccc" />
      <path
         style="fill:#4a994d"
         d="m -345.34859,1306.7796 c -4.32802,-14.0486 -4.68395,-20.7601 -1.03726,-19.5586 2.13447,0.7032 4.31224,4.2103 4.8395,7.7936 1.24515,8.462 5.14506,8.2233 16.08846,-0.985 10.05432,-8.4601 12.63012,-8.8691 26.15836,-4.1531 13.24725,4.618 15.59872,0.586 4.79453,-8.2211 l -9,-7.3363 8.25,-6.145 c 9.33045,-6.9497 10.8632,-14.5396 3,-14.8554 -4.48932,-0.1803 -4.38064,-0.5844 0.75,-2.7891 14.97094,-6.4332 18.3748,0.3745 6,12 -4.125,3.8752 -7.5,8.766 -7.5,10.8684 0,2.1023 3.375,7.4642 7.5,11.9151 14.33232,15.4648 8.32539,20.579 -12,10.2165 -15.48773,-7.8961 -16.40944,-7.7569 -29.79083,4.5 -12.26175,11.2313 -16.21661,12.7101 -18.05276,6.75 z m -31.65641,-21.429 c 0,-2.2985 2.025,-4.9561 4.5,-5.9059 2.67498,-1.0265 4.5,-0.03 4.5,2.4591 0,2.3022 2.3625,4.8033 5.25,5.5578 2.8875,0.7546 0.8625,1.5286 -4.5,1.72 -6.5004,0.2319 -9.75,-1.0448 -9.75,-3.831 z m 25.17903,-21.5664 c 1.00154,-2.6099 1.86202,-6.3224 1.9122,-8.25 0.0502,-1.9275 1.47323,-1.1314 3.16236,1.7692 3.28062,5.6334 1.41161,11.2262 -3.75161,11.2262 -1.72915,0 -2.32448,-2.1354 -1.32295,-4.7454 z m 33.23999,-4.3856 c -0.97521,-1.578 1.00655,-2.869 4.40393,-2.869 7.24369,0 7.97446,1.6683 1.77313,4.048 -2.42216,0.9295 -5.20184,0.3989 -6.17706,-1.179 z m -34.41902,-13.6079 c 0,-6.3395 6.22538,-8.3214 11.03397,-3.5128 3.94427,3.9442 3.56524,4.6288 -3.28789,5.9389 -5.12082,0.9789 -7.74608,0.1566 -7.74608,-2.4261 z m 134.19284,-66.5111 c 1.26894,-4.5375 2.11757,-22.425 1.88586,-39.75 -0.37586,-28.1027 -1.60447,-34.7898 -11.39179,-62.0033 -13.76469,-38.2726 -16.01351,-51.0107 -19.50726,-110.4967 -2.1926,-37.33209 -4.60241,-54.00069 -10.84284,-75 -16.76629,-56.41917 -17.031,-58.07874 -15.55218,-97.5 1.30028,-34.66215 2.57154,-41.24595 16.79861,-87 18.48907,-59.46054 26.7242,-78.60261 33.23165,-77.24481 7.65141,1.59645 4.55227,16.29393 -13.55559,64.28649 -14.40714,38.18427 -17.19609,48.99312 -19.7627,76.59228 -2.97379,31.97766 -2.92978,32.37216 9.04838,81.10095 6.77506,27.56193 12.84712,60.72546 13.89065,75.86604 2.41259,35.00439 4.24357,46.39905 7.45572,46.39905 1.44071,0 5.5153,-8.70198 9.05464,-19.33773 7.05503,-21.20031 15.99156,-34.66227 23.01011,-34.66227 6.08541,0 3.0628,13.59219 -8.46191,38.05185 -10.14832,21.53844 -15.1528,56.27635 -11.17489,77.56915 1.43825,7.6985 6.05426,24.8845 10.25781,38.1911 5.19873,16.4569 8.58942,36.6326 10.60291,63.0907 3.15552,41.4647 3.78218,44.0972 10.49703,44.0972 2.37762,0 4.32295,1.35 4.32295,3 0,1.7151 -9.01905,3 -21.05716,3 l -21.05715,0 z m -95.57968,-34.5 c -1.28309,-2.4876 -2.38605,-22.0208 -2.41392,-42.75 -0.0505,-37.5649 -4.86241,-49.3934 -47.59616,-117 -6.20208,-9.81195 -10.99516,-22.9698 -13.85806,-38.04279 -4.42251,-23.28435 -7.98141,-31.6353 -21.37258,-50.15085 -7.94599,-10.98669 -9.68993,-21.30636 -3.60059,-21.30636 2.07451,0 7.43773,5.7375 11.91827,12.75 4.48054,7.0125 10.91377,16.15038 14.29606,20.3064 4.26661,5.24262 6.95646,14.751 8.78465,31.05291 1.44927,12.9231 4.17493,25.03644 6.05702,26.91855 10.72053,10.72053 12.41893,-32.93472 2.60025,-66.83649 -7.05501,-24.35949 -7.71199,-41.64354 -5.19841,-136.76277 l 1.27031,-48.07143 -9.91318,-21.52188 c -10.47633,-22.7445 -15.37878,-42.83529 -10.45243,-42.83529 4.07895,0 25.32373,46.17 28.13585,61.14594 1.27588,6.79473 1.05081,41.76534 -0.50017,77.71242 -2.7677,64.14705 -2.6805,65.96397 4.70498,98.03331 5.7009,24.7545 7.52495,41.03076 7.52495,67.14627 0,36.90699 1.25511,43.96206 7.82097,43.96206 2.8791,0 4.17903,-3.75192 4.17903,-12.06168 0,-8.08224 4.20653,-20.70183 12.75,-38.25 12.66428,-26.01225 12.75707,-26.44548 13.80127,-64.43832 0.5782,-21.0375 2.06761,-38.25 3.30979,-38.25 2.65171,0 7.2609,39.08901 7.4838,63.46758 0.13245,14.48499 -1.93296,21.06912 -14.11615,45 -7.84922,15.41784 -15.06963,32.24073 -16.04536,37.38423 -2.43751,12.84909 3.80069,40.76439 12.51553,56.00579 4.93628,8.6329 7.24031,17.3502 7.26499,27.4867 0.0198,8.1644 1.66861,26.1351 3.66387,39.935 3.10552,21.4789 2.99756,25.4893 -0.75,27.8597 -4.06694,2.5725 -11.37752,3.8308 -12.26458,2.111 z M 785.17091,850.37415 c -523.44728,134.65867 -261.72364,67.32934 0,0 z m -912.65736,258.05955 c -5.45298,-29.5944 -4.24995,-51.9666 4.54593,-84.5396 6.03765,-22.3587 8.08413,-37.02742 8.1426,-58.3645 0.0798,-29.09799 -1.46865,-37.36422 -23.60133,-126 -17.71827,-70.9572 -19.88798,-93 -9.15414,-93 6.39027,0 8.93757,6.35787 22.31502,55.6968 6.68121,24.64176 17.00784,61.0032 22.94802,80.8032 10.12344,33.7437 10.68969,37.78623 9.03456,64.5 -0.97119,15.675 -2.60442,33.73077 -3.62937,40.12395 -1.40646,8.77272 -0.91224,11.30685 2.01486,10.33116 6.07737,-2.02581 11.27154,-20.82345 14.9856,-54.23256 4.05636,-36.48801 2.21634,-56.83584 -8.29815,-91.76532 -6.61791,-21.98499 -7.85256,-32.01462 -8.0679,-65.54013 -0.2766,-43.08618 2.40366,-52.06152 12.51717,-41.91363 4.51233,4.52766 5.1018,10.2636 4.30308,41.87142 -0.85983,34.02591 -0.1515,39.60576 9.98082,78.62511 10.03926,38.66082 10.81086,44.62365 9.70524,75 -1.08897,29.91834 -2.2542,35.52135 -12.47778,60 -24.29853,58.1786 -28.69989,73.4042 -28.74264,99.429 -0.0426,25.9545 -1.26912,28.071 -16.26696,28.071 -5.90742,0 -7.16892,-2.3491 -10.25463,-19.0959 z"
         id="path5598"
         inkscape:connector-curvature="0"
         sodipodi:nodetypes="scsssscsssssssssscsccsccssccsscsssssssssssssssssssssssssscssssssssssssscssssssssssssssssscsccsssssssssssssssssssss" />
      <path
         style="fill:#5a5436"
         d="m -345.34859,1306.7796 c -4.32802,-14.0486 -4.68395,-20.7601 -1.03726,-19.5586 2.13447,0.7032 4.31224,4.2103 4.8395,7.7936 1.24515,8.462 5.14506,8.2233 16.08846,-0.985 10.05432,-8.4601 12.63012,-8.8691 26.15836,-4.1531 13.24725,4.618 15.59872,0.586 4.79453,-8.2211 l -9,-7.3363 8.25,-6.145 c 9.33045,-6.9497 10.8632,-14.5396 3,-14.8554 -4.48932,-0.1803 -4.38064,-0.5844 0.75,-2.7891 14.97094,-6.4332 18.3748,0.3745 6,12 -4.125,3.8752 -7.5,8.766 -7.5,10.8684 0,2.1023 3.375,7.4642 7.5,11.9151 14.33232,15.4648 8.32539,20.579 -12,10.2165 -15.48773,-7.8961 -16.40944,-7.7569 -29.79083,4.5 -12.26175,11.2313 -16.21661,12.7101 -18.05276,6.75 z m -31.65641,-21.429 c 0,-2.2985 2.025,-4.9561 4.5,-5.9059 2.67498,-1.0265 4.5,-0.03 4.5,2.4591 0,2.3022 2.3625,4.8033 5.25,5.5578 2.8875,0.7546 0.8625,1.5286 -4.5,1.72 -6.5004,0.2319 -9.75,-1.0448 -9.75,-3.831 z m 25.17903,-21.5664 c 1.00154,-2.6099 1.86202,-6.3224 1.9122,-8.25 0.0502,-1.9275 1.47323,-1.1314 3.16236,1.7692 3.28062,5.6334 1.41161,11.2262 -3.75161,11.2262 -1.72915,0 -2.32448,-2.1354 -1.32295,-4.7454 z m 33.23999,-4.3856 c -0.97521,-1.578 1.00655,-2.869 4.40393,-2.869 7.24369,0 7.97446,1.6683 1.77313,4.048 -2.42216,0.9295 -5.20184,0.3989 -6.17706,-1.179 z m -34.41902,-13.6079 c 0,-6.3395 6.22538,-8.3214 11.03397,-3.5128 3.94427,3.9442 3.56524,4.6288 -3.28789,5.9389 -5.12082,0.9789 -7.74608,0.1566 -7.74608,-2.4261 z M -64.76815,972.77961 c 0.144,-3.49485 0.85482,-4.2057 1.81248,-1.81251 0.86661,2.16561 0.76005,4.75314 -0.2367,5.75001 -0.9969,0.99687 -1.70592,-0.77502 -1.57566,-3.9375 z M -61.309,953.5296 c 0,-5.775 0.6174,-8.1375 1.37199,-5.25 0.75456,2.8875 0.75456,7.6125 0,10.5 -0.75459,2.8875 -1.37199,0.525 -1.37199,-5.25 z m -140.14036,-5.09592 c 4.49617,-10.76082 7.44436,-15.62031 7.44436,-12.27045 0,3.23634 -9.11507,23.36637 -10.58052,23.36637 -0.825,0 0.58627,-4.99317 3.13616,-11.09592 z"
         id="path5596"
         inkscape:connector-curvature="0"
         sodipodi:nodetypes="scsssscsssssssssscsccsccssccsscsssscscccssssssss" />
    </g>
    <path
       style="fill:#499a9a;fill-opacity:1;stroke:#499a9a;stroke-width:0.83920169;stroke-opacity:1"
       d="m 224.55502,1041.8648 c -4.6254,-0.4735 -15.52453,-1.9126 -24.2203,-3.198 -12.5644,-1.8572 -19.47093,-2.2893 -33.63929,-2.1049 -36.6444,0.477 -48.53581,0.1057 -47.9007,-1.4957 0.22554,-0.5687 0.62926,-6.6923 0.89714,-13.6081 0.56123,-14.4885 1.4593,-19.5693 7.71266,-43.63328 5.2787,-20.31336 6.11456,-26.59839 5.89268,-44.30912 -0.15115,-12.06562 -0.49248,-15.56601 -3.01111,-30.88005 -2.78126,-16.91098 -2.84878,-17.7361 -3.23102,-39.48817 -0.36846,-20.96741 -0.47235,-22.34371 -1.84815,-24.48311 -3.57476,-5.55884 -4.60263,1.23107 -4.10273,27.10185 0.29003,15.00997 0.54564,17.74595 2.90652,31.11213 2.47703,14.02365 2.58768,15.33132 2.5687,30.35666 -0.0205,16.22703 -1.28445,31.1434 -3.26346,38.51277 -1.69658,6.31771 -2.62992,4.91398 -2.11699,-3.18391 0.24616,-3.88618 0.61928,-13.18944 0.82917,-20.67392 l 0.38159,-13.60816 -7.37204,-40.37875 c -4.05462,-22.20832 -7.90012,-42.11023 -8.54556,-44.22651 -1.39008,-4.55779 -3.3743,-5.09724 -4.50808,-1.22562 -1.06164,3.62529 0.50029,17.8995 5.21107,47.62336 7.06983,44.60882 7.23718,46.05896 7.24816,62.80687 0.009,13.82212 -0.19445,16.44101 -2.27761,29.30986 -2.08055,12.85279 -2.2835,15.4577 -2.24275,28.7865 0.0297,9.7104 0.38503,16.4907 1.0532,20.0961 l 1.00841,5.4412 -3.4245,0.658 c -2.15854,0.4147 -6.40908,-0.096 -11.497943,-1.381 -4.440385,-1.1215 -8.240381,-1.6344 -8.444432,-1.1398 -0.204052,0.4946 -0.734101,-3.0082 -1.1779,-7.7839 -0.443788,-4.7756 -1.93828,-14.7797 -3.321099,-22.2312 -2.19696,-11.83873 -2.513055,-14.93508 -2.505123,-24.53946 0.01069,-12.96709 0.894218,-19.30385 4.407351,-31.61081 2.932285,-10.27214 3.67954,-17.80426 1.825465,-18.40009 -1.676968,-0.53889 -4.834834,6.84966 -7.338142,17.16929 -1.996387,8.22988 -2.948249,10.69822 -3.684056,9.5534 -0.165674,-0.25778 -0.755304,-7.25296 -1.310286,-15.54484 -1.195123,-17.85623 -2.726409,-31.38086 -5.989063,-52.89666 -4.37074,-28.82316 -3.32784,-42.25018 6.534484,-84.1295 1.288024,-5.46944 2.731688,-12.67419 3.208155,-16.01059 0.754199,-5.2812 0.731734,-6.27554 -0.173627,-7.68417 -0.938037,-1.45949 -1.173184,-1.39546 -2.400124,0.6536 -1.729348,2.88809 -5.134551,16.74038 -9.523884,38.74288 -4.851415,24.31881 -5.621818,32.22228 -5.253764,53.89786 0.292445,17.22291 0.39467,18.28704 3.118348,32.46158 3.488491,18.15475 4.512607,27.57852 5.460351,50.24548 1.029747,24.62801 2.200651,35.00642 6.01292,53.29593 1.810379,8.6854 3.48135,17.6758 3.713267,19.9787 l 0.421665,4.1872 -8.946295,-0.3128 c -4.920458,-0.1721 -11.111391,0.091 -13.757625,0.5835 l -4.811334,0.8964 -0.754465,-12.0982 c -0.414953,-6.654 -0.902576,-14.207 -1.083607,-16.7846 -0.18103,-2.5775 -1.209295,-7.6129 -2.28504,-11.18954 -2.621739,-8.71692 -4.329699,-20.06527 -3.948046,-26.23229 0.201329,-3.25326 1.909853,-10.27729 4.896401,-20.12989 5.315509,-17.53586 5.746313,-21.51869 4.439813,-41.04651 -1.511075,-22.58559 -2.436209,-21.66076 -3.13659,3.13555 -0.520068,18.41252 -0.978912,21.38964 -5.958658,38.66148 -1.411518,4.89575 -2.658324,11.13953 -2.87416,14.39324 -0.307483,4.63537 -0.617297,5.7466 -1.602156,5.7466 -1.572684,0 -1.798984,-2.40669 -2.214653,-23.55257 -0.256926,-13.07014 -0.790186,-20.31193 -2.428061,-32.97361 l -2.098825,-16.22511 0.474513,-37.69094 0.474508,-37.69094 -2.530072,-9.9376 c -2.65421,-10.42517 -5.992539,-20.39894 -7.22415,-21.58325 -1.683376,-1.61873 0.09117,10.28968 3.300585,22.14911 l 3.389723,12.52573 -0.586602,30.88005 c -0.690955,36.37356 -0.342342,48.97566 1.766394,63.85364 2.032079,14.33713 2.574109,22.01269 2.007299,28.42482 -0.415069,4.69555 -1.717572,7.437 -2.761629,5.81258 -0.19973,-0.31076 -0.918217,-5.66829 -1.596635,-11.9056 -1.554501,-14.2919 -1.725093,-14.94508 -6.768216,-25.91478 -2.777567,-6.04172 -4.538121,-8.96081 -5.262752,-8.72592 -1.880163,0.60944 -1.044426,5.16687 2.56582,13.99195 2.826387,6.90896 3.780879,10.54679 5.345759,20.37402 2.384013,14.97133 3.089736,17.53221 8.584613,31.15137 5.116058,12.68025 9.877593,27.06741 10.971597,33.15101 0.414127,2.3029 0.942378,10.0171 1.173888,17.1426 l 0.420931,12.9556 -1.828277,-1.8639 c -2.646656,-2.6981 -10.167806,-3.126 -18.231444,-1.0371 -3.700325,0.9586 -10.912029,2.0151 -16.026015,2.3477 l -9.2981545,0.6048 0.2155454,-89.0828 c 0.1648609,-68.13582 0.4077899,-89.38182 1.0331165,-90.35435 0.6415443,-0.99774 0.5831974,-1.53816 -0.2709818,-2.50994 -2.5720217,-2.92619 -0.1988915,-3.64961 11.9721314,-3.64961 l 12.10292,0 0.90803,3.36005 0.908027,3.36003 0.496288,-7.2104 c 0.842143,-12.23521 0.01955,-26.33893 -2.050009,-35.14799 -2.291396,-9.75335 -4.27431,-20.66424 -4.325223,-23.79937 -0.05137,-3.16283 1.773844,-4.16443 3.040713,-1.66861 1.753354,3.45422 8.21442,24.78913 9.313955,30.75535 0.584151,3.16967 1.313823,11.57169 1.621499,18.67118 0.587424,13.55452 1.098221,15.46216 3.813873,14.24347 0.740066,-0.33211 3.767603,-1.02403 6.727859,-1.5376 2.960257,-0.51357 6.517615,-1.23148 7.905236,-1.59534 2.066243,-0.54182 2.522945,-0.3495 2.522945,1.06238 0,2.82491 1.20616,0.79532 1.699921,-2.86042 0.753646,-5.5799 11.127676,-54.22951 12.885877,-60.42903 2.588066,-9.12571 5.353054,-12.534 7.48158,-9.22224 1.82164,2.83427 0.600711,11.80428 -4.632419,34.03367 -4.183648,17.7714 -6.003083,29.24635 -5.939773,37.46148 0.04211,5.46382 0.136285,5.90629 0.724141,3.40203 l 0.675738,-2.87864 10.652732,0 c 9.15784,0 11.093236,0.29378 13.791819,2.09355 1.726505,1.15146 3.230099,2.09357 3.341333,2.09357 0.111229,0 0.326455,-3.03517 0.478268,-6.74483 0.391729,-9.57171 2.816473,-13.16131 6.703823,-9.92437 0.7438,0.61935 2.20483,4.08232 3.24674,7.69548 1.73538,6.01788 2.10148,6.62167 4.36091,7.19215 3.56855,0.90101 4.18376,0.16192 4.61843,-5.54833 0.67645,-8.88677 3.48596,-14.57897 6.46874,-13.10601 1.51644,0.74886 3.95137,9.20965 4.52527,15.72422 0.41116,4.66726 0.4492,4.73068 1.74534,2.9096 1.25438,-1.76238 4.77403,-1.84282 66.00714,-1.50876 37.6162,0.20523 65.80822,-0.0479 67.37327,-0.60489 1.63336,-0.58133 8.13862,-0.57217 16.55022,0.0233 9.2957,0.65804 19.15372,0.60411 29.93897,-0.16379 8.84394,-0.62968 16.38265,-1.11286 16.75267,-1.07371 0.37004,0.0391 19.14078,0.41935 41.71274,0.84493 38.94974,0.73439 41.1698,0.67636 43.58993,-1.13946 2.43945,-1.83032 2.64355,-1.83364 4.7095,-0.0763 1.95454,1.66265 4.64997,1.83701 28.39816,1.83701 20.14026,0 26.59047,-0.31269 27.75242,-1.34531 1.23311,-1.09589 1.7944,-1.09589 3.02751,0 1.07294,0.95352 4.89361,1.34374 13.11935,1.33991 l 11.60557,-0.006 0,89.74694 0,89.7469 -1.78988,0.699 c -0.98445,0.3844 -9.0831,0.2756 -17.99703,-0.2418 -8.91393,-0.5173 -29.52832,-0.9094 -45.80973,-0.8713 -30.70102,0.072 -46.06962,1.1591 -88.80774,6.2821 -46.54414,5.5792 -49.73318,5.8195 -82.07987,6.1875 -17.76155,0.2021 -36.07816,-0.02 -40.70355,-0.4937 z"
       id="path5612"
       inkscape:connector-curvature="0" />
    <path
       style="fill:#499a9a;fill-opacity:1;stroke:#499a9a;stroke-width:0.17857143;stroke-opacity:1"
       d="m 133.92756,298.65864 c 0.2202,-0.23993 2.80702,-0.62343 4.5351,-0.67233 2.96893,-0.084 11.03198,0.0361 10.90561,0.16244 -0.0649,0.065 -2.9069,0.17381 -6.31543,0.2419 -3.40853,0.0681 -6.88036,0.18266 -7.71518,0.2546 -0.83483,0.072 -1.46937,0.078 -1.4101,0.0134 z"
       id="path3361"
       inkscape:connector-curvature="0"
       transform="translate(-1.5258789e-5,552.36216)" />
    <path
       style="fill:#499a9a;fill-opacity:1;stroke:#499a9a;stroke-width:0.17857143;stroke-opacity:1"
       d="m 133.1421,298.82092 c 0.40002,-0.18659 0.69568,-0.21744 0.98214,-0.10248 0.38819,0.15579 0.38154,0.16521 -0.12587,0.17824 -0.29464,0.008 -0.73661,0.0537 -0.98214,0.10248 -0.35895,0.0713 -0.33429,0.0364 0.12587,-0.17824 z"
       id="path3363"
       inkscape:connector-curvature="0"
       transform="translate(-1.5258789e-5,552.36216)" />
    <path
       style="fill:#499a9a;fill-opacity:1;stroke:#499a9a;stroke-width:0.01578363;stroke-opacity:1"
       d="m 172.68625,298.27189 c -1.24572,-0.006 -5.27824,-0.0161 -8.96116,-0.0231 l -6.6962,-0.0128 0,-0.0448 0,-0.0448 3.18435,0.002 c 3.14112,0.002 7.25078,0.0176 9.52936,0.0371 2.93036,0.025 5.9232,0.0593 7.56037,0.0865 0.5944,0.01 0.46051,0.0117 -0.82075,0.0112 -0.84206,-3.3e-4 -2.55024,-0.005 -3.79597,-0.0109 z"
       id="path3365"
       inkscape:connector-curvature="0"
       transform="translate(-1.5258789e-5,552.36216)" />
    <path
       style="fill:#499a9a;fill-opacity:1;stroke:#499a9a;stroke-width:0.12626907;stroke-opacity:1"
       d="m 2.6087132,314.1408 c -0.045273,-0.98964 -0.082522,-4.85232 -0.082776,-8.58374 l -4.619e-4,-6.78439 0.473509,-0.24042 c 0.4025584,-0.2044 1.321313,-0.44423 2.6832177,-0.70042 0.17362,-0.0327 -0.098185,-0.0307 -0.6040109,0.004 -0.9387783,0.065 -2.1112262,0.34941 -2.3948795,0.58096 C 2.5570827,298.51984 2.5254753,286.38 2.5254753,237.79476 l 0,-60.75089 112.8845447,0 112.88455,0 0,69.44799 0,69.44799 -50.8233,0 -50.8233,0 -8.8e-4,-1.86247 c -7.6e-4,-1.76753 -0.15238,-9.99699 -0.31574,-17.14102 -0.12841,-5.61519 -0.40028,-8.15854 -1.01739,-9.51777 -0.41507,-0.91422 -1.33967,-2.1899 -1.7441,-2.40635 -0.29103,-0.15575 -0.35726,-0.15015 -0.57711,0.0488 -0.52887,0.47863 -1.00159,2.61934 -1.26562,5.73133 -0.25596,3.01692 -0.39676,10.23769 -0.32418,16.62431 0.0403,3.54185 0.10557,6.90911 0.14515,7.48282 l 0.072,1.04309 -5.33589,-0.0329 -5.3359,-0.0329 -1.099,-5.87152 c -1.26584,-6.76319 -3.14517,-16.16907 -3.58746,-17.95524 -0.53809,-2.17304 -1.66202,-4.14184 -2.36445,-4.14184 -0.56061,0 -1.29194,1.22248 -1.61012,2.69146 -0.54815,2.53075 -0.0368,9.78017 1.51303,21.45204 0.27394,2.06307 0.49808,3.78191 0.49808,3.81964 0,0.0377 -8.431943,0.0686 -18.737658,0.0686 l -18.737662,0 -0.09291,-1.98242 c -0.133295,-2.84411 0.01598,-11.65633 0.247687,-14.62196 0.899719,-11.51553 2.9695,-23.15217 7.838251,-44.06791 3.123023,-13.41624 4.480037,-20.77191 4.496752,-24.37458 0.0058,-1.254 -0.02043,-1.40114 -0.380442,-2.13243 -0.212682,-0.43201 -0.497663,-0.88591 -0.633295,-1.00865 -0.238947,-0.21624 -0.258972,-0.20616 -0.644992,0.32486 -0.550588,0.7574 -1.291684,2.33942 -1.765058,3.76789 -1.894587,5.71715 -4.789756,18.15703 -8.25774,35.48161 -4.252161,21.24201 -5.374796,30.55084 -5.379256,44.60455 l -0.0013,4.00904 -14.142136,0 c -13.385166,0 -14.142045,-0.0119 -14.140441,-0.22097 8.84e-4,-0.12153 0.08329,-5.30646 0.183008,-11.52205 0.09972,-6.2156 0.21295,-14.99446 0.251616,-19.50857 0.03867,-4.51412 0.100227,-9.82689 0.136802,-11.80616 l 0.0665,-3.59867 -1.507923,-5.93465 c -2.584456,-10.17148 -4.128509,-15.46851 -6.165116,-21.15007 -0.662491,-1.84816 -1.662753,-4.04061 -1.843449,-4.04061 -0.268948,0 0.104419,3.79176 0.738997,7.50494 0.870992,5.09652 1.88669,9.39544 4.491838,19.01157 l 2.035382,7.51301 -0.331608,18.18274 c -0.182385,10.00051 -0.367922,19.84477 -0.412303,21.87612 l -0.0807,3.69337 -14.420094,0 -14.4200938,0 -0.082314,-1.79933 z m 0.1367869,-3.283 c -0.023967,-0.5035 -0.043577,-0.0915 -0.043577,0.91545 0,1.007 0.01961,1.41895 0.043577,0.91545 0.023967,-0.5035 0.023967,-1.3274 0,-1.8309 z m 0.1229542,-2.96732 c -0.028931,-0.19099 -0.052602,-0.0347 -0.052602,0.34724 0,0.38196 0.023671,0.53822 0.052602,0.34724 0.028931,-0.19099 0.028931,-0.5035 0,-0.69448 z M 155.09008,298.16801 c -1.05908,-0.0211 -2.79213,-0.0211 -3.85121,0 -1.05908,0.0211 -0.19256,0.0384 1.9256,0.0384 2.11817,0 2.98469,-0.0173 1.92561,-0.0384 z M 7.1658637,297.67034 c -0.121534,-0.0318 -0.3204078,-0.0318 -0.4419418,0 -0.121534,0.0318 -0.022097,0.0577 0.2209709,0.0577 0.2430679,0 0.3425048,-0.026 0.2209709,-0.0577 z M 24.961356,251.39296 c -0.04031,-0.10073 -0.07023,-0.0708 -0.07629,0.0763 -0.0055,0.13311 0.02436,0.20768 0.06632,0.16573 0.04196,-0.042 0.04644,-0.15087 0.01,-0.24202 l 5e-6,0 z m -0.126269,-0.63134 c -0.04031,-0.10073 -0.07023,-0.0708 -0.07629,0.0763 -0.0055,0.13311 0.02436,0.20769 0.06632,0.16573 0.04196,-0.042 0.04644,-0.15086 0.01,-0.24201 l 5e-6,0 z m -0.126269,-0.63135 c -0.04031,-0.10073 -0.07023,-0.0708 -0.07629,0.0763 -0.0055,0.13311 0.02436,0.20768 0.06632,0.16573 0.04196,-0.042 0.04644,-0.15087 0.01,-0.24202 l 5e-6,0 z m -0.128899,-0.76551 c -0.03503,-0.0868 -0.06369,-0.0158 -0.06369,0.15784 0,0.17362 0.02866,0.24465 0.06369,0.15784 0.03503,-0.0868 0.03503,-0.22887 0,-0.31568 z m -0.126269,-0.63134 c -0.03503,-0.0868 -0.06369,-0.0158 -0.06369,0.15783 0,0.17362 0.02866,0.24465 0.06369,0.15784 0.03503,-0.0868 0.03503,-0.22886 0,-0.31567 z m -0.126269,-0.63135 c -0.03503,-0.0868 -0.06369,-0.0158 -0.06369,0.15784 0,0.17362 0.02866,0.24465 0.06369,0.15784 0.03503,-0.0868 0.03503,-0.22887 0,-0.31568 z m -0.126269,-0.75761 c -0.03503,-0.0868 -0.06369,-0.0158 -0.06369,0.15783 0,0.17362 0.02866,0.24465 0.06369,0.15784 0.03503,-0.0868 0.03503,-0.22886 0,-0.31567 z m -0.126269,-0.75762 c -0.03503,-0.0868 -0.06369,-0.0158 -0.06369,0.15784 0,0.17362 0.02866,0.24465 0.06369,0.15784 0.03503,-0.0868 0.03503,-0.22887 0,-0.31568 z m -0.123639,-0.62345 c -0.04031,-0.10073 -0.07023,-0.0708 -0.07629,0.0763 -0.0055,0.13311 0.02436,0.20768 0.06632,0.16573 0.04196,-0.042 0.04644,-0.15087 0.01,-0.24202 l 5e-6,0 z M 24.510511,235.06 c 0.417981,-0.14073 0.420448,-0.14583 0.142432,-0.29462 -0.384082,-0.20556 -0.757043,0.005 -0.988089,0.55806 -0.246828,0.59074 -0.225636,0.63073 0.120798,0.22798 0.164731,-0.19151 0.490918,-0.41265 0.724859,-0.49142 z m 52.855077,-10.28379 c 0.178223,-0.14019 0.258061,-0.25489 0.177419,-0.25489 -0.188518,0 -1.201503,1.01088 -1.406752,1.40382 -0.08642,0.16545 0.08192,0.032 0.374084,-0.29661 0.292165,-0.32858 0.677027,-0.71213 0.855249,-0.85232 z"
       id="path3367"
       inkscape:connector-curvature="0"
       transform="translate(-1.5258789e-5,552.36216)" />
    <path
       style="fill:#499a9a;fill-opacity:1;stroke:#499a9a;stroke-width:0.12626907;stroke-opacity:1"
       d="m 127.55093,335.79594 c -0.6017,-4.30226 -0.95646,-7.66846 -1.16105,-11.01698 -0.16654,-2.72588 -0.16932,-19.15328 -0.003,-19.82424 0.0709,-0.28655 0.11622,0.77902 0.12895,3.03046 0.0108,1.90982 0.0422,3.78491 0.0698,4.16688 0.0276,0.38196 0.11155,2.76845 0.18658,5.3033 0.37271,12.59228 0.49959,14.6153 1.34439,21.43417 0.0452,0.36461 0.0547,0.66292 0.0211,0.66292 -0.0336,0 -0.29745,-1.69043 -0.58641,-3.75651 z"
       id="path3369"
       inkscape:connector-curvature="0"
       transform="translate(-1.5258789e-5,552.36216)" />
    <path
       style="fill:#499a9a;fill-opacity:1;stroke:#499a9a;stroke-width:0.04464286;stroke-opacity:1"
       d="m 70.316151,344.61579 c -0.09346,-0.61195 -0.459021,-2.9508 -0.812348,-5.19745 -2.35788,-14.99272 -2.85909,-18.9017 -3.062407,-23.88393 -0.05942,-1.45603 -0.0307,-5.58191 0.05034,-7.23215 0.163963,-3.3389 0.161456,-3.35119 0.141176,0.69197 -0.01557,3.10519 -0.0054,4.0824 0.05578,5.3784 0.04356,0.9221 0.09345,1.59528 0.119415,1.61133 0.05142,0.0318 0.062,0.13945 0.153243,1.55937 0.332453,5.17351 0.97624,10.65743 2.256194,19.21876 0.91035,6.08912 1.300969,8.79861 1.282356,8.8949 -0.0076,0.0393 -0.09028,-0.42925 -0.183743,-1.0412 z"
       id="path3371"
       inkscape:connector-curvature="0"
       transform="translate(-1.5258789e-5,552.36216)" />
  </g>
</svg>
