<?xml version="1.0" encoding="UTF-8" standalone="no"?>
<!-- Created with Inkscape (http://www.inkscape.org/) -->

<svg
   xmlns:dc="http://purl.org/dc/elements/1.1/"
   xmlns:cc="http://creativecommons.org/ns#"
   xmlns:rdf="http://www.w3.org/1999/02/22-rdf-syntax-ns#"
   xmlns:svg="http://www.w3.org/2000/svg"
   xmlns="http://www.w3.org/2000/svg"
   xmlns:sodipodi="http://sodipodi.sourceforge.net/DTD/sodipodi-0.dtd"
   xmlns:inkscape="http://www.inkscape.org/namespaces/inkscape"
   width="500"
   height="500"
   viewBox="0 0 499.99998 499.99998"
   id="svg3354"
   version="1.1"
   inkscape:version="0.91 r13725"
   sodipodi:docname="bgCastle.svg">
  <defs
     id="defs3356" />
  <sodipodi:namedview
     id="base"
     pagecolor="#ffffff"
     bordercolor="#666666"
     borderopacity="1.0"
     inkscape:pageopacity="0.0"
     inkscape:pageshadow="2"
     inkscape:zoom="0.7"
     inkscape:cx="505.73574"
     inkscape:cy="186.97006"
     inkscape:document-units="px"
     inkscape:current-layer="layer1"
     showgrid="false"
     units="px"
     inkscape:window-width="1366"
     inkscape:window-height="705"
     inkscape:window-x="1432"
     inkscape:window-y="-8"
     inkscape:window-maximized="1" />
  <metadata
     id="metadata3359">
    <rdf:RDF>
      <cc:Work
         rdf:about="">
        <dc:format>image/svg+xml</dc:format>
        <dc:type
           rdf:resource="http://purl.org/dc/dcmitype/StillImage" />
        <dc:title></dc:title>
      </cc:Work>
    </rdf:RDF>
  </metadata>
  <g
     inkscape:label="Layer 1"
     inkscape:groupmode="layer"
     id="layer1"
     transform="translate(0,-552.36209)">
    <g
       id="g3368"
       transform="matrix(0.48828122,0,0,0.97656257,11.27253,-0.41851852)">
      <path
         style="fill:#899898"
         d="m -23.086143,822.04727 0,-255.99997 511.999953,0 511.99999,0 0,255.99997 0,255.99993 -511.99999,0 -511.999953,0 0,-255.99993 z"
         id="path3378"
         inkscape:connector-curvature="0" />
      <path
         style="fill:#889797"
         d="m -23.086143,822.04727 0,-255.99997 511.999953,0 511.99999,0 0,255.99997 0,255.99993 -511.99999,0 -511.999953,0 0,-255.99993 z M 149.71384,1026.8472 c 0.66,-0.66 1.2,-3.5691 1.2,-6.4648 0,-6.0044 -1.3607,-7.3352 -7.5,-7.3352 -6.1393,0 -7.5,1.3308 -7.5,7.3352 0,2.8957 0.54,5.8048 1.2,6.4648 1.55702,1.5571 11.04298,1.5571 12.6,0 z m 46,-14 c 0.81271,-0.8127 1.2,-5.481 1.2,-14.46477 0,-12.09108 -0.17115,-13.35641 -1.93426,-14.3 -1.06384,-0.56935 -7.16842,-1.03518 -13.56574,-1.03518 -6.39732,0 -12.5019,0.46583 -13.56574,1.03518 -1.76311,0.94359 -1.93426,2.20892 -1.93426,14.3 0,8.98377 0.38729,13.65207 1.2,14.46477 1.66606,1.6661 26.93394,1.6661 28.6,0 z m -93.02022,-15.42553 c 0.32824,-14.22575 1.19775,-13.33863 -13.095514,-13.36077 -12.741051,-0.0197 -12.684259,-0.0754 -12.684259,12.43975 0,5.71065 0.2783,11.10825 0.61843,11.99465 0.53024,1.3818 2.3486,1.5717 12.749999,1.3318 l 12.131564,-0.2799 0.27978,-12.12553 z m 127.02021,7.42553 c 3.63331,-3.6333 -1.07276,-9.32989 -5.67351,-6.86765 -3.91531,2.09545 -2.15827,8.06765 2.37351,8.06765 1.155,0 2.64,-0.54 3.3,-1.2 z m -77.99999,-11.99995 c 0.79733,-0.79733 1.2,-5.14774 1.2,-12.96482 0,-14.21641 0.38578,-13.83518 -14,-13.83518 -14.38578,0 -14,-0.38123 -14,13.83518 0,7.81708 0.40267,12.16749 1.2,12.96482 0.7954,0.7954 5.11111,1.2 12.8,1.2 7.68889,0 12.0046,-0.4046 12.8,-1.2 z m 609.99994,-71.99999 c 0.71309,-0.71309 1.2,-4.14774 1.2,-8.46482 0,-8.58658 -0.76182,-9.33518 -9.5,-9.33518 -8.73818,0 -9.5,0.7486 -9.5,9.33518 0,4.31708 0.48691,7.75173 1.2,8.46482 1.5927,1.5927 15.0073,1.5927 16.6,0 z m -47.99999,-18 c 0.71308,-0.71309 1.19999,-4.14774 1.19999,-8.46482 0,-8.58658 -0.76181,-9.33518 -9.49999,-9.33518 -8.73818,0 -9.5,0.7486 -9.5,9.33518 0,4.31708 0.48691,7.75173 1.2,8.46482 1.5927,1.5927 15.0073,1.5927 16.6,0 z m 60.99999,-10 c 0.66,-0.66 1.2,-3.56917 1.2,-6.46482 0,-6.00439 -1.3607,-7.33518 -7.5,-7.33518 -6.1393,0 -7.5,1.33079 -7.5,7.33518 0,2.89565 0.54,5.80482 1.2,6.46482 1.55702,1.55702 11.04298,1.55702 12.6,0 z m -32,-4 c 0.73974,-0.73974 1.2,-4.36996 1.2,-9.46482 0,-9.85476 -0.48808,-10.33518 -10.5,-10.33518 -10.01192,0 -10.5,0.48042 -10.5,10.33518 0,5.09486 0.46026,8.72508 1.2,9.46482 1.61252,1.61252 16.98748,1.61252 18.6,0 z M 462.71381,795.84727 c 0.84066,-0.84066 1.2,-6.36996 1.2,-18.46481 0,-16.04576 -0.13658,-17.33791 -1.93426,-18.3 -1.0967,-0.58693 -8.70291,-1.03518 -17.56574,-1.03518 -8.86283,0 -16.46904,0.44825 -17.56574,1.03518 -1.79768,0.96209 -1.93426,2.25424 -1.93426,18.3 0,12.09485 0.35934,17.62415 1.2,18.46481 0.83977,0.83977 6.33333,1.2 18.3,1.2 11.96667,0 17.46023,-0.36023 18.3,-1.2 z M 410.7009,741.92361 c 0.32897,-9.88158 0.37232,-9.83705 -9.60282,-9.86268 -8.31279,-0.0213 -9.18426,0.82692 -9.18426,8.93975 0,10.3637 -0.19566,10.16879 9.87125,9.83376 l 8.62874,-0.28716 0.28709,-8.62367 z m 83.01291,-2.07633 c 0.66,-0.66 1.2,-3.79417 1.2,-6.96482 0,-6.65684 -1.20312,-7.83518 -8,-7.83518 -6.79688,0 -8,1.17834 -8,7.83518 0,3.17065 0.54,6.30482 1.2,6.96482 0.66,0.66 3.72,1.2 6.8,1.2 3.08,0 6.14,-0.54 6.8,-1.2 z m -39,-5 c 0.7913,-0.7913 1.2,-5.03663 1.2,-12.46482 0,-13.59896 0.26704,-13.33518 -13.5,-13.33518 -13.76704,0 -13.5,-0.26378 -13.5,13.33518 0,7.42819 0.4087,11.67352 1.2,12.46482 0.78919,0.78919 5,1.2 12.3,1.2 7.3,0 11.51081,-0.41081 12.3,-1.2 z m 423.97305,-60.42732 c 0.27221,-17.07265 0.26583,-17.12928 -2,-17.73635 -3.82721,-1.0254 -28.78062,-0.70266 -30.83883,0.39886 -1.78677,0.95625 -1.93426,2.23725 -1.93426,16.8 0,11.09781 0.36226,16.12708 1.2237,16.98852 0.88722,0.88722 5.6304,1.14844 17.25,0.95 l 16.0263,-0.2737 0.27309,-17.12733 z m 36.02138,-0.56901 0.29446,-6.69635 -3.54446,-0.66495 c -1.94946,-0.36572 -5.11947,-0.36947 -7.04447,-0.008 l -3.5,0.65661 0,6.37135 c 0,4.14952 0.4359,6.55502 1.25,6.89803 0.6875,0.28968 3.725,0.43968 6.75,0.33334 l 5.5,-0.19335 0.29447,-6.69634 z m -849.994392,1.99634 c 0.713094,-0.71309 1.2,-4.14774 1.2,-8.46482 0,-8.58658 -0.761815,-9.33518 -9.499999,-9.33518 -8.738184,0 -9.499999,0.7486 -9.499999,9.33518 0,4.31708 0.486906,7.75173 1.2,8.46482 1.592702,1.5927 15.007297,1.5927 16.599998,0 z m -47.999995,-18 c 0.713094,-0.71309 1.2,-4.14774 1.2,-8.46482 0,-8.58658 -0.761815,-9.33518 -9.4999991,-9.33518 -8.73818412,0 -9.499999,0.7486 -9.499999,9.33518 0,4.31708 0.4869059,7.75173 1.19999983,8.46482 1.59270187,1.5927 15.00729627,1.5927 16.59999827,0 z m 801.999917,-7 c 0.71309,-0.71309 1.2,-4.14774 1.2,-8.46481 0,-8.58659 -0.76182,-9.33519 -9.49999,-9.33519 -8.73818,0 -9.5,0.7486 -9.5,9.33519 0,4.31707 0.48691,7.75172 1.2,8.46481 1.5927,1.5927 15.00729,1.5927 16.59999,0 z m -740.999923,-3 c 0.66,-0.66 1.2,-3.56917 1.2,-6.46481 0,-6.0044 -1.3607,-7.33519 -7.499999,-7.33519 -6.139305,0 -7.499999,1.33079 -7.499999,7.33519 0,2.89564 0.539999,5.80481 1.199999,6.46481 1.557025,1.55703 11.042974,1.55703 12.599999,0 z m 862.999913,-3 c 0.71309,-0.71309 1.2,-4.14774 1.2,-8.46481 0,-8.58659 -0.76182,-9.33519 -9.5,-9.33519 -8.73818,0 -9.5,0.7486 -9.5,9.33519 0,4.31707 0.48691,7.75172 1.2,8.46481 1.5927,1.5927 15.0073,1.5927 16.6,0 z m -894.99991,-1 c 0.739742,-0.73974 1.2,-4.36996 1.2,-9.46481 0,-9.85476 -0.488085,-10.33519 -10.499999,-10.33519 -10.011914,0 -10.499999,0.48043 -10.499999,10.33519 0,5.09485 0.460258,8.72507 1.2,9.46481 0.735802,0.7358 4.333333,1.2 9.299999,1.2 4.966667,0 8.564197,-0.4642 9.299999,-1.2 z m 859.19992,-20.68337 c 0,-18.73128 1.5373,-17.08932 -16,-17.08932 -17.5373,0 -16,-1.64196 -16,17.08932 l 0,15.88337 16,0 16,0 0,-15.88337 z m -57.2,13.68337 c 0.73974,-0.73974 1.2,-4.36996 1.2,-9.46481 0,-9.85476 -0.48808,-10.33519 -10.5,-10.33519 -10.01192,0 -10.5,0.48043 -10.5,10.33519 0,5.09485 0.46026,8.72507 1.2,9.46481 0.7358,0.7358 4.33333,1.2 9.3,1.2 4.96667,0 8.5642,-0.4642 9.3,-1.2 z"
         id="path3376"
         inkscape:connector-curvature="0" />
      <path
         style="fill:#879696"
         d="m -23.086143,822.04727 0,-255.99997 511.999953,0 511.99999,0 0,255.99997 0,255.99993 -511.99999,0 -511.999953,0 0,-255.99993 z m 174.499983,198.49993 0,-8 -8,0 -8,0 -0.29913,6.9008 c -0.42757,9.864 -0.54625,9.7334 8.53399,9.3916 l 7.76514,-0.2924 0,-8 z m 46,-21.99995 0,-16 -16,0 -16,0 -0.27791,14.95607 c -0.15286,8.22578 -0.0501,15.54978 0.2284,16.27548 0.39599,1.0319 3.94299,1.2594 16.27791,1.0439 l 15.7716,-0.2755 0,-15.99995 z m -93.53518,11.56575 c 1.21667,-2.2734 1.37804,-23.97718 0.19217,-25.84598 -0.60929,-0.96017 -4.167885,-1.21017 -14.234684,-1 l -13.422299,0.28023 -0.280225,13.4223 c -0.21017,10.06675 0.03983,13.62535 0.999995,14.23465 0.70413,0.4468 6.7769,0.8193 13.495049,0.8277 11.061744,0.014 12.312524,-0.1672 13.249994,-1.9189 z m 127.53517,-8.5658 0,-4.99995 -5,0 -5,0 -0.31663,3.85515 c -0.49749,6.0571 0.14017,6.7973 5.55643,6.4501 l 4.7602,-0.3053 0,-5 z m -77.99999,-21.49995 0,-14.5 -14.5,0 -14.5,0 -0.28041,13.44955 c -0.15423,7.39725 -0.0511,14.04716 0.2292,14.77758 0.39779,1.03665 3.64081,1.26713 14.78041,1.05045 l 14.2708,-0.27758 0,-14.5 z m 609.99994,-67.49999 0,-10 -10,0 -10,0 -0.29142,8.92086 c -0.16029,4.90647 -0.0556,9.53536 0.23259,10.28642 0.40419,1.0533 2.75753,1.30007 10.29142,1.07914 l 9.76741,-0.28642 0,-10 z m -48,-18 0,-10 -9.99999,0 -10,0 -0.29142,8.92086 c -0.16029,4.90647 -0.0556,9.53536 0.23259,10.28642 0.40419,1.0533 2.75753,1.30007 10.29142,1.07914 l 9.7674,-0.28642 0,-10 z m 61,-8 0,-8 -8,0 -8,0 -0.29913,6.90079 c -0.42757,9.864 -0.54625,9.73339 8.53399,9.39155 l 7.76514,-0.29234 0,-8 z m -32,-7 0,-11 -11,0 -11,0 -0.28837,9.92882 c -0.1586,5.46085 -0.0543,10.53866 0.23167,11.28402 0.4027,1.04942 2.94975,1.29111 11.28837,1.07118 l 10.76833,-0.28402 0,-11 z m -279.99997,-101.99998 0,-20 -20,0 -20,0 -0.27287,18.96921 c -0.15008,10.43305 -0.048,19.5551 0.22676,20.2712 0.39199,1.02151 4.75951,1.24358 20.27287,1.0308 l 19.77324,-0.27122 0,-19.99999 z m -52.53518,-26.43426 c 1.22238,-2.28404 1.36844,-16.99221 0.18722,-18.85397 -0.59835,-0.94309 -3.47436,-1.21101 -10.73467,-1 l -9.91736,0.28823 -0.28823,9.91736 c -0.21101,7.26032 0.0569,10.13633 1,10.73468 0.70853,0.44954 5.2099,0.82423 10.00305,0.83265 7.60167,0.0134 8.84703,-0.23175 9.74999,-1.91895 z m 83.53518,-18.06574 0,-8.5 -8.5,0 -8.5,0 -0.29697,7.40642 c -0.16333,4.07352 -0.0579,8.02934 0.23424,8.79069 0.40623,1.05862 2.47578,1.3159 8.79696,1.09359 l 8.26577,-0.2907 0,-8.5 z m -39,-10.5 0,-14 -14,0 -14,0 -0.28135,12.94711 c -0.15474,7.12092 -0.0515,13.54618 0.2295,14.27836 0.39844,1.03833 3.54075,1.26999 14.28135,1.05288 l 13.7705,-0.27835 0,-14 z m 423.99996,-48.49999 0,-18.5 -18.5,0 -18.5,0 -0.27454,17.46487 c -0.15099,9.60567 -0.0487,18.05337 0.22731,18.77264 0.39336,1.02508 4.45183,1.24885 18.77454,1.03514 l 18.27269,-0.27265 0,-18.5 z m 36,-0.5 0,-8 -8,0 -8,0 -0.29913,6.90079 c -0.42757,9.864 -0.54625,9.73339 8.53399,9.39155 l 7.76514,-0.29234 0,-8 z m -849.999922,-6 0,-10 -9.999999,0 -9.999999,0 -0.291425,8.92086 c -0.160283,4.90647 -0.05562,9.53536 0.232592,10.28642 0.404189,1.0533 2.757537,1.30007 10.291424,1.07914 l 9.767407,-0.28642 0,-10 z m -47.999995,-18 0,-10 -9.9999991,0 -9.999999,0 -0.291425,8.92086 c -0.160283,4.90647 -0.05562,9.53536 0.232592,10.28642 0.404189,1.0533 2.7575367,1.30007 10.291424,1.07914 l 9.7674071,-0.28642 0,-10 z m 801.999917,-7 0,-10 -9.99999,0 -10,0 -0.29142,8.92086 c -0.16029,4.90647 -0.0556,9.53536 0.23259,10.28642 0.40419,1.0533 2.75753,1.30007 10.29142,1.07914 l 9.7674,-0.28642 0,-10 z m -740.999923,-1 0,-8 -7.999999,0 -7.999999,0 -0.299127,6.90079 c -0.427573,9.864 -0.546256,9.73339 8.533987,9.39155 l 7.765138,-0.29234 0,-8 z m 862.999913,-5 0,-10 -10,0 -10,0 -0.29142,8.92086 c -0.16029,4.90647 -0.0556,9.53536 0.23259,10.28642 0.40419,1.0533 2.75753,1.30007 10.29142,1.07914 l 9.76741,-0.28642 0,-10 z m -894.99991,-2 0,-11 -10.999999,0 -10.999999,0 -0.288369,9.92882 c -0.158603,5.46085 -0.05435,10.53866 0.231669,11.28402 0.402699,1.04942 2.949748,1.29111 11.288368,1.07118 l 10.76833,-0.28402 0,-11 z m 858.40281,5.11701 c 0.7869,-0.94816 1.06121,-6.52895 0.87244,-17.74999 l -0.27533,-16.36701 -17.5,0 -17.5,0 -0.27533,16.36701 c -0.18877,11.22104 0.0855,16.80183 0.87244,17.74999 1.66523,2.00648 32.14055,2.00648 33.80578,0 z m -56.40289,-12.11701 0,-11 -11,0 -11,0 -0.28837,9.92882 c -0.1586,5.46085 -0.0543,10.53866 0.23167,11.28402 0.4027,1.04942 2.94975,1.29111 11.28837,1.07118 l 10.76833,-0.28402 0,-11 z"
         id="path3374"
         inkscape:connector-curvature="0" />
      <path
         style="fill:#869595"
         d="m -23.086143,822.04727 0,-255.99997 511.999953,0 511.99999,0 0,255.99997 0,255.99993 -511.99999,0 -511.999953,0 0,-255.99993 z M 151.71384,1028.8472 c 0.70798,-0.7079 1.2,-4.1111 1.2,-8.3 0,-4.1888 -0.49202,-7.592 -1.2,-8.3 -0.70798,-0.7079 -4.11111,-1.2 -8.3,-1.2 -4.18889,0 -7.59202,0.4921 -8.3,1.2 -0.70798,0.708 -1.2,4.1112 -1.2,8.3 0,4.1889 0.49202,7.5921 1.2,8.3 1.5927,1.5927 15.0073,1.5927 16.6,0 z m 46,-14 c 1.67751,-1.6775 1.67751,-30.92244 0,-32.59995 -1.67751,-1.67751 -30.92249,-1.67751 -32.6,0 -0.82737,0.82737 -1.2,5.88889 -1.2,16.3 0,10.41115 0.37263,15.47265 1.2,16.29995 1.67751,1.6776 30.92249,1.6776 32.6,0 z m -94.24113,-3.2174 c 1.68586,-1.2311 1.98392,-2.9077 2.26655,-12.75001 0.18296,-6.37113 -0.13456,-12.5365 -0.72524,-14.08254 l -1.05068,-2.75 -13.324744,0 c -9.030359,0 -13.711489,0.38674 -14.524749,1.2 -0.813323,0.81332 -1.2,5.49605 -1.2,14.53222 0,12.89133 0.0744,13.36213 2.25,14.23663 3.83198,1.5402 24.077633,1.243 26.308863,-0.3863 z m 128.24112,-4.7826 c 0.66,-0.66 1.2,-3.045 1.2,-5.3 0,-5.15806 -1.34189,-6.49995 -6.5,-6.49995 -5.15811,0 -6.5,1.34189 -6.5,6.49995 0,5.1582 1.34189,6.5 6.5,6.5 2.255,0 4.64,-0.54 5.3,-1.2 z m -77.99999,-11.99995 c 1.66924,-1.66924 1.66924,-27.93076 0,-29.6 -1.66924,-1.66924 -27.93076,-1.66924 -29.6,0 -0.81569,0.81569 -1.2,5.55556 -1.2,14.8 0,9.24444 0.38431,13.98431 1.2,14.8 1.66924,1.66924 27.93076,1.66924 29.6,0 z m 609.99994,-71.99999 c 0.75751,-0.75751 1.2,-4.55556 1.2,-10.3 0,-5.74444 -0.44249,-9.54249 -1.2,-10.3 -0.75751,-0.75751 -4.55556,-1.2 -10.3,-1.2 -5.74444,0 -9.54249,0.44249 -10.3,1.2 -0.75751,0.75751 -1.2,4.55556 -1.2,10.3 0,5.74444 0.44249,9.54249 1.2,10.3 1.62796,1.62796 18.97204,1.62796 20.6,0 z m -48,-18 c 0.75751,-0.75751 1.2,-4.55556 1.2,-10.3 0,-5.74444 -0.44249,-9.54249 -1.2,-10.3 -0.75751,-0.75751 -4.55555,-1.2 -10.29999,-1.2 -5.74444,0 -9.54249,0.44249 -10.3,1.2 -0.75751,0.75751 -1.2,4.55556 -1.2,10.3 0,5.74444 0.44249,9.54249 1.2,10.3 1.62796,1.62796 18.97204,1.62796 20.59999,0 z m 61,-10 c 0.70798,-0.70798 1.2,-4.11111 1.2,-8.3 0,-4.18889 -0.49202,-7.59202 -1.2,-8.3 -0.70798,-0.70798 -4.11111,-1.2 -8.3,-1.2 -4.18889,0 -7.59202,0.49202 -8.3,1.2 -0.70798,0.70798 -1.2,4.11111 -1.2,8.3 0,4.18889 0.49202,7.59202 1.2,8.3 1.5927,1.5927 15.0073,1.5927 16.6,0 z m -32,-4 c 0.77492,-0.77492 1.2,-4.77778 1.2,-11.3 0,-6.52222 -0.42508,-10.52508 -1.2,-11.3 -1.64034,-1.64034 -20.95966,-1.64034 -22.6,0 -0.77492,0.77492 -1.2,4.77778 -1.2,11.3 0,6.52222 0.42508,10.52508 1.2,11.3 0.77492,0.77492 4.77778,1.2 11.3,1.2 6.52222,0 10.52508,-0.42508 11.3,-1.2 z M 464.71381,797.84727 c 1.69317,-1.69317 1.69317,-38.90682 0,-40.59999 -1.69317,-1.69317 -38.90683,-1.69317 -40.6,0 -1.69317,1.69317 -1.69317,38.90682 0,40.59999 0.84956,0.84956 6.77778,1.2 20.3,1.2 13.52222,0 19.45044,-0.35044 20.3,-1.2 z m -53.25259,-45.211 c 1.56026,-1.14089 1.99566,-2.91173 2.27435,-9.25 0.18958,-4.31145 -0.13163,-9.07649 -0.71379,-10.58899 -1.05522,-2.74157 -1.08857,-2.75 -10.88321,-2.75 -6.30814,0 -10.25427,0.42952 -11.02475,1.2 -0.7706,0.7706 -1.2,4.71827 -1.2,11.03222 0,9.26175 0.13055,9.8847 2.25,10.73662 3.7012,1.4877 17.10418,1.22387 19.2974,-0.37985 z m 84.25259,-10.78899 c 0.72281,-0.72281 1.2,-4.22222 1.2,-8.8 0,-4.57778 -0.47719,-8.07719 -1.2,-8.8 -0.72281,-0.72281 -4.22222,-1.2 -8.8,-1.2 -4.57778,0 -8.07719,0.47719 -8.8,1.2 -1.60327,1.60327 -1.60327,15.99673 0,17.6 0.72281,0.72281 4.22222,1.2 8.8,1.2 4.57778,0 8.07719,-0.47719 8.8,-1.2 z m -39,-5 c 1.66606,-1.66606 1.66606,-26.93394 0,-28.6 -1.66606,-1.66606 -26.93394,-1.66606 -28.6,0 -1.66606,1.66606 -1.66606,26.93394 0,28.6 0.8112,0.8112 5.44444,1.2 14.3,1.2 8.85556,0 13.4888,-0.3888 14.3,-1.2 z m 423.99996,-43.99999 c 0.84242,-0.84242 1.2,-6.44444 1.2,-18.8 0,-12.35556 -0.35758,-17.95758 -1.2,-18.8 -1.68814,-1.68814 -35.91186,-1.68814 -37.6,0 -0.84242,0.84242 -1.2,6.44444 -1.2,18.8 0,12.35556 0.35758,17.95758 1.2,18.8 1.68814,1.68813 35.91186,1.68813 37.6,0 z m 36,-11 c 0.70798,-0.70798 1.2,-4.11111 1.2,-8.3 0,-4.18889 -0.49202,-7.59202 -1.2,-8.3 -1.24568,-1.24569 -13.36279,-1.68874 -16.21821,-0.59301 -1.26501,0.48542 -1.58179,2.25447 -1.58179,8.83333 0,4.52449 0.3,8.52635 0.66667,8.89301 1.19263,1.19263 15.86406,0.73594 17.13333,-0.53333 z m -849.999922,-4 c 1.627964,-1.62796 1.627964,-18.97204 0,-20.6 -1.627964,-1.62796 -18.972034,-1.62796 -20.599998,0 -1.627964,1.62796 -1.627964,18.97204 0,20.6 0.757509,0.75751 4.555556,1.2 10.299999,1.2 5.744444,0 9.54249,-0.44249 10.299999,-1.2 z m -47.999995,-18 c 1.627964,-1.62796 1.627964,-18.97203 0,-20.6 -1.627964,-1.62796 -18.97203423,-1.62796 -20.5999981,0 -1.6279638,1.62797 -1.6279638,18.97204 0,20.6 0.757509,0.75751 4.5555556,1.2 10.299999,1.2 5.7444431,0 9.5424901,-0.44249 10.2999991,-1.2 z m 801.999917,-7 c 0.75751,-0.75751 1.2,-4.55556 1.2,-10.3 0,-5.74444 -0.44249,-9.54249 -1.2,-10.3 -1.62796,-1.62796 -18.97203,-1.62796 -20.59999,0 -0.75751,0.75751 -1.2,4.55556 -1.2,10.3 0,5.74444 0.44249,9.54249 1.2,10.3 0.75751,0.75751 4.55556,1.2 10.3,1.2 5.74444,0 9.54248,-0.44249 10.29999,-1.2 z m -740.999923,-3 c 0.70798,-0.70798 1.2,-4.11111 1.2,-8.3 0,-4.18889 -0.49202,-7.59202 -1.2,-8.3 -1.5927,-1.5927 -15.007297,-1.5927 -16.599998,0 -1.592702,1.5927 -1.592702,15.0073 0,16.6 1.592701,1.5927 15.007298,1.5927 16.599998,0 z m 862.999913,-3 c 0.75751,-0.75751 1.2,-4.55555 1.2,-10.3 0,-5.74444 -0.44249,-9.54249 -1.2,-10.3 -1.62796,-1.62796 -18.97204,-1.62796 -20.6,0 -0.75751,0.75751 -1.2,4.55556 -1.2,10.3 0,5.74445 0.44249,9.54249 1.2,10.3 0.75751,0.75751 4.55556,1.2 10.3,1.2 5.74444,0 9.54249,-0.44249 10.3,-1.2 z m -894.99991,-1 c 1.640336,-1.64034 1.640336,-20.95966 0,-22.6 -1.640336,-1.64033 -20.959662,-1.64033 -22.599998,0 -1.640336,1.64034 -1.640336,20.95966 0,22.6 1.640336,1.64034 20.959662,1.64034 22.599998,0 z m 859.22295,-5.8 c 1.44501,-2.2904 1.24608,-33.33089 -0.22303,-34.79999 -1.68427,-1.68428 -33.91573,-1.68428 -35.6,0 -1.33852,1.33851 -1.73175,32.45794 -0.43469,34.40005 1.37407,2.0574 3.72528,2.31096 19.52303,2.10539 12.78766,-0.1664 15.9682,-0.49053 16.73469,-1.70545 z m -57.22303,-1.2 c 0.77492,-0.77492 1.2,-4.77778 1.2,-11.3 0,-6.52222 -0.42508,-10.52508 -1.2,-11.3 -1.64034,-1.64033 -20.95966,-1.64033 -22.6,0 -0.77492,0.77492 -1.2,4.77778 -1.2,11.3 0,6.52222 0.42508,10.52508 1.2,11.3 1.64034,1.64034 20.95966,1.64034 22.6,0 z"
         id="path3372"
         inkscape:connector-curvature="0" />
      <path
         style="fill:#859494"
         d="m -23.086143,822.04727 0,-255.99997 511.999953,0 511.99999,0 0,255.99997 0,255.99993 -511.99999,0 -511.999953,0 0,-255.99993 z M 152.34241,1029.4758 c 2.21829,-2.2183 2.21829,-15.6388 0,-17.8571 -1.14378,-1.1438 -3.57359,-1.5715 -8.92857,-1.5715 -9.6673,0 -10.5,0.8327 -10.5,10.5 0,9.6673 0.8327,10.5 10.5,10.5 5.35498,0 7.78479,-0.4276 8.92857,-1.5714 z m 46,-14 c 2.32026,-2.3202 2.32026,-31.53687 0,-33.85712 -2.32025,-2.32026 -31.53689,-2.32026 -33.85714,0 -1.29214,1.29214 -1.57143,4.30086 -1.57143,16.92857 0,12.62775 0.27929,15.63645 1.57143,16.92855 1.29214,1.2922 4.30086,1.5714 16.92857,1.5714 12.62771,0 15.63643,-0.2792 16.92857,-1.5714 z m -92.65042,-17.29217 c 0.18861,-9.73987 -0.0922,-14.8099 -0.87245,-15.75 -1.77584,-2.13976 -27.169643,-1.97957 -29.334264,0.18505 -1.270185,1.27018 -1.571428,4.10736 -1.571428,14.8 0,9.10812 0.3817,13.61022 1.225441,14.45402 0.88167,0.8817 5.299998,1.1482 15.749997,0.95 l 14.524554,-0.2755 0.27815,-14.36357 z m 126.65041,9.29217 c 0.9477,-0.9477 1.57143,-3.3008 1.57143,-5.9286 0,-5.61816 -1.88179,-7.49995 -7.5,-7.49995 -5.61821,0 -7.5,1.88179 -7.5,7.49995 0,5.6183 1.88179,7.5 7.5,7.5 2.62771,0 4.98087,-0.6237 5.92857,-1.5714 z m -77.99999,-11.99998 c 1.27737,-1.27737 1.57143,-4.1645 1.57143,-15.42857 0,-11.26407 -0.29406,-14.1512 -1.57143,-15.42857 -1.27737,-1.27737 -4.1645,-1.57143 -15.42857,-1.57143 -11.26407,0 -14.1512,0.29406 -15.42857,1.57143 -2.31012,2.31012 -2.31012,28.54702 0,30.85714 1.27737,1.27737 4.1645,1.57143 15.42857,1.57143 11.26407,0 14.1512,-0.29406 15.42857,-1.57143 z m 609.99994,-71.99999 c 1.20465,-1.20465 1.57143,-3.75541 1.57143,-10.92857 0,-12.26326 -0.23674,-12.5 -12.5,-12.5 -12.26326,0 -12.5,0.23674 -12.5,12.5 0,12.26326 0.23674,12.5 12.5,12.5 7.17316,0 9.72392,-0.36678 10.92857,-1.57143 z m -48,-18 c 1.20465,-1.20465 1.57143,-3.75541 1.57143,-10.92857 0,-12.26326 -0.23674,-12.5 -12.49999,-12.5 -12.26326,0 -12.5,0.23674 -12.5,12.5 0,12.26326 0.23674,12.5 12.5,12.5 7.17316,0 9.72391,-0.36678 10.92856,-1.57143 z m 61,-10 c 1.14378,-1.14378 1.57143,-3.57359 1.57143,-8.92857 0,-9.6673 -0.8327,-10.5 -10.5,-10.5 -9.6673,0 -10.5,0.8327 -10.5,10.5 0,9.6673 0.8327,10.5 10.5,10.5 5.35498,0 7.78479,-0.42765 8.92857,-1.57143 z m -32,-4 c 1.22627,-1.22627 1.57143,-3.84632 1.57143,-11.92857 0,-13.54098 0.041,-13.5 -13.5,-13.5 -13.54098,0 -13.5,-0.041 -13.5,13.5 0,13.54098 -0.041,13.5 13.5,13.5 8.08225,0 10.7023,-0.34516 11.92857,-1.57143 z M 465.34238,798.47584 c 2.33959,-2.33959 2.33959,-39.51754 0,-41.85713 -2.33959,-2.33959 -39.51755,-2.33959 -41.85714,0 -1.32033,1.32033 -1.57143,4.6645 -1.57143,20.92857 0,16.26406 0.2511,19.60823 1.57143,20.92856 1.32033,1.32033 4.6645,1.57143 20.92857,1.57143 16.26407,0 19.60824,-0.2511 20.92857,-1.57143 z M 413.69871,742.6918 c 0.18757,-7.14676 -0.1105,-11.33192 -0.87244,-12.25 -1.75014,-2.10879 -20.20144,-1.96268 -22.34102,0.17691 -2.00605,2.00605 -2.28638,20.31362 -0.34084,22.25916 0.86204,0.86204 4.53091,1.14656 12.25,0.95 l 11.0194,-0.28059 0.2849,-10.85548 z m 82.64367,-0.21595 c 1.16191,-1.1619 1.57143,-3.61905 1.57143,-9.42857 0,-5.80952 -0.40952,-8.26667 -1.57143,-9.42857 -1.1619,-1.16191 -3.61905,-1.57143 -9.42857,-1.57143 -10.3222,0 -11,0.6778 -11,11 0,10.3222 0.6778,11 11,11 5.80952,0 8.26667,-0.40952 9.42857,-1.57143 z m -39,-5 c 1.27171,-1.27171 1.57143,-4.11905 1.57143,-14.92857 0,-10.80952 -0.29972,-13.65686 -1.57143,-14.92857 -2.30623,-2.30623 -27.55091,-2.30623 -29.85714,0 -1.27171,1.27171 -1.57143,4.11905 -1.57143,14.92857 0,10.80952 0.29972,13.65686 1.57143,14.92857 2.30623,2.30623 27.55091,2.30623 29.85714,0 z m 423.99996,-43.99999 c 2.30841,-2.30841 2.32097,-34.91343 0.0147,-38.20606 -1.50989,-2.1557 -2.09388,-2.22251 -19.42855,-2.22251 -14.91381,0 -18.13196,0.26009 -19.44329,1.57143 -1.31124,1.31124 -1.57143,4.52814 -1.57143,19.42857 0,14.90043 0.26019,18.11733 1.57143,19.42857 2.33335,2.33335 36.52379,2.33335 38.85714,0 z m 36,-11 c 2.16395,-2.16396 2.17418,-14.12299 0.0147,-17.20607 -1.35685,-1.93721 -2.45639,-2.2225 -8.56572,-2.2225 -10.4502,0 -10.87755,0.41195 -10.87755,10.48549 0,10.10126 0.34536,10.44033 10.67857,10.4841 5.22396,0.0221 7.60645,-0.39747 8.75,-1.54102 z m -849.999921,-4 c 1.204653,-1.20465 1.571429,-3.75541 1.571429,-10.92857 0,-12.26326 -0.236739,-12.5 -12.499999,-12.5 -12.26326,0 -12.499999,0.23674 -12.499999,12.5 0,7.17316 0.366776,9.72392 1.571429,10.92857 1.204652,1.20465 3.755411,1.57143 10.92857,1.57143 7.17316,0 9.723918,-0.36678 10.92857,-1.57143 z m -47.999995,-18 c 1.204653,-1.20465 1.571429,-3.75541 1.571429,-10.92857 0,-7.17316 -0.366776,-9.72392 -1.571429,-10.92857 -1.204652,-1.20465 -3.755411,-1.57143 -10.9285701,-1.57143 -12.2632598,0 -12.4999988,0.23674 -12.4999988,12.5 0,12.26326 0.236739,12.5 12.4999988,12.5 7.1731591,0 9.7239181,-0.36678 10.9285701,-1.57143 z m 801.999916,-7 c 1.20465,-1.20465 1.57143,-3.75541 1.57143,-10.92857 0,-12.26326 -0.23674,-12.5 -12.49999,-12.5 -12.26326,0 -12.5,0.23674 -12.5,12.5 0,12.26326 0.23674,12.5 12.5,12.5 7.17315,0 9.72391,-0.36678 10.92856,-1.57143 z m -740.999923,-3 c 1.14378,-1.14378 1.57143,-3.57359 1.57143,-8.92857 0,-5.35498 -0.42765,-7.78479 -1.57143,-8.92857 -1.14378,-1.14378 -3.573592,-1.57143 -8.928569,-1.57143 -9.667297,0 -10.499999,0.8327 -10.499999,10.5 0,5.35498 0.427647,7.78479 1.571429,8.92857 1.143781,1.14378 3.573592,1.57143 8.92857,1.57143 5.354977,0 7.784789,-0.42765 8.928569,-1.57143 z m 862.999913,-3 c 1.20465,-1.20465 1.57143,-3.75541 1.57143,-10.92857 0,-12.26326 -0.23674,-12.5 -12.5,-12.5 -12.26326,0 -12.5,0.23674 -12.5,12.5 0,12.26326 0.23674,12.5 12.5,12.5 7.17316,0 9.72392,-0.36678 10.92857,-1.57143 z m -894.999909,-1 c 1.226273,-1.22627 1.571429,-3.84632 1.571429,-11.92857 0,-13.54098 0.04098,-13.5 -13.499999,-13.5 -13.540978,0 -13.499998,-0.041 -13.499998,13.5 0,13.54098 -0.04098,13.5 13.499998,13.5 8.08225,0 10.702298,-0.34516 11.92857,-1.57143 z m 859.536169,-6.36283 c 0.58455,-1.09225 1.03518,-8.61335 1.03518,-17.27749 0,-21.13964 1.36586,-19.78824 -20,-19.78824 -21.36586,0 -20,-1.3514 -20,19.78824 0,8.66414 0.45063,16.18524 1.03518,17.27749 0.96437,1.80194 2.26177,1.93426 18.96482,1.93426 16.70305,0 18.00045,-0.13232 18.96482,-1.93426 z m -57.53625,-0.63717 c 1.22627,-1.22627 1.57143,-3.84632 1.57143,-11.92857 0,-13.54098 0.041,-13.5 -13.5,-13.5 -13.54098,0 -13.5,-0.041 -13.5,13.5 0,13.54098 -0.041,13.5 13.5,13.5 8.08225,0 10.7023,-0.34515 11.92857,-1.57143 z"
         id="path3370"
         inkscape:connector-curvature="0" />
    </g>
  </g>
</svg>
