<?xml version="1.0" encoding="UTF-8" standalone="no"?>
<!-- Created with Inkscape (http://www.inkscape.org/) -->

<svg
   xmlns:dc="http://purl.org/dc/elements/1.1/"
   xmlns:cc="http://creativecommons.org/ns#"
   xmlns:rdf="http://www.w3.org/1999/02/22-rdf-syntax-ns#"
   xmlns:svg="http://www.w3.org/2000/svg"
   xmlns="http://www.w3.org/2000/svg"
   xmlns:sodipodi="http://sodipodi.sourceforge.net/DTD/sodipodi-0.dtd"
   xmlns:inkscape="http://www.inkscape.org/namespaces/inkscape"
   id="svg3341"
   version="1.1"
   inkscape:version="0.91 r13725"
   width="500"
   height="500"
   viewBox="0 0 500 500"
   sodipodi:docname="mountain.svg">
  <metadata
     id="metadata3347">
    <rdf:RDF>
      <cc:Work
         rdf:about="">
        <dc:format>image/svg+xml</dc:format>
        <dc:type
           rdf:resource="http://purl.org/dc/dcmitype/StillImage" />
        <dc:title />
      </cc:Work>
    </rdf:RDF>
  </metadata>
  <defs
     id="defs3345" />
  <sodipodi:namedview
     pagecolor="#ffffff"
     bordercolor="#666666"
     borderopacity="1"
     objecttolerance="10"
     gridtolerance="10"
     guidetolerance="10"
     inkscape:pageopacity="0"
     inkscape:pageshadow="2"
     inkscape:window-width="1440"
     inkscape:window-height="837"
     id="namedview3343"
     showgrid="false"
     inkscape:zoom="1.2"
     inkscape:cx="175.53749"
     inkscape:cy="-91.403067"
     inkscape:window-x="-8"
     inkscape:window-y="-8"
     inkscape:window-maximized="1"
     inkscape:current-layer="svg3341" />
  <g
     id="g3351"
     transform="matrix(0.51910299,0,0,1.1458333,1.6611216,-21.7)">
    <path
       style="fill:#fafafa"
       d="M 0,240 0,0 l 480,0 480,0 0,240 0,240 -480,0 -480,0 0,-240 z"
       id="path3367"
       inkscape:connector-curvature="0" />
    <path
       style="fill:#caeaf6"
       d="m -3.1999995,237.4902 0,-235.2941253 479.9999995,0 480,0 0,235.2941253 0,235.29411 -480,0 -479.9999995,0 0,-235.29411 z M 609.60457,215.61483 c 3.2285,-2.00065 8.16386,-10.64467 8.18566,-14.33675 0.005,-0.90984 0.64801,-2.19263 1.42808,-2.85067 1.12144,-0.94598 2.53432,-0.55666 6.75,1.86 8.47714,4.85953 18.32544,8.23517 24.02578,8.23517 8.66023,0 11.6212,-4.95914 5.55591,-9.30522 -1.7875,-1.28083 -8.68259,-7.60469 -15.32241,-14.05301 -12.62979,-12.26551 -24.1649,-21.71704 -30.91278,-25.32898 -9.2469,-4.94961 -12.05493,-3.38767 -50.26481,27.95943 l -9.25,7.58863 0,5.04496 c 0,3.7428 0.53304,5.58676 2.06515,7.144 2.4339,2.47384 5.16992,2.13295 14.43485,-1.79849 8.84668,-3.75394 11.15771,-4.01432 11.98943,-1.35078 1.12616,3.60641 6.71364,9.37142 11.00199,11.35155 5.67411,2.61999 15.95791,2.53907 20.31315,-0.15984 z M 324.84279,181.35385 c 4.56878,-2.94021 7.6971,-8.02439 9.62998,-15.65074 0.97361,-3.84147 2.29021,-6.98449 2.92577,-6.98449 0.63555,0 6.36088,2.54407 12.72295,5.6535 7.26312,3.54982 14.47188,6.25356 19.37295,7.2661 7.12138,1.47125 8.13114,1.47158 11.51997,0.004 2.59935,-1.12588 3.92433,-2.459 4.4137,-4.44079 0.63641,-2.57727 -0.0573,-3.55225 -7.71441,-10.84281 -25.89127,-24.65171 -49.68108,-43.62172 -58.16716,-46.38253 -4.1603,-1.35347 -8.8426,-0.67112 -12.73187,1.85542 -4.52415,2.93899 -26.57552,20.06035 -41.44773,32.18133 L 250.8,155.8847 l 0,4.82272 c 0,6.8666 1.67933,11.10396 4.70676,11.87627 3.64119,0.92886 11.96635,-1.23792 20.23938,-5.26773 3.96926,-1.93341 7.62258,-3.51531 8.1185,-3.51531 0.49592,0 2.01213,2.22734 3.36935,4.94965 3.86015,7.74261 10.14302,12.26894 19.97272,14.38884 5.86512,1.26488 14.20892,0.42024 17.63608,-1.78529 z"
       id="path3365"
       inkscape:connector-curvature="0" />
    <path
       style="fill:#b5d6ca"
       d="M 479.75,470.24897 0,469.99793 0,416.47422 0,362.9505 2.3081232,362.07295 C 3.577591,361.5903 24.615368,344.83894 49.058739,324.8477 215.85548,188.43145 251.2668,159.97653 252.72748,161.18879 253.45636,161.79371 254,164.4472 254,167.39994 c 0,3.04725 0.6365,6.06378 1.5567,7.37755 2.46462,3.51874 9.9505,3.02083 20.4433,-1.35974 12.57375,-5.24934 11.52683,-5.28501 14.45453,0.49253 4.55289,8.98469 14.44166,14.08972 27.29271,14.08972 7.09665,0 9.25029,-0.81785 14.00519,-5.31851 C 334.94808,179.6567 339,170.85109 339,166.9311 c 0,-3.57908 2.93945,-3.25328 12.29465,1.36269 12.02703,5.93429 20.76587,8.70621 27.44743,8.70621 4.64809,0 5.82425,-0.41249 8.33484,-2.92308 1.6077,-1.60769 2.92308,-3.63269 2.92308,-4.5 0,-3.83072 -0.24688,-4.0383 66.18545,55.64979 C 471.96244,239.40202 485.08041,251 485.33648,251 c 0.25607,0 14.79762,-11.68907 32.31455,-25.97571 17.51693,-14.28663 32.35899,-25.98663 32.98234,-26 1.37596,-0.0295 2.33457,3.24021 2.35298,8.02571 0.008,1.9525 0.55365,4.09 1.21365,4.75 2.06642,2.06642 7.99827,1.28772 16.32551,-2.14313 7.95916,-3.2792 10.47449,-3.59171 10.47449,-1.30138 0,2.18917 6.15039,8.68058 10.16512,10.72875 4.64498,2.36969 12.14773,3.45485 17.25813,2.49614 4.95373,-0.92933 9.97573,-6.22703 12.09591,-12.75996 0.94968,-2.92623 2.09891,-5.72546 2.55385,-6.22051 0.47712,-0.51918 3.70486,0.60801 7.62708,2.66354 14.90731,7.81249 25.44919,9.67818 29.84536,5.282 1.35,-1.35 2.45455,-2.925 2.45455,-3.5 0,-0.575 0.48242,-1.04545 1.07203,-1.04545 0.58962,0 11.72939,9.5625 24.75505,21.25 13.02565,11.6875 49.49711,44.425 81.04767,72.75 31.55056,28.325 57.93207,51.63515 58.62557,51.80033 0.6935,0.16519 18.75213,-3.73847 40.1303,-8.67479 21.37816,-4.93633 44.26938,-10.10767 50.86938,-11.49189 12.31766,-2.58338 39.62186,-6.84512 40.19344,-6.27354 0.17584,0.17584 0.20425,32.90425 0.0631,72.7298 L 959.5,470.5 Z M 701.76229,69.742781 c -19.10361,-6.601252 -13.49753,12.483265 -5.61529,-5.335829 11.12032,-25.139344 16.53517,-35.567366 29.66428,-11.565335 10.23844,18.717416 12.21403,7.856193 -8.23821,13.596334 -7.16589,2.01119 -9.36617,5.53177 -15.81078,3.30483 z"
       id="path3363"
       inkscape:connector-curvature="0"
       sodipodi:nodetypes="ccccsssssssssssssssssccssssssssssssscssssccsssss" />
    <path
       style="fill:#aac5ba"
       d="M 563.5,390.86402 C 529.27545,388.62968 481.38739,382.03739 415,370.42143 314.14574,352.77473 287.1193,348.43269 260,345.51932 c -53.69784,-5.76866 -132.31339,-0.63865 -248.25,16.19939 -5.8001204,0.84238 -4.7869592,-1.58277 3.5,-8.37777 25.509497,-20.91684 180.58498,-147.28888 205.67487,-167.60581 16.73367,-13.55036 30.74157,-24.44128 31.12865,-24.20205 0.38708,0.23923 0.89839,3.12529 1.13623,6.41347 0.53517,7.39865 2.59061,10.05345 7.78374,10.05345 4.56562,0 13.04421,-2.47244 19.24327,-5.61152 2.59421,-1.31367 5.29421,-2.382 6,-2.37407 0.70578,0.008 2.50093,2.22267 3.98921,4.92167 3.30835,5.99966 9.56527,10.50882 17.42149,12.5551 16.95518,4.41627 27.31765,-1.47348 31.4473,-17.87378 0.64418,-2.55827 1.45391,-4.8261 1.79941,-5.03963 0.3455,-0.21353 4.96588,1.74202 10.26751,4.34566 12.84473,6.30809 20.09723,8.56648 27.52776,8.57199 5.15675,0.004 6.59302,-0.39336 8.75,-2.41973 1.41931,-1.33338 2.58056,-2.99432 2.58056,-3.69099 0,-0.69666 0.46202,-1.55221 1.0267,-1.9012 1.04895,-0.64829 3.68335,1.64092 59.83594,51.99547 17.79945,15.96156 32.92468,29.34604 33.61162,29.74328 0.78878,0.45613 12.99867,-8.84071 33.13736,-25.2314 17.53861,-14.27451 32.33838,-25.8139 32.88838,-25.6431 0.55,0.1708 1.23712,2.63348 1.52693,5.47262 0.76699,7.51376 2.52832,8.89554 9.4803,7.43735 3.03611,-0.63683 8.29407,-2.40272 11.68436,-3.92419 4.17319,-1.87281 6.28995,-2.38891 6.55364,-1.59785 0.99171,2.97514 5.1482,7.9453 8.76956,10.48629 5.11852,3.59148 14.52838,5.38204 20.22411,3.84834 5.24161,-1.41142 10.86949,-7.57741 12.50813,-13.7041 0.67866,-2.53745 1.75207,-4.81237 2.38536,-5.05539 0.63328,-0.24301 4.81746,1.40141 9.29816,3.65426 9.76175,4.90811 18.91165,7.44813 23.33259,6.47712 1.74471,-0.3832 4.41674,-2.02901 5.93784,-3.65735 l 2.76564,-2.96062 18.26669,16.38915 c 10.04668,9.01404 45.04169,40.37134 77.76669,69.6829 63.20431,56.61167 66.68585,59.86493 65.35266,61.06756 -1.72068,1.55218 -74.02353,16.85936 -113.35266,23.9978 -67.96869,12.33668 -106.81371,15.68914 -149.5,12.90238 z"
       id="path3359"
       inkscape:connector-curvature="0" />
    <path
       style="fill:#868888"
       d="m 560,388.90719 c -39.32863,-2.7605 -80.11845,-8.73088 -180.5,-26.41967 -64.3389,-11.33751 -96.90569,-16.28047 -124.99094,-18.971 -47.34471,-4.53556 -124.596,0.1132 -217.3116,13.07718 -13.916397,1.94587 -25.815258,3.36703 -26.441913,3.15815 C 9.3658658,359.28862 12.818814,356.41663 111,276.37331 213.85524,192.51941 250.33241,163 251.09549,163 c 0.34359,0 0.88582,2.52992 1.20495,5.62205 0.40525,3.9265 1.27681,6.37081 2.8899,8.10477 2.07146,2.22669 2.8924,2.43107 7.96017,1.98181 3.36934,-0.2987 9.1991,-2.02508 14.44051,-4.27631 8.25356,-3.54498 8.85466,-3.66455 9.84949,-1.95936 5.96144,10.2182 14.56199,15.83267 26.15522,17.07419 13.91899,1.4906 22.76306,-5.17232 26.48491,-19.95313 0.64742,-2.57112 1.45663,-4.54004 1.79824,-4.37538 0.34162,0.16467 4.22112,2.14446 8.62112,4.39955 20.69812,10.6082 35.14941,12.01097 39.52421,3.83656 0.72256,-1.35011 1.68079,-2.45475 2.1294,-2.45475 0.70021,0 29.18345,25.2311 79.28463,70.2321 7.18397,6.45266 13.62725,11.52814 14.3184,11.27884 0.69115,-0.24929 15.17138,-11.75596 32.1783,-25.57036 17.00692,-13.81441 31.29144,-25.09201 31.74337,-25.06135 0.45193,0.0307 1.07427,2.15746 1.38297,4.72623 1.10345,9.18197 6.28788,10.28259 20.3808,4.32668 6.60025,-2.78939 7.12277,-2.86768 8.05792,-1.20747 2.65978,4.72199 10.29369,10.95792 15.05529,12.29825 12.59306,3.54477 20.97513,0.57388 25.8218,-9.15212 1.4426,-2.89492 2.62291,-6.07513 2.62291,-7.06714 0,-2.33413 1.71121,-2.27712 5.76077,0.19193 5.30604,3.23513 15.03793,7.0351 20.69584,8.08102 5.87974,1.08693 9.56814,0.17207 13.26407,-3.29 1.93939,-1.81666 2.44608,-1.90376 4,-0.68764 4.39412,3.43889 156.58653,140.03881 157.48853,141.35343 0.9923,1.44623 -0.10747,1.76173 -26.33749,7.55568 -69.86579,15.43266 -128.47262,25.59951 -169.8091,29.45771 -17.34644,1.61906 -48.41416,1.82054 -68.06262,0.4414 z"
       id="path3357"
       inkscape:connector-curvature="0" />
    <path
       style="fill:#7e8080"
       d="M 13.055431,358.05838 C 13.085918,357.75127 37.699556,337.475 67.752405,313 228.40196,182.16722 249.59195,165 250.43304,165 c 0.31183,0 0.56696,1.36445 0.56696,3.03212 0,4.29253 2.43997,9.5978 5.05876,10.99933 3.55443,1.90227 11.6873,0.62336 21.43706,-3.37103 4.9477,-2.02703 9.13984,-3.25345 9.31586,-2.72538 1.05702,3.17106 6.54937,9.73245 10.19788,12.18282 4.76017,3.19697 8.98003,4.58965 16.74044,5.52484 l 5.25,0.63266 0,79.36232 0,79.36232 -2.38052,0 c -1.30928,0 -11.32178,-1.32008 -22.25,-2.93351 -39.47844,-5.82856 -49.21463,-6.56878 -84.86948,-6.45245 -33.32088,0.10871 -57.21574,1.44607 -97,5.42893 -22.53769,2.25628 -70.005465,8.0922 -87.75,10.78842 -6.4625,0.98195 -11.725056,1.53409 -11.694569,1.22699 z M 596.17576,353.66234 C 593.05409,350.72663 567.325,327.45923 539,301.95701 510.675,276.45479 487.5,255.05183 487.5,254.39489 487.5,253.42667 548.2316,203 549.39767,203 c 0.18823,0 0.58115,2.11974 0.87317,4.71054 1.03645,9.19538 7.63517,10.52594 21.35357,4.30572 3.76544,-1.70733 6.99567,-2.65602 7.17828,-2.10819 2.12311,6.36933 10.82381,12.58594 20.00477,14.29332 l 6.19254,1.15162 0,66.8235 C 605,352.30905 604.84237,359 603.42576,359 c -0.86583,0 -4.12833,-2.40195 -7.25,-5.33766 z"
       id="path3355"
       inkscape:connector-curvature="0" />
    <path
       style="fill:#7b7c7c"
       d="M 27.5,346.88467 C 97.790796,289.40276 200.55075,205.74081 245.66804,169.26328 l 4.16803,-3.36988 1.12965,5.44146 c 1.52914,7.36584 3.72752,9.19301 10.90302,9.06198 3.98597,-0.0728 8.33298,-1.1769 14.76425,-3.75 C 286.91553,172.53287 287,172.51377 287,174.303 c 0,0.71665 1.37852,3.17749 3.06337,5.46853 3.85326,5.23962 13.32357,10.10328 21.26951,10.92338 l 5.66712,0.5849 0,79.42748 c 0,75.17889 -0.0936,79.39936 -1.75,78.90161 -3.34831,-1.00618 -43.85363,-6.52778 -59.75,-8.145 -28.1369,-2.86251 -77.1124,-2.0355 -123.5,2.08545 -37.335703,3.3168 -106.008535,11.7042 -116,14.16773 -1.471584,0.36284 3.259128,-4.09325 11.5,-10.83241 z m 568.5,3.90626 c -3.025,-2.82305 -28.225,-25.61085 -56,-50.63955 -27.775,-25.02871 -50.59642,-45.98928 -50.71427,-46.57906 -0.11785,-0.58978 13.15715,-11.89459 29.5,-25.12182 L 548.5,204.40101 l 1.15475,4.33226 c 1.66491,6.24625 2.85084,7.26673 8.44487,7.26673 4.12422,0 9.06578,-1.42055 19.15038,-5.50517 1.24168,-0.50292 1.75,-0.23439 1.75,0.9245 0,0.89831 1.98336,3.61666 4.40746,6.04076 C 587.76143,221.81406 595.06047,225 600.6815,225 l 2.3185,0 0,65.5 c 0,36.025 -0.3375,65.48285 -0.75,65.46188 -0.4125,-0.021 -3.225,-2.34789 -6.25,-5.17095 z"
       id="path3353"
       inkscape:connector-curvature="0" />
  </g>
  <circle
     style="fill:#ffff00;fill-opacity:1"
     id="path3419"
     cx="370.20834"
     cy="37.541664"
     r="22.291666" />
</svg>
