<?xml version="1.0" encoding="UTF-8" standalone="no"?>
<!-- Created with Inkscape (http://www.inkscape.org/) -->

<svg
   xmlns:dc="http://purl.org/dc/elements/1.1/"
   xmlns:cc="http://creativecommons.org/ns#"
   xmlns:rdf="http://www.w3.org/1999/02/22-rdf-syntax-ns#"
   xmlns:svg="http://www.w3.org/2000/svg"
   xmlns="http://www.w3.org/2000/svg"
   xmlns:sodipodi="http://sodipodi.sourceforge.net/DTD/sodipodi-0.dtd"
   xmlns:inkscape="http://www.inkscape.org/namespaces/inkscape"
   id="svg3400"
   version="1.1"
   inkscape:version="0.91 r13725"
   width="400"
   height="320"
   viewBox="0 0 400 320"
   sodipodi:docname="sky.svg">
  <metadata
     id="metadata3406">
    <rdf:RDF>
      <cc:Work
         rdf:about="">
        <dc:format>image/svg+xml</dc:format>
        <dc:type
           rdf:resource="http://purl.org/dc/dcmitype/StillImage" />
        <dc:title />
      </cc:Work>
    </rdf:RDF>
  </metadata>
  <defs
     id="defs3404" />
  <sodipodi:namedview
     pagecolor="#ffffff"
     bordercolor="#666666"
     borderopacity="1"
     objecttolerance="10"
     gridtolerance="10"
     guidetolerance="10"
     inkscape:pageopacity="0"
     inkscape:pageshadow="2"
     inkscape:window-width="1440"
     inkscape:window-height="837"
     id="namedview3402"
     showgrid="false"
     inkscape:zoom="0.72"
     inkscape:cx="-7.6388889"
     inkscape:cy="160"
     inkscape:window-x="-8"
     inkscape:window-y="-8"
     inkscape:window-maximized="1"
     inkscape:current-layer="svg3400" />
  <g
     id="g3410"
     transform="matrix(1.1749112,0,0,1.5625,-0.1076504,-157.77777)">
    <path
       style="fill:#fcfdfd"
       d="M 0,160 0,0 l 200,0 200,0 0,160 0,160 -200,0 -200,0 0,-160 z"
       id="path3426"
       inkscape:connector-curvature="0" />
    <path
       style="fill:#e7f5fd"
       d="m 0,316.0753 c 0,-2.17345 0.90263189,-4.58471 2.0228878,-5.40386 1.5036636,-1.09952 1.7990142,-2.49847 1.1506808,-5.4503 C 2.6938549,303.03701 1.7835554,301.25 1.1506809,301.25 c -2.10765349,0 -1.18599794,-6.31663 1.3130442,-8.99904 2.6317743,-2.82487 2.3685263,-3.02882 4.3792428,3.3928 0.3261323,1.04156 2.0031512,2.42991 3.7267091,3.0852 2.674189,1.01673 3.022679,1.74675 2.376402,4.97814 -0.923445,4.61722 1.200811,7.5429 5.47671,7.5429 2.856985,0 12.365617,-2.6638 18.452211,-5.1693 1.375,-0.56601 4.046875,-1.5893 5.9375,-2.27396 2.070006,-0.74964 3.4375,-2.16883 3.4375,-3.56746 0,-1.27744 0.37012,-2.69273 0.822489,-3.14511 1.422585,-1.42258 4.177511,1.83114 4.177511,4.93388 0,4.21813 4.237731,7.96449 9.0625,8.0117 2.234375,0.0219 5.154385,0.86562 6.488912,1.875 1.334527,1.00939 4.709527,1.89133 7.5,1.95985 7.276068,0.17869 11.047008,1.48974 11.410613,3.96714 C 86.006835,319.85041 83.047465,320 43.014395,320 L 0,320 0,316.0753 Z m 102.5908,-0.7628 c 1.53708,-2.57813 3.49773,-5.45719 4.357,-6.3979 1.73537,-1.89989 4.3022,-0.92587 4.3022,1.63252 0,0.90727 1.62974,2.32464 3.62163,3.1497 2.98192,1.23516 4.30671,1.14588 7.5,-0.50545 2.13311,-1.10306 3.87837,-2.78487 3.87837,-3.73736 0,-2.93705 6.99608,-7.80391 12.47821,-8.68054 3.29444,-0.5268 5.02468,-1.39671 4.7056,-2.36581 -0.77411,-2.35114 -5.5708,-2.55369 -8.69264,-0.36707 -3.71098,2.59929 -11.45579,2.53731 -13.65061,-0.10925 -2.52683,-3.04683 -9.05544,-5.43134 -14.8707,-5.43134 -4.86472,0 -5.23165,0.27402 -7.631501,5.69929 -1.386586,3.13461 -3.33381,6.01116 -4.327163,6.39235 C 90.690771,305.96174 77.5,298.17276 77.5,294.69438 c 0,-0.73338 1.434876,-3.21462 3.188614,-5.51389 C 83.454936,285.55365 84.607409,285 89.390635,285 c 4.843638,0 6.216496,-0.68333 11.301105,-5.625 6.56992,-6.38524 8.86828,-6.94499 10.5334,-2.56538 1.53651,4.0413 6.72402,7.36303 9.91644,6.34979 3.50673,-1.11299 7.16757,1.16393 8.14726,5.06733 0.71246,2.83866 1.29245,3.17933 4.20628,2.47075 1.85893,-0.45207 6.09373,-1.32917 9.41067,-1.94913 6.29685,-1.17692 13.44996,-4.69061 14.21373,-6.98192 0.80699,-2.42099 -5.43977,-4.13017 -12.45053,-3.40659 -6.1568,0.63544 -7.00798,0.41859 -8.89465,-2.26609 -1.14748,-1.63281 -2.68633,-5.18869 -3.41966,-7.90192 -1.55872,-5.76704 -0.19624,-7.3509 8.23169,-9.56915 2.77126,-0.7294 6.35306,-2.16909 7.95958,-3.19932 3.33735,-2.14015 3.44476,-2.07931 6.25099,3.54023 1.79462,3.5938 2.85475,4.2508 7.77236,4.81687 3.14711,0.36227 7.27637,1.89994 9.23107,3.4375 5.3025,4.17095 12.7819,3.79638 17.92105,-0.89751 7.70322,-7.0358 3.56242,-16.33615 -6.54322,-14.69624 -2.82481,0.4584 -4.7571,0.11063 -5.70039,-1.02595 -0.78485,-0.94568 -4.04898,-1.88905 -7.25366,-2.09635 -7.18161,-0.46457 -8.11892,-3.06601 -2.39494,-6.647 2.63402,-1.64786 4.25161,-3.81101 4.67374,-6.25 l 0.64556,-3.72992 11.72094,-0.1955 c 9.46054,-0.15781 12.35105,-0.66514 14.98825,-2.63068 3.9348,-2.93265 7.71644,-9.11748 8.79287,-14.38067 0.43378,-2.12093 1.44129,-4.07377 2.23892,-4.33965 1.54297,-0.51433 4.07313,6.93986 4.13133,12.1715 0.0191,1.71875 1.08058,4.48545 2.35881,6.14822 1.86399,2.4248 3.35702,2.98275 7.54272,2.81874 2.87029,-0.1125 6.18587,-0.7221 7.36796,-1.35474 1.3251,-0.70917 2.97428,-0.68853 4.3008,0.0539 1.65536,0.92639 3.49163,0.18085 7.9624,-3.23285 6.42159,-4.90324 9.18029,-4.40711 9.21563,1.65735 0.0375,6.43091 4.52887,9.15735 14.42574,8.75695 3.9586,-0.16015 7.49602,0.3434 8.33981,1.18719 0.80592,0.80592 4.63406,1.46531 8.50697,1.46531 3.87293,0 7.2937,0.25202 7.60173,0.56006 0.30804,0.30803 0.3427,2.83928 0.077,5.625 -0.4421,4.63594 -0.788,5.06494 -4.08378,5.06494 -1.98042,0 -6.06602,-0.65935 -9.07912,-1.46524 -5.06843,-1.3556 -5.90481,-1.2153 -11.17803,1.875 -3.13482,1.83714 -6.24138,3.34024 -6.90348,3.34024 -0.66209,0 -3.92662,-2.25 -7.2545,-5 -6.95233,-5.74507 -11.15352,-6.32749 -17.47238,-2.42221 -2.77171,1.71301 -5.75657,2.44686 -8.89754,2.1875 -4.11051,-0.33942 -4.77811,-0.83795 -5.12183,-3.82474 -0.27615,-2.39972 -1.2904,-3.65912 -3.36645,-4.18018 -3.88107,-0.97408 -5.48827,0.13503 -7.63263,5.26723 -0.9703,2.32226 -2.48481,4.22235 -3.36556,4.22235 -2.31594,0 -10.86509,11.66397 -10.86509,14.82369 0,2.33704 0.7103,2.67631 5.60305,2.67631 4.95207,0 6.29544,-0.66424 11.5625,-5.71724 5.20962,-4.99789 6.43127,-5.61109 9.70945,-4.8736 2.0625,0.464 6.62106,0.78188 10.13014,0.70639 9.14331,-0.19669 13.29567,3.18806 12.21347,9.95574 -1.56489,9.78628 2.00606,11.81334 23.28139,13.21567 l 9.375,0.61794 6.875,-5.6892 c 7.27721,-6.02203 12.5958,-11.07645 17.14284,-16.29134 1.5223,-1.7459 3.97677,-3.17436 5.45437,-3.17436 2.38404,0 2.58421,0.45742 1.77779,4.0625 -0.49981,2.23437 -1.05026,7.4375 -1.22324,11.5625 l -0.3145,7.5 -6.73112,3.6607 c -3.70213,2.01338 -7.38855,4.54463 -8.19205,5.625 -5.13364,6.90258 -4.10884,6.58648 -12.05683,3.71906 -6.67582,-2.40845 -7.44737,-2.45942 -9.47342,-0.62589 -1.21313,1.09788 -3.48892,1.99613 -5.05729,1.99613 -1.56839,0 -6.02409,1.62882 -9.90157,3.61962 -3.87749,1.99079 -8.04712,3.94678 -9.26583,4.34664 -2.38024,0.78098 -4.21234,4.14721 -2.94624,5.41331 0.42447,0.42448 1.80388,-0.16228 3.06535,-1.3039 3.31044,-2.99591 4.81001,-2.57181 5.64359,1.59608 0.63798,3.18985 1.35571,3.72302 5.46875,4.0625 3.49294,0.28829 5.05796,1.12825 5.96831,3.20325 0.99314,2.2637 2.24159,2.8125 6.39803,2.8125 4.45376,0 5.93786,-0.77375 10.78911,-5.625 4.1133,-4.1133 6.61174,-5.625 9.29663,-5.625 2.0194,0 5.57272,-1.40259 7.8963,-3.11686 3.88518,-2.8664 4.45362,-2.96685 7.07387,-1.25 7.15995,4.69138 14.76094,0.0536 14.01936,-8.55395 -0.67955,-7.8874 2.75558,-9.14148 9.11922,-3.32919 2.49722,2.28086 5.46572,3.75 7.57715,3.75 3.13677,0 3.47142,0.42352 3.47142,4.39337 0,3.6152 0.71956,4.8321 4.0625,6.87033 4.8964,2.9854 18.44614,3.41315 24.70847,0.78004 4.69203,-1.97285 11.37419,-0.93108 14.98442,2.33613 1.48685,1.34558 4.04027,1.99735 7.09611,1.8113 C 399.64194,310.7321 400,310.9331 400,315.625 l 0,4.375 -119.61391,0 c -105.44035,0 -119.3264,-0.21746 -117.1875,-1.83525 1.33452,-1.00938 3.71074,-1.85312 5.28046,-1.875 1.56974,-0.0219 5.62916,-1.446 9.02095,-3.16475 7.18375,-3.64029 13.16089,-3.96156 19.29362,-1.03706 8.4537,4.03129 17.09332,-1.19182 29.92858,-18.09337 4.38576,-5.77518 5.27825,-6.35838 9.375,-6.12619 4.25459,0.24113 4.5278,0.0304 4.5278,-3.49338 0,-2.95585 -0.6057,-3.83591 -2.8601,-4.15568 -1.57305,-0.22312 -3.53649,-1.48875 -4.36318,-2.8125 -1.83018,-2.93057 -6.59277,-3.16641 -7.66223,-0.37942 -0.5611,1.4622 -1.75135,1.83272 -4.26945,1.32911 -9.19275,-1.83855 -19.18788,3.63618 -24.10993,13.20599 -2.56662,4.99024 -4.83376,5.85657 -7.36011,2.8125 -2.29484,-2.76511 -7.84357,-2.28661 -14.49503,1.25 -4.70497,2.50166 -7.67658,3.125 -14.89757,3.125 -10.96184,0 -14.50403,2.21957 -16.83636,10.54986 -1.71307,6.11846 -1.01395,5.7721 -15.33354,7.59675 -3.26562,0.41611 -5.9375,1.2846 -5.9375,1.92998 0,0.64537 -5.10838,1.17341 -11.35195,1.17341 l -11.351949,0 2.794699,-4.6875 z M 394,301 c -0.825,-0.825 -1.5,-2.21146 -1.5,-3.08103 0,-1.93972 3.80465,-4.03566 5.9375,-3.2709 2.24406,0.80464 1.92896,6.19383 -0.41474,7.09319 C 395.50532,302.7073 395.75292,302.75292 394,301 Z m -16.5,-11.18178 c -7.56114,-6.61955 -11.43779,-7.69685 -19.38419,-5.38677 -7.03352,2.0447 -9.36581,1.71359 -9.36581,-1.32964 0,-0.96285 -1.53339,-3.17247 -3.40753,-4.91027 -2.70187,-2.50533 -3.32796,-4.08324 -3.02328,-7.61957 0.32167,-3.73366 -0.33084,-5.13433 -4.00701,-8.60141 C 333.58309,257.51046 334.0559,255 339.625,255 c 4.93824,0 7.56946,-4.005 8.53118,-12.98534 0.99934,-9.33186 0.11337,-14.51466 -2.48123,-14.51466 -3.79928,0 -3.056,-2.73668 2.70576,-9.9623 6.29576,-7.8953 7.82384,-8.72979 10.36929,-5.6627 0.85586,1.03125 3.11455,1.875 5.01933,1.875 1.92528,0 3.78271,-0.83264 4.18271,-1.875 1.14531,-2.98465 4.26664,-2.17874 6.05158,1.5625 1.35398,2.8379 2.57236,3.5049 6.98499,3.82391 5.00267,0.36168 5.76249,-0.0385 11.86566,-6.25 l 6.52073,-6.63641 0.3648,9.67195 c 0.39444,10.45764 -0.96555,14.70305 -4.71001,14.70305 -1.31024,0 -2.72989,0.5625 -3.15479,1.25 -0.4249,0.6875 -3.01727,1.25 -5.76085,1.25 -2.74356,0 -6.58086,0.82355 -8.52733,1.8301 -4.03516,2.08666 -10.08682,8.81877 -10.08682,11.22099 0,0.8851 -2.67188,2.55291 -5.9375,3.70625 -11.52948,4.07195 -12.15019,4.62052 -12.56901,11.10832 -0.48293,7.48088 2.06657,8.98162 7.08703,4.17171 1.88721,-1.80806 4.19996,-3.28737 5.13945,-3.28737 0.9395,0 2.69902,-0.8967 3.91003,-1.99265 2.02834,-1.83563 2.3307,-1.78636 3.83661,0.625 2.09136,3.34879 6.21754,3.3614 8.30094,0.0254 0.8904,-1.42576 3.65966,-3.44497 6.15393,-4.48715 2.49425,-1.04216 6.08883,-3.55821 7.98794,-5.59122 1.89912,-2.033 4.6089,-3.91899 6.02176,-4.19109 2.44364,-0.47061 2.56882,0.0739 2.56882,11.17478 0,12.27083 -0.43829,13.18696 -6.30874,13.18696 -3.52464,0 -10.84167,7.02819 -12.47756,11.985 -1.18776,3.59893 -1.09198,4.88959 0.54868,7.39355 4.20298,6.41458 2.09096,7.25181 -4.26238,1.68967 z M 40.905639,280.48897 c -0.461945,-0.46195 -3.069216,-0.96568 -5.793938,-1.11942 -3.104007,-0.17514 -7.165882,-1.74459 -10.876948,-4.2027 -3.372554,-2.23389 -7.308739,-3.82341 -9.141333,-3.69148 -1.770131,0.12744 -4.454228,-0.43747 -5.9646592,-1.25535 -1.5104315,-0.81788 -4.1823065,-1.60591 -5.9375,-1.75117 C 0.00507456,268.20515 0,268.18529 0,255.97736 0,246.42496 0.37670786,243.75 1.7219441,243.75 c 0.9470693,0 2.4221944,0.84375 3.2780559,1.875 0.8558615,1.03125 3.0341116,1.88514 4.8405559,1.89754 3.5401871,0.0242 10.2770101,6.94027 11.9765601,12.29509 0.993564,3.13043 7.370148,6.43237 12.42199,6.43237 1.688172,0 5.567067,-1.90651 8.619767,-4.23669 3.0527,-2.33017 6.892661,-4.65397 8.533246,-5.164 1.640585,-0.51001 4.475965,-1.9785 6.300843,-3.26331 3.743317,-2.63546 5.153574,-2.83642 8.261499,-1.17725 1.193796,0.63731 3.154914,1.46341 4.358039,1.83577 1.50485,0.46574 2.183984,1.95704 2.176231,4.77875 -0.0085,3.09347 0.960163,4.90023 3.940645,7.35013 6.278003,5.16039 1.870208,8.0183 -7.388678,4.79064 -4.501499,-1.56924 -9.809498,0.59406 -13.598447,5.5421 -1.603008,2.09339 -4.070987,3.27219 -8.006982,3.82442 -3.129351,0.43908 -6.067685,0.42035 -6.52963,-0.0416 z m 52.331062,-29.11555 c -1.383039,-1.52823 -4.548538,-2.5085 -9.57128,-2.96395 -4.206584,-0.38143 -8.99587,-1.69218 -10.897607,-2.98248 C 69.809234,243.41962 66.335326,243.0885 45.625,242.83984 32.5625,242.68299 19.90625,242.52404 17.5,242.4866 12.257723,242.40504 0,237.61289 0,235.64499 0,233.00167 3.0116396,231.25 7.5562655,231.25 c 2.9687765,0 5.3445535,-0.87105 6.8187345,-2.5 2.907202,-3.21243 5.678305,-3.19116 6.525905,0.0501 0.715019,2.73424 6.289455,6.19994 9.97234,6.19994 1.236068,0 7.463403,-2.28756 13.838522,-5.08347 13.484199,-5.91372 16.983175,-6.02165 17.553504,-0.54153 0.805036,7.73538 10.13044,9.39531 18.543657,3.30081 4.837314,-3.50413 11.423477,-4.98682 24.787122,-5.58011 4.28837,-0.19039 5.19846,0.25033 6.62705,3.20919 1.64065,3.39806 3.64744,4.31429 10.9019,4.97735 3.16325,0.28914 3.69659,0.8213 3.40866,3.4012 -0.4777,4.28022 -3.93092,7.76764 -6.79223,6.8595 -1.99067,-0.63181 -2.21899,-0.26376 -1.53269,2.47067 0.90873,3.62067 -2.29801,5.89713 -4.79276,3.40237 -1.96566,-1.96565 -8.5158,-1.76899 -13.736731,0.41246 -4.008186,1.67472 -4.549782,1.63647 -6.442548,-0.45501 z M 398.84869,235.52084 c 0.06,-1.45619 0.35617,-1.75238 0.7552,-0.75522 0.36108,0.90234 0.31668,1.98047 -0.0986,2.39584 -0.41536,0.41537 -0.7108,-0.32292 -0.65652,-1.64062 z m -93.30151,-6.89677 c -0.47975,-0.77626 -2.39799,-1.06641 -4.40129,-0.66575 -2.64095,0.52819 -4.49024,-0.0802 -7.21635,-2.37407 -2.01599,-1.69634 -4.23195,-3.08425 -4.92437,-3.08425 -0.69242,0 -2.86122,-1.97222 -4.81956,-4.38271 -1.95833,-2.4105 -5.19485,-6.38114 -7.19226,-8.82365 C 272.88,204.26367 265.39349,200 260.6748,200 c -2.45699,0 -3.17638,-0.6359 -3.18178,-2.8125 -0.0266,-10.7308 -6.48281,-17.77835 -15.03397,-16.41096 -3.57761,0.57208 -5.21874,0.0984 -8.15641,-2.35432 -8.67347,-7.24155 -16.10769,-8.8896 -22.79292,-5.0528 -3.60597,2.06954 -3.78617,2.04092 -7.65763,-1.2167 -2.18062,-1.83487 -6.12561,-3.98353 -8.76666,-4.77481 -4.33761,-1.29957 -5.32327,-1.12777 -10.19404,1.7768 -2.99608,1.78664 -6.25293,5.01819 -7.32926,7.27231 -1.28529,2.69173 -3.19899,4.38375 -5.68713,5.02838 -2.0625,0.53435 -5.84569,2.70514 -8.40707,4.82399 -5.49357,4.54442 -7.74258,11.24352 -6.51743,19.41338 0.56207,3.74818 0.38024,5.55723 -0.55857,5.55723 -0.76557,0 -1.39193,-0.50949 -1.39193,-1.1322 0,-1.99685 -11.56354,-8.8678 -14.92414,-8.8678 -1.78504,0 -5.41182,1.47204 -8.05954,3.2712 -4.22971,2.87417 -5.44073,3.13626 -9.97766,2.15944 -5.1384,-1.10633 -5.16176,-1.13728 -4.77491,-6.32381 0.742,-9.94817 -5.85536,-15.03939 -17.588791,-13.57339 -6.25223,0.78116 -6.801272,0.61683 -10.326635,-3.0908 C 84.584019,178.682 79.888896,176.25 74.979898,176.25 c -5.229678,0 -8.317974,-1.82758 -10.62406,-6.28705 -1.056022,-2.04213 -2.618768,-3.71295 -3.47277,-3.71295 -0.854003,0 -3.713544,-1.46831 -6.354537,-3.26291 -4.02128,-2.73253 -5.642972,-3.1284 -9.976682,-2.43542 -3.045007,0.48692 -6.599558,2.19243 -8.636378,4.14383 -3.427076,3.28335 -3.498967,3.2942 -7.228785,1.09094 -2.072006,-1.22397 -6.763126,-2.53459 -10.42471,-2.9125 -5.71491,-0.58983 -7.478876,-0.2057 -12.4597014,2.71326 L 0,168.98755 l 0,-13.7969 0,-13.7969 5.3017165,-0.38438 c 7.3506425,-0.53292 7.4888925,-3.34819 0.3496686,-7.12057 L 0,130.9026 0,65.451297 0,0 l 200,0 200,0 0,65 c 0,51.09603 -0.33423,65.02834 -1.5625,65.13245 -5.53276,0.46901 -9.25339,-0.74148 -12.29848,-4.00125 -3.79546,-4.06306 -5.36576,-4.34193 -9.88902,-1.7562 -1.71875,0.98252 -4.63358,1.80635 -6.47739,1.8307 -3.21472,0.0425 -5.21822,2.07825 -9.27527,9.42466 -0.75772,1.37205 -2.71056,2.69073 -4.33968,2.9304 -1.6291,0.23967 -4.04615,1.19511 -5.3712,2.12323 -2.03281,1.42384 -2.95623,1.40457 -5.91075,-0.12325 -6.7907,-3.5116 -14.12582,-1.3712 -22.60551,6.59635 -2.76601,2.59896 -4.11784,3.00904 -7.70256,2.33653 -3.08663,-0.57904 -5.5274,-0.15663 -8.4145,1.45627 -5.80023,3.24035 -7.26548,5.9735 -4.62041,8.61856 1.79363,1.79365 2.83597,1.90206 6.85381,0.71291 7.50165,-2.22025 16.79789,-2.9344 18.61092,-1.42971 1.74119,1.44505 7.42183,0.12463 15.08363,-3.50604 4.3942,-2.08229 6.66891,-1.36789 6.66891,2.09443 0,2.40986 -2.33435,3.80996 -6.35224,3.80996 -1.83085,0 -2.39776,0.88662 -2.39776,3.75 0,3.46386 0.33927,3.75 4.44648,3.75 11.34156,0 20.78429,-4.51893 22.33251,-10.68748 0.71299,-2.84077 6.59929,-5.5366 12.13046,-5.55555 5.27358,-0.0181 6.58657,-9.04505 1.42236,-9.77888 -1.53625,-0.2183 -4.05203,0.48482 -5.59063,1.5625 -3.42839,2.40135 -13.94735,2.7179 -13.18895,0.39691 0.2808,-0.85938 2.29683,-2.15354 4.48008,-2.87593 2.18325,-0.72238 4.64413,-1.98801 5.46862,-2.8125 0.82448,-0.82448 2.4427,-1.49907 3.59602,-1.49907 1.15331,0 2.81698,-0.86759 3.69701,-1.92798 1.1101,-1.33757 1.99909,-1.52897 2.90307,-0.625 0.71663,0.71664 3.90153,1.30298 7.07755,1.30298 4.60632,0 6.32597,0.63415 8.5,3.13451 2.4704,2.8412 2.72382,4.50799 2.70836,17.8125 -0.02,17.19458 -0.68449,20.82258 -3.58471,19.5719 -7.7635,-3.34789 -14.93143,-0.22409 -21.97159,9.57531 -2.43236,3.38568 -5.29395,6.15578 -6.35909,6.15578 -1.06512,0 -4.77455,2.83796 -8.24317,6.30657 -5.97313,5.97313 -10.97643,8.74415 -18.97077,10.50677 -2.1546,0.47505 -4.33788,2.25707 -5.625,4.59121 -1.28742,2.33469 -4.52857,4.97975 -8.35361,6.81727 -3.4375,1.65137 -8.5,4.3901 -11.25,6.0861 -5.45132,3.36199 -8.75455,3.95727 -10.07782,1.81615 z m -27.07679,-59.97028 c 0.20575,-1.06838 -1.75655,-4.60274 -4.36065,-7.85414 -3.95998,-4.94428 -5.2461,-5.79375 -7.85974,-5.1913 -11.3385,2.6136 -13.20764,2.37512 -18.44076,-2.35268 -2.75941,-2.49296 -5.71359,-6.2141 -6.56483,-8.26917 -1.61818,-3.90663 -3.54761,-4.6833 -5.86858,-2.36233 -0.75579,0.75579 -2.5617,0.99727 -4.01312,0.5366 -1.93126,-0.61296 -2.56978,-1.7453 -2.38103,-4.22245 0.14186,-1.86167 -0.16669,-4.0719 -0.68565,-4.9116 -1.34022,-2.16851 -5.38819,-1.8925 -6.2787,0.42812 -0.51379,1.33892 -2.01013,1.83122 -4.74922,1.5625 -3.29599,-0.32337 -4.1757,-1.07895 -5.0036,-4.29764 -1.38451,-5.3826 -2.9826,-6.38706 -12.60826,-7.92477 -9.99424,-1.59659 -11.60003,-0.89268 -17.92465,7.85747 -5.17365,7.15778 -10.26848,9.5976 -20.04159,9.5976 -6.85824,0 -7.34821,0.22326 -12.40357,5.65189 l -5.26329,5.65189 -4.497,-6.25949 -4.497,-6.25949 -9.07707,0.55354 c -4.99239,0.30444 -12.28274,-0.004 -16.20077,-0.68584 -5.63511,-0.98039 -8.05125,-0.85181 -11.562505,0.61529 -2.441342,1.02005 -4.438805,2.34061 -4.438805,2.93456 0,0.59396 1.675695,2.68534 3.723768,4.64751 3.627102,3.47499 3.862352,3.52359 9.062502,1.87188 2.9363,-0.93266 6.44827,-2.43284 7.80436,-3.33374 3.74603,-2.48861 6.84556,-1.9686 8.11141,1.36086 1.61648,4.25165 6.10253,7.00114 11.42303,7.00114 2.67062,0 5.26116,0.83421 6.23522,2.00789 2.13382,2.5711 12.24211,1.69508 13.86307,-1.20142 1.44103,-2.57496 8.78828,-4.54082 17.00337,-4.5495 4.76377,-0.005 6.80576,-0.53864 7.33456,-1.91669 1.14581,-2.98592 5.4266,-4.85719 7.13541,-3.11913 1.0755,1.09391 0.5792,2.18837 -2.0092,4.43085 -6.26336,5.42628 -3.22095,12.3649 4.09327,9.33525 3.21962,-1.3336 4.11873,-1.26318 6.03706,0.47289 3.24563,2.93726 8.74076,2.51251 13.91876,-1.07585 4.4086,-3.05517 4.70141,-3.08733 15.0672,-1.65524 11.6382,1.60789 12.98211,2.26357 13.03514,6.35988 0.0335,2.58497 0.62252,2.79091 8.16107,2.85316 4.46875,0.0369 9.22648,0.6873 10.57274,1.44532 1.39947,0.788 5.2077,1.09339 8.89237,0.71309 3.72244,-0.38419 7.44049,-0.0796 8.80227,0.72096 3.06945,1.80462 5.9821,1.27757 6.45301,-1.16767 z M 259.375,161.25 c -0.4249,-0.6875 0.0713,-1.25 1.10246,-1.25 1.03125,0 2.22264,0.5625 2.64754,1.25 0.4249,0.6875 -0.0713,1.25 -1.10246,1.25 -1.03125,0 -2.22264,-0.5625 -2.64754,-1.25 z M 87.360063,154.95767 c 5.160798,-3.73846 5.794958,-6.20767 1.594298,-6.20767 -1.181452,0 -3.420305,-0.89109 -4.975227,-1.9802 -3.356249,-2.35081 -8.926153,-0.92968 -13.61286,3.47326 -3.624402,3.40495 -3.642064,5.77567 -0.05378,7.21799 5.719055,2.29877 11.613219,1.43324 17.047562,-2.50338 z M 30.251127,139.83885 c 5.583105,-3.58266 5.903834,-4.04504 3.818854,-5.50541 C 30.316921,131.70469 15,133.39964 15,136.44369 c 0,1.41118 6.397147,7.21076 8.015566,7.26681 0.627311,0.0217 3.883314,-1.72051 7.235561,-3.87165 z M 0.01914096,214.95701 c -0.0182311242,-8.97032 0.14517816,-9.51506 3.43777674,-11.46005 1.9013048,-1.12312 4.9741486,-3.44817 6.8285413,-5.16676 3.031877,-2.80985 3.81583,-2.98839 7.779887,-1.77177 3.62104,1.11132 4.804558,0.99428 6.627425,-0.65539 1.956021,-1.77018 4.706071,-2.70276 16.251911,-5.51133 2.80597,-0.68256 6.555318,1.36225 6.555318,3.57513 0,0.6384 -1.828125,1.92666 -4.0625,2.8628 -4.292819,1.79856 -8.821648,6.14217 -10.051539,9.64043 -0.568877,1.6181 -3.039615,2.29599 -10.852455,2.9775 C 11.790189,210.38474 6.25,213.10322 6.25,217.43768 c 0,2.20259 -3.7312367,6.43747 -3.769141,4.27787 C 2.4703315,221.11575 1.9164449,221.46875 1.25,222.5 0.4082798,223.80247 0.03243725,221.49921 0.01914096,214.95701 Z M 355.78125,152.75281 c -0.33896,-0.54845 -0.14768,-1.75541 0.42507,-2.68213 1.40677,-2.27621 5.21014,-0.70896 4.26387,1.75701 -0.78105,2.03538 -3.65262,2.60195 -4.68894,0.92512 z"
       id="path3424"
       inkscape:connector-curvature="0" />
    <path
       style="fill:#d1edfd"
       d="m 0,315.625 c 0,-2.88273 0.58734131,-4.375 1.7219441,-4.375 0.9470693,0 2.3654104,-0.77533 3.1518692,-1.72295 C 6.7332589,307.28655 4.5687515,301.25 1.9059385,301.25 0.62156239,301.25 0,300.02705 0,297.5 c 0,-2.0625 0.57042919,-3.75 1.2676204,-3.75 2.5329401,0 8.6593209,8.14609 8.6957379,11.5625 0.050685,4.75491 4.3835897,8.84144 8.5978577,8.10897 7.130271,-1.23927 16.114698,-3.97583 22.513133,-6.85726 l 6.699348,-3.01692 3.334307,3.99395 c 3.380552,4.04936 5.610522,4.76982 22.641996,7.31517 3.09375,0.46236 5.512145,1.44425 5.374212,2.18199 -0.143275,0.7663 0.999628,1.1023 2.665979,0.78375 1.604222,-0.30666 3.297148,0.0579 3.762059,0.81014 C 86.15805,319.61249 74.158248,320 43.198771,320 L 0,320 0,315.625 Z m 103.99186,0.29398 4.06256,-4.08103 4.57956,2.26579 c 6.13282,3.03429 10.02394,1.86147 15.33728,-4.62275 2.92329,-3.56749 6.01098,-5.77936 9.54646,-6.83861 2.87412,-0.86112 5.51968,-1.27164 5.87902,-0.9123 0.8266,0.8266 -0.58899,8.35187 -1.98498,10.55221 -0.57831,0.9115 -3.52315,1.94095 -6.54411,2.28766 -6.51708,0.74796 -12.36765,2.79709 -12.36765,4.3317 0,0.60409 -5.07841,1.09835 -11.28535,1.09835 l -11.285357,0 4.062567,-4.08102 z M 162.5,318.75 c 1.03125,-0.66645 4.125,-1.22244 6.875,-1.23554 2.75827,-0.0131 6.83495,-1.14257 9.09271,-2.51914 4.97604,-3.03388 12.74069,-3.22743 18.10895,-0.4514 3.68758,1.90692 4.39745,1.89268 10.59056,-0.21242 6.53263,-2.22051 7.1816,-2.79045 21.00287,-18.44491 1.69395,-1.91863 3.07991,-4.09062 3.07991,-4.82662 0,-0.84891 1.5782,-1.04212 4.31629,-0.52846 3.66419,0.6874 4.61495,0.35393 6.29316,-2.20735 1.61401,-2.46329 1.70469,-3.61446 0.49401,-6.2716 -0.81557,-1.78997 -2.66311,-3.62726 -4.10566,-4.08286 -1.44254,-0.45559 -3.35783,-1.87265 -4.25618,-3.14903 -2.15961,-3.06832 -7.78028,-3.06783 -8.58273,7.5e-4 -0.49507,1.89314 -1.82802,2.32144 -7.22469,2.32144 -9.02309,0 -15.27561,3.32903 -19.9949,10.64588 -3.01376,4.67257 -4.33899,5.75776 -6.3143,5.1706 -7.03148,-2.09013 -11.6909,-1.85403 -17.01263,0.86205 -3.81386,1.94651 -8.25773,2.92458 -14.57126,3.20708 -4.99614,0.22355 -10.19926,1.00339 -11.5625,1.73298 -1.506,0.80599 -2.47861,0.85379 -2.47861,0.12175 0,-4.42991 -9.47738,-6.9003 -12.5,-3.25826 -2.06453,2.4876 -10.47561,2.43923 -12.55994,-0.0722 C 118.79373,292.66537 111.59267,290 106.18807,290 c -5.10957,0 -9.249717,3.69716 -10.72574,9.5781 -0.957717,3.81585 -4.20315,3.74815 -10.48717,-0.21878 -5.55726,-3.50815 -5.846605,-4.36728 -2.956397,-8.7783 1.624793,-2.47975 3.062062,-3.08102 7.364807,-3.08102 4.604676,0 6.24642,-0.80951 11.83868,-5.83744 5.16234,-4.64139 6.72281,-5.47376 7.61605,-4.0625 0.61788,0.97621 1.13203,2.18385 1.14256,2.68363 0.0419,1.98806 6.90532,5.25563 11.12665,5.29721 3.65386,0.036 4.78769,0.6909 6.1664,3.56175 2.0477,4.26387 4.77078,5.49306 7.87471,3.55462 1.2746,-0.79599 4.04742,-1.44727 6.16183,-1.44727 4.74621,0 16.92808,-5.61414 17.94776,-8.27141 1.71968,-4.48139 -5.08548,-7.80165 -14.40595,-7.02873 -7.3592,0.61029 -8.59836,-0.42616 -10.3846,-8.68575 -0.85475,-3.95238 -0.0596,-4.59904 9.24574,-7.51867 l 6.8384,-2.14563 3.5651,4.3251 c 2.99144,3.62913 4.37627,4.32509 8.60616,4.32509 3.55343,0 6.13702,0.92219 8.7549,3.125 5.13055,4.31708 12.22577,4.24095 18.03969,-0.19355 l 4.35084,-3.31855 1.88664,2.69355 c 1.47822,2.11046 3.15661,2.69151 7.75324,2.68415 5.29444,-0.009 6.40454,-0.55711 11.38182,-5.625 5.63381,-5.73636 8.35073,-6.64499 12.78058,-4.2742 1.77849,0.95181 3.61654,0.9544 6.32875,0.009 5.86055,-2.043 10.33148,0.58171 10.52785,6.18051 0.0838,2.38929 0.22443,5.60979 0.3125,7.15666 0.25738,4.52068 4.5073,7.8125 10.08635,7.8125 2.70943,0 5.27388,0.5625 5.69878,1.25 0.4249,0.68751 4.6889,1.25 9.47557,1.25 7.30778,0 9.50032,-0.52762 13.67623,-3.29111 2.73526,-1.8101 4.9732,-3.67057 4.9732,-4.13437 0,-0.46379 2.55201,-2.64209 5.67115,-4.84067 3.11914,-2.19856 6.83095,-5.9631 8.24847,-8.36562 2.95528,-5.00881 7.02089,-6.18699 5.36847,-1.55573 -0.55193,1.54688 -1.0394,6.01693 -1.08329,9.93344 l -0.0797,7.12093 -5.96024,2.79088 c -3.27812,1.53499 -7.30344,4.55192 -8.94511,6.70428 -2.5593,3.35541 -3.61916,3.83934 -7.43346,3.39404 -2.44673,-0.28565 -5.09968,-1.30387 -5.89544,-2.26272 -2.00449,-2.41525 -4.10814,-2.17998 -6.76575,0.75665 -1.24436,1.375 -3.44091,2.51019 -4.88124,2.52265 -1.44031,0.0125 -5.53189,1.62893 -9.09237,3.59218 -3.5605,1.96325 -7.90364,3.92845 -9.65143,4.36711 -3.45907,0.86818 -6.36575,5.01043 -5.03116,7.16983 0.46566,0.75346 2.41374,1.03422 4.40817,0.63533 2.73592,-0.54717 3.88293,-0.13711 4.89239,1.74908 0.83219,1.55497 2.61511,2.46382 4.83335,2.46382 1.93313,0 4.8119,1.125 6.39729,2.5 2.02841,1.75924 4.6767,2.5 8.93766,2.5 5.16443,0 6.76749,-0.64356 10.89774,-4.375 3.3058,-2.98658 6.05332,-4.375 8.6577,-4.375 2.24574,0 5.3428,-1.28548 7.52894,-3.125 4.303,-3.62073 5.58793,-3.82857 7.72796,-1.25 0.85586,1.03125 3.42736,1.875 5.71444,1.875 5.87331,0 11.16978,-6.85743 10.15003,-13.14142 -0.88045,-5.42558 0.7335,-5.56221 6.58832,-0.55778 2.38027,2.03457 5.3334,3.6992 6.5625,3.6992 1.5057,0 2.23471,0.94837 2.23471,2.90712 0,2.97927 3.50616,6.93921 8.35532,9.43668 4.05272,2.08728 19.40618,1.79245 22.34327,-0.42904 3.53377,-2.67282 10.0988,-2.32423 14.26712,0.75754 3.042,2.24905 4.61784,2.5392 9.94939,1.83195 L 400,311.16389 400,315.58195 400,320 280.3125,319.9809 C 202.57845,319.96843 161.28224,319.53697 162.5,318.75 Z m 234.0625,-18.32785 c -2.19968,-0.88759 -1.94439,-3.75814 0.41474,-4.66341 2.9168,-1.11929 3.02276,-1.03633 3.02276,2.36626 0,3.12865 -0.51835,3.47505 -3.4375,2.29715 z m -25.61255,-16.35116 c -5.08505,-2.63839 -6.48491,-2.87906 -9.87404,-1.69762 -4.98751,1.73867 -9.82591,1.77304 -9.82591,0.0699 0,-0.71875 -1.52345,-2.82812 -3.38546,-4.6875 -2.39469,-2.39133 -3.42035,-4.74396 -3.50472,-8.03904 -0.0784,-3.05914 -1.13492,-5.73946 -3.0778,-7.80756 -3.33356,-3.54841 -3.24091,-3.86981 1.4555,-5.04852 3.21994,-0.80817 3.37337,-0.62042 3.74744,4.58588 0.33302,4.6348 0.82616,5.49022 3.37274,5.85029 1.64459,0.23254 4.56596,-0.74881 6.51187,-2.1875 1.94107,-1.43507 4.28323,-2.60924 5.20482,-2.60924 0.92159,0 2.33732,-0.66171 3.14607,-1.47046 1.12729,-1.12729 2.01085,-0.98142 3.78593,0.625 3.4943,3.1623 7.24511,2.55646 10.24361,-1.65454 1.46863,-2.0625 3.64465,-3.75 4.8356,-3.75 1.19095,0 5.37139,-2.85748 9.28988,-6.34998 L 400,243.55004 l 0,11.97497 0,11.97499 -3.91496,0 c -7.9138,0 -17.20404,9.56126 -17.30759,17.8125 -0.0335,2.67054 -0.39958,2.61248 -7.8275,-1.24151 z M 40.961689,279.29502 c -0.492773,-0.49277 -3.054486,-1.01774 -5.692698,-1.1666 -3.078776,-0.17371 -6.739252,-1.6778 -10.220417,-4.19953 C 22.065555,271.768 18.108221,270 16.2545,270 14.400778,270 11.0264,269.07326 8.7558844,267.94058 5.5138892,266.32326 4.1309554,266.19136 2.3138369,267.32617 0.11992679,268.69629 0,268.12276 0,256.26059 0,248.75353 0.49992945,243.75 1.25,243.75 c 0.6875,0 1.25,0.52232 1.25,1.16071 0,2.76622 3.9338339,4.99003 7.548363,4.26712 2.347332,-0.46947 3.701637,-0.22583 3.701637,0.66592 0,0.77344 1.265018,2.67126 2.81115,4.2174 1.546132,1.54614 3.655507,4.49926 4.6875,6.5625 1.949539,3.89767 8.658134,7.96229 13.313336,8.06631 1.477844,0.033 5.681455,-2.18996 9.341362,-4.93996 3.659904,-2.75 7.513261,-5.01251 8.563012,-5.0278 1.049753,-0.0153 3.31489,-1.12778 5.03364,-2.4722 3.795509,-2.96889 4.801896,-3.0308 9.683254,-0.59565 2.98171,1.48746 3.66294,2.4948 3.111977,4.60169 -0.526831,2.01461 0.349871,3.5783 3.463635,6.17779 3.412535,2.84891 3.799322,3.62231 2.131623,4.26226 -1.120562,0.43 -3.99102,0.13706 -6.378795,-0.65098 -3.713074,-1.22542 -5.064234,-1.06403 -9.335664,1.11509 -2.74684,1.40132 -5.354309,3.68231 -5.794376,5.06884 -0.440068,1.38652 -1.816905,2.52096 -3.059639,2.52096 -1.242733,0 -3.880609,0.32421 -5.861945,0.72049 -1.981338,0.39626 -4.005609,0.31731 -4.498381,-0.17547 z M 195.87207,256.5479 c -0.95631,-4.78161 -6.94918,-8.39498 -12.18617,-7.34757 -2.22766,0.44552 -4.0086,0.042 -4.97994,-1.12838 -0.90642,-1.09219 -3.72122,-1.82195 -7.02751,-1.82195 l -5.51544,0 4.41849,-3.87949 c 2.43017,-2.13372 4.4185,-5.02029 4.4185,-6.41458 0,-2.20737 0.60601,-2.4542 4.6875,-1.90935 2.57812,0.34416 7.99605,0.17542 12.03982,-0.37497 5.8545,-0.79684 8.21247,-1.83438 11.57445,-5.09295 2.32217,-2.25072 4.89224,-5.94542 5.71128,-8.21045 1.86571,-5.15952 3.48695,-5.30186 3.48695,-0.30614 0,3.9744 3.09081,11.14603 5.48691,12.73129 2.15019,1.42256 12.59978,1.11995 14.12889,-0.40916 0.98774,-0.98774 2.11675,-0.9639 4.07869,0.0861 2.35542,1.26057 3.43027,0.86406 8.15707,-3.00921 2.9943,-2.45361 5.70461,-4.4611 6.02291,-4.4611 0.31832,0 1.21315,2.51947 1.98853,5.5988 1.8564,7.37242 6.50479,9.99683 15.97529,9.01938 3.64537,-0.37623 6.95,-0.16299 7.34361,0.47389 0.3936,0.63686 3.68245,1.15793 7.30854,1.15793 7.63295,0 8.09926,0.275 7.32593,4.3204 -0.76746,4.01476 -2.93672,4.64633 -10.20007,2.96975 -5.38988,-1.24413 -6.70449,-1.09944 -11.61664,1.27848 -3.04644,1.47476 -6.20026,2.68138 -7.0085,2.68138 -0.80824,0 -4.04874,-1.96875 -7.20109,-4.375 -6.71153,-5.12303 -12.75576,-5.76334 -17.69898,-1.875 -1.93314,1.52061 -5.07098,2.5 -8.00967,2.5 -4.45027,-3e-5 -4.83142,-0.27426 -4.83142,-3.47598 0,-2.76219 -0.82095,-3.78583 -3.99791,-4.985 -3.55587,-1.34219 -4.31603,-1.21019 -6.875,1.19385 -1.5824,1.48659 -2.87709,3.74749 -2.87709,5.02423 0,1.27673 -0.98438,2.66746 -2.1875,3.0905 -1.20313,0.42303 -4.2046,3.04646 -6.66994,5.82983 l -4.48244,5.06068 -0.78804,-3.94024 z M 93.140991,248.76767 C 91.528565,246.98596 89.287646,246.25 85.47495,246.25 c -2.96317,0 -7.797865,-0.8025 -10.743766,-1.78334 -12.605167,-4.19689 -20.57875,-4.91877 -35.432493,-3.20787 -11.160406,1.28548 -14.584935,1.30976 -16.026224,0.11362 -1.14242,-0.94812 -3.459663,-1.21605 -6.150861,-0.71117 -2.882924,0.54083 -5.593983,0.15015 -8.1576789,-1.17559 C 6.8520496,238.39354 3.9299713,237.5 2.4704198,237.5 c -1.85295306,0 -2.52784506,-0.66009 -2.23655395,-2.1875 0.31168735,-1.63436 2.03042695,-2.35028 6.79708705,-2.83121 3.5089511,-0.35405 7.2950271,-1.4032 8.4135011,-2.33145 1.760788,-1.46133 2.509427,-1.17835 5.580688,2.10945 5.777992,6.18536 10.345759,6.25002 22.874656,0.32385 C 56.479385,226.63297 60,226.16244 60,230.43126 c 0,6.28832 9.070543,9.78521 16.898166,6.51461 C 79.459595,235.87565 82.593961,235 83.863424,235 c 1.441901,0 2.061242,-0.64334 1.6503,-1.71424 -0.490507,-1.27824 1.188575,-1.9325 6.60173,-2.57237 3.992751,-0.47198 9.650176,-1.16345 12.572046,-1.53663 4.22833,-0.54002 5.3125,-0.28867 5.3125,1.23165 0,3.03645 6.17202,7.09159 10.79357,7.09159 4.60894,0 4.81692,0.27365 2.91245,3.83218 -0.83732,1.56453 -2.61573,2.41782 -5.03923,2.41782 -2.176,0 -4.04672,0.78562 -4.46476,1.875 -0.48126,1.25415 -2.45498,1.875 -5.96077,1.875 -2.88269,0 -5.77563,0.49927 -6.42876,1.10951 -2.761851,2.58045 -6.418998,2.64715 -8.671509,0.15816 z m 257.507069,-7.95966 c 0.79567,-8.4909 0.61358,-9.78075 -1.87393,-13.27412 l -2.75524,-3.86938 4.57425,-5.58225 c 5.008,-6.11161 5.84551,-6.49226 8.15686,-3.70726 2.03478,2.45176 8.0041,2.40491 10.06555,-0.079 1.47061,-1.77197 1.72353,-1.77197 2.71519,3e-5 0.60144,1.07471 2.8214,2.84753 4.93324,3.93961 7.25627,3.75237 13.49398,0.59725 21.28296,-10.7652 2.0823,-3.03764 2.12316,-2.91643 2.1875,6.48981 0.08,11.69301 -0.45679,13.33216 -4.13559,12.62891 -1.61957,-0.3096 -3.52579,0.3031 -4.46542,1.43531 -1.02157,1.23089 -3.63238,1.97552 -6.92663,1.97552 -6.72275,0 -12.8287,3.99537 -16.63074,10.88216 -2.43966,4.41906 -3.60691,5.28595 -8.125,6.03429 -2.90183,0.48062 -6.31291,1.41892 -7.58018,2.0851 -2.17593,1.14385 -2.25509,0.688 -1.42282,-8.19354 z m 48.20063,-5.28717 c 0.06,-1.45619 0.35617,-1.75238 0.7552,-0.75522 0.36108,0.90234 0.31668,1.98047 -0.0986,2.39584 -0.41536,0.41537 -0.7108,-0.32292 -0.65652,-1.64062 z M 291.13644,222.22795 c -4.63243,-3.00889 -8.18683,-6.51699 -10.08297,-9.95161 -3.36011,-6.08645 -9.3929,-10.58935 -16.86738,-12.58991 -4.78331,-1.28028 -5.25236,-1.78641 -6.00068,-6.47513 -1.5097,-9.45931 -8.05946,-15.17399 -15.65117,-13.65565 -2.91593,0.58319 -4.58445,0.14478 -6.65084,-1.74751 -7.33579,-6.71775 -18.30571,-9.49855 -25.15668,-6.37705 -2.73088,1.24427 -3.74835,0.96776 -7.79423,-2.11818 l -4.65334,-3.54927 3.5238,-0.9424 c 1.93809,-0.51833 4.79934,-2.14073 6.35834,-3.60533 2.41341,-2.26728 3.73552,-2.53776 8.89912,-1.82053 3.33553,0.46331 8.46665,1.12768 11.40252,1.47638 2.97524,0.35339 5.26112,1.26902 5.16439,2.06863 -0.4913,4.06167 0.29965,4.56096 7.31018,4.61447 3.95312,0.0301 9.32357,0.81683 11.93432,1.7481 2.67974,0.95589 6.93162,1.40019 9.76397,1.02029 2.75941,-0.37011 7.24961,0.0639 9.97821,0.96437 8.79459,2.90248 9.21816,-2.66187 0.95541,-12.55112 l -4.55557,-5.45234 -7.31943,1.37499 c -6.84355,1.2856 -7.62256,1.17875 -11.98222,-1.64347 -2.56454,-1.66015 -5.81035,-5.26784 -7.2129,-8.01708 -2.59025,-5.07731 -4.1679,-5.88144 -7.45736,-3.80096 -2.26311,1.43132 -5.16722,-0.66668 -4.24598,-3.06738 1.47499,-3.84377 -8.02494,-9.10258 -10.17095,-5.63026 -1.75306,2.83651 -5.77305,1.20098 -7.56,-3.0758 -1.91834,-4.59123 -4.69954,-5.8379 -16.90294,-7.5767 -5.0254,-0.71604 -6.19667,-0.40697 -9.7324,2.56814 -2.2107,1.86019 -4.85471,4.99735 -5.87557,6.97149 -2.82202,5.45718 -7.21143,7.61245 -17.56883,8.62656 -8.615,0.8435 -9.84326,1.32264 -14.1359,5.51429 l -4.70111,4.59051 -4.68994,-5.72345 -4.68995,-5.72346 -9.4399,0.58837 c -5.19194,0.32359 -12.3958,0.0419 -16.00858,-0.62592 -9.29033,-1.71742 -17.76679,1.61887 -16.967906,6.67847 0.23893,1.51323 -6.715335,1.07414 -8.314436,-0.52496 -3.383035,-3.38304 -18.43757,5.28897 -17.513294,10.08835 0.546785,2.83922 5.833669,5.08465 12.021409,5.10569 4.112268,0.014 6.752257,-0.93787 10.9375,-3.94348 C 92.517419,153.85905 95,151.65791 95,151.14667 c 0,-0.51122 1.581091,-0.33272 3.513535,0.3967 2.798705,1.05639 5.209665,0.77825 11.850345,-1.36713 l 8.3368,-2.69334 4.1301,4.50671 c 3.31729,3.6198 5.29577,4.6381 10.05336,5.17435 3.25778,0.3672 6.22478,1.15553 6.59333,1.75184 0.36854,0.59631 3.55374,1.0842 7.07824,1.0842 4.91133,0 7.10241,-0.65221 9.38033,-2.7922 2.39788,-2.2527 4.77161,-2.88308 12.28516,-3.26249 l 9.31299,-0.47029 1.33738,3.83642 c 1.54252,4.42485 4.47094,5.75686 8.9296,4.06167 2.13579,-0.81202 3.57929,-0.74265 4.54012,0.21818 1.9828,1.9828 1.75013,3.40871 -0.5562,3.40871 -3.51462,0 -13.0723,6.44611 -14.95457,10.086 -1.06768,2.06467 -4.05633,4.542 -7.14542,5.92292 -9.57623,4.28087 -14.6579,11.82944 -14.67813,21.80358 -0.009,4.23481 -0.88148,4.27841 -6.25697,0.3125 -5.39234,-3.97834 -11.59811,-4.03645 -17.9881,-0.16845 -4.14576,2.50951 -5.40241,2.74016 -8.5194,1.56362 -3.30215,-1.24641 -3.58059,-1.78367 -2.87466,-5.54665 1.68216,-8.96667 -10.10601,-17.33461 -20.099233,-14.2676 -4.052218,1.24367 -4.681585,1.08644 -7.167935,-1.79062 -4.407112,-5.09965 -12.402628,-9.1653 -18.024525,-9.1653 -4.486342,0 -5.382561,-0.51415 -7.678103,-4.4048 -1.429394,-2.42264 -3.59433,-4.71323 -4.81097,-5.09019 -1.216642,-0.37696 -3.055824,-1.21139 -4.087074,-1.85427 -5.463151,-3.40575 -7.636529,-3.91413 -13.179806,-3.08286 -3.964195,0.59447 -6.857235,1.94206 -8.899046,4.14521 -2.95629,3.18989 -3.107374,3.21592 -6.620172,1.14086 -4.230445,-2.49899 -13.567423,-3.99731 -17.991,-2.88707 -1.7145127,0.43032 -4.8481487,2.23881 -6.9636359,4.01887 L 0,168.97224 0,155.11111 C 0,146.7037 0.49181694,141.25 1.25,141.25 c 0.6875,0 1.25,0.5625 1.25,1.25 0,1.6955 5.4081174,1.57999 9.312356,-0.1989 2.608797,-1.18865 3.943085,-1.03795 7.428378,0.83901 l 4.248388,2.2879 6.692939,-4.20105 c 3.681117,-2.31057 6.965785,-4.4141 7.299264,-4.6745 0.333478,-0.26039 -0.780319,-1.51938 -2.475102,-2.79777 -3.755077,-2.83245 -14.6536,-2.59229 -19.257609,0.42437 -2.768928,1.81426 -3.47802,1.75894 -9.3720935,-0.73122 L 0,130.75382 0,65.376915 0,0 l 200,0 200,0 0,65.014772 0,65.014778 -5.29542,-0.84678 c -3.2989,-0.52752 -6.13892,-1.91908 -7.53262,-3.69088 -3.11332,-3.95796 -6.40977,-4.70023 -10.79741,-2.4313 C 374.31182,124.12727 371.18902,125 369.435,125 c -2.37334,0 -4.28221,1.52145 -7.46206,5.94757 -4.88489,6.7994 -13.24537,10.46634 -18.02758,7.90698 C 342.5533,138.10955 339.8,137.5 337.8269,137.5 c -3.6913,0 -13.32755,5.40049 -16.47861,9.23519 -1.35273,1.64622 -2.87093,1.97731 -6.36219,1.38746 -7.4262,-1.25465 -17.48403,5.92082 -15.50997,11.06515 1.16486,3.03557 3.9777,3.41931 15.0125,2.04807 8.05002,-1.00032 11.01951,-0.93972 12.94737,0.26425 1.97401,1.23279 2.82454,1.23934 4.0328,0.0311 C 332.31096,160.68904 334.0125,160 335.25,160 c 1.71213,0 2.25,0.98611 2.25,4.125 0,2.26875 0.675,4.8 1.5,5.625 3.99521,3.99521 20.17525,-0.18195 25.88235,-6.68199 2.12721,-2.42275 3.86765,-4.87381 3.86765,-5.44678 0,-0.57299 3.32525,-1.9748 7.38945,-3.11517 6.37874,-1.78977 7.57649,-2.60992 8.75694,-5.99613 1.12367,-3.22338 0.99741,-4.33167 -0.70819,-6.21634 C 383.04657,141.03211 381.35596,140 380.43126,140 c -0.92469,0 -1.68126,-0.46815 -1.68126,-1.04034 0,-1.42841 13.58015,-0.31614 17.8125,1.45893 l 3.4375,1.44168 -0.017,15.00737 c -0.01,8.25405 -0.34265,16.22098 -0.74058,17.7043 -0.71181,2.65335 -0.76202,2.6584 -3.10792,0.3125 C 394.823,173.573 392.56096,172.5 391.10769,172.5 c -4.77087,0 -12.29772,5.35495 -16.88134,12.01017 -2.51754,3.65537 -5.79316,6.86206 -7.42892,7.27261 -1.60922,0.40388 -5.62508,3.46314 -8.92414,6.79836 -3.49339,3.53166 -8.0863,6.73293 -10.99829,7.66581 -10.16346,3.25596 -11.29118,3.8774 -13.24809,7.30049 -3.04944,5.33415 -19.83765,13.11905 -28.54394,13.23619 -5.80546,0.0781 -7.83126,-0.58363 -13.94653,-4.55568 z M 0,214.40984 c 0,-8.01972 0.31610694,-9.55602 1.8454869,-8.96913 1.0259843,0.3937 4.2339333,-1.11496 7.2241731,-3.39747 4.370162,-3.33582 6.235618,-4.0056 9.948896,-3.57209 2.919591,0.34084 5.602703,-0.18965 7.42896,-1.4688 C 28.019829,195.90105 30.835409,195 32.704361,195 c 1.868953,0 3.74574,-0.5625 4.170639,-1.25 0.424899,-0.6875 2.426845,-1.25 4.448771,-1.25 2.021926,0 3.676229,0.5625 3.676229,1.25 0,0.6875 -1.019761,1.25 -2.266136,1.25 -2.412319,0 -7.763624,5.09395 -10.0713,9.58695 -1.147415,2.234 -2.88168,2.85056 -9.840234,3.49841 -10.32943,0.96169 -16.0664639,3.33991 -17.2624604,7.15598 -0.4970743,1.58601 -1.9513937,4.22515 -3.2318206,5.86473 C 0.00108371,224.08576 0,224.08264 0,214.40984 Z M 343.75,157.5 c 0,-0.6875 0.5625,-1.25 1.25,-1.25 0.6875,0 1.25,0.5625 1.25,1.25 0,0.6875 -0.5625,1.25 -1.25,1.25 -0.6875,0 -1.25,-0.5625 -1.25,-1.25 z m 29.375,-16.25 c 0.4249,-0.6875 1.0206,-1.25 1.32377,-1.25 0.30318,0 0.55123,0.5625 0.55123,1.25 0,0.6875 -0.5957,1.25 -1.32377,1.25 -0.72808,0 -0.97613,-0.5625 -0.55123,-1.25 z"
       id="path3422"
       inkscape:connector-curvature="0" />
    <path
       style="fill:#b4e1fd"
       d="m 0,315.78125 c 0,-3.76459 0.37005438,-4.22068 3.4375,-4.23669 1.890625,-0.01 4.4992395,1.10435 5.7969213,2.47603 1.9644837,2.0765 3.2198887,2.33536 7.4999997,1.5465 5.87141,-1.08217 8.473291,-1.05859 14.220506,0.12883 3.837179,0.79279 11.520092,-1.22362 11.564214,-3.03507 0.0105,-0.43221 0.510174,-1.5611 1.110325,-2.50863 0.891973,-1.40825 2.341505,-1.11105 7.939847,1.62797 4.590968,2.24616 9.684852,3.56198 15.452175,3.99155 C 77.01488,316.51605 78.75,316.95085 78.75,318.71077 78.75,319.56912 65.590447,320 39.375,320 L 0,320 0,315.78125 Z m 107.5,3.30764 c 1.03125,-0.39257 2.19171,-1.19557 2.57879,-1.78444 0.88606,-1.34798 12.42121,0.15224 12.42121,1.61545 0,0.59406 -3.79687,1.03569 -8.4375,0.98141 -4.64062,-0.0543 -7.59375,-0.41986 -6.5625,-0.81242 z m 123.0439,-1.06136 c 1.08486,-1.08486 2.55107,-3.05361 3.25826,-4.375 1.66589,-3.11273 3.84256,-3.04449 6.62723,0.20774 1.90762,2.22796 3.36458,2.54837 9.9469,2.1875 6.55095,-0.35912 7.77553,-0.0935 8.13447,1.76473 0.38371,1.98645 -0.97271,2.1875 -14.75839,2.1875 -13.82758,0 -15.0051,-0.17584 -13.20847,-1.97247 z m 58.2061,0.79624 c 0,-0.64692 0.70312,-1.61445 1.5625,-2.15006 1.97288,-1.2296 13.36835,-2.96783 21.61491,-3.29709 3.61178,-0.1442 7.79051,-1.22595 9.78807,-2.53383 3.23436,-2.11768 3.78488,-2.1402 7.6365,-0.3125 2.28296,1.08335 4.71393,1.96971 5.40215,1.96971 0.68822,0 1.83957,1.6875 2.55857,3.75 l 1.30725,3.75 -24.93498,0 C 298.93757,320 288.75,319.51944 288.75,318.82377 Z m 80,-4.44877 c 6.16912,-6.28587 9.68709,-7.03584 14.65891,-3.125 3.36709,2.64855 12.10069,3.45925 13.46609,1.25 1.6089,-2.60325 3.125,-1.08715 3.125,3.125 l 0,4.375 -18.38526,0 -18.38527,0 5.52053,-5.625 z m -240.75874,-2.60224 c 0.41732,-1.08747 0.75874,-2.20103 0.75874,-2.47458 0,-0.91502 9.87499,-5.54818 11.8252,-5.54818 2.28927,0 2.27356,-0.1235 0.59617,4.68824 -1.36827,3.92502 -3.99055,5.26421 -10.36761,5.2947 -2.74643,0.0131 -3.396,-0.43959 -2.8125,-1.96018 z M 242.5,301.18515 c 0,-1.03243 2.5302,-6.30781 5.8928,-12.28629 0.1473,-0.26187 2.20105,0.44125 4.56391,1.5625 2.36286,1.12125 5.22868,2.03864 6.36848,2.03864 3.45993,0 1.17306,1.91152 -7.24469,6.05556 -8.82172,4.34293 -9.5805,4.55119 -9.5805,2.62959 z m -83.75,-5.95129 c 0,-4.09146 14.80441,-11.25787 19.90941,-9.63761 4.07026,1.29185 14.11383,-1.8339 20.1647,-6.27565 3.23721,-2.37634 6.95094,-4.3206 8.25273,-4.3206 1.30178,0 3.57466,-0.84595 5.05081,-1.87989 2.15616,-1.51024 3.37836,-1.59852 6.21562,-0.44899 3.41887,1.38517 3.27209,1.48499 -4.59327,3.12388 -6.8787,1.4333 -8.9042,2.50881 -13.2048,7.0115 -2.79389,2.92517 -5.66453,6.36681 -6.3792,7.64807 -1.06674,1.91245 -1.76515,2.08033 -3.90053,0.9375 -4.14423,-2.21792 -10.81955,-1.63253 -19.76076,1.73293 -8.67267,3.26439 -11.75471,3.81732 -11.75471,2.10886 z M 371.25,282.287 c -3.97404,-2.18606 -7.27596,-2.3898 -13.64224,-0.84174 -1.71195,0.4163 -7.54455,-8.03775 -7.5872,-10.99725 -0.0112,-0.78485 1.43939,-1.79341 3.22378,-2.24126 2.5063,-0.62905 3.91449,-0.0911 6.19031,2.36449 3.75815,4.05511 5.27011,3.99478 14.31535,-0.57124 4.08579,-2.0625 8.63472,-3.75 10.10876,-3.75 1.53165,0 4.63848,-2.1425 7.2505,-5 5.84098,-6.38994 8.89074,-6.6094 8.89074,-0.63977 0,4.11342 -0.28035,4.40506 -4.95284,5.15222 -6.66178,1.06526 -14.55306,7.92333 -16.46678,14.31079 -1.66345,5.55211 -1.40405,5.47376 -7.33038,2.21376 z M 40.884703,277.96804 c -0.509701,-0.5097 -2.936167,-1.08498 -5.392148,-1.2784 -2.45598,-0.19342 -7.008401,-2.03607 -10.116491,-4.09478 C 19.118596,268.45009 11.814121,265.55614 4.6875,264.39829 0.50030791,263.718 0,263.24251 0,259.94336 0,257.05462 0.55764717,256.25 2.5596861,256.25 c 1.4078274,0 3.9218864,-1.46984 5.5867978,-3.26631 l 3.0271111,-3.2663 3.475702,4.11416 c 1.911637,2.2628 4.138139,5.6692 4.947783,7.56977 0.811686,1.90538 3.831744,4.74943 6.732,6.33964 2.892955,1.58623 6.44927,3.60029 7.90292,4.4757 4.427462,2.66629 16.674215,0.77365 22.992045,-3.55325 5.940536,-4.06851 11.056042,-4.6629 14.724543,-1.71091 2.273928,1.82979 2.118724,1.90232 -2.469692,1.15422 -6.071408,-0.9899 -13.604901,2.1058 -15.558435,6.39334 -0.853896,1.8741 -2.432418,3.00634 -4.206162,3.017 -1.561615,0.01 -3.978603,0.32321 -5.371085,0.69739 -1.392482,0.37417 -2.948813,0.26329 -3.458512,-0.24641 z M 239.375,275 c -0.9115,-1.47484 0.27084,-3.75 1.94877,-3.75 0.64693,0 1.17623,1.125 1.17623,2.5 0,2.63635 -1.8186,3.3638 -3.125,1.25 z m 15.10424,-28.17704 c -2.69268,-2.37762 -5.92705,-4.32296 -7.1875,-4.32296 -2.8583,0 -2.8979,-1.71313 -0.14723,-6.36964 2.30836,-3.90775 4.10549,-4.71811 4.10549,-1.85127 0,3.25447 6.36887,9.40617 11.25333,10.86959 3.97197,1.19003 5.71803,1.08413 9.93317,-0.60243 2.81275,-1.12544 7.39395,-2.04625 10.18045,-2.04625 4.16079,0 4.98706,0.391 4.6227,2.1875 -0.3755,1.85139 -1.62025,2.12651 -8.10104,1.79061 -5.84531,-0.30297 -8.85615,0.21468 -12.72318,2.1875 -2.78622,1.42141 -5.51012,2.56098 -6.05313,2.53235 -0.54301,-0.0286 -3.19039,-1.99736 -5.88306,-4.375 z M 202.5,246.05835 c -1.71875,-0.70575 -6.37593,-0.95825 -10.34926,-0.56109 -6.88844,0.68853 -7.28067,0.57375 -8.4375,-2.46896 -1.89742,-4.99057 -1.49819,-5.52743 2.77445,-3.73091 3.37293,1.41821 4.93357,1.3958 10.12328,-0.14539 3.37459,-1.00215 6.25975,-1.64319 6.41149,-1.42454 0.15173,0.21865 1.48353,2.50691 2.95955,5.08504 2.82488,4.93414 2.15356,5.55992 -3.48201,3.24585 z M 225,246.25 c 0,-0.6875 1.33039,-1.25 2.95642,-1.25 1.62604,0 4.43854,-1.16582 6.25,-2.59073 2.45749,-1.93306 3.29358,-2.1409 3.29358,-0.81873 0,2.92447 -4.31166,5.90946 -8.53593,5.90946 C 226.78384,247.5 225,246.9375 225,246.25 Z m 132.77814,-3.19588 C 355.93137,241.7606 355,239.8195 355,237.26416 c 0,-2.11424 -1.11986,-5.65606 -2.4886,-7.87071 -2.40658,-3.89393 -2.41338,-4.09469 -0.20641,-6.09198 1.87181,-1.69395 2.98629,-1.81988 6.19781,-0.70035 3.29434,1.14843 4.79344,0.9266 9.44803,-1.39801 l 5.5324,-2.76301 4.82088,2.63332 c 2.65149,1.44833 6.40162,3.2045 8.3336,3.90262 4.84768,1.75165 2.98048,3.9309 -2.65066,3.09362 -6.16991,-0.91739 -11.72285,2.63271 -16.73855,10.70128 -4.1989,6.75462 -5.25801,7.23362 -9.47036,4.28318 z m -282.052234,-0.9001 -3.649093,-1.63151 5.524093,-1.66012 c 3.038251,-0.91308 9.126456,-1.79038 13.529345,-1.94957 5.748081,-0.20781 8.430323,-0.87075 9.512809,-2.35112 0.82915,-1.13394 1.90039,-2.0617 2.38054,-2.0617 1.37443,0 10.7264,7.80178 10.7264,8.94837 0,0.56649 -2.67187,0.99079 -5.9375,0.94289 -3.26562,-0.0479 -11,0.24624 -17.1875,0.6536 -7.970111,0.52474 -12.313877,0.26501 -14.899094,-0.89084 z M 9.56415,237.96834 c -2.0994541,-1.13642 -4.8342507,-1.60784 -6.6636296,-1.14869 -2.50971948,0.6299 -3.02138195,0.35608 -2.6769218,-1.43256 0.34091694,-1.77024 1.4660955,-2.13619 5.6411649,-1.83474 2.8684187,0.2071 6.4171655,-0.26666 7.8861025,-1.05281 2.281586,-1.22108 3.123776,-0.94059 5.779195,1.92465 1.70962,1.84471 2.936621,3.49805 2.726669,3.67408 -1.872355,1.56993 -9.700204,1.48979 -12.69258,-0.12993 z M 41.25,237.57377 c 0,-2.0372 2.428441,-2.78812 6.280499,-1.94207 5.36829,1.17907 4.571966,3.1183 -1.280499,3.1183 -2.75,0 -5,-0.5293 -5,-1.17623 z m 14.6875,0.31457 c -2.335014,-0.6102 -2.885418,-2.30946 -1.104559,-3.41009 0.595618,-0.36811 2.089049,0.44244 3.318735,1.80123 2.230373,2.46453 1.920828,2.68946 -2.214176,1.60886 z M 219.375,237.5 c -0.4249,-0.6875 0.10437,-1.25 1.17622,-1.25 1.07183,0 1.94878,0.5625 1.94878,1.25 0,0.6875 -0.5293,1.25 -1.17623,1.25 -0.64692,0 -1.52387,-0.5625 -1.94877,-1.25 z m 179.47369,-1.97916 c 0.06,-1.45619 0.35617,-1.75238 0.7552,-0.75522 0.36108,0.90234 0.31668,1.98047 -0.0986,2.39584 -0.41536,0.41537 -0.7108,-0.32292 -0.65652,-1.64062 z M 291.49917,221.01685 c -2.9567,-2.07193 -6.7013,-5.86684 -8.32132,-8.43312 -4.054,-6.42196 -9.66391,-10.87081 -16.9881,-13.47212 C 262.76655,197.8958 260,196.13144 260,195.16413 c 0,-0.96199 -0.6611,-3.95562 -1.4691,-6.65251 -1.96679,-6.56452 -7.22489,-10.21121 -14.97689,-10.38702 -4.19081,-0.095 -6.85361,-0.91875 -8.83841,-2.73409 -4.81578,-4.40461 -10.56663,-6.64051 -17.07975,-6.64051 -7.60683,0 -9.05098,-1.70401 -3.76208,-4.439 4.86078,-2.51361 13.25777,-1.56889 17.79792,2.0024 2.09793,1.65024 5.05107,2.43885 9.15047,2.44357 3.32906,0.004 8.20513,0.60462 10.83569,1.33508 2.63057,0.73046 8.25557,1.51436 12.5,1.74201 4.24444,0.22764 9.47866,0.80592 11.63162,1.28507 2.2386,0.4982 4.24304,0.33953 4.68193,-0.3706 1.63306,-2.64236 -0.91209,-8.77094 -5.89741,-14.20063 -4.28278,-4.66454 -6.25247,-5.82829 -11.09309,-6.55419 -3.36821,-0.5051 -6.88213,-0.34935 -8.21526,0.36413 -3.29007,1.76078 -8.58373,-1.73739 -12.08015,-7.98284 -2.16183,-3.86155 -3.5647,-5.01232 -6.16133,-5.05415 -2.3917,-0.0385 -4.04617,-1.17891 -5.73191,-3.95089 -2.72401,-4.47927 -6.06049,-5.89405 -11.22498,-4.75973 -3.04595,0.669 -4.06922,0.19776 -6.39165,-2.94349 -1.72776,-2.33691 -5.01706,-4.47659 -8.76773,-5.70338 -11.9691,-3.91489 -18.28464,-1.84961 -25.65815,8.39062 -4.82849,6.70575 -8.10763,8.39602 -16.28829,8.39602 -6.44041,0 -9.52518,1.32464 -14.88949,6.39373 l -3.80304,3.59373 -4.55986,-5.45506 -4.55986,-5.45505 -19.1371,-0.0675 c -14.51296,-0.0513 -19.806065,0.36229 -21.905621,1.71133 -1.522687,0.97838 -4.335187,1.81231 -6.25,1.85317 -1.914814,0.0409 -6.803804,1.3065 -10.864423,2.8125 -14.183616,5.26044 -15.915126,14.27854 -3.262536,16.99204 11.643127,2.497 16.970775,1.67695 23.14548,-3.56264 6.36943,-5.40482 17.32598,-7.05587 19.75775,-2.97731 0.55426,0.9296 3.8264,3.11851 7.27141,4.86422 5.0872,2.57789 7.83431,3.12818 14.62611,2.92987 4.59937,-0.1343 9.65157,0.16496 11.22712,0.66502 1.69507,0.538 5.51901,0.0669 9.36612,-1.15391 17.07049,-5.41698 17.74949,-5.57348 18.22024,-4.19961 1.303,3.80277 5.50007,6.29996 9.34896,5.56247 4.42799,-0.84844 3.40033,0.13889 -4.47945,4.30366 -2.56396,1.35515 -5.49665,4.07845 -6.5171,6.05178 -1.02045,1.97332 -4.26641,4.83462 -7.21326,6.35845 -2.94685,1.52381 -6.42171,3.70064 -7.72194,4.83737 -3.13441,2.7403 -6.94921,11.20964 -6.98351,15.50429 -0.0151,1.89062 -0.23785,3.4375 -0.49501,3.4375 -0.25715,0 -2.93912,-1.38139 -5.95992,-3.06974 -4.89637,-2.73664 -6.59548,-3.00922 -15.65837,-2.51205 l -10.16602,0.55769 0.11936,-4.21085 c 0.25825,-9.11074 -7.66101,-15.131 -19.35117,-14.71084 -4.786159,0.17203 -7.440726,-0.28524 -8.124999,-1.39957 -2.100416,-3.42054 -9.208744,-7.25192 -15.975782,-8.61093 -5.318118,-1.06804 -7.598678,-2.24216 -9.476045,-4.87869 -1.688455,-2.37121 -5.036678,-4.32548 -10.559744,-6.16345 -7.67724,-2.55481 -8.425914,-2.59287 -14.763536,-0.75047 -3.671898,1.06745 -7.681032,3.05116 -8.909185,4.40826 -2.023549,2.236 -2.49704,2.29444 -5.04785,0.62309 -1.548165,-1.0144 -6.498722,-2.18836 -11.001237,-2.60881 -7.00778,-0.6544 -8.808469,-0.38 -12.5072088,1.90595 C 3.5242826,163.79831 1.2244341,165 0.78995751,165 0.35548089,165 0.00391282,161.20312 0.00869518,156.5625 l 0.00869517,-8.4375 5.76202955,-0.26423 c 3.1691164,-0.14531 6.9649901,-1.05242 8.4352751,-2.01578 1.866794,-1.22318 3.588666,-1.41295 5.707696,-0.62907 2.389298,0.88386 4.713339,0.26142 10.93103,-2.92763 4.748684,-2.4356 7.896579,-4.85244 7.896579,-6.0627 0,-5.29645 -16.296944,-7.45955 -23.018706,-3.05529 -2.765459,1.812 -3.383362,1.81526 -6.8239722,0.036 C 6.8265772,132.13036 3.9712161,131.25 2.5620749,131.25 0.01184265,131.25 0,130.94666 0,65.625 L 0,0 l 200,0 200,0 0,65 c 0,60.2785 -0.38731,68.17967 -3.125,63.75 -0.4249,-0.6875 -2.0809,-1.25 -3.68001,-1.25 -1.69769,0 -3.7336,-1.26085 -4.89293,-3.0302 -2.75578,-4.20585 -6.41195,-5.03639 -12.48695,-2.83654 -2.85456,1.03367 -6.59636,2.20858 -8.31511,2.6109 -1.72219,0.40313 -4.74952,3.04412 -6.7439,5.88324 -4.80375,6.83847 -10.39892,9.20447 -17.05266,7.21096 -6.55591,-1.9642 -13.47824,0.0854 -19.90825,5.89453 -4.20071,3.79507 -5.39946,4.25091 -9.60979,3.65417 -6.659,-0.94379 -14.62866,4.47811 -15.20142,10.3418 -0.42262,4.32648 0.0556,4.68048 10.50523,7.7756 4.31552,1.27824 5.72115,1.20095 9.00043,-0.49482 5.26557,-2.72294 5.48809,-2.61968 4.59647,2.13302 -1.16289,6.19873 0.89814,7.16312 15.41839,7.21459 14.86983,0.0528 19.95454,-1.94235 29.19274,-11.45415 3.80849,-3.92126 7.56974,-6.46522 10.87464,-7.35514 3.1108,-0.83765 6.02482,-2.72611 7.58282,-4.91412 1.39174,-1.95453 4.23304,-4.25891 6.314,-5.12088 5.97397,-2.4745 7.5313,-0.2823 7.5313,10.60154 l 0,9.0584 -4.12744,0.66979 c -7.18912,1.16664 -14.89822,6.88409 -20.76612,15.40121 -3.36705,4.88719 -7.57988,9.21808 -10.80575,11.10856 -2.90797,1.70418 -6.66693,4.73823 -8.35327,6.74232 -3.52461,4.18876 -9.62301,7.65522 -13.46752,7.65522 -3.9945,0 -6.93469,1.996 -9.61926,6.5302 -2.4645,4.16253 -2.46445,4.16251 -22.77082,10.49395 -8.0793,2.5191 -12.5491,1.97638 -18.59065,-2.2573 z M 5,210.4503 c 0,-1.48614 4.3580745,-4.12055 6.875,-4.15588 1.947931,-0.0274 1.596217,0.51597 -1.592712,2.46025 C 5.9072795,211.42211 5,211.71335 5,210.4503 Z M 15.625,206.25 c 0.424899,-0.6875 2.84872,-1.24139 5.386271,-1.23086 3.439053,0.0143 4.136345,0.32765 2.738729,1.23086 -2.494743,1.61223 -9.121411,1.61223 -8.125,0 z m 13.12037,-3.12007 c 3.363484,-3.58027 3.946414,-3.50832 2.934261,0.36216 -0.448922,1.71668 -1.692286,2.75791 -3.293312,2.75791 -2.50024,0 -2.490209,-0.0871 0.359051,-3.12007 z"
       id="path3420"
       inkscape:connector-curvature="0" />
    <path
       style="fill:#a8dafb"
       d="m 293.53257,219.79657 c -5.95863,-8.10195 -15.32387,-16.17721 -23.02267,-19.8515 -7.11476,-3.39557 -8.07769,-4.30466 -9.27694,-8.75837 -2.11618,-7.8589 -7.77012,-13.39104 -14.74213,-14.42455 C 237.5989,175.44402 222.51227,166.25 229.24126,166.25 c 0.9577,0 2.03289,0.75996 2.38932,1.6888 0.42916,1.11836 4.16872,2.00304 11.07123,2.61912 5.73275,0.51168 14.64194,1.46017 19.79819,2.10776 15.46599,1.9424 26.00673,2.4665 22.89033,1.13812 -1.60612,-0.68461 -3.23749,-2.9867 -3.95307,-5.57831 -0.67011,-2.42695 -3.24659,-6.88779 -5.72549,-9.91296 -5.24539,-6.40132 -12.40801,-9.09044 -20.54926,-7.71498 -4.34925,0.7348 -5.47886,0.43043 -7.92962,-2.13659 -1.57184,-1.6464 -3.8161,-4.78613 -4.98725,-6.9772 -1.37832,-2.57865 -3.0752,-3.98376 -4.81099,-3.98376 -1.4749,0 -4.25799,-1.6875 -6.18465,-3.75 -2.89431,-3.09836 -4.48616,-3.75 -9.16079,-3.75 -4.66859,0 -6.1255,-0.59463 -8.33306,-3.40109 -5.0929,-6.47458 -20.16948,-9.85434 -28.38484,-6.3631 -5.2689,2.2391 -10.37131,7.39007 -10.37131,10.47 0,3.6378 -2.50205,5.53019 -8.32596,6.2972 -2.63948,0.34761 -6.66073,0.91468 -8.93612,1.26014 -2.29028,0.34773 -6.25146,2.53834 -8.87357,4.90725 l -4.73649,4.27914 -3.95395,-4.92017 c -4.9919,-6.21174 -10.51136,-7.94191 -18.66761,-5.85165 -3.23472,0.82898 -7.5688,1.13843 -9.6313,0.68765 -6.86232,-1.49981 -15.08419,-1.16301 -17.573588,0.71988 -1.334527,1.00937 -3.783972,1.85312 -5.443212,1.875 -7.134711,0.094 -16.940681,4.44323 -22.313553,9.89665 -5.379318,5.45996 -5.429042,5.47899 -12.431508,4.75626 -6.095882,-0.62915 -8.003398,-0.24295 -14.347797,2.90484 -7.223618,3.584 -7.444898,3.61182 -17.300303,2.17539 C 15.262589,158.64363 11.091782,158.6094 7.490972,159.57051 4.5845637,160.34627 2.5,160.42231 2.5,159.75256 2.5,159.12 1.9375,158.9501 1.25,159.375 0.48595075,159.84721 0,157.91499 0,154.40479 c 0,-5.29034 0.19047374,-5.64081 2.4178231,-4.44877 3.2454451,1.7369 9.6210079,1.63702 12.9768529,-0.20332 2.399464,-1.31586 7.214521,-3.17479 23.042824,-8.89601 5.35786,-1.93663 5.125092,-3.90454 -0.91266,-7.71602 -5.924859,-3.74018 -15.17125,-4.22257 -21.65681,-1.12982 -3.868932,1.84496 -4.536154,1.84569 -8.0882269,0.009 -2.129292,-1.10101 -4.7508217,-1.66446 -5.8256216,-1.25201 C 0.19720098,131.4418 0,124.88161 0,65.758736 L 0,0 l 200,0 200,0 0,65 c 0,58.97148 -0.49381,69.53101 -2.95204,63.125 -0.39572,-1.03125 -1.51202,-1.875 -2.48067,-1.875 -0.96865,0 -2.53318,-0.93089 -3.47674,-2.06863 -3.63736,-4.38597 -8.6032,-5.32734 -17.09272,-3.24024 -6.99845,1.72052 -8.5144,2.68242 -13.58935,8.62271 l -5.71217,6.68616 -11.61091,0 -11.6109,0 -6.4318,5.08404 c -5.2775,4.17162 -7.07415,4.94296 -10.01098,4.29793 -2.38227,-0.52323 -5.18055,0.0312 -8.36795,1.65794 -6.6896,3.41419 -9.43048,6.79613 -8.94497,11.03705 0.31984,2.79369 1.60212,4.13505 6.0312,6.30901 3.09375,1.51854 7.70369,2.78417 10.24429,2.8125 3.75235,0.0419 4.92535,0.68314 6.25,3.41694 2.17263,4.48381 7.7161,5.80538 21.2202,5.05885 12.34828,-0.68262 15.4602,-2.14917 27.66122,-13.03595 4.09184,-3.65107 8.63435,-6.64381 10.09449,-6.65052 3.12232,-0.0144 15.10704,-5.38798 16.29166,-7.30473 0.45001,-0.72814 1.64394,-1.00701 2.65318,-0.61974 2.26788,0.87028 2.52212,10.49952 0.33496,12.68668 -0.87255,0.87255 -5.05555,1.5 -10,1.5 -6.18389,0 -8.5,0.44719 -8.5,1.64114 0,0.90262 -1.64663,3.2187 -3.65918,5.14685 -3.96913,3.80267 -5.73226,7.54593 -6.90732,14.6648 -0.6111,3.70222 -1.50164,4.83785 -4.65609,5.9375 -2.14526,0.74783 -4.90149,1.35971 -6.12494,1.35971 -2.34681,0 -9.5867,6.45134 -11.88638,10.59176 -1.0106,1.8195 -2.48883,2.37054 -5.76705,2.14975 -4.34409,-0.29255 -6.73683,1.62886 -14.81513,11.89681 -0.65484,0.83233 -3.57972,2.13477 -6.49976,2.89429 -2.92004,0.75953 -8.17109,2.1879 -11.66901,3.17418 -9.18757,2.5905 -11.21054,2.28876 -14.48257,-2.16022 z M 124.29512,189.27801 C 123.01801,180.76161 119.40404,177.5 111.24474,177.5 c -3.50289,0 -8.16908,-0.90796 -10.36932,-2.0177 C 96.527038,173.2891 90,167.62777 90,166.04935 c 0,-1.3375 12.69155,-9.79935 14.69762,-9.79935 0.88329,0 3.70329,1.35138 6.26668,3.00306 3.24329,2.08978 7.32174,3.24864 13.4107,3.81059 4.8125,0.44414 11.65396,1.68554 15.20325,2.75869 5.96029,1.80211 6.95822,1.78342 13.06405,-0.2446 3.63595,-1.20768 9.73199,-2.25359 13.54676,-2.32425 6.59431,-0.12213 6.95468,0.0331 7.3163,3.15186 0.60005,5.17501 -2.62274,7.34465 -10.9098,7.34465 -9.99086,0 -15.43979,3.63635 -16.42651,10.96226 -0.86899,6.45178 -1.12548,6.71242 -7.71956,7.84479 -2.92848,0.50289 -7.10892,1.31985 -9.28988,1.81548 -3.9486,0.89731 -3.9692,0.87575 -4.86449,-5.09452 z"
       id="path3418"
       inkscape:connector-curvature="0" />
    <path
       style="fill:#9ad1f9"
       d="m 294.03003,217.30446 c -3.22238,-7.16911 -6.38612,-9.88329 -18.69957,-16.04241 -7.99511,-3.99911 -10.51366,-5.90178 -11.27555,-8.51816 -1.55945,-5.35532 -8.16306,-14.94102 -11.30122,-16.40468 -1.57923,-0.73657 -4.39173,-1.3571 -6.25,-1.37896 -1.85828,-0.0219 -4.50369,-0.9222 -5.87869,-2.00074 -2.35685,-1.84869 -2.2137,-1.91607 2.5,-1.17681 2.75,0.4313 7.95312,1.33164 11.5625,2.00074 17.99904,3.33667 21.35292,3.80426 26.5163,3.69678 9.13614,-0.19017 10.72766,-3.16536 3.59536,-6.7212 -1.6012,-0.79828 -3.19544,-2.85823 -3.54272,-4.57766 -0.9819,-4.86137 -7.72948,-13.44254 -11.88144,-15.11011 -2.0625,-0.82838 -7.96676,-1.83016 -13.12059,-2.22619 -9.34945,-0.71844 -9.37624,-0.7309 -11.875,-5.52295 -1.37742,-2.64159 -4.19191,-5.5999 -6.25441,-6.57402 -2.0625,-0.97414 -5.66131,-3.17222 -7.99735,-4.88463 -2.70611,-1.98367 -5.91557,-3.11346 -8.84461,-3.11346 -3.28318,0 -5.43345,-0.89009 -7.52265,-3.11395 -7.06402,-7.51928 -21.97698,-10.48161 -31.89817,-6.33627 -4.37645,1.82859 -9.34906,8.32164 -9.35755,12.21874 -0.006,2.76088 -2.8652,4.19188 -10.62967,5.32008 -7.20095,1.04631 -9.9854,2.28961 -14.46311,6.45802 l -3.21312,2.99115 -3.88001,-4.82813 c -5.71344,-7.10961 -10.1836,-8.59948 -18.23631,-6.078 -4.86351,1.52287 -7.69164,1.73269 -11.45745,0.84999 -7.2833,-1.70719 -14.647825,-1.41849 -17.426413,0.68312 -1.334526,1.00939 -3.540392,1.83525 -4.901923,1.83525 -4.313633,0 -18.754579,6.41754 -23.204269,10.31195 -4.035288,3.53173 -4.71458,3.70303 -11.762806,2.96635 -6.856823,-0.71669 -7.965924,-0.47015 -13.308613,2.95824 l -5.82841,3.74009 -13.466229,-1.50482 C 8.6889831,155.87666 6.8749321,155.93805 3.6300549,157.80036 L 0,159.88372 l 0,-5.74938 0,-5.7494 3.0653139,3.30753 c 3.9916313,4.30704 7.5788611,4.17406 15.0398331,-0.55755 3.352029,-2.1258 8.10278,-4.17259 10.557226,-4.54846 2.454445,-0.37585 5.169219,-1.23956 6.032831,-1.91936 0.863612,-0.6798 3.394862,-1.60612 5.625,-2.05851 3.106894,-0.63023 4.140593,-1.54663 4.421806,-3.92001 0.31735,-2.67838 -0.645083,-3.57815 -7.112903,-6.64984 -8.072197,-3.83363 -14.34868,-4.03665 -22.247771,-0.71964 -3.294412,1.3834 -4.526795,1.3917 -7.0385508,0.0475 -1.6746875,-0.89626 -4.2369136,-1.25124 -5.6938358,-0.78882 L 0,131.41847 0,65.709235 0,0 l 200,0 200,0 0,65 c 0,35.75 -0.42911,65 -0.95359,65 -0.52447,0 -1.50885,-1.25181 -2.1875,-2.7818 -0.67865,-1.52999 -3.20266,-4.11736 -5.60891,-5.74972 -3.82595,-2.59547 -5.35458,-2.87983 -12.18059,-2.26588 -9.85354,0.88624 -12.12471,2.0487 -19.10916,9.78065 l -5.66474,6.271 -11.87022,0.18537 c -11.75619,0.1836 -11.92516,0.23042 -17.589,4.87288 -4.64834,3.8101 -6.74755,4.69527 -11.21503,4.72902 -5.648,0.0426 -13.74488,4.4168 -16.57652,8.95502 -3.43119,5.49913 5.44777,14.75346 14.15504,14.75346 3.57001,0 5.15241,0.77413 7.17531,3.51025 4.66851,6.31449 19.55364,8.44457 31.56257,4.51665 3.31783,-1.0852 11.16054,-5.86645 17.42824,-10.625 7.59561,-5.76671 12.54019,-8.66105 14.82746,-8.67935 4.49538,-0.036 13.8925,-4.34035 14.83443,-6.79496 1.53409,-3.99778 3.09482,-1.70379 2.7282,4.00991 -0.29176,4.54694 -0.82011,5.82377 -2.25599,5.4519 -1.03125,-0.26709 -4.82537,-0.75839 -8.43137,-1.09179 -6.5085,-0.60175 -6.59799,-0.56167 -12.25172,5.48562 -6.87506,7.35364 -10.56691,14.05016 -10.56691,19.16697 0,3.40241 -0.39866,3.7998 -3.81208,3.7998 -6.50393,0 -13.31382,4.70692 -16.74085,11.57111 -1.10316,2.20958 -2.26621,2.71626 -5.48707,2.39051 -3.44075,-0.348 -4.91736,0.44358 -9.3361,5.00488 -2.88689,2.98004 -5.8114,6.42524 -6.4989,7.65601 -0.84798,1.51804 -4.66724,2.97983 -11.875,4.54504 -5.84375,1.269 -11.84103,2.70307 -13.32726,3.18682 -2.30524,0.75033 -3.06084,0.0817 -5.14271,-4.54991 z m -166.5347,-28.72124 c -0.006,-4.27385 -4.28513,-10.65176 -8.66446,-12.9164 -2.54829,-1.31777 -5.35765,-1.70222 -8.62317,-1.18005 -3.89564,0.62294 -5.83703,0.14732 -9.92052,-2.43048 -7.00503,-4.42208 -7.433629,-5.60977 -3.259036,-9.03104 5.608296,-4.59628 7.269616,-4.66554 13.724126,-0.57221 5.25557,3.33298 7.09879,3.79696 15.08402,3.79696 6.75646,0 10.5183,0.6906 14.62199,2.68432 l 5.52514,2.68433 4.19579,-2.56903 c 2.47848,-1.51752 7.69322,-2.93633 12.74081,-3.46646 8.48872,-0.89152 8.54227,-0.87786 8.125,2.0722 -0.38606,2.72949 -1.12762,3.02153 -9.17002,3.61131 -4.8125,0.35293 -9.972,1.33375 -11.46556,2.17961 -4.22128,2.39066 -7.90944,7.79298 -7.90944,11.58553 0,2.915 -0.62467,3.54809 -4.0625,4.11725 -2.23437,0.36991 -5.60937,1.05953 -7.5,1.53248 -3.02319,0.75626 -3.43806,0.50336 -3.44217,-2.09832 z"
       id="path3416"
       inkscape:connector-curvature="0" />
    <path
       style="fill:#95ccf8"
       d="m 292.59655,210.72777 c -3.9873,-4.2443 -17.23788,-12.22148 -21.85599,-13.15788 -3.12022,-0.63268 -3.94689,-1.49046 -4.28732,-4.44878 -0.23198,-2.01574 -2.09479,-5.57042 -4.13958,-7.89931 -2.04479,-2.32889 -3.45546,-4.49666 -3.13483,-4.81729 0.32062,-0.32062 4.70346,1.75199 9.73963,4.6058 5.03618,2.85382 12.5429,6.01625 16.6816,7.02762 4.13872,1.01137 8.71271,2.42621 10.16444,3.1441 1.93783,0.95826 3.35006,0.86148 5.3125,-0.36408 2.1467,-1.34064 3.1619,-1.364 5.15604,-0.11862 3.02594,1.88972 5.4589,2.02702 4.35812,0.24593 -0.44351,-0.71762 -0.12658,-2.12387 0.70428,-3.125 1.14219,-1.37625 4.59858,-1.8169 14.17011,-1.80648 6.9627,0.007 14.67386,0.347 17.13591,0.7543 l 4.47647,0.74055 -1.92439,4.2457 C 343.5273,199.34216 342.58652,200 339.08167,200 c -3.24523,0 -5.36396,1.2165 -9.73957,5.5921 -3.07565,3.07566 -5.5921,6.16941 -5.5921,6.875 0,0.80169 -5.31036,1.2829 -14.15711,1.2829 -13.35633,0 -14.3177,-0.17095 -16.99634,-3.02223 z M 282.5,180 c 0,-0.6875 1.33737,-1.25 2.97195,-1.25 3.56682,0 6.34597,-2.96705 5.30937,-5.66836 -0.4116,-1.0726 -2.38428,-2.52049 -4.38376,-3.2175 -2.13335,-0.7437 -3.88137,-2.39772 -4.23074,-4.00323 -0.32743,-1.50475 -1.0091,-3.72029 -1.51481,-4.92341 -0.81775,-1.94548 -0.0715,-2.1875 6.74519,-2.1875 6.87187,0 7.77899,0.30064 8.76974,2.90655 1.55887,4.10014 7.2463,7.51159 13.83306,8.29739 4.63426,0.55286 5.69535,1.16643 6.02444,3.48356 0.34522,2.43076 -0.16375,2.81361 -3.75,2.82074 -2.28219,0.005 -5.83694,1.12582 -7.89944,2.49176 -2.87215,1.90215 -5.87149,2.48545 -12.8125,2.49176 C 286.34867,181.2465 282.5,180.71915 282.5,180 Z M 161.93786,168.85171 c -0.39032,-0.63155 1.02295,-1.52884 3.14062,-1.99395 4.16601,-0.91501 5.64991,-0.29758 4.34792,1.80908 -1.00885,1.63235 -6.51001,1.76816 -7.48854,0.18487 z M 46.599877,140.39919 c 0.239059,-3.99773 -0.216432,-4.83914 -3.474877,-6.41897 -2.0625,-0.99998 -5.830191,-2.86712 -8.372648,-4.1492 -5.921533,-2.986 -11.742331,-2.9592 -17.413172,0.0803 -4.037015,2.16372 -4.99742,2.23859 -9.356489,0.72953 -2.7225015,-0.9425 -5.0408361,-1.17819 -5.2743576,-0.53621 -0.2291668,0.62995 -0.9322918,1.14541 -1.5625001,1.14541 -1.79855525,0 -1.40348157,-13.4377 0.4166667,-14.17215 1.25,-0.50438 1.25,-0.65022 0,-0.72917 C 0.51876255,116.28276 0,114.02175 0,109.53855 l 0,-6.71144 4.6875,-0.7748 c 2.578125,-0.42614 15.55687,-0.78099 28.841655,-0.78855 22.326241,-0.0127 24.122415,-0.1793 23.734734,-2.20126 C 56.884987,97.086331 54.309966,96.814099 30.609734,96.244607 16.18063,95.897891 3.390625,95.134585 2.1875,94.548371 0.16216936,93.561544 0,90.017385 0,46.741264 L 0,0 l 200,0 200,0 0,46.717179 0,46.717177 -56.5625,0.877032 c -31.10938,0.482367 -58.25,1.360843 -60.3125,1.952168 -12.95445,3.714078 -17.0491,4.044034 -54.375,4.381694 -54.53261,0.4933 -53.75,0.46741 -53.75,1.77816 0,0.64537 2.67187,1.56008 5.9375,2.03268 6.81122,0.98572 9.0625,2.39001 9.0625,5.65299 0,2.41425 -3.44869,4.89092 -6.81044,4.89092 -3.10964,0 -9.32782,7.60564 -10.95606,13.40065 -1.44009,5.12542 -1.67988,5.3137 -8.4204,6.61171 -3.81595,0.73483 -8.34435,1.67369 -10.0631,2.08636 -5.21129,1.25124 -12.78891,0.30469 -17.72646,-2.21426 -5.49025,-2.80091 -8.67733,-2.94616 -15.15479,-0.69066 -3.48216,1.21252 -6.66319,1.35239 -11.875,0.52214 C 98.767937,133.08692 85.665256,135.3613 78.75,139.96565 73.73202,143.30675 66.023056,145 55.829852,145 l -9.505098,0 0.275123,-4.60081 z m 54.794913,-24.22668 c 1.44831,-0.77511 2.14352,-1.87828 1.55191,-2.4626 -1.35256,-1.33587 -18.038106,0.67419 -19.061635,2.29631 C 83.46703,116.66874 82,117.53949 80.625,117.94124 c -1.375,0.40174 2.145392,0.48405 7.823094,0.18291 5.677701,-0.30114 11.503715,-1.17938 12.946696,-1.95164 z M 120.36219,112.5 c -0.36552,-1.39774 -0.0383,-2.5 0.74202,-2.5 0.76769,0 1.39579,-1.0624 1.39579,-2.36089 0,-1.70393 1.2052,-2.58698 4.33115,-3.17341 2.38214,-0.44689 4.66532,-1.35324 5.07378,-2.01411 0.86402,-1.39803 -12.51116,-1.39786 -23.77993,3e-4 l -7.5,0.93056 6.25,0.27163 c 8.84131,0.38426 13.15247,2.3917 5.38627,2.50806 -3.22505,0.0483 -6.21137,0.65036 -6.63627,1.33786 -0.4249,0.6875 0.11738,1.25 1.20504,1.25 1.78479,0 1.77797,0.30467 -0.07,3.125 l -2.04758,3.125 8.15174,0 c 7.53632,0 8.10238,-0.18874 7.49797,-2.5 z m 124.31537,28.98757 c -0.85391,-1.75248 -4.05057,-4.50161 -7.1037,-6.10917 -3.05311,-1.60758 -6.47241,-3.7566 -7.59842,-4.77563 -1.12602,-1.01902 -4.35345,-1.85277 -7.17208,-1.85277 -4.78705,0 -7.47562,-1.45832 -9.96328,-5.40421 -0.95491,-1.51466 -5.69601,-5.02729 -10.81792,-8.01486 -2.22766,-1.29938 -2.30051,-1.547 -0.45966,-1.5625 1.20312,-0.0101 2.1875,-0.58093 2.1875,-1.26843 0,-0.6875 -0.84375,-1.25 -1.875,-1.25 -1.03125,0 -1.875,-0.5625 -1.875,-1.25 0,-0.6875 2.89111,-1.25 6.4247,-1.25 4.67613,0 6.86,-0.59536 8.0241,-2.1875 1.41854,-1.94011 4.58805,-2.23348 28.02617,-2.59405 22.41929,-0.3449 26.88248,-0.10797 29.43192,1.5625 2.62708,1.72133 10.37742,1.96905 61.6054,1.96905 57.01275,0 58.66153,-0.0677 60.86271,-2.5 2.33571,-2.58094 5.625,-3.3728 5.625,-1.35417 0,0.63021 -0.70313,1.42955 -1.5625,1.77632 -1.25,0.50439 -1.25,0.65022 0,0.72917 1.92802,0.12177 2.16388,10.09868 0.23873,10.09868 -0.72808,0 -1.03407,-0.46875 -0.67999,-1.04167 0.35409,-0.57291 -0.0346,-1.17252 -0.86373,-1.33246 -3.7099,-0.71564 -164.10527,-2.1315 -164.90909,-1.45571 -0.49586,0.4169 -1.05836,2.15228 -1.25,3.85642 l -0.34842,3.09842 67.96201,-0.4641 67.962,-0.46411 -2.93441,4.21411 c -1.61393,2.31775 -4.5819,6.01937 -6.5955,8.22582 -3.32514,3.6436 -4.1502,3.94468 -8.99134,3.28113 -9.12008,-1.25004 -18.93405,0.61675 -23.40898,4.45281 -5.65152,4.84466 -18.02682,6.33916 -51.19122,6.18208 l -27.19743,-0.12883 -1.55257,-3.18634 z M 143.125,142.5 c -1.16091,-1.8784 0.45752,-3.75 3.24275,-3.75 2.08286,0 2.26041,0.39201 1.13225,2.5 -1.45796,2.72424 -3.16283,3.21134 -4.375,1.25 z M 397.5,127.59591 c 0,-1.32226 -1.45625,-4.13476 -3.23611,-6.25 l -3.23613,-3.84591 4.48613,0 4.48611,0 0,6.25 c 0,3.4375 -0.5625,6.25 -1.25,6.25 -0.6875,0 -1.25,-1.08184 -1.25,-2.40409 z"
       id="path3414"
       inkscape:connector-curvature="0" />
    <path
       style="fill:#87c1f5"
       d="m 84.813734,94.873518 c -8.008696,-0.527547 -17.008697,-1.621889 -20,-2.431874 C 61.415926,91.521587 50.554666,91.034489 35.87025,91.143605 22.942639,91.239669 9.5832635,90.949189 6.1827506,90.498094 L 0,89.677924 0,44.838961 0,0 l 200,0 200,0 0,44.25121 0,44.251211 -57.8125,0.592409 c -47.9552,0.4914 -59.30441,0.945376 -66.5625,2.662545 -6.98761,1.65318 -12.14889,1.909419 -25.625,1.27219 -9.28125,-0.438871 -17.71875,-0.729935 -18.75,-0.646807 -1.03125,0.08313 -4.84437,0.480148 -8.47363,0.882268 -4.61731,0.5116 -7.20946,0.225017 -8.63301,-0.954448 -3.09154,-2.561462 -67.28813,-1.646535 -71.44292,1.018201 -2.10635,1.350931 -6.12813,1.835861 -14.375,1.733277 -6.29774,-0.07834 -15.38794,0.06301 -20.20044,0.314102 -4.8125,0.251094 -15.30257,0.02491 -23.311266,-0.50264 z"
       id="path3412"
       inkscape:connector-curvature="0" />
  </g>
</svg>
