<?xml version="1.0" encoding="UTF-8" standalone="no"?>
<!-- Created with Inkscape (http://www.inkscape.org/) -->

<svg
   xmlns:dc="http://purl.org/dc/elements/1.1/"
   xmlns:cc="http://creativecommons.org/ns#"
   xmlns:rdf="http://www.w3.org/1999/02/22-rdf-syntax-ns#"
   xmlns:svg="http://www.w3.org/2000/svg"
   xmlns="http://www.w3.org/2000/svg"
   xmlns:sodipodi="http://sodipodi.sourceforge.net/DTD/sodipodi-0.dtd"
   xmlns:inkscape="http://www.inkscape.org/namespaces/inkscape"
   id="svg50978"
   version="1.1"
   inkscape:version="0.91 r13725"
   width="500"
   height="500"
   viewBox="0 0 500 500"
   sodipodi:docname="space.svg">
  <metadata
     id="metadata50984">
    <rdf:RDF>
      <cc:Work
         rdf:about="">
        <dc:format>image/svg+xml</dc:format>
        <dc:type
           rdf:resource="http://purl.org/dc/dcmitype/StillImage" />
        <dc:title />
      </cc:Work>
    </rdf:RDF>
  </metadata>
  <defs
     id="defs50982" />
  <sodipodi:namedview
     pagecolor="#ffffff"
     bordercolor="#666666"
     borderopacity="1"
     objecttolerance="10"
     gridtolerance="10"
     guidetolerance="10"
     inkscape:pageopacity="0"
     inkscape:pageshadow="2"
     inkscape:window-width="1440"
     inkscape:window-height="837"
     id="namedview50980"
     showgrid="false"
     inkscape:zoom="1.4619289"
     inkscape:cx="267.86877"
     inkscape:cy="244.63933"
     inkscape:window-x="-8"
     inkscape:window-y="-8"
     inkscape:window-maximized="1"
     inkscape:current-layer="g50988" />
  <g
     id="g50988"
     transform="matrix(1.2679813,0,0,1.58536,0.4153588,0.45027)">
    <path
       style="fill:#a1a1a1"
       d="M 0,157.5 0,0 197,0 394,0 394,157.5 394,315 197,315 0,315 0,157.5 Z"
       id="path51004"
       inkscape:connector-curvature="0" />
    <path
       style="fill:#6d6d6d"
       d="m 0,244.12781 0,-70.87219 3.9426155,-0.63045 C 9.6495272,171.71259 10.051653,170 4.559017,170 L 0,170 0,85 0,0 56.487455,0 112.97491,0 115.6554,4.2461684 c 2.91014,4.6099648 4.44392,3.6638436 2.00054,-1.2340421 L 116.15329,0 216.63566,0 c 66.73361,0 100.2748,0.33586755 99.86434,1 -0.33992,0.55 -0.16803,1 0.38197,1 0.55,0 1.27811,-0.45 1.61803,-1 0.39422,-0.63785628 14.17705,-1 38.05902,-1 L 394,0 l 0,81.5 c 0,71.77778 -0.17894,81.5 -1.5,81.5 -0.825,0 -1.5,0.45 -1.5,1 0,0.55 0.675,1 1.5,1 1.32,0 1.5,9 1.5,75 l 0,75 -137.62244,0 c -119.88774,0 -137.46791,-0.1862 -136.42324,-1.44496 0.65956,-0.79472 1.03214,-2.48222 0.82794,-3.75 -0.34288,-2.12884 -0.5474,-2.01839 -2.67554,1.44496 L 115.80245,315 57.901224,315 0,315 0,244.12781 Z M 98.55887,227.5318 c 1.63076,-1.23344 1.68089,-1.47328 0.313575,-1.5 C 97.977289,226.01431 96.684689,226.675 96,227.5 c -1.595574,1.92255 0.03233,1.94278 2.55887,0.0318 z M 268.75621,186.75 c -0.22574,-0.6875 -1.72574,-1.37269 -3.33333,-1.52264 -2.78815,-0.26007 -2.83341,-0.20246 -0.98175,1.25 2.34613,1.84032 4.88247,2.00058 4.31508,0.27264 z M 41,143 c 0,-0.55 -1.4625,-0.99311 -3.25,-0.98469 -2.466223,0.0116 -2.888257,0.24909 -1.75,0.98469 1.965494,1.2702 5,1.2702 5,0 z M 26.070814,136.90255 C 22.992978,135.67268 12,134.4908 12,135.38977 c 0,1.37704 4.67791,2.48346 10.5,2.48346 4.880871,0 5.546905,-0.18105 3.570814,-0.97068 z M 300,130 c 1.21296,-0.78387 1.06944,-0.9723 -0.75,-0.98469 C 298.0125,129.00689 297,129.45 297,130 c 0,1.25292 1.06124,1.25292 3,0 z m 37.41821,-0.60699 C 339.82165,128.47073 339.30759,127 336.58179,127 c -3.27455,0 -5.69125,1.01387 -5.01703,2.10478 0.63678,1.03033 3.54624,1.17359 5.85345,0.28823 z M 126.5,117 c -0.33992,-0.55 -1.04148,-1 -1.55902,-1 -0.51754,0 -0.94098,0.45 -0.94098,1 0,0.55 0.70156,1 1.55902,1 0.85746,0 1.2809,-0.45 0.94098,-1 z M 281,91 c 0,-0.55 -0.19844,-1 -0.44098,-1 -0.24254,0 -0.7191,0.45 -1.05902,1 -0.33992,0.55 -0.14148,1 0.44098,1 C 280.52344,92 281,91.55 281,91 Z M 54,84.485302 c 0,-0.822273 -6.369062,-4.477452 -7.809017,-4.481564 -2.08976,-0.006 -0.232821,2.071069 3.179065,3.555871 C 52.769508,85.039002 54,85.285021 54,84.485302 Z"
       id="path51002"
       inkscape:connector-curvature="0" />
    <path
       style="fill:#4d4d4d"
       d="m 0,244.16203 0,-70.83797 3.3388753,-0.12552 c 1.8363813,-0.069 4.6488813,-0.62359 6.25,-1.23235 2.6693707,-1.01491 2.7558697,-1.19371 1.0415987,-2.15309 -1.0282391,-0.57544 -3.8407391,-0.82408 -6.2499998,-0.55252 L 0,169.75433 0,84.877163 0,0 l 56.453083,0 56.453087,0 1.61771,3.4090851 c 0.88975,1.8749968 2.48586,4.1947412 3.54692,5.1549876 1.84147,1.6665083 1.92892,1.6592743 1.92304,-0.1590851 -0.003,-1.0477432 -0.67839,-3.1939257 -1.5,-4.7692945 C 117.67223,2.0603243 117,0.59782427 117,0.38569308 117,0.17356189 161.80532,0 216.56739,0 315.6797,0 316.13187,0.00914104 315.5,2 c -0.82647,2.6039688 1.10587,2.6039688 2.73207,0 1.21272,-1.94186673 2.33203,-2 38.50848,-2 L 394,0 l 0,81.5 0,81.5 -4.05902,0 c -2.45136,0 -3.81423,0.39607 -3.44098,1 0.33992,0.55 2.16648,1 4.05902,1 l 3.44098,0 0,75 0,75 -133.25,-0.0576 c -73.2875,-0.0317 -135.05,-0.42995 -137.25,-0.885 -2.2,-0.45505 -3.48857,-0.87912 -2.8635,-0.94237 1.30089,-0.13163 2.41754,-5.96357 1.27684,-6.66856 -0.90142,-0.55711 -4.58139,3.93233 -5.43951,6.63602 C 115.88318,314.94344 114.15652,315 57.932612,315 L 0,315 0,244.16203 Z m 33.219385,48.0638 c 0.586089,-0.70079 0.806047,-1.53373 0.488795,-1.85098 C 32.983057,289.64972 26,294.90445 26,296.17522 c 0,1.05943 5.586125,-1.99648 7.219385,-3.94939 z M 339,291.5 c -0.68469,-0.825 -1.69489,-1.5 -2.24489,-1.5 -0.55783,0 -0.44954,0.66326 0.24489,1.5 0.68469,0.825 1.69489,1.5 2.24489,1.5 0.55783,0 0.44954,-0.66326 -0.24489,-1.5 z m -227.19313,-7.02646 c -0.30789,-0.30789 -0.86705,0.24711 -1.24258,1.23333 -0.54268,1.4252 -0.42782,1.54006 0.5598,0.5598 0.68342,-0.67834 0.99067,-1.48524 0.68278,-1.79313 z M 200,275 c 0,-1.65 -0.45,-3 -1,-3 -0.55,0 -1,1.35 -1,3 0,1.65 0.45,3 1,3 0.55,0 1,-1.35 1,-3 z m -55.34508,-27.54313 c 0.80982,-2.11034 -0.54185,-3.2497 -1.69398,-1.42791 -1.22421,1.93575 -1.19966,2.97104 0.0704,2.97104 0.56727,0 1.29786,-0.69441 1.62354,-1.54313 z M 58.55887,239.5318 c 1.067622,-0.8075 1.464638,-1.4825 0.88226,-1.5 -0.582379,-0.0175 -1.932379,0.62889 -3,1.4364 -1.067622,0.8075 -1.464638,1.4825 -0.88226,1.5 0.582379,0.0175 1.932379,-0.62889 3,-1.4364 z M 355,240.02568 c 0,-0.53588 -1.35,-1.67243 -3,-2.52568 -3.7604,-1.94458 -3.99884,-0.10575 -0.25,1.92803 3.34438,1.81435 3.25,1.797 3.25,0.59765 z M 99.139216,228.08608 c 1.298434,-1.05266 1.997774,-2.27817 1.554084,-2.72337 -0.962395,-0.96567 -5.857312,1.60636 -6.446457,3.38729 -0.623929,1.88608 2.223657,1.49965 4.892373,-0.66392 z M 41.13671,219.21224 c -0.721441,-0.24048 -1.787158,0.0382 -2.36826,0.61931 -0.742068,0.74207 -0.351636,0.87221 1.311709,0.43724 1.352204,-0.35361 1.805497,-0.8069 1.056551,-1.05655 z m 21.42216,-7.68044 c 1.067622,-0.8075 1.415434,-1.4825 0.772917,-1.5 C 61.431998,209.98008 59,211.14516 59,212.10699 c 0,1.31057 1.355281,1.09152 3.55887,-0.57519 z m 244.98225,-5.46527 C 306.73189,204.75717 304,204.64928 304,205.92668 c 0,0.50967 0.7875,1.10184 1.75,1.31593 2.18229,0.48541 2.63447,0.1885 1.79112,-1.17608 z m -120.79126,-3.65 c -0.95295,-0.95296 -2.86349,0.5906 -2.1533,1.7397 0.42212,0.683 0.98146,0.66575 1.69964,-0.0524 0.58876,-0.58876 0.79291,-1.34803 0.45366,-1.68727 z m 83.70785,-14.34811 C 271.25676,186.77554 267.04051,184 264.27749,184 c -3.09121,0 -2.86854,1.61548 0.47251,3.42803 3.21717,1.74534 4.9076,1.935 5.70771,0.64039 z M 42.75,181.36971 c 1.2375,-0.33163 2.25,-1.029 2.25,-1.5497 0,-1.39696 -6.276031,-0.53308 -6.756322,0.92999 -0.446727,1.36083 0.998984,1.55964 4.506322,0.61971 z m 330,-36 C 375.95881,144.50979 375.53308,143 372.08179,143 c -3.72382,0 -6.22752,0.95518 -5.51703,2.10478 0.63738,1.0313 2.95511,1.13057 6.18524,0.26493 z M 42.55887,142.4682 c -2.137163,-1.61647 -9.110744,-2.0023 -10.006084,-0.55361 -0.820111,1.32697 1.270267,1.92113 6.947214,1.97466 4.606782,0.0434 4.847342,-0.0683 3.05887,-1.42105 z M 30,138.06739 c 0,-1.18481 -1.866257,-1.73911 -10.292398,-3.05698 C 9.9262771,133.4806 6.4838711,135.92265 15.41271,138.05722 19.949492,139.1418 30,139.14881 30,138.06739 Z m 89,-0.008 c 0,-1.17986 -1.95035,-2.442 -2.66667,-1.72569 -0.71631,0.71595 0.54583,2.6663 1.72569,2.6663 0.51754,0 0.94098,-0.42344 0.94098,-0.94098 z m 181.5573,-7.47726 c 1.06675,-0.78003 1.59398,-1.76381 1.17161,-2.18618 -1.02165,-1.02165 -5.95462,0.77053 -6.48053,2.35442 -0.56454,1.70021 2.90398,1.5903 5.30892,-0.16824 z M 340,128.98469 c 2.41916,-1.58808 -0.80664,-3.14858 -4.99238,-2.4151 -4.04438,0.70871 -5.00762,1.18756 -5.00762,2.48943 0,1.24452 8.08248,1.18444 10,-0.0743 z M 41.55887,127.4682 C 39.398809,125.83441 36,125.49719 36,126.91667 c 0,1.18195 1.85366,1.91325 5,1.97258 2.411319,0.0455 2.431143,-0.005 0.55887,-1.42105 z M 168,126 c 0,-0.55 -0.47656,-1 -1.05902,-1 -0.58246,0 -0.7809,0.45 -0.44098,1 0.33992,0.55 0.81648,1 1.05902,1 0.24254,0 0.44098,-0.45 0.44098,-1 z m -40,-7.87756 c 0,-1.50335 -2.82096,-3.30357 -4.63055,-2.95502 -1.62948,0.31387 -1.62816,0.43105 0.0234,2.08258 1.84093,1.84091 4.60716,2.36474 4.60716,0.87244 z M 107.5,107 c -0.33992,-0.55 -1.29303,-1 -2.11803,-1 -0.825,0 -1.22189,0.45 -0.88197,1 0.33992,0.55 1.29303,1 2.11803,1 0.825,0 1.22189,-0.45 0.88197,-1 z M 65,98 c -1.958372,-1.265597 -3.282182,-1.265597 -2.5,0 0.339919,0.55 1.378976,0.993109 2.309017,0.984687 C 66.266292,98.971491 66.292687,98.835399 65,98 Z m 216.61241,-6.531208 c 0.91218,-1.392165 1.38343,-2.80629 1.04721,-3.142501 -0.76341,-0.76341 -3.4463,1.406597 -4.7494,3.841465 -1.56883,2.931385 1.73179,2.308235 3.70219,-0.698964 z M 113,87.606989 c 0,-1.421 -2.88006,-3.060264 -3.78563,-2.154694 C 108.57602,86.090648 110.96083,89 112.12244,89 112.6051,89 113,88.373145 113,87.606989 Z M 54.945277,84.434063 c -1.346508,-1.622443 -5.097748,-3.781135 -9.43849,-5.431483 -4.524501,-1.720212 -2.867058,1.460577 2.243213,4.304935 5.523732,3.074489 9.303002,3.666201 7.195277,1.126548 z M 306.5,73 c 0.33992,-0.55 0.16803,-1 -0.38197,-1 -0.55,0 -1.27811,0.45 -1.61803,1 -0.33992,0.55 -0.16803,1 0.38197,1 0.55,0 1.27811,-0.45 1.61803,-1 z M 228,64.940983 C 228,64.423442 227.55,64 227,64 c -0.55,0 -1,0.701558 -1,1.559017 0,0.857459 0.45,1.280902 1,0.940983 0.55,-0.339919 1,-1.041476 1,-1.559017 z m 141.52646,-1.747855 c -0.30789,-0.307887 -1.11479,-6.34e-4 -1.79313,0.682784 -0.98026,0.987616 -0.8654,1.10248 0.5598,0.559795 0.98622,-0.375531 1.54122,-0.934692 1.23333,-1.242579 z M 20.139216,44.966731 c -1.298431,-1.081702 -2.873431,-1.95176 -3.5,-1.933462 -0.626569,0.0183 -0.07686,0.918298 1.221568,2 1.298431,1.081702 2.873431,1.95176 3.5,1.933462 0.626569,-0.0183 0.07686,-0.918298 -1.221568,-2 z M 194,34.5 c 0,-1.375 -0.45,-2.5 -1,-2.5 -0.55,0 -1,1.125 -1,2.5 0,1.375 0.45,2.5 1,2.5 0.55,0 1,-1.125 1,-2.5 z M 209,22 c 0,-1.035081 -0.39884,-2.128462 -0.88631,-2.429736 -1.02421,-0.632995 -1.99037,2.328757 -1.36552,4.185967 C 207.34772,25.538262 209,24.249633 209,22 Z"
       id="path51000"
       inkscape:connector-curvature="0" />
    <path
       style="fill:#373737"
       d="M 0.01332004,243.94075 C 0.05023262,174.84065 0.10314677,172.89796 1.9325432,173.47859 4.8222627,174.39575 13,172.02108 13,170.26479 c 0,-1.21921 -1.208946,-1.4208 -6.5,-1.08389 L 0,169.59479 0,84.789136 0,-0.0165145 56.75,0.24174275 C 93.709168,0.40993611 113.51462,0.84873713 113.54192,1.5 c 0.12845,3.0644933 5.79509,10.49632 7.04797,9.243442 0.93218,-0.9321829 -1.60404,-8.7374676 -2.87843,-8.8584411 C 117.04516,1.8217514 118.3,1.3976848 120.5,0.94263061 124.82294,0.04846116 316,-0.34997659 316,0.53518329 316,0.82953411 315.27325,2.1795341 314.38499,3.5351833 312.05331,7.0937795 314.51648,6.7291197 318,3 L 320.80242,0 357.40121,0 394,0 l 0,81.404843 0,81.404847 -3.75,-0.44589 c -3.74201,-0.44493 -7.3256,0.89393 -5.9839,2.23563 0.3895,0.3895 2.73885,0.75147 5.22079,0.80438 l 4.51261,0.0962 2.5e-4,74.80088 L 394,315.10176 262.25,314.74057 C 189.7875,314.54191 129.18153,314.04553 127.57007,313.6375 123.2913,312.5541 123,312.22286 123,308.44098 123,306.54844 122.56622,305 122.03605,305 120.83986,305 116,312.00164 116,313.73213 116,314.74139 104.16684,315 57.98768,315 l -58.0123191,0 0.03795914,-71.05925 z M 30.612495,294.91574 C 35.122013,291.338 36.754839,289 34.74397,289 c -2.563882,0 -9.683484,6.0375 -9.728657,8.25 -0.02978,1.45833 1.755105,0.71396 5.597182,-2.33426 z M 342,294.08889 C 342,292.97961 336.21252,288 334.92327,288 c -1.79184,0 -0.8876,1.85222 2.15346,4.41111 3.17355,2.67037 4.92327,3.26665 4.92327,1.67778 z m 25.7613,-3.66883 C 364.01767,286.98927 362,286.13955 362,287.99373 c 0,1.30752 8.14713,7.19247 8.90629,6.43331 0.32281,-0.32281 -1.09243,-2.12595 -3.14499,-4.00698 z M 197,288 c 0,-1.65 -0.45,-3 -1,-3 -0.55,0 -1,1.35 -1,3 0,1.65 0.45,3 1,3 0.55,0 1,-1.35 1,-3 z m -85.07258,-1.63486 c 2.33121,-2.96366 2.68946,-4.73743 0.83175,-4.1182 -1.63425,0.54475 -5.24153,6.75306 -3.9238,6.75306 0.56071,0 1.95213,-1.18569 3.09205,-2.63486 z M 89.703101,282.36977 C 88.732582,281.39925 85,284.98056 85,286.88226 c 0,1.1517 0.721435,0.85085 2.69697,-1.12468 1.483333,-1.48334 2.386092,-3.00785 2.006131,-3.38781 z M 200.5,277 c 0.72375,-2.28032 -0.20617,-6 -1.5,-6 -0.47587,0 -1.15087,0.9 -1.5,2 -0.72375,2.28032 0.20617,6 1.5,6 0.47587,0 1.15087,-0.9 1.5,-2 z m 147,-13.531 c -1.65,-1.35248 -3.675,-2.44512 -4.5,-2.42807 -0.94487,0.0195 -0.38974,0.94106 1.5,2.49007 1.65,1.35248 3.675,2.44512 4.5,2.42807 0.94487,-0.0195 0.38974,-0.94106 -1.5,-2.49007 z M 153,252.72554 c 0,-2.01636 -2.52158,0.11819 -2.7794,2.35279 -0.27057,2.34514 -0.23106,2.36032 1.25,0.48054 0.84117,-1.06762 1.5294,-2.34262 1.5294,-2.83333 z m -7.81612,-5.22977 c 1.56743,-3.44014 0.0687,-4.51965 -2.26996,-1.63499 -2.30903,2.84815 -2.43145,4.13922 -0.39248,4.13922 0.83679,0 2.03489,-1.1269 2.66244,-2.50423 z M 311.5,246 c -0.99549,-1.1 -2.48498,-2 -3.30998,-2 -1.23,0 -1.17421,0.35999 0.30998,2 0.99549,1.1 2.48498,2 3.30998,2 1.23,0 1.17421,-0.35999 -0.30998,-2 z M 157,245 c 0.85431,-1.5963 0.76049,-2 -0.46482,-2 -0.84435,0 -1.53518,0.1882 -1.53518,0.41821 0,0.23002 -0.27314,1.13002 -0.60699,2 C 153.51073,247.71741 155.7368,247.3603 157,245 Z M 43.777494,241.4433 C 47.244101,239.01519 46.387709,237.84747 42.5,239.70139 38.986392,241.37691 37.892804,243 40.277494,243 c 0.702621,0 2.277621,-0.70052 3.5,-1.5567 z M 59.5,239.531 c 2.638482,-2.16274 2.755675,-2.46341 0.972506,-2.49504 C 58.201719,236.99568 54,239.60581 54,241.0567 c 0,1.67028 2.419951,0.99898 5.5,-1.5257 z m 295.10836,-1.19145 c -2.6578,-2.28615 -8.35254,-3.35268 -7.10258,-1.3302 0.9733,1.57483 7.88829,4.86013 8.90834,4.23234 0.50277,-0.30943 -0.30982,-1.61539 -1.80576,-2.90214 z M 98.631966,228.91844 c 3.319284,-2.05143 4.556374,-4.92199 2.118034,-4.9147 -2.217597,0.007 -7.75,3.91969 -7.75,5.48156 0,2.06644 1.637944,1.90158 5.631966,-0.56686 z M 285,226 c 0,-0.55 -0.47656,-1 -1.05902,-1 -0.58246,0 -0.7809,0.45 -0.44098,1 0.33992,0.55 0.81648,1 1.05902,1 0.24254,0 0.44098,-0.45 0.44098,-1 z m -16.8,-3.2 c -0.64167,-0.64167 -1.49863,-0.8347 -1.90437,-0.42896 -0.40574,0.40574 -0.0888,1.13877 0.70437,1.62896 1.86759,1.15423 2.71091,0.31091 1.2,-1.2 z m -26.2,0.25902 c 0,-1.17986 -1.95035,-2.442 -2.66667,-1.72569 C 238.61702,222.04965 239.87916,224 241.05902,224 241.57656,224 242,223.57656 242,223.05902 Z M 263.5,222 c -0.33992,-0.55 -1.06803,-1 -1.61803,-1 -0.55,0 -0.72189,0.45 -0.38197,1 0.33992,0.55 1.06803,1 1.61803,1 0.55,0 0.72189,-0.45 0.38197,-1 z M 41.604087,220.52096 c 4.699283,-1.96349 3.551225,-3.81624 -1.319766,-2.12986 -2.019463,0.69915 -3.847079,1.79717 -4.061369,2.44004 -0.522214,1.56665 1.115137,1.47226 5.381135,-0.31018 z M 248,220.55902 c 0,-0.24254 -0.45,-0.7191 -1,-1.05902 -0.55,-0.33992 -1,-0.14148 -1,0.44098 0,0.58246 0.45,1.05902 1,1.05902 0.55,0 1,-0.19844 1,-0.44098 z M 123,218 c 0,-0.55 -0.42344,-1 -0.94098,-1 -0.51754,0 -1.2191,0.45 -1.55902,1 -0.33992,0.55 0.0835,1 0.94098,1 0.85746,0 1.55902,-0.45 1.55902,-1 z m 70,-4.5 c 0,-0.825 -0.45,-1.5 -1,-1.5 -0.55,0 -1,0.675 -1,1.5 0,0.825 0.45,1.5 1,1.5 0.55,0 1,-0.675 1,-1.5 z M 62.709169,212.47705 c 2.777752,-1.16062 3.367277,-1.8006 2.477894,-2.68999 -0.889383,-0.88938 -2.0148,-0.76276 -4.730356,0.53219 -1.959825,0.93458 -3.287773,2.14507 -2.950996,2.68999 0.790365,1.27884 0.894567,1.26818 5.203458,-0.53219 z m 46.919601,-3.18161 C 108.80451,208.47118 106,209.79149 106,211.0038 c 0,0.73956 0.63946,0.72434 2.08565,-0.0496 1.1471,-0.61391 1.84151,-1.36033 1.54312,-1.65872 z m 155.02615,0.24769 C 264.32924,208.69441 263.59865,208 263.03138,208 c -1.46553,0 -1.28265,2.74359 0.21862,3.27976 1.69882,0.60672 2.1094,0.0992 1.40492,-1.73663 z M 309,207.03518 c 0,-1.34944 -3.77425,-3.22532 -5.731,-2.84841 -1.46964,0.28308 -1.45772,0.48169 0.12384,2.06323 1.86717,1.86715 5.60716,2.39087 5.60716,0.78518 z m -122,-3.5942 C 187,202.64844 186.325,202 185.5,202 c -1.50623,0 -2.05568,2.11099 -0.86052,3.30615 C 185.57272,206.23939 187,205.11163 187,203.44098 Z M 123.5,204 c 0.33992,-0.55 0.14148,-1 -0.44098,-1 -0.58246,0 -1.05902,0.45 -1.05902,1 0,0.55 0.19844,1 0.44098,1 0.24254,0 0.7191,-0.45 1.05902,-1 z m -56.40625,-1.05017 c 1.079246,-0.5776 1.724215,-1.43535 1.433262,-1.90612 -0.70554,-1.14159 -4.172305,-0.17603 -5.616698,1.56435 C 62.000913,203.70383 62.11432,204 63.443297,204 c 0.928502,0 2.571206,-0.47258 3.650453,-1.05017 z M 327,199.10699 c 0,-1.13332 -2.52569,-2.11635 -5.33179,-2.07519 -2.12165,0.0311 -2.12652,0.0633 -0.22708,1.5 2.14363,1.62137 5.55887,1.97475 5.55887,0.57519 z M 270.81114,187.25 C 270.24571,184.3007 261,182.2511 261,185.07505 c 0,1.27894 5.15524,3.83893 7.82332,3.88491 1.68442,0.029 2.23107,-0.4412 1.98782,-1.70996 z M 44.418213,181.39301 c 3.213059,-1.23297 1.440923,-2.4934 -3.090044,-2.1978 C 35.726792,179.56064 33.993206,182 39.334879,182 c 1.92585,0 4.21335,-0.27314 5.083334,-0.60699 z M 197,180.5 c 0,-0.825 -0.45,-1.5 -1,-1.5 -0.55,0 -1,0.675 -1,1.5 0,0.825 0.45,1.5 1,1.5 0.55,0 1,-0.675 1,-1.5 z M 375.41821,145.39301 C 378.55681,144.18862 376.8996,143 372.08179,143 c -5.54858,0 -8.33557,0.78036 -7.51703,2.10478 0.62405,1.00974 8.43283,1.21711 10.85345,0.28823 z M 44.569098,143.8882 c 1.12792,-1.82502 -1.709742,-2.85663 -7.902431,-2.87289 -4.157205,-0.0109 -5.716252,0.33593 -5.425861,1.20711 0.801709,2.40512 12.005912,3.80543 13.328292,1.66578 z m -15.150885,-4.49519 c 4.547127,-1.7449 -1.55569,-4.21703 -12.524445,-5.07342 -5.009665,-0.39112 -7.835558,-0.22279 -8.2780078,0.49311 -1.2836799,2.07703 3.8890458,3.52715 18.0524528,5.0608 0.642516,0.0696 1.880016,-0.14664 2.75,-0.48049 z M 119.75501,137.75 C 119.27832,136.30257 115,135.41522 115,136.76378 c 0,1.42806 1.17454,2.23622 3.25,2.23622 1.08622,0 1.7383,-0.5416 1.50501,-1.25 z m 181.80386,-7.18268 c 1.54755,-1.14219 1.68971,-1.68761 0.70114,-2.68999 -0.9951,-1.009 -1.93318,-0.92674 -4.75,0.4165 -1.9305,0.9206 -3.51001,2.13109 -3.51001,2.68999 0,1.51925 5.33438,1.22532 7.55887,-0.4165 z m 37.33735,-0.68099 c 1.75707,-0.61251 3.01791,-1.62501 2.80187,-2.25 -0.5095,-1.47391 -10.31769,-1.41673 -11.80324,0.0688 -2.93412,2.93412 2.83283,4.33155 9.00137,2.18118 z M 43.569098,128.8882 c 1.007599,-1.63033 -1.526076,-2.85543 -5.941543,-2.87289 -3.257872,-0.0129 -3.682783,0.21322 -2.677379,1.42466 1.065242,1.28353 3.068817,2.00398 6.740807,2.42385 0.655041,0.0749 1.500193,-0.36413 1.878115,-0.97562 z m 124.647572,-4.07153 c -1.52752,-1.52752 -2.65464,-0.40039 -1.80743,1.80742 0.50024,1.30358 0.93392,1.43275 1.82354,0.54313 0.88963,-0.88963 0.88579,-1.44865 -0.0161,-2.35055 z M 139,124 c 0,-0.55 -0.45,-1 -1,-1 -0.55,0 -1,0.45 -1,1 0,0.55 0.45,1 1,1 0.55,0 1,-0.45 1,-1 z m 106.5,-2 c 0.33992,-0.55 -0.0835,-1 -0.94098,-1 -0.85746,0 -1.55902,0.45 -1.55902,1 0,0.55 0.42344,1 0.94098,1 0.51754,0 1.2191,-0.45 1.55902,-1 z m -117.125,-2.79775 c 0.6938,-1.12258 -0.50184,-2.70643 -3.05926,-4.05255 C 122.48003,113.6571 122,113.69961 122,115.4433 c 0,0.79381 1.00013,2.14381 2.22251,3 2.49747,1.74929 3.43457,1.92057 4.15249,0.75895 z M 232,118 c 0,-0.55 -0.19844,-1 -0.44098,-1 -0.24254,0 -0.7191,0.45 -1.05902,1 -0.33992,0.55 -0.14148,1 0.44098,1 0.58246,0 1.05902,-0.45 1.05902,-1 z m 52,-9.14217 c 0,-0.5895 -0.7118,-0.79866 -1.58179,-0.46482 -0.86998,0.33385 -1.76998,0.60699 -2,0.60699 -0.23001,0 -0.41821,0.69083 -0.41821,1.53518 0,1.22531 0.4037,1.31913 2,0.46482 1.1,-0.5887 2,-1.55268 2,-2.14217 z m 43.13922,-0.82456 c 1.29843,-1.0817 1.81945,-1.9817 1.15783,-2 -1.8199,-0.0503 -6.29705,2.17311 -6.29705,3.12725 0,1.48909 2.71296,0.89403 5.13922,-1.12725 z M 109,107.97856 c 0,-1.36424 -4.80846,-3.50343 -5.75265,-2.55924 C 102.38446,106.2822 105.75737,109 107.69113,109 108.41101,109 109,108.54035 109,107.97856 Z m 187,-5.05416 c 0,-0.4739 -0.675,-0.60261 -1.5,-0.28603 -0.825,0.31659 -1.5,0.96334 -1.5,1.43723 0,0.4739 0.675,0.60261 1.5,0.28603 0.825,-0.31659 1.5,-0.96334 1.5,-1.43723 z m -57,-4.542434 c 0,-0.825 -0.45,-1.221885 -1,-0.881966 -0.55,0.339919 -1,1.293034 -1,2.118034 0,0.824996 0.45,1.221886 1,0.881966 0.55,-0.33992 1,-1.293034 1,-2.118034 z M 67,99.035184 C 67,97.84839 63.690603,96 61.565741,96 59.277777,96 59.653792,97.527402 62.25,98.779505 65.121541,100.1644 67,100.26551 67,99.035184 Z M 73.5,95 C 73.160081,94.45 72.346024,94.006891 71.690983,94.015313 70.975367,94.024514 71.098708,94.41754 72,95 c 1.921123,1.241525 2.267305,1.241525 1.5,0 z m 207.23331,-1.966171 c 2.1333,-1.987464 3.84068,-5.793176 2.98356,-6.650288 C 282.78624,85.45291 277,91.229228 277,93.088894 c 0,2.435572 1.07698,2.419687 3.73331,-0.05506 z M 114,88.828741 C 114,87.168466 110.94555,84 109.34501,84 c -2.11211,0 -1.57368,2.726427 0.8775,4.443296 C 112.87478,90.301023 114,90.415837 114,88.828741 Z M 56.417402,86.133647 C 57.558617,84.287122 47.098266,78 42.884851,78 c -2.169549,0 -2.172887,0.02467 -0.289839,2.141735 1.680388,1.889222 10.753739,6.822451 12.595971,6.848496 0.380041,0.0054 0.931929,-0.38009 1.226419,-0.856584 z M 181.82332,85.332866 C 181.33677,82.824097 179,82.479622 179,84.916667 179,86.145004 179.64569,87 180.57332,87 c 0.93124,0 1.44138,-0.68037 1.25,-1.667134 z M 135.36163,77.5 C 134.75303,75.914024 133,75.419158 133,76.833333 133,77.890847 134.09309,79 135.13528,79 c 0.44107,0 0.54293,-0.675 0.22635,-1.5 z m 100.96248,0.09777 c 0.29595,-0.771229 0.273,-1.667325 -0.051,-1.991324 C 235.56789,74.90122 233,76.875127 233,78.122445 c 0,1.430604 2.73974,0.998162 3.32411,-0.524679 z m 71.55669,-4.954142 c 0.708,-0.853081 0.82723,-1.70604 0.2853,-2.040971 -1.24165,-0.767378 -6.34264,3.302678 -5.61494,4.480126 0.6606,1.068867 3.4947,-0.228185 5.32964,-2.439155 z M 228,67.081787 c 0,-0.505016 0.27314,-1.630016 0.60699,-2.5 C 228.99423,63.572648 228.67094,63 227.71398,63 226.31337,63 225,64.975294 225,67.081787 225,67.586804 225.675,68 226.5,68 c 0.825,0 1.5,-0.413196 1.5,-0.918213 z m 143.5579,-4.145768 c 1.35494,-1.497189 1.43361,-1.935172 0.34709,-1.932281 -1.918,0.0051 -7.90499,3.738588 -7.90499,4.929544 0,1.454552 5.50465,-0.728446 7.5579,-2.997263 z M 77.108337,53.888916 c -1.315414,-1.066408 -2.665414,-1.663936 -3,-1.32784 -0.334585,0.336096 0.467911,1.483599 1.783326,2.550008 1.315414,1.066408 2.665414,1.663936 3,1.32784 0.334585,-0.336096 -0.467911,-1.483599 -1.783326,-2.550008 z M 21.037774,44.902454 C 19.13355,43.306104 16.701306,42 15.632787,42 c -1.849356,0 -1.859601,0.09189 -0.213088,1.911269 2.009545,2.220521 7.794328,5.214636 8.558438,4.429715 0.287024,-0.294843 -1.036139,-1.842181 -2.940363,-3.43853 z m 121.916386,-0.9881 c -0.61391,-1.147106 -1.36033,-1.841513 -1.65872,-1.543128 C 140.47118,43.195487 141.79149,46 143.0038,46 c 0.73956,0 0.72434,-0.639458 -0.0496,-2.085646 z M 194.5,34.5 c 0,-3.055464 -1.90106,-4.503202 -2.8084,-2.138716 -0.80079,2.086846 0.36567,5.786293 1.68572,5.346274 C 193.9948,37.501735 194.5,36.058333 194.5,34.5 Z m 144.99001,-7.489569 c 1.5753,-1.644263 2.616,-3.237757 2.31266,-3.541099 C 341.11776,22.784428 335,27.838202 335,29.088894 c 0,1.677629 1.60186,0.936115 4.49001,-2.078463 z M 209,21.85765 c 0,-2.771695 -0.38908,-3.896558 -1.25,-3.613864 -1.38399,0.454448 -2.21831,5.093422 -1.33164,7.404069 C 207.43174,28.288663 209,25.986233 209,21.85765 Z M 35.235294,8.7647059 C 32.943627,6.4730392 30.71838,4.9482865 30.2903,5.3763665 c -0.42808,0.4280801 1.161873,2.5881269 3.533229,4.8001045 5.61604,5.238585 6.839078,4.015547 1.411765,-1.4117651 z"
       id="path50998"
       inkscape:connector-curvature="0" />
  </g>
  <g
     inkscape:groupmode="layer"
     id="layer1"
     inkscape:label="Layer 1" />
  <g
     inkscape:groupmode="layer"
     id="layer2"
     inkscape:label="Layer 2">
    <rect
       style="fill:#ffffff;fill-opacity:1;stroke:#ffffff;stroke-width:0.63501954"
       id="rect3343"
       width="499.36499"
       height="37.364979"
       x="0.31750986"
       y="-1.5852504" />
  </g>
</svg>
