<?xml version="1.0" encoding="UTF-8" standalone="no"?>
<!-- Created with Inkscape (http://www.inkscape.org/) -->

<svg
   xmlns:dc="http://purl.org/dc/elements/1.1/"
   xmlns:cc="http://creativecommons.org/ns#"
   xmlns:rdf="http://www.w3.org/1999/02/22-rdf-syntax-ns#"
   xmlns:svg="http://www.w3.org/2000/svg"
   xmlns="http://www.w3.org/2000/svg"
   xmlns:sodipodi="http://sodipodi.sourceforge.net/DTD/sodipodi-0.dtd"
   xmlns:inkscape="http://www.inkscape.org/namespaces/inkscape"
   id="svg4206"
   version="1.1"
   inkscape:version="0.91 r13725"
   width="625"
   height="625"
   viewBox="0 0 625 625"
   sodipodi:docname="videoBackground.svg">
  <metadata
     id="metadata4212">
    <rdf:RDF>
      <cc:Work
         rdf:about="">
        <dc:format>image/svg+xml</dc:format>
        <dc:type
           rdf:resource="http://purl.org/dc/dcmitype/StillImage" />
        <dc:title></dc:title>
      </cc:Work>
    </rdf:RDF>
  </metadata>
  <defs
     id="defs4210" />
  <sodipodi:namedview
     pagecolor="#ffffff"
     bordercolor="#666666"
     borderopacity="1"
     objecttolerance="10"
     gridtolerance="10"
     guidetolerance="10"
     inkscape:pageopacity="0"
     inkscape:pageshadow="2"
     inkscape:window-width="1366"
     inkscape:window-height="705"
     id="namedview4208"
     showgrid="false"
     inkscape:zoom="0.5"
     inkscape:cx="446"
     inkscape:cy="151.27217"
     inkscape:window-x="-8"
     inkscape:window-y="892"
     inkscape:window-maximized="1"
     inkscape:current-layer="layer1" />
  <g
     id="g4756"
     transform="matrix(1,0,0,1.0719051,164.48691,-32.916181)">
    <path
       style="fill:#86d0e6"
       d="m -164.40214,339.21014 0,-308.542076 313.20695,0 313.20695,0 0,308.542076 0,308.54219 -313.20695,0 -313.20695,0 0,-308.54219 z"
       id="path4772"
       inkscape:connector-curvature="0" />
    <path
       style="fill:#4f8e53"
       d="m -164.40214,594.003 0,-53.7493 4.69811,-2.05044 c 6.90633,-3.01417 30.16004,-2.94148 38.21335,0.11947 7.6768,2.91782 9.70731,5.89126 9.70731,14.21513 l 0,6.67232 6.50537,-0.85012 c 3.57796,-0.46756 6.96059,-1.12727 7.516968,-1.466 0.556377,-0.33875 1.011596,-4.67354 1.011596,-9.63289 0,-7.22857 0.510618,-9.65647 2.574487,-12.24117 7.241464,-9.06892 42.585295,-9.58314 51.551944,-0.75003 l 3.503648,3.45146 0,27.09554 c 0,20.1835 0.399492,27.41607 1.566035,28.35203 1.936741,1.55396 155.548642,4.01035 249.765552,3.99397 l 66.5395,-0.0112 9.25658,-6.00234 c 24.90755,-16.15104 47.05444,-22.41229 79.0935,-22.36093 33.52883,0.0538 56.42467,6.52577 82.93467,23.44331 l 11.97528,7.64214 0,23.9394 0,23.93894 -313.20695,0 -313.20695,0 0,-53.74933 z m 61.38856,-11.14737 c 0,-9.06283 -2.96837,-8.63296 -3.51074,0.50839 -0.30296,5.10616 0.0101,6.38238 1.56603,6.38238 1.52553,0 1.94471,-1.48531 1.94471,-6.89077 z m 57.00367,0 c 0,-4.57101 -0.463617,-6.06801 -1.879242,-6.06801 -1.980771,0 -3.333624,7.81895 -1.962068,11.33994 1.516964,3.89426 3.84131,0.70426 3.84131,-5.27193 z m -74.79394,-28.29723 c -0.45171,-8.17774 -2.72282,-9.56832 -3.27363,-2.00442 -0.43933,6.03306 0.28334,8.80653 2.29469,8.80653 0.85259,0 1.21541,-2.52104 0.97894,-6.80211 z m 35.78292,0.0142 c 0.964927,-2.47712 -0.411343,-5.77125 -2.173448,-5.20221 -2.217769,0.7162 -2.555685,7.05346 -0.376104,7.05346 1.00563,0 2.152928,-0.83306 2.549552,-1.85125 z"
       id="path4768"
       inkscape:connector-curvature="0" />
    <path
       style="fill:#3b803b"
       d="m -164.1021,593.85952 0.32638,-53.89279 3.13206,-0.55557 c 1.72264,-0.30557 10.18084,-0.79706 18.79601,-1.09218 12.16324,-0.41669 16.68521,-0.11626 20.23362,1.3443 7.13942,2.93861 8.57783,5.01425 8.57783,12.37801 0,3.74053 0.67293,7.09881 1.56928,7.83165 1.97878,1.61776 13.529057,-0.33875 14.942361,-2.53112 0.54427,-0.84429 0.998215,-5.56155 1.008766,-10.48279 0.0155,-7.22589 0.49186,-9.41336 2.475499,-11.36746 8.635643,-8.50703 44.169547,-7.88604 50.933835,0.89012 1.247425,1.61844 1.669107,8.67638 1.713617,28.68133 0.03247,14.59405 0.533565,27.27201 1.113564,28.17323 2.265133,3.51972 197.610958,5.15091 404.898118,3.381 70.7366,-0.60399 86.76463,-0.43648 90.83002,0.94924 l 4.93649,1.68266 0.33969,24.25158 0.33969,24.2516 -313.2466,0 -313.24661,0 0.32638,-53.89281 z m 62.25695,-3.39585 c 0.84463,-1.00256 1.31185,-4.50924 1.09303,-8.20353 -0.70178,-11.84734 -8.5256,-11.07091 -8.5256,0.84606 0,7.21977 4.116,11.29417 7.43257,7.35747 z m 57.465881,-6.76277 c 0.412009,-8.6113 -0.60663,-10.68105 -4.636596,-9.42105 -2.304932,0.72066 -2.63177,1.78326 -2.63177,8.55609 0,8.50526 0.546754,9.65627 4.333341,9.1223 2.222436,-0.31339 2.606673,-1.39438 2.935025,-8.25734 z M -119.5509,562.34785 c 1.56554,-1.54223 2.06526,-11.68475 0.74294,-15.07933 -1.0557,-2.71013 -5.14784,-2.44493 -6.71244,0.435 -2.63368,4.84779 -0.67096,16.12533 2.80642,16.12533 0.91283,0 2.33621,-0.66645 3.16308,-1.481 z m 35.079176,-4.93668 c 3.25994,-3.21139 1.035073,-10.86068 -3.158929,-10.86068 -2.823604,0 -4.724202,5.707 -3.082602,9.25627 1.547792,3.34643 3.867792,3.94281 6.241531,1.60441 z"
       id="path4766"
       inkscape:connector-curvature="0" />
    <path
       style="fill:#2e6130"
       d="m -164.40214,620.73266 c 0,-24.55274 0.20017,-27.10536 2.19245,-27.95812 1.20585,-0.51616 10.64904,-1.26979 20.98487,-1.67475 l 18.79241,-0.73631 0.62642,-11.7246 c 0.64809,-12.13035 2.3257,-16.66406 6.66866,-18.02193 3.75569,-1.17425 3.87043,0.39968 0.33122,4.54316 -3.12647,3.66025 -3.31208,4.56758 -2.97476,14.54133 l 0.35977,10.63747 5.63773,0.77858 c 3.10075,0.42821 14.658085,0.71142 25.68297,0.62936 l 20.045245,-0.1492 0.356259,-11.84404 c 0.421933,-14.02741 -0.701446,-16.06912 -10.311705,-18.74129 -7.198659,-2.00161 -9.586862,-5.02408 -2.986712,-3.77994 6.214168,1.17139 14.004586,5.0246 15.761331,7.7957 0.852054,1.34404 1.919543,8.01085 2.372195,14.81518 l 0.823007,12.37147 9.015399,0 c 5.235488,0 10.540622,0.73363 12.65316,1.74976 5.397202,2.59605 180.776701,4.66981 354.429541,4.19094 77.1742,-0.21281 141.44426,-0.0567 142.82237,0.34694 2.37994,0.69705 2.5227,1.95097 2.84536,24.99192 l 0.33968,24.25804 -313.23343,0 -313.23344,0 0,-27.01967 z m 68.905532,-63.69174 c 0,-1.13132 0.606055,-1.85794 1.34679,-1.61469 0.740734,0.24323 1.346789,0.96984 1.346789,1.61469 0,0.64485 -0.606055,1.37147 -1.346789,1.6147 -0.740735,0.24325 -1.34679,-0.48337 -1.34679,-1.6147 z"
       id="path4764"
       inkscape:connector-curvature="0" />
    <path
       style="fill:#1a3b1a"
       d="m -164.11337,621.02693 0.33765,-26.72541 4.38489,-0.27251 c 20.48042,-1.27281 92.296986,-0.24966 129.667681,1.84734 29.32158333,1.64535 179.856249,3.85714 254.667569,3.74181 32.19666,-0.0497 98.70817,-0.0696 147.80336,-0.0443 l 89.26398,0.0459 0,24.06629 0,24.06629 -313.23137,0 -313.23139,0 0.33763,-26.7254 z"
       id="path4762"
       inkscape:connector-curvature="0" />
    <path
       style="fill:#260900"
       d="m -164.13132,634.76305 0.3556,-12.98928 5.15507,-3.02534 5.15508,-3.02531 5.79761,3.78298 c 4.88265,3.18598 6.55692,3.65662 10.6089,2.98224 2.64619,-0.44042 8.71105,-0.95271 13.47745,-1.13843 5.4622,-0.21283 10.75049,-1.27922 14.30389,-2.88441 3.10075,-1.40069 7.71742,-3.1053 10.259278,-3.78801 5.93073,-1.5929 26.184502,-0.70984 37.500017,1.63499 11.668598,2.41801 18.788458,2.29434 29.314798,-0.50922 16.991522,-4.52546 22.040298,-4.33929 27.0887428,0.99888 1.1504166,1.21642 4.39320604,2.57423 7.2062154,3.01734 2.8130294,0.44313 7.2976517,1.92661 9.9658438,3.29664 5.431951,2.78912 6.052782,2.66674 19.288517,-3.80239 6.438753,-3.14703 10.212611,-4.01131 22.204439,-5.08529 7.946015,-0.71164 15.292948,-1.72021 16.326531,-2.24129 2.189301,-1.10372 16.603376,0.44968 21.625201,2.33052 1.894667,0.70963 11.193677,2.17824 20.664477,3.26359 16.18461,1.85475 17.65747,1.84325 24.50366,-0.19131 6.39776,-1.90131 7.84588,-1.9579 11.90187,-0.46513 6.30064,2.31889 35.08205,1.98914 55.76515,-0.63889 19.81602,-2.51786 27.84915,-1.42398 46.10351,6.27797 3.87596,1.63536 8.12397,2.97339 9.43999,2.97339 1.31602,0 7.16513,-1.90564 12.99801,-4.23473 17.69468,-7.06557 42.25014,-8.68334 53.26447,-3.5092 4.03599,1.89596 5.10504,1.87653 16.5335,-0.30053 18.02881,-3.43441 26.47755,-3.05048 39.21112,1.78183 16.44096,6.23924 26.80592,5.74911 53.64147,-2.53661 12.59149,-3.88773 13.88818,-3.82204 21.50343,1.08956 l 4.97924,3.21145 0,13.35664 0,13.35663 -313.24933,0 -313.24934,0 0.35559,-12.98928 z"
       id="path4760"
       inkscape:connector-curvature="0" />
    <path
       style="fill:#140500"
       d="m -164.25391,641.27294 c -0.0815,-3.90306 0.27461,-7.0307 0.79139,-6.95032 4.32028,0.672 5.94253,-3.59779 1.77484,-4.67144 -3.75895,-0.96834 -3.00769,-7.11357 1.1666,-9.54265 2.42776,-1.41276 3.72046,-1.60577 4.32295,-0.64546 0.47272,0.75349 2.34378,1.0768 4.15791,0.71846 4.16199,-0.82212 12.3159,2.76742 13.14898,5.78848 0.78324,2.84027 3.30414,1.51295 3.30414,-1.73972 0,-2.51005 -0.45614,-2.42059 14.72073,-2.88687 3.27302,-0.10059 7.89476,-1.15415 10.27055,-2.34132 3.8248,-1.91122 4.44186,-1.9433 5.38677,-0.27999 1.67344,2.94572 4.70113,2.26109 4.70113,-1.06304 0,-2.22741 0.83469,-3.09873 3.43814,-3.589 4.396834,-0.82798 6.615469,0.45446 3.040194,1.75734 -3.224937,1.17522 -3.544439,3.30479 -0.65944,4.39537 1.22048,0.46137 2.681256,-0.0575 3.583391,-1.27289 2.127579,-2.86631 4.131491,-2.55625 4.604893,0.71248 0.487369,3.36517 4.474249,4.40681 5.619001,1.46807 0.5253,-1.34852 -0.01954,-2.73014 -1.496068,-3.79372 -1.27724,-0.92003 -2.073558,-1.70281 -1.769595,-1.7395 0.303963,-0.0366 4.076238,-0.34332 8.382834,-0.68138 7.72258,-0.60622 7.830173,-0.57138 7.830173,2.53505 0,2.32694 0.654536,3.14972 2.505656,3.14972 1.60821,0 2.505656,-0.82278 2.505656,-2.29719 0,-1.78484 0.698556,-2.16565 3.132069,-1.70738 2.0203,0.38046 3.13207,1.41491 3.13207,2.91428 0,2.94978 5.632262,3.21757 7.263925,0.34537 0.946076,-1.66536 1.531066,-1.72883 3.69031,-0.40043 2.157099,1.32706 2.900547,1.24908 4.66518,-0.48927 2.799368,-2.75768 4.425829,-2.61052 4.425829,0.40046 0,1.4504 0.835226,2.46833 2.025292,2.46833 1.497009,0 1.865491,-0.82349 1.412668,-3.15704 -0.46551,-2.39889 -0.175125,-2.99166 1.20924,-2.46834 1.002022,0.37879 2.273782,0.68871 2.826119,0.68871 0.552336,0 1.299092,1.11075 1.659485,2.46834 0.360384,1.35758 1.553677,2.46833 2.651766,2.46833 2.223338,0 2.682525,-1.90501 0.743709,-3.08542 -0.689056,-0.41952 -1.252828,-1.51079 -1.252828,-2.42505 0,-1.33057 0.623096,-1.37761 3.122297,-0.23571 1.717266,0.78463 3.126698,2.08803 3.13207,2.89646 0.01594,2.38698 2.476159,3.18405 4.562678,1.47819 1.735878,-1.4192 1.704578,-1.75179 -0.300749,-3.19628 -1.73697,-1.25119 -1.902594,-1.94293 -0.739539,-3.08866 1.163035,-1.14572 1.498693,-1.14469 1.498693,0.005 0,0.81455 0.85961,1.48101 1.910252,1.48101 1.050631,0 2.4461209,1.38844 3.1010593,3.08542 1.2348773,3.19959 4.2278428,4.09851 5.7211434,1.71831 1.8092437,-2.88382 16.9317173,1.71582 19.7108703,5.99524 1.493621,2.29993 4.363499,1.86396 5.219511,-0.79289 1.011072,-3.13819 6.959669,-5.41968 11.319991,-4.34161 3.129012,0.77364 3.443442,0.58516 2.836713,-1.7004 -0.682431,-2.57079 1.013457,-3.96407 4.82501,-3.96407 1.389928,0 1.524361,0.54576 0.568032,2.30606 -1.429005,2.63036 -0.632988,3.86478 2.492266,3.86478 3.006466,0 3.948612,-3.18588 1.524451,-5.15499 -1.71435,-1.39253 -0.550643,-1.73106 7.904642,-2.2995 9.409358,-0.63257 13.054405,-0.27634 9.601762,0.93837 -2.111315,0.74282 -1.994873,4.85576 0.160542,5.67056 1.930488,0.72976 4.537562,-1.33221 4.537562,-3.58882 0,-0.80981 0.939932,-1.82769 2.088745,-2.26196 2.460654,-0.93018 5.078092,1.06441 3.031723,2.31029 -2.326852,1.41666 -1.495425,4.38605 1.228102,4.38605 2.019939,0 2.415021,-0.54333 1.794811,-2.46834 -0.609736,-1.89252 -0.225138,-2.46834 1.648691,-2.46834 1.424285,0 2.729241,1.07465 3.1277,2.57569 0.429199,1.61679 1.494373,2.42085 2.861168,2.15979 3.237447,-0.61835 3.669793,-3.5628 0.63782,-4.34387 -2.896739,-0.74623 -3.143896,-1.39575 -1.502602,-3.94864 0.861495,-1.33997 1.278486,-1.14147 1.944469,0.92563 0.874895,2.71544 4.285263,3.50631 6.379329,1.47937 0.654598,-0.63362 3.16339,-0.74701 5.575084,-0.25197 3.571961,0.7332 4.384894,1.4616 4.384894,3.92892 0,1.66611 0.70458,2.97333 1.56604,2.90543 0.86131,-0.0679 2.41169,-0.20672 3.44527,-0.30855 1.03359,-0.10181 1.87925,-1.28524 1.87925,-2.62985 0,-2.22033 0.5462,-2.36193 5.95093,-1.54271 3.273,0.49611 9.89734,0.87431 14.72072,0.84044 5.58741,-0.0393 9.37055,0.52059 10.42533,1.54271 0.91052,0.88237 2.42763,1.60429 3.37132,1.60429 2.24101,0 3.51599,-2.07946 1.88414,-3.07298 -2.14635,-1.30676 -1.41589,-3.09786 1.2634,-3.09786 1.58029,0 3.00449,1.21215 3.77751,3.21508 1.18163,3.06163 1.38275,3.1235 4.21378,1.29615 2.8951,-1.86869 14.02432,-2.02418 16.95985,-0.23694 0.67392,0.4103 2.33001,0.0664 3.68019,-0.76427 1.97871,-1.2173 2.87866,-1.16557 4.6396,0.26673 1.68192,1.36804 2.30602,1.42196 2.71179,0.23429 0.89066,-2.60716 5.32959,-1.83622 5.32959,0.92532 0,3.99473 4.99038,2.83343 6.62941,-1.54271 0.99194,-2.64846 2.58555,-2.7543 4.64604,-0.30854 2.00237,2.37677 5.01131,2.39089 5.01131,0.0234 0,-2.48586 5.08695,-3.61494 16.28676,-3.61494 11.10408,0 16.28676,1.12714 16.28676,3.54212 0,2.72606 2.46123,3.57525 5.58659,1.92753 3.70918,-1.95555 10.70017,1.27294 10.70017,4.9414 0,2.589 4.20514,3.48592 5.63773,1.20248 0.42586,-0.67879 1.86857,-1.23417 3.206,-1.23417 1.33745,0 2.43172,0.55538 2.43172,1.23417 0,0.67879 0.84566,1.23417 1.87924,1.23417 1.03359,0 1.87925,-0.99918 1.87925,-2.22041 0,-1.97962 6.52949,-5.49905 10.64903,-5.73988 0.68906,-0.0403 2.52131,-0.78443 4.07169,-1.65367 2.41771,-1.3555 2.81887,-1.2991 2.81887,0.39625 0,1.42824 0.95586,1.86829 3.44527,1.58612 2.28029,-0.25845 3.39403,-1.07596 3.29373,-2.4176 -0.12453,-1.66606 1.68898,-2.17812 10.18278,-2.87511 12.60226,-1.03413 21.57198,0.11182 23.11568,2.95332 0.89087,1.63982 2.75421,2.03907 8.80263,1.88612 4.21991,-0.10675 8.31862,-0.83048 9.10825,-1.60835 1.98352,-1.95392 3.44022,-1.7689 3.44022,0.437 0,2.69381 3.88162,2.27105 4.61801,-0.50299 0.7651,-2.88217 4.97179,-4.13164 8.1929,-2.43341 1.64948,0.86961 2.89399,0.83882 4.04233,-0.1 1.006,-0.82246 3.68702,-1.03701 6.81047,-0.54498 3.90557,0.61522 5.15133,1.37024 5.15133,3.12206 0,2.43554 2.43729,3.08548 4.44754,1.18601 0.72036,-0.68066 3.04126,-0.38633 5.87942,0.7456 4.02042,1.60345 4.58178,2.29192 3.93587,4.8271 -0.95612,3.75278 2.55073,4.13103 4.52958,0.48857 1.79644,-3.30668 4.7412,-3.1332 5.23739,0.30854 0.26277,1.82264 1.26137,2.77688 2.906,2.77688 1.64462,0 2.64322,-0.95424 2.90599,-2.77688 0.50439,-3.49856 1.91765,-3.53125 4.2318,-0.0978 1.91702,2.84418 5.45542,2.11009 4.28699,-0.88941 -0.7041,-1.80754 0.66969,-2.41496 9.24687,-4.08843 3.10075,-0.60498 6.62434,-1.5054 7.83018,-2.00093 1.57991,-0.64927 2.19245,-0.32291 2.19245,1.16813 0,1.44104 0.85569,1.94821 2.81886,1.67077 2.02673,-0.28642 2.74208,-1.13821 2.54564,-3.03114 -0.21905,-2.11053 0.69478,-2.87481 4.60704,-3.85305 7.24075,-1.81053 14.42084,0.14463 10.12842,2.75799 -1.68361,1.02502 -0.15619,4.35289 1.99787,4.35289 0.9815,0 2.09538,-0.79799 2.47531,-1.77332 0.37993,-0.97533 1.48654,-1.47251 2.45914,-1.10485 0.97261,0.36767 1.45644,1.16567 1.07521,1.77333 -0.38124,0.60766 -0.0961,1.10484 0.63361,1.10484 0.72972,0 1.32676,0.50339 1.32676,1.11863 0,0.61524 -1.12754,0.82816 -2.50565,0.47314 -1.92284,-0.49534 -2.50566,-0.0379 -2.50566,1.96681 0,1.78948 0.78919,2.61227 2.50566,2.61227 1.37811,0 2.50565,0.55537 2.50565,1.23417 0,0.67879 -0.56377,1.23416 -1.25282,1.23416 -0.68906,0 -1.25283,0.83307 -1.25283,1.85126 0,1.01819 0.56377,1.85125 1.25283,1.85125 0.68905,0 1.25282,0.55538 1.25282,1.23417 0,0.67879 -1.12754,1.23417 -2.50565,1.23417 -1.39203,0 -2.50566,0.82278 -2.50566,1.85125 0,1.02847 1.11363,1.85125 2.50566,1.85125 1.94885,0 2.50565,0.82279 2.50565,3.70251 0,3.25103 -0.4201,3.68505 -3.44527,3.55934 -2.11096,-0.0878 -2.59795,-0.36142 -1.25744,-0.7067 1.73911,-0.44796 1.92279,-1.05141 0.89554,-2.94226 -0.71076,-1.30836 -2.13582,-2.37878 -3.16678,-2.37878 -2.58327,0 -3.80722,3.70622 -1.6652,5.04233 1.17311,0.73176 0.0993,1.06487 -3.26271,1.01218 -2.75622,-0.0431 -4.36645,-0.339 -3.57828,-0.65735 2.21757,-0.89571 0.4397,-5.39716 -2.13162,-5.39716 -3.38705,0 -4.40279,2.60244 -1.75902,4.50681 2.0614,1.48489 1.71108,1.6547 -3.25387,1.57729 -3.67219,-0.0573 -4.77724,-0.39172 -3.25006,-0.98375 2.15118,-0.83392 2.16649,-1.01752 0.21771,-2.61077 -1.78795,-1.46179 -2.2542,-1.4619 -3.17085,-8e-4 -0.59108,0.94212 -0.79672,2.156 -0.457,2.69751 0.33973,0.54153 -2.5496,0.98459 -6.42074,0.98459 -3.87114,0 -6.72948,-0.49245 -6.35188,-1.09433 1.05432,-1.68052 -2.75487,-4.21585 -5.0376,-3.35294 -1.15984,0.43845 -1.71878,1.55214 -1.3081,2.60642 0.48594,1.24751 -0.078,1.84085 -1.74926,1.84085 -1.35648,0 -2.32539,-0.60707 -2.15313,-1.34902 0.17226,-0.74196 -0.68944,-1.99156 -1.91491,-2.77688 -1.75181,-1.12264 -2.47063,-1.04473 -3.3626,0.36446 -0.62398,0.98578 -0.85654,2.23537 -0.51682,2.77688 0.33973,0.5415 -0.74683,0.98456 -2.41459,0.98456 -2.55887,0 -2.93879,-0.4817 -2.43354,-3.08542 0.478,-2.46322 0.0911,-3.08543 -1.91893,-3.08543 -2.99628,0 -4.8082,3.69423 -2.51498,5.12766 0.90553,0.56601 -2.77168,1.00538 -8.41415,1.00538 -6.07412,0 -9.35297,-0.41799 -8.32283,-1.06099 1.19564,-0.74632 1.28523,-1.3134 0.30199,-1.91202 -1.8689,-1.13784 -6.615,0.41423 -5.70451,1.86551 0.39519,0.62992 -0.70647,1.14531 -2.44815,1.14531 -2.19836,0 -2.96105,-0.52792 -2.49418,-1.72642 0.90769,-2.33017 -2.01254,-3.95939 -3.33074,-1.85824 -0.6295,1.00338 -0.44884,2.04262 0.45328,2.60755 0.82493,0.51662 -1.51049,0.94782 -5.18984,0.95821 -5.35821,0.0152 -7.12602,-0.51186 -8.8817,-2.64775 l -2.19196,-2.66664 -2.70696,2.66664 c -1.60233,1.57848 -4.11285,2.59807 -6.15223,2.49858 -2.9504,-0.14393 -3.04072,-0.24486 -0.62881,-0.70261 2.35877,-0.44768 2.60473,-0.92434 1.51344,-2.93304 -1.04642,-1.92615 -1.78614,-2.14382 -3.75611,-1.10522 -1.34916,0.71129 -2.45304,2.10679 -2.45304,3.10111 0,1.17302 -1.20979,1.77362 -3.44528,1.71039 -1.8949,-0.0535 -2.74055,-0.37756 -1.87924,-0.71993 2.19018,-0.87059 1.96481,-5.35348 -0.26913,-5.35348 -2.53149,0 -4.94173,4.52554 -2.85293,5.35677 0.85582,0.34056 -0.0883,0.66305 -2.09806,0.71664 -2.00974,0.0536 -3.29807,-0.25327 -2.86293,-0.68192 1.23891,-1.22048 -1.50723,-5.39149 -3.54969,-5.39149 -2.59951,0 -2.28796,4.63912 0.35729,5.3201 1.20584,0.31043 -0.62641,0.62034 -4.07169,0.68869 -4.06963,0.0807 -5.65156,-0.25785 -4.51554,-0.96646 1.80733,-1.12735 1.08569,-5.04233 -0.92946,-5.04233 -0.62631,0 -1.87624,0.8754 -2.77762,1.94533 -1.35824,1.61218 -1.33087,2.1373 0.15979,3.06651 1.30081,0.81084 0.70408,1.12644 -2.15572,1.14011 -3.34154,0.0159 -3.85284,-0.36365 -3.29915,-2.44944 0.44702,-1.68394 0.0385,-2.46834 -1.28569,-2.46834 -1.06751,0 -2.2988,1.11075 -2.7362,2.46834 -0.72168,2.23995 -1.89557,2.46834 -12.68664,2.46834 -6.9134,0 -11.59337,-0.475 -11.17952,-1.13467 0.39153,-0.62407 -0.249,-2.08124 -1.42341,-3.23815 -2.01181,-1.98187 -2.29875,-1.91626 -4.96272,1.13466 -3.39186,3.88454 -4.20047,4.03272 -4.20047,0.76982 0,-1.59905 -0.83523,-2.46834 -2.37162,-2.46834 -2.72691,0 -4.49447,3.24539 -2.25611,4.14242 0.82262,0.32967 -2.34309,0.64323 -7.03488,0.69682 -4.69179,0.0536 -8.22157,-0.39501 -7.84396,-0.99689 0.37761,-0.60187 -0.10875,-1.74452 -1.08071,-2.53918 -1.3572,-1.10961 -2.37148,-1.07317 -4.37111,0.15702 -1.43211,0.88104 -2.60383,2.02368 -2.60383,2.5392 0,0.51551 -0.839,0.93729 -1.86446,0.93729 -1.18673,0 -1.756,-1.0094 -1.56604,-2.77688 0.19089,-1.77622 -0.37875,-2.77688 -1.58081,-2.77688 -1.20205,0 -1.7717,1.00066 -1.58081,2.77688 0.37774,3.51465 -1.75321,3.5667 -4.59282,0.11218 -2.32275,-2.82575 -5.79082,-2.11836 -4.60014,0.93829 0.45898,1.17825 -0.26529,1.72642 -2.28103,1.72642 -2.04369,0 -2.89995,-0.66517 -2.77955,-2.15921 0.26219,-3.25356 -5.03429,-3.58625 -6.06696,-0.38108 -1.03915,3.22529 -2.75518,3.25794 -3.78166,0.072 -0.4374,-1.35759 -1.86499,-2.46834 -3.17241,-2.46834 -1.30744,0 -2.98061,1.11075 -3.71814,2.46834 -0.73755,1.35758 -1.88492,2.46834 -2.54974,2.46834 -0.66481,-4e-5 -1.20874,-1.11079 -1.20874,-2.46838 0,-1.64555 -0.83523,-2.46834 -2.50566,-2.46834 -1.67043,0 -2.50566,0.82279 -2.50566,2.46834 0,2.34696 -0.83522,2.46834 -16.98711,2.46834 -9.55857,0 -16.68688,-0.47855 -16.30056,-1.09433 0.37762,-0.60187 -0.2175,-1.83347 -1.32249,-2.73685 -1.71326,-1.40072 -2.34023,-1.23962 -4.25871,1.09432 -3.013,3.66549 -4.77271,3.45868 -4.01008,-0.47129 0.51233,-2.6402 0.20434,-3.12497 -1.73977,-2.73836 -1.50324,0.29894 -2.32615,1.46561 -2.26284,3.20814 0.12633,3.47782 -3.30501,3.64795 -5.44646,0.27003 -0.86064,-1.35759 -2.62726,-2.46834 -3.92581,-2.46834 -3.08264,0 -4.41576,3.37319 -1.62,4.09911 1.16764,0.30318 -2.27951,0.61566 -7.66036,0.6944 -5.38084,0.0787 -9.50539,-0.29989 -9.16566,-0.84139 0.33972,-0.54151 0.15414,-1.72341 -0.4124,-2.62645 -1.22223,-1.94813 -3.8159,-0.70252 -3.8159,1.83259 0,0.97813 -0.93962,1.77842 -2.08805,1.77842 -1.14841,0 -1.73203,-0.35071 -1.2969,-0.77936 1.23785,-1.2194 -1.59563,-5.55588 -3.05118,-4.66969 -0.71452,0.43502 -1.0209,1.83901 -0.68086,3.11999 0.53167,2.00278 -0.10085,2.32906 -4.515202,2.32906 -4.752286,0 -4.952889,-0.1313 -2.701567,-1.76817 1.8301,-1.33062 2.077298,-2.12278 0.998934,-3.20116 -2.195475,-2.19554 -6.036174,-0.88947 -6.484346,2.20507 -0.495207,3.41926 -1.654855,3.51216 -3.693807,0.29592 -0.860643,-1.35759 -2.385855,-2.46834 -3.38935,-2.46834 -1.003505,0 -2.428001,1.11075 -3.165535,2.46834 -1.708306,3.14445 -3.758484,3.18417 -3.758484,0.0729 0,-3.45998 -2.606142,-4.52917 -4.574866,-1.87689 -1.339243,1.80426 -1.36475,2.47845 -0.123148,3.25508 0.969659,0.60653 0.09682,0.98671 -2.292013,0.99841 -3.200454,0.0157 -3.84101,-0.45437 -3.758484,-2.75799 0.07116,-1.98677 -0.613474,-2.77688 -2.406181,-2.77688 -1.792706,0 -2.477352,0.79011 -2.406181,2.77688 0.111502,3.11247 -2.570301,3.7862 -3.684607,0.92562 -0.396615,-1.01819 -1.262319,-1.85125 -1.923792,-1.85125 -0.661453,0 -2.048313,0.83306 -3.081896,1.85125 -1.31131,1.29178 -4.272694,1.80799 -9.798898,1.70809 -4.355821,-0.0787 -6.964309,-0.39121 -5.796663,-0.6944 2.758255,-0.71619 1.482195,-4.09913 -1.5462,-4.09913 -1.25795,0 -2.645061,1.11075 -3.082458,2.46834 -0.437397,1.35759 -1.185426,2.46834 -1.662302,2.46834 -0.476876,0 -1.571206,-1.11075 -2.431849,-2.46834 -1.82984,-2.88641 -4.396113,-3.17952 -6.453767,-0.73711 -1.120008,1.32942 -1.082914,1.87971 0.159791,2.37091 0.890089,0.35182 -1.487738,0.68351 -5.284057,0.7371 -5.6362219,0.0796 -7.1927552,-0.36056 -8.4851823,-2.39925 -1.2879471,-2.0316 -2.0507388,-2.24998 -4.0949429,-1.17225 -1.38167863,0.72845 -2.18121329,1.85195 -1.77671027,2.49668 0.41361358,0.65928 -1.07869477,1.10961 -3.41018723,1.02909 -2.2800965,-0.0787 -3.12783,-0.40307 -1.8838522,-0.72073 2.7360657,-0.69869 2.1407821,-3.29302 -0.8883551,-3.87157 -1.366795,-0.26107 -2.4319693,0.543 -2.861168,2.1598 -0.3760488,1.41661 -1.557606,2.57567 -2.625667,2.57567 -1.06806,0 -1.570966,-0.36545 -1.117572,-0.81208 1.129128,-1.1123 -1.567378,-4.1246 -3.692204,-4.1246 -0.949222,0 -1.725845,1.11075 -1.725845,2.46834 0,2.16266 -0.835226,2.46834 -6.744434,2.46834 -5.690794,0 -6.846794,-0.38562 -7.399682,-2.46834 -0.360383,-1.35759 -1.324579,-2.46834 -2.142646,-2.46834 -0.818076,0 -1.782263,1.11075 -2.142646,2.46834 -0.846761,3.18977 -3.087319,3.1489 -5.143049,-0.0938 -1.298791,-2.04872 -1.984058,-2.26801 -3.419638,-1.09434 -0.987449,0.80731 -1.486405,1.96029 -1.108803,2.56216 1.254712,1.99992 -2.29071,1.12995 -3.826377,-0.93891 -1.079977,-1.45497 -2.470035,-1.79568 -4.887451,-1.19798 -1.858034,0.45937 -3.040022,1.37434 -2.626649,2.03323 0.450817,0.71858 -1.981783,1.19798 -6.078861,1.19798 -4.915795,0 -7.032597,-0.51894 -7.551588,-1.85126 -0.396623,-1.01819 -1.884065,-1.85125 -3.305428,-1.85125 -1.421362,0 -2.908804,0.83306 -3.305427,1.85125 -0.396624,1.01819 -1.929304,1.80741 -3.405957,1.75382 -1.476653,-0.0535 -1.980109,-0.37756 -1.118789,-0.71993 2.208992,-0.87807 1.946929,-3.71124 -0.426266,-4.60835 -2.815812,-1.06444 -4.59807,0.36098 -3.871859,3.09666 0.850995,3.20575 -1.9137,2.94299 -4.021723,-0.38221 l -1.718814,-2.71128 -2.204088,2.68141 c -1.906027,2.31878 -3.419769,2.67018 -11.193701,2.59848 -7.81458,-0.0721 -8.69221,-0.29863 -6.71429,-1.73324 2.19486,-1.59196 2.19333,-1.68162 -0.0436,-2.5354 -2.35738,-0.89976 -5.0022,1.49241 -3.78864,3.42674 0.33971,0.5415 -0.22327,0.98456 -1.25108,0.98456 -1.02782,0 -2.22662,-1.11075 -2.66402,-2.46834 -0.4374,-1.35759 -1.8245,-2.46834 -3.08246,-2.46834 -3.02839,0 -4.30445,3.38294 -1.54621,4.09911 1.16766,0.30318 0.0266,0.61566 -2.53577,0.6944 -3.649,0.11218 -4.50336,-0.25582 -3.9417,-1.69768 0.94652,-2.42987 -3.20194,-4.01708 -4.61452,-1.76553 -0.64558,1.02903 -0.47363,2.05734 0.43965,2.62927 0.82495,0.51662 -2.72839,0.90878 -7.89631,0.87146 -5.59545,-0.0404 -8.41972,-0.44468 -6.98215,-0.99945 2.24801,-0.86754 2.26178,-0.98918 0.20016,-1.76851 -2.57707,-0.97419 -4.85923,0.058 -3.81354,1.72472 0.39643,0.63188 -1.14475,1.14039 -3.42484,1.12999 -3.19033,-0.0145 -3.71259,-0.30435 -2.26639,-1.25763 1.62227,-1.06933 1.53662,-1.49701 -0.62641,-3.12758 -2.34847,-1.77036 -2.5553,-1.67212 -3.29705,1.56616 -0.56259,2.45613 -0.83425,1.40334 -0.93962,-3.64144 z m 23.417,3.08542 c -0.50857,-2.60143 -2.73202,-2.43739 -3.29863,0.24336 -0.23635,1.11813 0.45426,1.91644 1.65789,1.91644 1.29036,0 1.90484,-0.80888 1.64074,-2.1598 z m 41.606786,-0.26258 c -0.773566,-1.42389 -2.082746,-2.13254 -3.176156,-1.71921 -3.34888,1.26596 -1.85521,4.14159 2.15124,4.14159 1.937906,0 2.114361,-0.41705 1.024916,-2.42238 z m 36.307039,0.53239 c 0,-1.97055 -3.32954,-3.88063 -4.593703,-2.6353 -0.399934,0.39398 -0.393314,1.57334 0.0147,2.62081 0.9608,2.46651 4.579,2.47794 4.579,0.0145 z m 40.543552,0.0388 c -0.396635,-1.01818 -1.788367,-1.85125 -3.092761,-1.85125 -1.304384,0 -2.371613,0.83307 -2.371613,1.85125 0,1.14562 1.178861,1.85126 3.092751,1.85126 2.234393,0 2.892609,-0.5138 2.371623,-1.85126 z m 38.384599,-6e-5 c 0,-1.02847 -1.113623,-1.85126 -2.505655,-1.85126 -1.392032,0 -2.505656,0.82279 -2.505656,1.85126 0,1.02846 1.113624,1.85125 2.505656,1.85125 1.392032,0 2.505655,-0.82279 2.505655,-1.85125 z m 31.320695,-0.61709 c 0,-2.7975 -1.299192,-3.16316 -3.507917,-0.98733 -2.208726,2.17583 -1.837538,3.45567 1.002262,3.45567 1.67043,0 2.505655,-0.82279 2.505655,-2.46834 z m 76.186759,0.32271 c -0.60858,-3.1131 -4.37667,-3.36302 -5.98795,-0.39716 -1.25721,2.31412 -1.03123,2.54279 2.51299,2.54279 3.0248,0 3.80076,-0.47912 3.47496,-2.14563 z m 39.0734,-0.32271 c 0,-2.37165 -2.45006,-3.34589 -4.16523,-1.65626 -0.94842,0.93429 1.42291,4.1246 3.0658,4.1246 0.60468,0 1.09943,-1.11075 1.09943,-2.46834 z m 8.60552,0.81207 c 0.76744,-0.91094 1.0244,-2.02169 0.57101,-2.46833 -1.62148,-1.59734 -3.88424,-0.76971 -4.52823,1.65626 -0.7558,2.84712 1.80075,3.37175 3.95722,0.81207 z m 11.89279,-0.19498 c -0.39664,-1.01819 -1.72805,-1.85126 -2.95872,-1.85126 -1.23067,0 -2.56209,0.83307 -2.95872,1.85126 -0.54013,1.38661 0.20246,1.85125 2.95872,1.85125 2.75626,0 3.49885,-0.46464 2.95872,-1.85125 z m 69.47115,-0.30855 c -0.52533,-2.71522 -6.03,-3.73246 -6.03,-1.1143 0,1.00884 0.70471,2.11436 1.56604,2.45673 3.19457,1.26983 4.87178,0.76546 4.46396,-1.34243 z m 29.67559,-0.30854 c 0,-2.67658 -4.88773,-2.30787 -5.41882,0.40877 -0.34262,1.7526 0.21611,2.16823 2.48851,1.85125 1.61168,-0.22483 2.93031,-1.24183 2.93031,-2.26002 z m 9.84928,0.61709 c -0.39664,-1.01819 -1.50649,-1.85126 -2.46635,-1.85126 -0.95985,0 -1.7452,0.83307 -1.7452,1.85126 0,1.01863 1.10925,1.85125 2.46634,1.85125 1.67757,0 2.23571,-0.59205 1.74521,-1.85125 z m 67.21109,0.0135 c -1.56483,-1.8574 -3.76994,-1.4618 -3.76994,0.67635 0,0.63873 1.19658,1.16133 2.65905,1.16133 2.21282,0 2.39926,-0.3084 1.11089,-1.83767 z m 30.05641,-0.63061 c 0,-1.81012 -0.83522,-2.46834 -3.13207,-2.46834 -2.94791,0 -4.19874,2.24035 -2.29684,4.11389 1.86927,1.84143 5.42891,0.76247 5.42891,-1.64555 z m 38.21125,-0.0169 c 0,-2.64545 -3.64031,-2.26335 -4.16831,0.43752 -0.32243,1.64934 0.18781,2.15198 1.86209,1.83436 1.26842,-0.24064 2.30622,-1.26299 2.30622,-2.27188 z m -573.72766,-3.79316 c 0.46296,-0.73794 0.23823,-1.93623 -0.49939,-2.66287 -1.5634,-1.54011 -5.63049,1.09504 -4.49166,2.91025 0.95357,1.51992 3.97627,1.37011 4.99105,-0.24738 z m 22.3957,-2.50065 c -0.96133,-1.53229 -3.97953,-1.36493 -5.01015,0.27783 -1.22237,1.94837 2.16884,3.70077 4.10245,2.11991 0.87684,-0.71687 1.2853,-1.79586 0.9077,-2.39774 z m 17.0009,0.6841 c 0,-2.03647 -1.98002,-2.38054 -3.13207,-0.54425 -1.02169,1.62851 0.47634,3.93955 1.96581,3.03271 0.64145,-0.39054 1.16626,-1.51034 1.16626,-2.48846 z m 30.402645,-0.70813 c -0.780548,-0.76892 -2.443677,-1.00694 -3.695842,-0.52894 -2.170139,0.82844 -2.162575,0.95182 0.16166,2.63684 2.864313,2.07656 5.927382,0.24965 3.534182,-2.1079 z m 18.236301,0.98723 c 0.234359,-1.19044 -0.39444,-2.05752 -1.492098,-2.05752 -2.327423,0 -3.732124,2.01188 -2.630587,3.76766 1.133218,1.80628 3.634674,0.76865 4.122685,-1.71014 z m 10.870376,0.42772 c 0,-2.1971 -4.132427,-3.22762 -5.912205,-1.47435 -0.693635,0.6833 -0.862436,1.8779 -0.375116,2.65465 1.245361,1.98504 6.287321,1.03853 6.287321,-1.1803 z m 10.413304,-0.33961 c 0.310692,-1.58924 -0.41654,-2.14563 -2.80447,-2.14563 -3.062783,0 -4.313957,2.21733 -2.345414,4.15655 1.508555,1.48609 4.710683,0.23572 5.149884,-2.01092 z m 47.216775,-0.91146 c -0.606148,-0.96616 -1.3268347,-1.03785 -2.1620598,-0.21506 -0.6890553,0.67879 -0.8436643,1.88631 -0.3435955,2.68339 0.6061481,0.96616 1.3268347,1.03785 2.1620503,0.21507 0.689065,-0.6788 0.843674,-1.88632 0.343605,-2.6834 z m 20.715718,1.79895 c 1.987426,-2.35903 0.03999,-4.69516 -2.966636,-3.55862 -2.127662,0.80429 -2.762285,3.15309 -1.253509,4.63939 1.304144,1.28474 2.48125,0.98327 4.220145,-1.08078 z m 9.557824,-0.0306 c 1.044187,-2.68056 -1.606677,-5.20141 -3.504099,-3.33225 -1.60367,1.57974 -0.610188,5.26642 1.419183,5.26642 0.732303,0 1.67052,-0.87039 2.084916,-1.93422 z m 97.582357,0.59252 c 1.29106,-2.05788 -1.61265,-4.41772 -3.34094,-2.71517 -1.44567,1.42408 -0.54087,4.05682 1.39423,4.05682 0.60773,0 1.48374,-0.60376 1.94671,-1.3417 z m 69.30021,-0.31456 c 0.76744,-0.91095 1.0244,-2.0217 0.57101,-2.46834 -1.50643,-1.48406 -6.67088,-0.83879 -6.67088,0.83342 0,3.46819 3.71623,4.46419 6.09987,1.63486 z m 30.85855,-0.78047 c 0,-2.70599 -4.05592,-4.55537 -5.91645,-2.69771 -1.30105,1.29905 -1.14118,1.93199 0.85448,3.38286 2.78002,2.0211 5.06197,1.71224 5.06197,-0.68515 z m 115.26016,-0.56279 c 0,-2.73831 -1.7717,-3.58857 -4.25425,-2.0417 -2.36882,1.47602 -0.71732,5.33346 2.05801,4.80694 1.20793,-0.22916 2.19624,-1.47352 2.19624,-2.76524 z m 20.43593,0.85385 c -0.62893,-3.21715 -4.77558,-3.57594 -4.77558,-0.4132 0,1.7662 0.8046,2.55882 2.59751,2.55882 1.79293,0 2.4676,-0.66462 2.17807,-2.14562 z m -529.71043,-0.93981 c 0,-1.02847 -1.11363,-1.85125 -2.50566,-1.85125 -1.39203,0 -2.50566,0.82278 -2.50566,1.85125 0,1.02847 1.11363,1.85125 2.50566,1.85125 1.39203,0 2.50566,-0.82278 2.50566,-1.85125 z m 21.29807,0 c 0,-1.15188 -1.18322,-1.85125 -3.13207,-1.85125 -1.94884,0 -3.13207,0.69937 -3.13207,1.85125 0,1.15189 1.18323,1.85125 3.13207,1.85125 1.94885,0 3.13207,-0.69936 3.13207,-1.85125 z m 18.98034,0 c 0,-0.64485 -0.60606,-1.37147 -1.34679,-1.6147 -0.74073,-0.24325 -1.34679,0.48337 -1.34679,1.6147 0,1.13133 0.60606,1.85795 1.34679,1.6147 0.74073,-0.24323 1.34679,-0.96984 1.34679,-1.6147 z m 18.291872,0.30854 c -0.78931,-2.33528 -4.698692,-2.66728 -4.698692,-0.39903 0,1.14486 1.07117,1.94174 2.61006,1.94174 1.530921,0 2.394474,-0.63784 2.088632,-1.54271 z m 10.335244,-0.30854 c 0,-1.02847 -1.113624,-1.85125 -2.505655,-1.85125 -1.392031,0 -2.505656,0.82278 -2.505656,1.85125 0,1.02847 1.113625,1.85125 2.505656,1.85125 1.392031,0 2.505655,-0.82278 2.505655,-1.85125 z m 58.882907,0.68992 c 0,-1.45614 -2.443455,-3.01384 -3.340881,-2.12979 -0.897415,0.88406 0.683834,3.29112 2.16199,3.29112 0.648394,0 1.178891,-0.52259 1.178891,-1.16133 z m 9.101083,0.42359 c 1.219181,-1.20103 -0.454767,-4.19893 -2.344573,-4.19893 -0.959856,0 -1.745199,1.11075 -1.745199,2.46834 0,2.32342 2.439918,3.35587 4.089772,1.73059 z m 10.9441621,-1.204 c 0,-1.14931 -0.8523839,-1.77891 -2.0886244,-1.54271 -3.1430647,0.60049 -3.5746387,3.48445 -0.5214267,3.48445 1.5388833,0 2.6100511,-0.79688 2.6100511,-1.94174 z m 10.4293605,1.12967 c 1.1291286,-1.1123 -1.5673878,-4.1246 -3.6922038,-4.1246 -0.9492225,0 -1.7258455,1.11075 -1.7258455,2.46834 0,2.4012 3.55780048,3.48879 5.4180493,1.65626 z m 17.5122274,-1.02228 c 0.135877,-0.66949 -0.739569,-1.40444 -1.945411,-1.63321 -1.371345,-0.26016 -2.192449,0.34517 -2.192449,1.61631 0,2.1472 3.702477,2.16231 4.13786,0.0169 z m 28.623587,-0.0169 c 0,-0.64485 -0.606058,-1.37147 -1.346789,-1.6147 -0.740732,-0.24327 -1.34679,0.48335 -1.34679,1.61468 0,1.13133 0.606058,1.85795 1.34679,1.6147 0.740731,-0.24323 1.346789,-0.96984 1.346789,-1.6147 z m 11.087526,0 c 0,-1.96137 -4.400332,-2.5894 -5.529731,-0.78922 -0.925178,1.47467 0.502184,2.64047 3.232887,2.64047 1.263262,0 2.296844,-0.83306 2.296844,-1.85125 z m 12.221346,0.30854 c -0.793491,-2.37354 -5.957206,-2.71539 -5.957206,-0.3944 0,1.26012 1.131093,1.93709 3.236465,1.93709 2.029029,0 3.044071,-0.57555 2.720741,-1.54271 z m 7.197485,-2.15981 c -0.606148,-0.96616 -1.326834,-1.03785 -2.16206,-0.21506 -0.689055,0.67879 -0.843664,1.88631 -0.343595,2.6834 0.606148,0.96615 1.326835,1.03784 2.16205,0.21506 0.689065,-0.6788 0.843674,-1.88632 0.343605,-2.6834 z m 8.837257,2.36081 c 0.462975,-0.73795 0.350582,-1.82558 -0.249733,-2.41695 -1.481695,-1.45963 -4.742735,0.6651 -3.662778,2.3865 1.094401,1.74439 2.828745,1.7579 3.912511,0.0305 z m 11.595903,-0.8181 c -0.232224,-1.18789 -1.534332,-2.1598 -2.89357,-2.1598 -1.359248,0 -2.661347,0.97191 -2.893571,2.1598 -0.316254,1.61769 0.410045,2.15979 2.893571,2.15979 2.483524,0 3.20982,-0.5421 2.89357,-2.15979 z m 11.2011,6.5e-4 c 0.685,-2.02666 -3.24041,-3.47336 -4.92408,-1.81477 -0.72051,0.70978 -0.91194,1.92503 -0.42539,2.70055 1.10694,1.76438 4.65215,1.17736 5.34947,-0.88578 z m 7.82982,0.23506 c 0,-1.05826 -0.56378,-1.58086 -1.25283,-1.16134 -0.68906,0.41952 -1.25283,1.28536 -1.25283,1.92409 0,0.63874 0.56377,1.16133 1.25283,1.16133 0.68905,0 1.25283,-0.86584 1.25283,-1.92408 z m 10.02262,0.0729 c 0,-1.01819 -0.84566,-1.85125 -1.87924,-1.85125 -1.03359,0 -1.87925,0.83306 -1.87925,1.85125 0,1.01819 0.84566,1.85125 1.87925,1.85125 1.03358,0 1.87924,-0.83306 1.87924,-1.85125 z m 29.22178,1.03918 c 0.45339,-0.44665 0.19067,-1.56423 -0.58383,-2.48355 -1.05776,-1.25554 -1.83105,-1.32578 -3.10742,-0.28226 -0.93457,0.76408 -1.39027,1.88167 -1.01265,2.48355 0.80522,1.28348 3.52206,1.4465 4.7039,0.28226 z m 10.64736,-2.06708 c 0.27312,-1.38729 -0.44104,-2.0575 -2.19245,-2.0575 -1.42863,0 -2.59751,0.7405 -2.59751,1.64555 0,3.77995 4.0582,4.12898 4.78996,0.41197 z m 9.56405,1.73026 c 0.92653,-1.4768 -1.43025,-2.94007 -3.099,-1.92409 -1.40111,0.853 -0.4813,3.07295 1.27326,3.07295 0.60773,0 1.4293,-0.517 1.82574,-1.14889 z m 8.19689,-0.70239 c 0,-1.01819 -0.5305,-1.85125 -1.17889,-1.85125 -1.57979,0 -2.71124,1.92727 -1.71032,2.91328 1.41092,1.3899 2.88921,0.8465 2.88921,-1.06203 z m 10.35391,1.11351 c 1.38213,-1.36154 -0.57553,-4.19893 -2.89704,-4.19893 -2.63712,0 -4.20744,1.89264 -3.07198,3.70251 0.84627,1.34889 4.77222,1.6754 5.96902,0.49642 z m 19.71395,-2.42051 c 0,-2.03647 -1.98002,-2.38054 -3.13207,-0.54425 -1.02169,1.62851 0.47634,3.93955 1.96581,3.03271 0.64144,-0.39053 1.16626,-1.51034 1.16626,-2.48846 z m 8.83597,1.307 c -0.0982,-1.83186 -2.90107,-1.49532 -3.55133,0.4264 -0.35126,1.0381 0.22146,1.50074 1.5278,1.23417 1.14934,-0.23451 2.05993,-0.98178 2.02353,-1.66057 z m 20.69535,-2.79119 c -0.41691,-0.41073 -1.44864,-0.0665 -2.29272,0.76507 -1.21103,1.19299 -1.14056,1.75441 0.33409,2.6621 1.33127,0.81944 1.9907,0.59938 2.29272,-0.76507 0.23318,-1.05345 0.0828,-2.2514 -0.33409,-2.6621 z m 10.55917,1.48419 c 0,-0.97814 -0.84565,-1.77842 -1.87924,-1.77842 -1.88705,0 -2.57541,2.60532 -1.07808,4.08035 1.16919,1.15177 2.95732,-0.24007 2.95732,-2.30193 z m 9.71001,1.61554 c -0.78932,-2.33528 -4.69869,-2.66728 -4.69869,-0.39903 0,1.14486 1.07116,1.94174 2.61005,1.94174 1.53093,0 2.39448,-0.63784 2.08864,-1.54271 z m 11.58807,-0.39438 c 0,-1.28642 -0.9139,-1.80461 -2.72073,-1.54271 -4.01093,0.58139 -4.4405,3.4798 -0.51574,3.4798 2.10537,0 3.23647,-0.67697 3.23647,-1.93709 z m 8.14338,-0.32554 c 0,-2.2322 -2.45216,-1.82469 -2.93852,0.48833 -0.27059,1.28689 0.19905,1.85108 1.25283,1.50505 0.92713,-0.30444 1.68569,-1.20147 1.68569,-1.99338 z m 9.15607,0.9359 c -0.2469,-0.7297 -0.9845,-1.32673 -1.63911,-1.32673 -0.6546,0 -1.3922,0.59703 -1.63911,1.32673 -0.24692,0.7297 0.49068,1.32673 1.63911,1.32673 1.14844,0 1.88603,-0.59703 1.63911,-1.32673 z m 10.26276,-0.52452 c 0,-1.02847 -1.11363,-1.85125 -2.50566,-1.85125 -2.49593,0 -3.25875,1.31505 -1.67043,2.87972 1.52586,1.50313 4.17609,0.85044 4.17609,-1.02847 z m 9.8088,-1.05189 c 0.31875,-1.63043 -0.19538,-2.13689 -1.85046,-1.82289 -1.26051,0.23913 -2.49046,1.45076 -2.73321,2.69249 -0.31875,1.63044 0.19538,2.13691 1.85047,1.82291 1.2605,-0.23914 2.49045,-1.45076 2.7332,-2.69251 z m 8.74348,1.57641 c -0.2469,-0.7297 -0.9845,-1.32673 -1.63911,-1.32673 -0.6546,0 -1.3922,0.59703 -1.63911,1.32673 -0.24692,0.7297 0.49068,1.32673 1.63911,1.32673 1.14844,0 1.88603,-0.59703 1.63911,-1.32673 z m 8.31738,-1.24701 c -0.40337,-0.64297 -1.26742,-0.84391 -1.92011,-0.44652 -0.65268,0.39736 -0.85666,1.24854 -0.45327,1.8915 0.40337,0.64297 1.26742,0.84391 1.9201,0.44653 0.65269,-0.39737 0.85667,-1.24855 0.45328,-1.89151 z m 10.71517,0.92819 c 0,-2.32132 -1.20563,-3.2315 -3.25455,-2.45696 -2.66485,1.00737 -2.09983,4.10251 0.7489,4.10251 1.37811,0 2.50565,-0.7405 2.50565,-1.64555 z m 21.29808,-0.29154 c 0,-1.28642 -0.9139,-1.80461 -2.72074,-1.54271 -4.01092,0.58139 -4.44049,3.4798 -0.51573,3.4798 2.10537,0 3.23647,-0.67697 3.23647,-1.93709 z m 18.79241,0.0858 c 0,-1.01819 -0.81238,-1.85125 -1.8053,-1.85125 -2.09304,0 -3.50593,1.7615 -2.33674,2.91328 1.49733,1.47509 4.14204,0.79698 4.14204,-1.06197 z m 10.91138,-0.15648 c 0.52939,-1.56645 -3.03748,-3.29192 -4.70558,-2.27634 -0.59678,0.36334 -0.75685,1.50316 -0.35571,2.53294 0.81239,2.08553 4.33003,1.90719 5.06129,-0.2566 z m 10.92537,0.9134 c 1.13884,-1.81521 -2.92826,-4.45035 -4.49166,-2.91024 -0.73763,0.72664 -0.96235,1.92492 -0.49937,2.66287 1.01478,1.61749 4.03747,1.76731 4.99103,0.24737 z m 8.23112,-2.06386 c 0,-0.97814 -0.56377,-1.77842 -1.25283,-1.77842 -0.68905,0 -1.25283,1.14353 -1.25283,2.54117 0,1.39765 0.56378,2.19794 1.25283,1.77842 0.68906,-0.41952 1.25283,-1.56305 1.25283,-2.54117 z m 8.76979,1.30698 c 0,-1.01819 -0.84565,-1.85125 -1.87924,-1.85125 -1.03358,0 -1.87924,0.83306 -1.87924,1.85125 0,1.01819 0.84566,1.85125 1.87924,1.85125 1.03359,0 1.87924,-0.83306 1.87924,-1.85125 z m 10.02263,0 c 0,-1.01819 -0.84566,-1.85125 -1.87925,-1.85125 -1.03358,0 -1.87924,0.83306 -1.87924,1.85125 0,1.01819 0.84566,1.85125 1.87924,1.85125 1.03359,0 1.87925,-0.83306 1.87925,-1.85125 z m 8.76979,0 c 0,-1.01819 -0.84566,-1.85125 -1.87924,-1.85125 -1.03358,0 -1.87924,0.83306 -1.87924,1.85125 0,1.01819 0.84566,1.85125 1.87924,1.85125 1.03358,0 1.87924,-0.83306 1.87924,-1.85125 z m 11.27545,-0.0904 c 0,-1.14931 -0.85238,-1.7789 -2.08862,-1.54271 -3.14307,0.60047 -3.57464,3.48443 -0.52143,3.48443 1.53888,0 2.61005,-0.79688 2.61005,-1.94174 z m -520.163663,-0.61921 c -0.246911,-0.7297 -0.984513,-1.32673 -1.639115,-1.32673 -0.654603,0 -1.392205,0.59703 -1.639116,1.32673 -0.246912,0.7297 0.490689,1.32674 1.639116,1.32674 1.148426,0 1.886028,-0.59704 1.639115,-1.32674 z m 216.979333,-0.52452 c 0,-1.01819 -0.81238,-1.85125 -1.8053,-1.85125 -2.09304,0 -3.50593,1.7615 -2.33674,2.91328 1.49733,1.47503 4.14204,0.79692 4.14204,-1.06203 z m -279.3806,-5.00951 c 0,-1.8142 -2.67464,-2.43472 -4.16522,-0.96634 -1.13297,1.11609 1.6748,4.261 3.05435,3.42108 0.61098,-0.37197 1.11087,-1.47661 1.11087,-2.45474 z m 156.603479,0.0729 c 0,-2.10828 -3.849499,-3.48943 -5.41828,-1.94402 -0.819179,0.80697 -0.716868,1.84421 0.30109,3.05252 1.73256,2.05653 5.11719,1.32335 5.11719,-1.10848 z M 427.559,632.94233 c 0,-0.99961 -0.98661,-2.00462 -2.19245,-2.23339 -1.53828,-0.29184 -2.19245,0.37455 -2.19245,2.23339 0,1.85884 0.65417,2.52522 2.19245,2.23338 1.20584,-0.22876 2.19245,-1.23378 2.19245,-2.23338 z m -576.9272,-0.65585 c 0,-1.03949 -0.88356,-2.22399 -1.96346,-2.63221 -2.35624,-0.89071 -4.92569,1.29335 -3.74173,3.1805 1.27626,2.03428 5.70519,1.60865 5.70519,-0.54829 z m 9.75653,-0.74578 c 0.45755,-2.3405 -3.36783,-4.15145 -5.12107,-2.42432 -1.8104,1.78343 0.0485,5.30318 2.55012,4.82859 1.20002,-0.22766 2.35694,-1.30958 2.57095,-2.40427 z m 19.0585,0.85735 c 0,-0.97812 -0.61289,-2.15156 -1.36198,-2.60763 -1.76902,-1.07703 -4.18369,1.30168 -3.09038,3.04435 1.22805,1.95741 4.45236,1.64116 4.45236,-0.43672 z m 9.34271,0.62953 c 0.92652,-1.4768 -1.43026,-2.94007 -3.099,-1.92409 -1.40112,0.85303 -0.4813,3.07298 1.27326,3.07298 0.60772,0 1.42931,-0.51701 1.82574,-1.14889 z m 9.44971,-0.62953 c 0,-0.97812 -0.61289,-2.15156 -1.36198,-2.60763 -1.76903,-1.07703 -4.1837,1.30168 -3.09038,3.04435 1.22804,1.95741 4.45236,1.64116 4.45236,-0.43672 z m 10.649039,-0.0729 c 0,-0.67879 -1.268488,-1.41164 -2.818863,-1.62854 -1.939588,-0.2714 -2.818862,0.2366 -2.818862,1.62852 0,1.39191 0.879274,1.89992 2.818862,1.62855 1.550375,-0.21691 2.818863,-0.94976 2.818863,-1.62855 z m 8.143381,0 c 0,-1.01819 -0.530501,-1.85125 -1.17889,-1.85125 -1.579788,0 -2.711239,1.92726 -1.710316,2.91328 1.410915,1.38988 2.889206,0.84648 2.889206,-1.06205 z m 9.463675,0.50955 c 0.462964,-0.73794 0.350581,-1.82557 -0.249743,-2.41694 -1.481696,-1.45963 -4.742734,0.6651 -3.662776,2.38649 1.094403,1.74441 2.82875,1.7579 3.912519,0.0305 z m 11.521561,-0.81743 c 0.684996,-2.02668 -3.240416,-3.47338 -4.92409,-1.81477 -0.720511,0.70976 -0.911937,1.92501 -0.425393,2.70054 1.106938,1.76438 4.652149,1.17736 5.349483,-0.88577 z m 10.022623,0 c 0.684996,-2.02668 -3.240414,-3.47338 -4.924095,-1.81477 -0.720506,0.70976 -0.911928,1.92501 -0.42539,2.70054 1.106939,1.76438 4.652151,1.17736 5.349485,-0.88577 z m 9.776507,0.81743 c 0.462965,-0.73794 0.238247,-1.93622 -0.499378,-2.66286 -1.563398,-1.54012 -5.630488,1.09502 -4.491668,2.91024 0.953572,1.51993 3.976275,1.37011 4.991046,-0.24738 z m 17.523643,0.0255 c 1.153032,-1.83787 -0.183825,-2.8371 -2.582539,-1.93033 -1.106979,0.41846 -1.661791,1.32013 -1.232933,2.00372 1.015512,1.61866 2.775144,1.58481 3.815472,-0.0735 z m 11.537732,-0.22646 c -0.789321,-2.33528 -4.698695,-2.66729 -4.698695,-0.39903 0,1.14485 1.071167,1.94174 2.610051,1.94174 1.530935,0 2.394484,-0.63785 2.088644,-1.54271 z m 8.8610609,-1.33645 c 0.2731265,-1.3873 -0.4410355,-2.05751 -2.1924487,-2.05751 -1.4286246,0 -2.5975129,0.7405 -2.5975129,1.64555 0,3.77995 4.0581999,4.12897 4.7899616,0.41196 z m 9.7041336,1.50701 c 1.0799476,-1.7214 -2.1810931,-3.84612 -3.6627874,-2.3865 -1.20512016,1.18718 -0.0441,3.75865 1.6969703,3.75865 0.6077217,0 1.4923384,-0.61747 1.9658071,-1.37215 z m 10.0035095,0.0305 c 0.462975,-0.73794 0.238247,-1.93622 -0.499377,-2.66286 -1.563399,-1.54013 -5.6304893,1.09502 -4.491659,2.91024 0.953563,1.51993 3.976265,1.37011 4.991036,-0.24738 z m 31.879646,-1.29747 c 0,-1.8938 -3.823931,-2.72676 -5.398264,-1.17588 -1.126573,1.1098 -1.060073,1.69983 0.28382,2.51803 1.982816,1.20719 5.114444,0.38537 5.114444,-1.34215 z m 8.194897,1.32284 c 1.153033,-1.83787 -0.183824,-2.8371 -2.582539,-1.93033 -1.106978,0.41846 -1.661791,1.32012 -1.232933,2.00371 1.015513,1.61867 2.775144,1.58481 3.815472,-0.0734 z m 9.344693,-1.15207 c 0,-1.64555 -0.835226,-2.46833 -2.505656,-2.46833 -2.41444,0 -3.395043,2.41498 -1.67043,4.11389 1.724592,1.69892 4.176086,0.73292 4.176086,-1.64556 z m 10.022622,0.61709 c 0,-1.01819 -0.812384,-1.85126 -1.805305,-1.85126 -2.093034,0 -3.505923,1.76151 -2.336734,2.91328 1.49733,1.47503 4.142039,0.79692 4.142039,-1.06202 z m 29.508917,0.50955 c 0.46297,-0.73794 0.23825,-1.93623 -0.49938,-2.66287 -1.5634,-1.54011 -5.630487,1.09503 -4.491658,2.91025 0.953558,1.51992 3.976268,1.3701 4.991038,-0.24738 z m 9.86742,-2.50065 c -1.06755,-1.70159 -4.29716,-1.28731 -4.29716,0.55123 0,0.90507 0.37096,2.01099 0.82435,2.45764 1.13297,1.1161 4.32542,-1.64986 3.47281,-3.00887 z m 8.23112,1.9911 c 0,-1.01819 -0.84566,-1.85126 -1.87924,-1.85126 -1.03359,0 -1.87924,0.83307 -1.87924,1.85126 0,1.01819 0.84565,1.85125 1.87924,1.85125 1.03358,0 1.87924,-0.83306 1.87924,-1.85125 z m 11.27545,0.0831 c 0,-2.22931 -4.83829,-3.83269 -6.53165,-2.16455 -1.87127,1.84337 -0.026,3.93262 3.47352,3.93262 1.81918,0 3.05813,-0.71631 3.05813,-1.76808 z m 9.30847,0.67376 c 0.94298,-1.50306 -2.62468,-4.24352 -4.24229,-3.25867 -2.21885,1.3509 -1.44366,4.35299 1.12401,4.35299 1.33745,0 2.74068,-0.49244 3.11828,-1.09432 z m 19.49426,-0.74233 c 1.25642,-1.49133 1.15165,-1.98622 -0.55722,-2.6322 -2.46839,-0.93312 -5.10031,1.18658 -3.88283,3.12715 1.1561,1.84275 2.60685,1.68103 4.44005,-0.49495 z m 18.80473,-0.0146 c 0,-1.01819 -0.5305,-1.85125 -1.1789,-1.85125 -1.57978,0 -2.71123,1.92726 -1.71032,2.91328 1.41093,1.3899 2.88922,0.8465 2.88922,-1.06203 z m 21.92448,-0.63399 c 0,-1.00889 -1.26849,-2.01182 -2.81886,-2.22873 -2.7422,-0.38365 -3.91317,1.9904 -1.94033,3.93385 1.45958,1.43784 4.75919,0.25568 4.75919,-1.70512 z m 10.33619,0.3261 c 0.685,-2.02667 -3.24041,-3.47337 -4.92408,-1.81477 -0.72051,0.70977 -0.91194,1.92502 -0.42539,2.70055 1.10694,1.76437 4.65215,1.17735 5.34947,-0.88578 z m 7.82982,0.38072 c 0,-1.99202 -1.77438,-3.46725 -2.87101,-2.38696 -0.97768,0.96312 0.3694,4.16538 1.75222,4.16538 0.61533,0 1.11879,-0.80028 1.11879,-1.77842 z m 9.3962,-0.77586 c 0,-0.95233 -0.9866,-1.91868 -2.19244,-2.14745 -2.15956,-0.40969 -3.05231,2.20911 -1.33114,3.90467 1.31323,1.29365 3.52358,0.19135 3.52358,-1.75722 z m 20.67166,-0.60398 c 0,-0.97813 -0.84566,-1.77841 -1.87924,-1.77841 -1.88705,0 -2.57541,2.60532 -1.07808,4.08035 1.16919,1.15177 2.95732,-0.24007 2.95732,-2.30194 z m 11.27545,1.37985 c 0,-2.41297 -2.42844,-3.728 -4.00905,-2.17093 -0.70678,0.69626 -0.90628,1.8697 -0.44331,2.60764 1.22804,1.95741 4.45236,1.64116 4.45236,-0.43672 z m 10.02263,-0.16333 c 0,-1.14931 -0.85239,-1.7789 -2.08863,-1.54271 -3.14306,0.60049 -3.57463,3.48445 -0.52143,3.48445 1.53889,0 2.61006,-0.79689 2.61006,-1.94174 z m 18.79241,-0.5266 c 0,-1.35758 -0.49474,-2.46833 -1.09943,-2.46833 -1.64289,0 -4.01422,3.19029 -3.0658,4.1246 1.71517,1.68962 4.16523,0.71538 4.16523,-1.65627 z m 8.21085,1.12664 c 0.46297,-0.73794 0.19088,-1.98289 -0.60464,-2.76656 -1.09332,-1.07703 -1.71932,-0.98985 -2.56441,0.35714 -1.19407,1.90331 -0.59195,3.75112 1.22234,3.75112 0.60772,0 1.48374,-0.60376 1.94671,-1.3417 z M 310.4196,632.398 c 0,-0.97812 -0.58847,-2.13669 -1.3077,-2.57458 -1.6176,-0.98484 -5.18527,1.75562 -4.24229,3.25868 1.122,1.78839 5.54999,1.24261 5.54999,-0.6841 z m 11.27545,-0.0729 c 0,-1.02847 -1.11362,-1.85125 -2.50566,-1.85125 -1.39203,0 -2.50565,0.82278 -2.50565,1.85125 0,1.02848 1.11362,1.85125 2.50565,1.85125 1.39204,0 2.50566,-0.82277 2.50566,-1.85125 z m 7.51697,0 c 0,-1.01819 -0.56378,-1.85125 -1.25283,-1.85125 -0.68906,0 -1.25283,0.83306 -1.25283,1.85125 0,1.01819 0.56377,1.85125 1.25283,1.85125 0.68905,0 1.25283,-0.83306 1.25283,-1.85125 z m 9.39621,-0.70303 c 0,-0.95232 -0.98661,-1.91867 -2.19245,-2.14744 -2.15956,-0.40969 -3.05231,2.2091 -1.33114,3.90467 1.31324,1.29365 3.52359,0.19135 3.52359,-1.75723 z m 10.64903,-0.60398 c 0,-2.09428 -3.22842,-2.38761 -4.47146,-0.40626 -0.94444,1.50538 1.86929,3.76897 3.47202,2.79317 0.54969,-0.33469 0.99944,-1.4088 0.99944,-2.38693 z m 9.10108,2.42052 c 1.21919,-1.20105 -0.45476,-4.19895 -2.34457,-4.19895 -0.95984,0 -1.7452,0.7405 -1.7452,1.64555 0,2.73348 2.39137,4.22648 4.08977,2.55338 z m 9.53864,-0.37733 c 2.23949,-1.39737 0.69997,-3.82162 -2.42689,-3.82162 -2.3542,0 -3.2996,2.43616 -1.5965,4.11389 1.09219,1.07593 1.92785,1.01522 4.02339,-0.2923 z m 10.80173,-1.35324 c 0,-2.67657 -4.88773,-2.30787 -5.41882,0.40877 -0.34262,1.7526 0.21611,2.16824 2.48851,1.85125 1.61168,-0.22482 2.93031,-1.24183 2.93031,-2.26002 z m 17.62616,1.09619 c 1.07996,-1.7214 -2.18108,-3.84612 -3.66278,-2.38649 -1.20512,1.18717 -0.0441,3.75864 1.69697,3.75864 0.60772,0 1.49234,-0.61747 1.96581,-1.37215 z m 11.13537,0.22326 c 0.92653,-1.4768 -1.43024,-2.94007 -3.09899,-1.92409 -1.40111,0.85303 -0.4813,3.07298 1.27326,3.07298 0.60772,0 1.4293,-0.51701 1.82573,-1.14889 z m 10.70255,-0.70236 c 0,-1.02847 -1.11362,-1.85125 -2.50565,-1.85125 -2.49594,0 -3.25876,1.31505 -1.67044,2.87972 1.52586,1.50312 4.17609,0.85044 4.17609,-1.02847 z m 17.53959,-0.0729 c 0,-1.05825 -0.56377,-1.58085 -1.25283,-1.16133 -0.68905,0.41952 -1.25283,1.28536 -1.25283,1.9241 0,0.63873 0.56378,1.16132 1.25283,1.16132 0.68906,0 1.25283,-0.86584 1.25283,-1.92409 z m 10.02262,0.0341 c 0,-1.97057 -3.32954,-3.88064 -4.59371,-2.63531 -0.39992,0.39398 -0.3933,1.57334 0.0148,2.6208 0.9608,2.46651 4.57898,2.47796 4.57898,0.0146 z m 9.30847,0.79565 c 0.37762,-0.60188 -0.19585,-1.81577 -1.27437,-2.69752 -1.61545,-1.32074 -2.15027,-1.30139 -3.03561,0.10984 -0.59107,0.94213 -0.79671,2.15601 -0.45699,2.69751 0.83014,1.3232 3.91249,1.25221 4.76697,-0.10972 z m -488.515102,-1.37394 c 1.349115,-2.1504 -0.650578,-3.98498 -2.603406,-2.38842 -0.964648,0.78866 -1.444962,1.92639 -1.067339,2.52827 0.913912,1.45671 2.712081,1.3882 3.670745,-0.13985 z M 36.050311,631.091 c 0,-1.96137 -4.400332,-2.5894 -5.529731,-0.78923 -0.925178,1.47468 0.502183,2.64048 3.232887,2.64048 1.263261,0 2.296844,-0.83306 2.296844,-1.85125 z m 48.860285,0 c 0,-1.01819 -0.530498,-1.85125 -1.178891,-1.85125 -1.579786,0 -2.71124,1.92726 -1.710321,2.91328 1.410925,1.3899 2.889212,0.8465 2.889212,-1.06203 z m 8.769794,0.68992 c 0,-1.45614 -2.443455,-3.01384 -3.340881,-2.12979 -0.897415,0.88406 0.683834,3.29112 2.16199,3.29112 0.648394,0 1.178891,-0.52259 1.178891,-1.16133 z m 58.88291,-0.0729 c 0,-0.67879 -0.84566,-1.23416 -1.87925,-1.23416 -1.03358,0 -1.87924,0.55537 -1.87924,1.23416 0,0.6788 0.84566,1.23417 1.87924,1.23417 1.03359,0 1.87925,-0.55537 1.87925,-1.23417 z m 20.16104,-0.61708 c -0.009,-0.67879 -1.16642,-1.41164 -2.57183,-1.62855 -2.51966,-0.38888 -3.38981,1.01213 -1.67675,2.69968 1.21819,1.20007 4.26873,0.43098 4.24858,-1.07113 z m 19.65764,-0.4124 c 0.37431,-1.11877 -0.36592,-1.51437 -2.30938,-1.23417 -1.57315,0.22682 -3.10817,1.15336 -3.41115,2.05897 -0.3743,1.11877 0.36593,1.51437 2.30938,1.23417 1.57315,-0.22682 3.10817,-1.15336 3.41115,-2.05897 z m 50.38492,1.02951 c 0,-0.67879 -0.81239,-1.23416 -1.80531,-1.23416 -0.99291,0 -2.15373,0.55537 -2.57959,1.23416 -0.42586,0.6788 0.38652,1.23417 1.80531,1.23417 1.41877,0 2.57959,-0.55537 2.57959,-1.23417 z m 39.21704,-0.60018 c 0.13587,-0.66949 -0.73957,-1.40444 -1.94541,-1.63321 -1.37135,-0.26016 -2.19245,0.34517 -2.19245,1.61631 0,2.1472 3.70248,2.16231 4.13786,0.0169 z m 104.85816,0.80589 c 0,-1.60699 -1.48933,-2.67573 -2.70084,-1.93813 -1.2957,0.78887 -0.17846,2.96659 1.52194,2.96659 0.6484,0 1.1789,-0.46281 1.1789,-1.02846 z m -502.38395,-5.70026 c 0,-0.90551 -0.867,-1.97412 -1.92667,-2.37469 -2.47153,-0.93429 -4.04233,2.82091 -1.76099,4.20985 2.03447,1.23866 3.68766,0.41594 3.68766,-1.83516 z m 97.161614,1.68452 c 1.291064,-2.05789 -1.61265,-4.41772 -3.340941,-2.71517 -1.445663,1.42413 -0.540871,4.05687 1.394237,4.05687 0.607722,0 1.483739,-0.60377 1.946704,-1.3417 z m 255.242716,-2.50011 c -2.11452,-2.08303 -4.62723,-0.10071 -2.72875,2.15273 1.04839,1.24442 1.91105,1.39974 2.81706,0.50722 0.90602,-0.89252 0.87897,-1.70708 -0.0883,-2.65995 z m 196.0214,1.68266 c 0.68499,-2.02666 -3.24042,-3.47336 -4.92409,-1.81477 -0.7205,0.70978 -0.91193,1.92503 -0.42539,2.70055 1.10694,1.76438 4.65215,1.17736 5.34948,-0.88578 z m -587.67603,-3.29084 c -0.43191,-1.10879 -1.55554,-1.60714 -2.67201,-1.18509 -2.31815,0.87631 -2.54609,3.73731 -0.36063,4.52671 2.21368,0.79959 3.91538,-1.07549 3.03264,-3.34162 z m 28.60126,1.73058 c 0,-2.64545 -3.6403,-2.26335 -4.16831,0.43751 -0.32243,1.64935 0.18781,2.15199 1.86209,1.83436 1.26842,-0.24064 2.30622,-1.26298 2.30622,-2.27187 z m 19.82489,0.75465 c 0.84479,-2.16873 -0.16488,-3.20609 -3.12052,-3.20609 -2.24454,0 -3.12426,2.47603 -1.46163,4.11389 1.41818,1.39706 3.87383,0.91055 4.58215,-0.9078 z m 10.633661,-1.06046 c 0.310686,-1.58923 -0.416548,-2.14563 -2.804477,-2.14563 -3.062774,0 -4.313944,2.21733 -2.345404,4.15655 1.508553,1.48609 4.710673,0.23572 5.149881,-2.01092 z m 9.005525,0.93979 c 0,-1.01818 -0.812386,-1.85125 -1.805304,-1.85125 -2.093029,0 -3.50592,1.76151 -2.336729,2.91328 1.497325,1.47503 4.142033,0.79692 4.142033,-1.06203 z m 10.022623,0 c 0,-1.01818 -0.845659,-1.85125 -1.879242,-1.85125 -1.033583,0 -1.879242,0.83307 -1.879242,1.85125 0,1.01819 0.845659,1.85126 1.879242,1.85126 1.033583,0 1.879242,-0.83307 1.879242,-1.85126 z m 9.396208,-0.70303 c 0,-0.95232 -0.986602,-1.91868 -2.192448,-2.14744 -2.159548,-0.4097 -3.052317,2.2091 -1.33113,3.90466 1.313223,1.29366 3.523578,0.19136 3.523578,-1.75722 z m 9.258257,0.86678 c 1.083075,-1.28558 0.957762,-2.06678 -0.526107,-3.27995 -2.394535,-1.95768 -5.066596,0.10651 -3.926513,3.03324 0.927975,2.38224 2.576536,2.47359 4.45262,0.24671 z m 10.160574,-0.16375 c 0,-1.01818 -0.845659,-1.85125 -1.879241,-1.85125 -1.033583,0 -1.879242,0.83307 -1.879242,1.85125 0,1.01819 0.845659,1.85126 1.879242,1.85126 1.033582,0 1.879241,-0.83307 1.879241,-1.85126 z m 40.0904901,-1.36621 c 0,-0.94555 -1.0335829,-1.71921 -2.2968441,-1.71921 -3.143977,0 -4.210574,1.30957 -2.611996,3.20705 1.609603,1.91058 4.9088401,0.9106 4.9088401,-1.48784 z m 10.0226224,0 c 0,-0.94555 -1.127545,-1.71921 -2.50565556,-1.71921 -2.35854354,0 -3.40661924,2.40358 -1.75675524,4.02886 1.21918186,1.20103 4.2624108,-0.44799 4.2624108,-2.30965 z m 8.5559715,0.31433 c 0.31875,-1.63044 -0.195381,-2.1369 -1.8504663,-1.8229 -1.260505,0.23913 -2.4904512,1.45076 -2.7331991,2.69249 -0.3187495,1.63044 0.195371,2.13691 1.8504567,1.82291 1.2605151,-0.23913 2.4904617,-1.45076 2.7332087,-2.6925 z m 29.028863,1.25759 c 0,-0.90507 -0.370968,-2.011 -0.824351,-2.45765 -1.132967,-1.11609 -4.325423,1.64987 -3.472809,3.00888 1.06754,1.70159 4.29716,1.2873 4.29716,-0.55123 z m 11.039718,-0.50008 c -0.62893,-3.21714 -4.775579,-3.57594 -4.775579,-0.4132 0,1.76621 0.804606,2.55883 2.597513,2.55883 1.792916,0 2.467589,-0.66463 2.178066,-2.14563 z m 20.042478,-0.0142 c -0.232224,-1.18788 -1.534333,-2.15979 -2.893571,-2.15979 -1.359238,0 -2.661347,0.97191 -2.893571,2.15979 -0.316254,1.61769 0.410036,2.1598 2.893571,2.1598 2.483526,0 3.209815,-0.54211 2.893571,-2.1598 z m 10.261121,0.30859 c 0,-1.02846 -1.113623,-1.85125 -2.505655,-1.85125 -1.392032,0 -2.505656,0.82279 -2.505656,1.85125 0,1.02847 1.113624,1.85126 2.505656,1.85126 1.392032,0 2.505655,-0.82279 2.505655,-1.85126 z m 18.792416,-0.0904 c 0,-1.1493 -0.852384,-1.7789 -2.088623,-1.54271 -3.143064,0.60047 -3.574628,3.48444 -0.521427,3.48444 1.538882,0 2.61005,-0.79689 2.61005,-1.94174 z m 9.735512,-0.29518 c 0.27276,-0.8061 -0.39672,-1.4656 -1.48774,-1.4656 -1.091,0 -1.98363,0.87934 -1.98363,1.9541 0,2.17946 2.69703,1.7999 3.47137,-0.48853 z m 10.30973,-0.11667 c 0,-1.42701 -2.90261,-3.8173 -4.63546,-3.8173 -1.99958,0 -2.13144,2.71357 -0.22317,4.59341 1.40676,1.38582 4.85863,0.83443 4.85863,-0.77611 z m 9.61808,0.37774 c 1.06806,-2.74188 -2.26844,-4.55787 -4.44179,-2.41759 -0.94285,0.9285 -1.33242,2.29686 -0.8657,3.0408 1.26039,2.00897 4.42701,1.63715 5.30749,-0.62321 z m 9.71302,-1.86654 c -0.85502,-1.36284 -5.54999,-1.45336 -5.54999,-0.10699 0,0.54303 0.66311,1.64056 1.47359,2.43897 1.67245,1.64755 5.27875,-0.41551 4.0764,-2.33198 z m 9.79715,1.99109 c -0.46235,-1.82186 -4.39931,-1.50013 -5.04645,0.4124 -0.38198,1.12884 0.37303,1.5169 2.40125,1.23417 1.62712,-0.22682 2.81746,-0.96777 2.6452,-1.64657 z m 27.02765,-1.0279 c 0.23977,-1.21783 -0.39935,-2.05752 -1.56603,-2.05752 -1.16216,0 -1.9711,1.05522 -1.9711,2.57118 0,3.00774 2.92757,2.58258 3.53713,-0.51366 z m 10.24398,1.0279 c 0,-1.02846 -1.11363,-1.85125 -2.50566,-1.85125 -1.39203,0 -2.50565,0.82279 -2.50565,1.85125 0,1.02847 1.11362,1.85126 2.50565,1.85126 1.39203,0 2.50566,-0.82279 2.50566,-1.85126 z m 11.81412,-1.99109 c -1.06755,-1.7016 -4.29716,-1.28731 -4.29716,0.55122 0,0.90507 0.37097,2.011 0.82435,2.45765 1.13297,1.11609 4.32543,-1.64987 3.47281,-3.00887 z m 7.60471,1.57971 c 0,-2.23219 -2.45216,-1.82468 -2.93851,0.48834 -0.2706,1.28688 0.19904,1.85107 1.25282,1.50504 0.92713,-0.30443 1.68569,-1.20147 1.68569,-1.99338 z m 39.46407,0.48423 c 0,-1.96558 -2.27308,-3.79876 -3.37019,-2.71798 -1.03063,1.01526 0.5782,4.49639 2.07805,4.49639 0.71068,0 1.29214,-0.80029 1.29214,-1.77842 z m 31.09935,-1.10075 c 0.23437,-1.19044 -0.39443,-2.05752 -1.49209,-2.05752 -2.32742,0 -3.73212,2.01189 -2.6306,3.76766 1.13324,1.80628 3.63469,0.76865 4.12269,-1.71014 z m 9.24171,-1.07018 c -1.1693,-1.15189 -1.84907,-1.14047 -3.05896,0.0513 -1.23887,1.22046 -1.17723,1.76279 0.30274,2.66383 2.51234,1.52959 4.78875,-0.71292 2.75622,-2.71517 z m 20.42109,1.49791 c 0,-2.1971 -4.13243,-3.22762 -5.9122,-1.47435 -0.69363,0.68329 -0.86244,1.8779 -0.37513,2.65464 1.24537,1.98504 6.28733,1.03853 6.28733,-1.18029 z m 9.39621,0.60017 c 0,-1.01818 -0.84566,-1.85125 -1.87924,-1.85125 -1.03358,0 -1.87924,0.83307 -1.87924,1.85125 0,1.01819 0.84566,1.85126 1.87924,1.85126 1.03358,0 1.87924,-0.83307 1.87924,-1.85126 z m 10.49243,0.8667 c 1.10329,-1.75856 -1.41429,-4.33276 -3.47544,-3.5536 -2.83089,1.07013 -2.50532,4.53816 0.42603,4.53816 1.33745,0 2.70969,-0.44306 3.04941,-0.98456 z m 10.25354,-3.83369 c -1.26039,-2.00897 -4.42702,-1.63715 -5.30749,0.62321 -1.06807,2.74188 2.26844,4.55787 4.44179,2.41759 0.94285,-0.9285 1.33242,-2.29687 0.8657,-3.0408 z m 8.06907,2.24707 c 0,-3.00774 -2.92757,-2.58259 -3.53713,0.51366 -0.23977,1.21783 0.39935,2.05752 1.56603,2.05752 1.16216,0 1.9711,-1.05522 1.9711,-2.57118 z m 10.02262,0.79277 c 0,-2.41298 -2.42844,-3.728 -4.00905,-2.17093 -0.70678,0.69626 -0.90628,1.86969 -0.44331,2.60764 1.22803,1.95741 4.45236,1.64116 4.45236,-0.43672 z m 19.8239,-1.10075 c 0.23437,-1.19044 -0.39443,-2.05752 -1.49209,-2.05752 -2.32742,0 -3.73212,2.01189 -2.63059,3.76766 1.13323,1.80628 3.63468,0.76865 4.12268,-1.71014 z m 7.73831,-0.2791 c 0,-2.03647 -1.98001,-2.38053 -3.13207,-0.54425 -1.02169,1.62851 0.47634,3.93956 1.96581,3.03271 0.64144,-0.39053 1.16626,-1.51034 1.16626,-2.48846 z m 40.62917,2.06394 c 0.94298,-1.50306 -2.62468,-4.24352 -4.24229,-3.25868 -2.21885,1.35091 -1.44366,4.353 1.12402,4.353 1.33744,0 2.74067,-0.49245 3.11827,-1.09432 z m 29.52919,-1.37402 c 0,-2.55511 -3.02246,-3.40581 -4.3849,-1.23417 -1.04866,1.67151 0.36637,3.70251 2.5796,3.70251 0.99292,0 1.8053,-1.11075 1.8053,-2.46834 z m -597.8202,-1.64499 c 0.23436,-1.19044 -0.39443,-2.05752 -1.4921,-2.05752 -2.32742,0 -3.73212,2.01189 -2.63059,3.76766 1.13323,1.80628 3.63468,0.76865 4.12269,-1.71014 z m 107.651915,1.33645 c -0.789322,-2.33529 -4.698696,-2.66729 -4.698696,-0.39903 0,1.14485 1.071168,1.94174 2.610062,1.94174 1.530925,0 2.394474,-0.63785 2.088634,-1.54271 z m 10.335238,-0.30854 c 0,-1.01819 -0.812384,-1.85126 -1.805305,-1.85126 -2.093034,0 -3.505923,1.76151 -2.336734,2.91328 1.49733,1.47503 4.142039,0.79692 4.142039,-1.06202 z m 57.630079,-0.10282 c 0,-2.17945 -2.697037,-1.79989 -3.471375,0.48853 -0.272756,0.80606 0.396725,1.46558 1.487738,1.46558 1.090992,-4e-5 1.983637,-0.87939 1.983637,-1.95413 z m 31.007849,-0.20504 c 0.684996,-2.02666 -3.240414,-3.47337 -4.924084,-1.81477 -0.720506,0.70977 -0.911939,1.92502 -0.42539,2.70055 1.106938,1.76438 4.65215,1.17736 5.349474,-0.88578 z m 29.127886,0.30786 c 0,-1.01819 -0.812384,-1.85126 -1.805305,-1.85126 -2.093034,0 -3.505923,1.76151 -2.336734,2.91328 1.497329,1.47503 4.142039,0.79692 4.142039,-1.06202 z m 68.905533,0 c 0,-1.02847 -1.11363,-1.85126 -2.50566,-1.85126 -2.49593,0 -3.25876,1.31505 -1.67043,2.87972 1.52585,1.50313 4.17609,0.85044 4.17609,-1.02846 z m 8.76979,0.2057 c 0,-0.90507 -0.37097,-2.011 -0.82435,-2.45765 -1.13297,-1.11609 -4.32542,1.64987 -3.47281,3.00888 1.06755,1.70159 4.29716,1.2873 4.29716,-0.55123 z m 50.11311,-0.2057 c 0,-1.02847 -1.11362,-1.85126 -2.50565,-1.85126 -1.39204,0 -2.50566,0.82279 -2.50566,1.85126 0,1.02846 1.11362,1.85125 2.50566,1.85125 1.39203,0 2.50565,-0.82279 2.50565,-1.85125 z m 8.7698,0.61708 c 0,-0.67879 -0.84566,-1.23417 -1.87925,-1.23417 -1.03358,0 -1.87924,0.55538 -1.87924,1.23417 0,0.67879 0.84566,1.23417 1.87924,1.23417 1.03359,0 1.87925,-0.55538 1.87925,-1.23417 z m 67.02628,-2.46834 c -0.60613,-0.96615 -1.32683,-1.03784 -2.16205,-0.21506 -0.68906,0.67879 -0.84367,1.88631 -0.3436,2.6834 0.60614,0.96616 1.32683,1.03785 2.16205,0.21506 0.68905,-0.67879 0.84367,-1.88631 0.3436,-2.6834 z m 70.78478,1.85126 c 0,-1.01819 -0.81239,-1.85126 -1.80531,-1.85126 -2.09303,0 -3.50592,1.76151 -2.33673,2.91328 1.49733,1.47503 4.14204,0.79692 4.14204,-1.06202 z m 78.24822,0.70236 c 0.39645,-0.6319 0.12077,-1.51416 -0.61247,-1.96061 -1.85414,-1.12886 -5.30204,0.35039 -4.3508,1.86661 0.97921,1.56078 4.00706,1.61814 4.96327,0.094 z M 230.9325,621.7272 c 1.21747,-1.94056 -1.41445,-4.06026 -3.88284,-3.12716 -1.70888,0.64599 -1.81363,1.14087 -0.55723,2.63221 1.83321,2.17598 3.28397,2.33771 4.44007,0.49495 z m -302.89147,-3.42755 c -0.57802,-2.95671 -4.745221,-3.36386 -4.745221,-0.46361 0,1.29423 0.337004,2.68511 0.748898,3.09088 1.382357,1.36177 4.389653,-0.61529 3.996323,-2.62727 z m 167.910877,0.7582 c 0.310351,-1.60406 -0.411679,-2.15979 -2.806073,-2.15979 -2.424823,0 -3.223927,0.63309 -3.223927,2.55418 0,1.93992 0.674823,2.45932 2.806053,2.15979 1.543354,-0.21691 2.994119,-1.36629 3.223947,-2.55418 z m 116.120713,0.30855 c 0,-2.67658 -4.88774,-2.30788 -5.41882,0.40876 -0.34263,1.7526 0.2161,2.16824 2.4885,1.85126 1.61168,-0.22483 2.93032,-1.24183 2.93032,-2.26002 z m 9.39621,-0.68992 c 0,-2.09429 -3.22842,-2.38762 -4.47147,-0.40627 -0.94444,1.50538 1.86929,3.76896 3.47202,2.79317 0.54969,-0.33467 0.99945,-1.40878 0.99945,-2.3869 z m 80.80739,0.67301 c 0,-1.00889 -1.26849,-2.01182 -2.81886,-2.22873 -2.7422,-0.38365 -3.91318,1.9904 -1.94033,3.93385 1.45958,1.43785 4.75919,0.25568 4.75919,-1.70512 z m 8.58104,0.67352 c 0.88354,-2.26821 -1.46542,-3.84033 -3.19388,-2.13762 -1.33728,1.31737 -0.37543,3.94934 1.4433,3.94934 0.57466,0 1.36242,-0.81528 1.75059,-1.81172 z m 9.27235,0.26901 c -0.78933,-2.33528 -4.6987,-2.66728 -4.6987,-0.39903 0,1.14486 1.07117,1.94174 2.61005,1.94174 1.53094,0 2.39449,-0.63784 2.08865,-1.54271 z m 39.15027,-0.30854 c 0,-1.02847 -1.11362,-1.85125 -2.50565,-1.85125 -1.39203,0 -2.50566,0.82278 -2.50566,1.85125 0,1.02847 1.11363,1.85125 2.50566,1.85125 1.39203,0 2.50565,-0.82278 2.50565,-1.85125 z m 10.02263,-1.307 c 0,-2.09429 -3.22842,-2.38762 -4.47147,-0.40627 -0.94444,1.50538 1.86929,3.76896 3.47202,2.79317 0.54969,-0.33467 0.99945,-1.40878 0.99945,-2.3869 z m -314.612476,0.809 c 1.99364,-1.24394 0.829091,-3.82159 -1.726547,-3.82159 -2.150003,0 -3.539971,2.05387 -2.505656,3.70251 0.942728,1.50264 1.968533,1.53151 4.232203,0.1191 z m 392.287796,-1.35325 c 0,-1.35759 -0.81238,-2.46834 -1.8053,-2.46834 -2.21323,0 -3.62826,2.031 -2.5796,3.70251 1.36244,2.17164 4.3849,1.32094 4.3849,-1.23417 z"
       id="path4758"
       inkscape:connector-curvature="0" />
  </g>
  <g
     inkscape:groupmode="layer"
     id="layer1"
     inkscape:label="Layer 1"
     style="opacity:0.59" />
</svg>
